<svg width="249" height="249" viewBox="0 0 249 249" fill="none" xmlns="http://www.w3.org/2000/svg">
<g filter="url(#filter0_d_120_1017)">
<rect x="18" y="20" width="213" height="155" rx="24" fill="white"/>
<rect x="18.5" y="20.5" width="212" height="154" rx="23.5" stroke="#ECEFF2"/>
</g>
<path d="M204.778 134.454C208.664 134.941 212.239 132.183 212.411 128.27C212.854 118.205 211.567 108.121 208.59 98.4595C204.916 86.5349 198.75 75.5268 190.502 66.1643C182.253 56.8017 172.11 49.2982 160.743 44.1506C149.376 39.003 137.046 36.3288 124.568 36.305C112.09 36.2812 99.7497 38.9083 88.3635 44.0125C76.9774 49.1167 66.8054 56.5814 58.5211 65.9124C50.2369 75.2434 44.0293 86.2278 40.3095 98.1383C37.2957 107.788 35.9707 117.867 36.3747 127.934C36.5317 131.847 40.0959 134.619 43.9841 134.148C47.8723 133.676 50.6064 130.139 50.5098 126.224C50.3108 118.158 51.4334 110.098 53.8481 102.367C56.969 92.3737 62.1771 83.1578 69.1276 75.3291C76.0781 67.5004 84.6124 61.2375 94.1654 56.9551C103.718 52.6727 114.072 50.4685 124.541 50.4885C135.01 50.5084 145.355 52.7521 154.892 57.0709C164.428 61.3898 172.939 67.6852 179.859 75.5404C186.78 83.3956 191.953 92.6313 195.035 102.636C197.421 110.377 198.512 118.441 198.283 126.506C198.171 130.421 200.892 133.968 204.778 134.454Z" fill="#F3EFFE"/>
<path d="M202.691 103.612C206.477 102.607 208.758 98.7104 207.452 95.018C200.832 76.3062 188.055 60.3039 171.109 49.707C152.151 37.852 129.395 33.6491 107.454 37.9501C85.512 42.2512 66.0268 54.7344 52.9478 72.8693C41.2567 89.0797 35.4664 108.722 36.4013 128.548C36.5858 132.46 40.1692 135.207 44.054 134.709C47.9389 134.21 50.6481 130.654 50.5241 126.74C50.0095 110.494 54.867 94.4555 64.4516 81.1659C75.4248 65.9507 91.773 55.4773 110.182 51.8687C128.591 48.2601 147.683 51.7864 163.589 61.7327C177.481 70.4203 188.035 83.438 193.691 98.6755C195.055 102.347 198.906 104.617 202.691 103.612Z" fill="#C6F264"/>
<path d="M93.7096 106L101.806 95.568L102.542 96.336C102.222 96.5707 101.912 96.7627 101.614 96.912C101.315 97.0613 100.995 97.168 100.654 97.232C100.312 97.296 99.9496 97.328 99.5656 97.328C98.115 97.328 96.8243 96.9973 95.6936 96.336C94.563 95.6747 93.667 94.7787 93.0056 93.648C92.3656 92.496 92.0456 91.1947 92.0456 89.744C92.0456 88.208 92.3976 86.8427 93.1016 85.648C93.827 84.4533 94.8083 83.5147 96.0456 82.832C97.3043 82.128 98.7336 81.776 100.334 81.776C101.955 81.776 103.384 82.1173 104.622 82.8C105.859 83.4827 106.83 84.4213 107.534 85.616C108.259 86.7893 108.622 88.144 108.622 89.68C108.622 90.448 108.536 91.216 108.366 91.984C108.195 92.752 107.886 93.5733 107.438 94.448C107.011 95.3013 106.392 96.272 105.582 97.36L98.9256 106H93.7096ZM100.334 93.68C101.08 93.68 101.742 93.52 102.318 93.2C102.915 92.8587 103.384 92.3893 103.726 91.792C104.067 91.1733 104.238 90.48 104.238 89.712C104.238 88.9013 104.056 88.1973 103.694 87.6C103.352 87.0027 102.894 86.5333 102.318 86.192C101.742 85.8507 101.08 85.68 100.334 85.68C99.6083 85.68 98.947 85.8507 98.3496 86.192C97.7523 86.5333 97.2723 87.0027 96.9096 87.6C96.5683 88.1973 96.3976 88.9013 96.3976 89.712C96.3976 90.48 96.5683 91.1733 96.9096 91.792C97.2723 92.3893 97.7523 92.8587 98.3496 93.2C98.947 93.52 99.6083 93.68 100.334 93.68ZM119.456 106.384C118.197 106.384 116.992 106.149 115.84 105.68C114.709 105.211 113.728 104.549 112.896 103.696C112.085 102.821 111.53 101.787 111.232 100.592L115.008 99.248C115.37 100.336 115.957 101.147 116.768 101.68C117.578 102.192 118.474 102.448 119.456 102.448C120.266 102.448 120.981 102.277 121.6 101.936C122.24 101.573 122.73 101.083 123.072 100.464C123.413 99.824 123.584 99.088 123.584 98.256C123.584 97.424 123.402 96.6987 123.04 96.08C122.698 95.4613 122.218 94.9813 121.6 94.64C120.981 94.2773 120.266 94.096 119.456 94.096C118.624 94.096 117.866 94.2773 117.184 94.64C116.522 95.0027 116.042 95.5253 115.744 96.208L112.192 95.408L114.08 82.16H127.072V85.84H115.808L117.44 83.952L116.096 93.936L114.848 92.912C115.445 92.0373 116.17 91.3973 117.024 90.992C117.898 90.5867 118.954 90.384 120.192 90.384C121.77 90.384 123.136 90.7253 124.288 91.408C125.461 92.0907 126.368 93.0187 127.008 94.192C127.648 95.3653 127.968 96.72 127.968 98.256C127.968 99.792 127.594 101.179 126.848 102.416C126.101 103.653 125.088 104.624 123.808 105.328C122.528 106.032 121.077 106.384 119.456 106.384ZM134.535 106L153.863 82.16H158.343L139.015 106H134.535ZM138.279 94.256C137.084 94.256 136.007 93.9787 135.047 93.424C134.108 92.848 133.362 92.0907 132.807 91.152C132.252 90.2133 131.975 89.168 131.975 88.016C131.975 86.864 132.252 85.8187 132.807 84.88C133.362 83.92 134.108 83.1627 135.047 82.608C136.007 82.0533 137.074 81.776 138.247 81.776C139.442 81.776 140.508 82.0533 141.447 82.608C142.386 83.1627 143.132 83.92 143.687 84.88C144.242 85.8187 144.519 86.864 144.519 88.016C144.519 89.168 144.242 90.2133 143.687 91.152C143.132 92.0907 142.386 92.848 141.447 93.424C140.508 93.9787 139.452 94.256 138.279 94.256ZM138.247 91.024C138.887 91.024 139.42 90.8853 139.847 90.608C140.274 90.3093 140.594 89.936 140.807 89.488C141.042 89.0187 141.159 88.528 141.159 88.016C141.159 87.4827 141.042 86.992 140.807 86.544C140.594 86.096 140.274 85.7227 139.847 85.424C139.42 85.1253 138.887 84.976 138.247 84.976C137.65 84.976 137.127 85.1253 136.679 85.424C136.252 85.7227 135.922 86.1067 135.687 86.576C135.452 87.024 135.335 87.504 135.335 88.016C135.335 88.5067 135.452 88.9867 135.687 89.456C135.922 89.9253 136.252 90.3093 136.679 90.608C137.127 90.8853 137.65 91.024 138.247 91.024ZM154.503 106.384C153.33 106.384 152.263 106.107 151.303 105.552C150.364 104.976 149.618 104.219 149.063 103.28C148.508 102.341 148.231 101.296 148.231 100.144C148.231 98.992 148.508 97.9467 149.063 97.008C149.618 96.048 150.364 95.2907 151.303 94.736C152.263 94.1813 153.33 93.904 154.503 93.904C155.698 93.904 156.764 94.1813 157.703 94.736C158.642 95.2907 159.388 96.048 159.943 97.008C160.498 97.9467 160.775 98.992 160.775 100.144C160.775 101.296 160.498 102.341 159.943 103.28C159.388 104.219 158.642 104.976 157.703 105.552C156.764 106.107 155.698 106.384 154.503 106.384ZM154.503 103.152C155.122 103.152 155.644 103.013 156.071 102.736C156.519 102.437 156.85 102.064 157.063 101.616C157.298 101.147 157.415 100.656 157.415 100.144C157.415 99.6107 157.298 99.12 157.063 98.672C156.85 98.224 156.519 97.8507 156.071 97.552C155.644 97.2533 155.122 97.104 154.503 97.104C153.906 97.104 153.383 97.2533 152.935 97.552C152.508 97.8507 152.178 98.2347 151.943 98.704C151.708 99.152 151.591 99.632 151.591 100.144C151.591 100.635 151.708 101.115 151.943 101.584C152.178 102.053 152.508 102.437 152.935 102.736C153.383 103.013 153.906 103.152 154.503 103.152Z" fill="#343B46"/>
<path d="M75.3021 137.168C74.6395 137.168 74.0375 137.042 73.4961 136.79C72.9548 136.538 72.4975 136.202 72.1241 135.782C71.7508 135.353 71.4848 134.881 71.3261 134.368L72.3341 133.99C72.5768 134.699 72.9548 135.241 73.4681 135.614C73.9815 135.978 74.5928 136.16 75.3021 136.16C75.7501 136.16 76.1421 136.09 76.4781 135.95C76.8235 135.801 77.0895 135.595 77.2761 135.334C77.4628 135.073 77.5561 134.769 77.5561 134.424C77.5561 133.911 77.4161 133.514 77.1361 133.234C76.8561 132.954 76.4548 132.739 75.9321 132.59L74.0561 132.03C73.3188 131.815 72.7495 131.456 72.3481 130.952C71.9561 130.448 71.7601 129.874 71.7601 129.23C71.7601 128.679 71.8955 128.194 72.1661 127.774C72.4368 127.345 72.8055 127.009 73.2721 126.766C73.7481 126.523 74.2848 126.402 74.8821 126.402C75.5075 126.402 76.0675 126.519 76.5621 126.752C77.0661 126.976 77.4908 127.275 77.8361 127.648C78.1815 128.021 78.4288 128.437 78.5781 128.894L77.5981 129.286C77.3741 128.67 77.0241 128.203 76.5481 127.886C76.0815 127.569 75.5308 127.41 74.8961 127.41C74.4948 127.41 74.1401 127.48 73.8321 127.62C73.5335 127.76 73.3001 127.961 73.1321 128.222C72.9641 128.483 72.8801 128.791 72.8801 129.146C72.8801 129.575 73.0155 129.963 73.2861 130.308C73.5568 130.644 73.9721 130.896 74.5321 131.064L76.1841 131.554C77.0055 131.797 77.6261 132.147 78.0461 132.604C78.4661 133.061 78.6761 133.635 78.6761 134.326C78.6761 134.886 78.5315 135.381 78.2421 135.81C77.9621 136.23 77.5655 136.561 77.0521 136.804C76.5481 137.047 75.9648 137.168 75.3021 137.168ZM82.5815 137.168C82.1055 137.168 81.6808 137.079 81.3075 136.902C80.9341 136.715 80.6401 136.463 80.4255 136.146C80.2108 135.829 80.1035 135.465 80.1035 135.054C80.1035 134.662 80.1875 134.307 80.3555 133.99C80.5235 133.663 80.7848 133.388 81.1395 133.164C81.4941 132.94 81.9468 132.781 82.4975 132.688L85.4375 132.198V133.15L82.7495 133.598C82.2081 133.691 81.8161 133.864 81.5735 134.116C81.3401 134.368 81.2235 134.667 81.2235 135.012C81.2235 135.348 81.3541 135.633 81.6155 135.866C81.8861 136.099 82.2315 136.216 82.6515 136.216C83.1648 136.216 83.6128 136.109 83.9955 135.894C84.3781 135.67 84.6768 135.371 84.8915 134.998C85.1061 134.625 85.2135 134.209 85.2135 133.752V131.848C85.2135 131.4 85.0501 131.036 84.7235 130.756C84.3968 130.476 83.9721 130.336 83.4495 130.336C82.9921 130.336 82.5908 130.453 82.2455 130.686C81.9001 130.91 81.6435 131.204 81.4755 131.568L80.5235 131.05C80.6635 130.733 80.8828 130.443 81.1815 130.182C81.4895 129.921 81.8395 129.715 82.2315 129.566C82.6235 129.407 83.0295 129.328 83.4495 129.328C84.0001 129.328 84.4855 129.435 84.9055 129.65C85.3348 129.865 85.6661 130.163 85.8995 130.546C86.1421 130.919 86.2635 131.353 86.2635 131.848V137H85.2135V135.502L85.3675 135.656C85.2368 135.936 85.0315 136.193 84.7515 136.426C84.4808 136.65 84.1588 136.832 83.7855 136.972C83.4215 137.103 83.0201 137.168 82.5815 137.168ZM91.1565 137.084C90.4845 137.084 89.9665 136.888 89.6025 136.496C89.2385 136.104 89.0565 135.544 89.0565 134.816V130.546H87.6705V129.496H88.0205C88.3378 129.496 88.5898 129.393 88.7765 129.188C88.9631 128.973 89.0565 128.707 89.0565 128.39V127.76H90.1065V129.496H91.7585V130.546H90.1065V134.816C90.1065 135.068 90.1438 135.292 90.2185 135.488C90.2931 135.675 90.4191 135.824 90.5965 135.936C90.7831 136.048 91.0305 136.104 91.3385 136.104C91.4131 136.104 91.5018 136.099 91.6045 136.09C91.7071 136.081 91.7958 136.071 91.8705 136.062V137C91.7585 137.028 91.6325 137.047 91.4925 137.056C91.3525 137.075 91.2405 137.084 91.1565 137.084ZM93.7142 137V129.496H94.7642V137H93.7142ZM93.7142 128.11V126.57H94.7642V128.11H93.7142ZM99.5174 137.168C98.7988 137.168 98.1688 136.986 97.6274 136.622C97.0861 136.258 96.6941 135.763 96.4514 135.138L97.3334 134.718C97.5481 135.175 97.8468 135.539 98.2294 135.81C98.6214 136.081 99.0508 136.216 99.5174 136.216C99.9654 136.216 100.343 136.109 100.651 135.894C100.959 135.67 101.113 135.381 101.113 135.026C101.113 134.765 101.039 134.559 100.889 134.41C100.74 134.251 100.567 134.13 100.371 134.046C100.175 133.962 100.003 133.901 99.8534 133.864L98.7754 133.556C98.0848 133.36 97.5854 133.085 97.2774 132.73C96.9694 132.375 96.8154 131.965 96.8154 131.498C96.8154 131.059 96.9274 130.677 97.1514 130.35C97.3754 130.023 97.6788 129.771 98.0614 129.594C98.4441 129.417 98.8688 129.328 99.3354 129.328C99.9701 129.328 100.544 129.496 101.057 129.832C101.58 130.159 101.949 130.616 102.163 131.204L101.267 131.624C101.081 131.204 100.81 130.877 100.455 130.644C100.11 130.401 99.7228 130.28 99.2934 130.28C98.8734 130.28 98.5374 130.387 98.2854 130.602C98.0334 130.817 97.9074 131.087 97.9074 131.414C97.9074 131.666 97.9728 131.867 98.1034 132.016C98.2341 132.165 98.3834 132.277 98.5514 132.352C98.7288 132.427 98.8828 132.483 99.0134 132.52L100.259 132.884C100.866 133.061 101.337 133.337 101.673 133.71C102.019 134.083 102.191 134.522 102.191 135.026C102.191 135.437 102.075 135.805 101.841 136.132C101.617 136.459 101.305 136.715 100.903 136.902C100.502 137.079 100.04 137.168 99.5174 137.168ZM104.806 137V130.546H103.308V129.496H104.806V128.824C104.806 128.301 104.923 127.863 105.156 127.508C105.39 127.144 105.698 126.869 106.08 126.682C106.463 126.495 106.874 126.402 107.312 126.402C107.406 126.402 107.513 126.411 107.634 126.43C107.756 126.439 107.854 126.453 107.928 126.472V127.424C107.863 127.405 107.774 127.396 107.662 127.396C107.55 127.387 107.471 127.382 107.424 127.382C106.976 127.382 106.603 127.489 106.304 127.704C106.006 127.919 105.856 128.292 105.856 128.824V129.496H107.69V130.546H105.856V137H104.806ZM111.279 137.168C110.803 137.168 110.378 137.079 110.005 136.902C109.631 136.715 109.337 136.463 109.123 136.146C108.908 135.829 108.801 135.465 108.801 135.054C108.801 134.662 108.885 134.307 109.053 133.99C109.221 133.663 109.482 133.388 109.837 133.164C110.191 132.94 110.644 132.781 111.195 132.688L114.135 132.198V133.15L111.447 133.598C110.905 133.691 110.513 133.864 110.271 134.116C110.037 134.368 109.921 134.667 109.921 135.012C109.921 135.348 110.051 135.633 110.313 135.866C110.583 136.099 110.929 136.216 111.349 136.216C111.862 136.216 112.31 136.109 112.693 135.894C113.075 135.67 113.374 135.371 113.589 134.998C113.803 134.625 113.911 134.209 113.911 133.752V131.848C113.911 131.4 113.747 131.036 113.421 130.756C113.094 130.476 112.669 130.336 112.147 130.336C111.689 130.336 111.288 130.453 110.943 130.686C110.597 130.91 110.341 131.204 110.173 131.568L109.221 131.05C109.361 130.733 109.58 130.443 109.879 130.182C110.187 129.921 110.537 129.715 110.929 129.566C111.321 129.407 111.727 129.328 112.147 129.328C112.697 129.328 113.183 129.435 113.603 129.65C114.032 129.865 114.363 130.163 114.597 130.546C114.839 130.919 114.961 131.353 114.961 131.848V137H113.911V135.502L114.065 135.656C113.934 135.936 113.729 136.193 113.449 136.426C113.178 136.65 112.856 136.832 112.483 136.972C112.119 137.103 111.717 137.168 111.279 137.168ZM120.55 137.168C119.813 137.168 119.164 136.995 118.604 136.65C118.044 136.305 117.606 135.838 117.288 135.25C116.971 134.653 116.812 133.981 116.812 133.234C116.812 132.487 116.971 131.82 117.288 131.232C117.606 130.644 118.044 130.182 118.604 129.846C119.164 129.501 119.813 129.328 120.55 129.328C121.017 129.328 121.456 129.412 121.866 129.58C122.277 129.748 122.641 129.977 122.958 130.266C123.276 130.546 123.514 130.873 123.672 131.246L122.72 131.736C122.534 131.335 122.249 131.008 121.866 130.756C121.484 130.504 121.045 130.378 120.55 130.378C120.056 130.378 119.608 130.504 119.206 130.756C118.814 130.999 118.502 131.339 118.268 131.778C118.044 132.207 117.932 132.697 117.932 133.248C117.932 133.789 118.044 134.279 118.268 134.718C118.502 135.147 118.814 135.488 119.206 135.74C119.608 135.992 120.056 136.118 120.55 136.118C121.045 136.118 121.479 135.992 121.852 135.74C122.235 135.488 122.524 135.152 122.72 134.732L123.672 135.25C123.514 135.614 123.276 135.941 122.958 136.23C122.641 136.519 122.277 136.748 121.866 136.916C121.456 137.084 121.017 137.168 120.55 137.168ZM128.385 137.084C127.713 137.084 127.195 136.888 126.831 136.496C126.467 136.104 126.285 135.544 126.285 134.816V130.546H124.899V129.496H125.249C125.566 129.496 125.818 129.393 126.005 129.188C126.192 128.973 126.285 128.707 126.285 128.39V127.76H127.335V129.496H128.987V130.546H127.335V134.816C127.335 135.068 127.372 135.292 127.447 135.488C127.522 135.675 127.648 135.824 127.825 135.936C128.012 136.048 128.259 136.104 128.567 136.104C128.642 136.104 128.73 136.099 128.833 136.09C128.936 136.081 129.024 136.071 129.099 136.062V137C128.987 137.028 128.861 137.047 128.721 137.056C128.581 137.075 128.469 137.084 128.385 137.084ZM130.943 137V129.496H131.993V137H130.943ZM130.943 128.11V126.57H131.993V128.11H130.943ZM137.656 137.168C136.947 137.168 136.303 137 135.724 136.664C135.145 136.319 134.683 135.852 134.338 135.264C134.002 134.667 133.834 133.99 133.834 133.234C133.834 132.487 134.002 131.82 134.338 131.232C134.674 130.644 135.127 130.182 135.696 129.846C136.275 129.501 136.928 129.328 137.656 129.328C138.384 129.328 139.033 129.496 139.602 129.832C140.181 130.168 140.633 130.63 140.96 131.218C141.296 131.806 141.464 132.478 141.464 133.234C141.464 133.999 141.291 134.681 140.946 135.278C140.601 135.866 140.139 136.328 139.56 136.664C138.991 137 138.356 137.168 137.656 137.168ZM137.656 136.118C138.16 136.118 138.613 135.992 139.014 135.74C139.425 135.488 139.747 135.143 139.98 134.704C140.223 134.265 140.344 133.775 140.344 133.234C140.344 132.693 140.223 132.207 139.98 131.778C139.747 131.349 139.425 131.008 139.014 130.756C138.613 130.504 138.16 130.378 137.656 130.378C137.152 130.378 136.695 130.504 136.284 130.756C135.883 131.008 135.561 131.349 135.318 131.778C135.075 132.207 134.954 132.693 134.954 133.234C134.954 133.775 135.075 134.265 135.318 134.704C135.561 135.143 135.883 135.488 136.284 135.74C136.695 135.992 137.152 136.118 137.656 136.118ZM143.316 137V129.496H144.366V130.952L144.128 130.896C144.314 130.411 144.618 130.028 145.038 129.748C145.467 129.468 145.962 129.328 146.522 129.328C147.054 129.328 147.53 129.449 147.95 129.692C148.379 129.935 148.715 130.271 148.958 130.7C149.21 131.12 149.336 131.596 149.336 132.128V137H148.286V132.534C148.286 132.077 148.202 131.689 148.034 131.372C147.875 131.055 147.646 130.812 147.348 130.644C147.058 130.467 146.722 130.378 146.34 130.378C145.957 130.378 145.616 130.467 145.318 130.644C145.019 130.812 144.786 131.059 144.618 131.386C144.45 131.703 144.366 132.086 144.366 132.534V137H143.316ZM153.874 137V126.57H157.458C158.139 126.57 158.737 126.705 159.25 126.976C159.763 127.237 160.16 127.611 160.44 128.096C160.729 128.572 160.874 129.127 160.874 129.762C160.874 130.499 160.678 131.129 160.286 131.652C159.903 132.175 159.381 132.543 158.718 132.758L161.154 137H159.838L157.29 132.506L158.046 132.94H154.994V137H153.874ZM154.994 131.89H157.514C157.962 131.89 158.354 131.806 158.69 131.638C159.026 131.461 159.287 131.213 159.474 130.896C159.661 130.569 159.754 130.187 159.754 129.748C159.754 129.309 159.661 128.931 159.474 128.614C159.287 128.297 159.026 128.054 158.69 127.886C158.354 127.709 157.962 127.62 157.514 127.62H154.994V131.89ZM164.859 137.168C164.383 137.168 163.958 137.079 163.585 136.902C163.211 136.715 162.917 136.463 162.703 136.146C162.488 135.829 162.381 135.465 162.381 135.054C162.381 134.662 162.465 134.307 162.633 133.99C162.801 133.663 163.062 133.388 163.417 133.164C163.771 132.94 164.224 132.781 164.775 132.688L167.715 132.198V133.15L165.027 133.598C164.485 133.691 164.093 133.864 163.851 134.116C163.617 134.368 163.501 134.667 163.501 135.012C163.501 135.348 163.631 135.633 163.893 135.866C164.163 136.099 164.509 136.216 164.929 136.216C165.442 136.216 165.89 136.109 166.273 135.894C166.655 135.67 166.954 135.371 167.169 134.998C167.383 134.625 167.491 134.209 167.491 133.752V131.848C167.491 131.4 167.327 131.036 167.001 130.756C166.674 130.476 166.249 130.336 165.727 130.336C165.269 130.336 164.868 130.453 164.523 130.686C164.177 130.91 163.921 131.204 163.753 131.568L162.801 131.05C162.941 130.733 163.16 130.443 163.459 130.182C163.767 129.921 164.117 129.715 164.509 129.566C164.901 129.407 165.307 129.328 165.727 129.328C166.277 129.328 166.763 129.435 167.183 129.65C167.612 129.865 167.943 130.163 168.177 130.546C168.419 130.919 168.541 131.353 168.541 131.848V137H167.491V135.502L167.645 135.656C167.514 135.936 167.309 136.193 167.029 136.426C166.758 136.65 166.436 136.832 166.063 136.972C165.699 137.103 165.297 137.168 164.859 137.168ZM173.434 137.084C172.762 137.084 172.244 136.888 171.88 136.496C171.516 136.104 171.334 135.544 171.334 134.816V130.546H169.948V129.496H170.298C170.615 129.496 170.867 129.393 171.054 129.188C171.24 128.973 171.334 128.707 171.334 128.39V127.76H172.384V129.496H174.036V130.546H172.384V134.816C172.384 135.068 172.421 135.292 172.496 135.488C172.57 135.675 172.696 135.824 172.874 135.936C173.06 136.048 173.308 136.104 173.616 136.104C173.69 136.104 173.779 136.099 173.882 136.09C173.984 136.081 174.073 136.071 174.148 136.062V137C174.036 137.028 173.91 137.047 173.77 137.056C173.63 137.075 173.518 137.084 173.434 137.084ZM179.134 137.168C178.434 137.168 177.799 137 177.23 136.664C176.67 136.319 176.227 135.847 175.9 135.25C175.573 134.653 175.41 133.976 175.41 133.22C175.41 132.464 175.569 131.797 175.886 131.218C176.203 130.63 176.633 130.168 177.174 129.832C177.725 129.496 178.341 129.328 179.022 129.328C179.563 129.328 180.044 129.431 180.464 129.636C180.893 129.832 181.257 130.103 181.556 130.448C181.855 130.784 182.083 131.167 182.242 131.596C182.401 132.016 182.48 132.45 182.48 132.898C182.48 132.991 182.475 133.099 182.466 133.22C182.457 133.332 182.443 133.449 182.424 133.57H176.082V132.59H181.822L181.318 133.01C181.402 132.497 181.341 132.039 181.136 131.638C180.94 131.227 180.655 130.905 180.282 130.672C179.909 130.429 179.489 130.308 179.022 130.308C178.555 130.308 178.121 130.429 177.72 130.672C177.328 130.915 177.02 131.255 176.796 131.694C176.572 132.123 176.483 132.637 176.53 133.234C176.483 133.831 176.577 134.354 176.81 134.802C177.053 135.241 177.379 135.581 177.79 135.824C178.21 136.067 178.658 136.188 179.134 136.188C179.685 136.188 180.147 136.057 180.52 135.796C180.893 135.535 181.197 135.208 181.43 134.816L182.326 135.292C182.177 135.628 181.948 135.941 181.64 136.23C181.332 136.51 180.963 136.739 180.534 136.916C180.114 137.084 179.647 137.168 179.134 137.168Z" fill="#8696AA"/>
<defs>
<filter id="filter0_d_120_1017" x="6" y="20" width="237" height="179" filterUnits="userSpaceOnUse" color-interpolation-filters="sRGB">
<feFlood flood-opacity="0" result="BackgroundImageFix"/>
<feColorMatrix in="SourceAlpha" type="matrix" values="0 0 0 0 0 0 0 0 0 0 0 0 0 0 0 0 0 0 127 0" result="hardAlpha"/>
<feOffset dy="12"/>
<feGaussianBlur stdDeviation="6"/>
<feComposite in2="hardAlpha" operator="out"/>
<feColorMatrix type="matrix" values="0 0 0 0 0 0 0 0 0 0 0 0 0 0 0 0 0 0 0.05 0"/>
<feBlend mode="normal" in2="BackgroundImageFix" result="effect1_dropShadow_120_1017"/>
<feBlend mode="normal" in="SourceGraphic" in2="effect1_dropShadow_120_1017" result="shape"/>
</filter>
</defs>
</svg>
