<svg width="83" height="111" viewBox="0 0 83 111" fill="none" xmlns="http://www.w3.org/2000/svg">
<path d="M30.0616 8.24096C-21.0575 21.6199 6.75645 79.8241 41.5897 73.9014C99.5642 64.044 72.8324 -2.95302 30.0616 8.24096Z" stroke="#FCFCFC" stroke-width="4"/>
<path d="M45.9348 78.7285C99.8851 65.8929 87.6893 -5.96857 29.3945 2.72744L30.397 7.90675M45.9348 78.7285C46.8816 85.139 48.9755 98.194 49.7775 99.1296C50.7799 100.299 55.7921 100.466 58.6324 101.803C60.9046 102.872 59.5791 105.144 58.6324 106.147L39.586 108.82C38.9177 109.21 37.4809 109.221 37.0799 106.147C36.5787 102.304 43.5958 101.636 44.097 99.1296C44.498 97.1247 41.2567 85.4852 39.586 79.916C40.743 79.7548 41.8742 79.5688 42.9797 79.3591M45.9348 78.7285C44.9709 78.9578 43.9859 79.1683 42.9797 79.3591M42.0921 73.9013L42.9797 79.3591" stroke="#FCFCFC" stroke-width="4"/>
<path d="M36.7454 31.1303C34.4732 29.66 29.784 30.5177 27.7234 31.1303L25.0502 31.7986L24.2148 33.9706C23.6579 34.5832 22.377 35.8084 21.7087 35.8084C21.0404 35.8084 20.4278 37.9247 20.2051 38.9828L22.5441 41.3219C23.101 42.3243 24.5156 44.0619 25.7185 42.9926C27.2222 41.656 28.7258 42.6585 30.0624 42.9926C31.399 43.3268 31.7332 45.8329 31.7332 46.8353C31.7332 47.6373 33.0697 48.5061 33.738 48.8402V51.8476L35.7429 54.0196L36.7454 57.0269C37.525 57.5838 39.0844 58.5306 39.0844 57.8623C39.0844 57.0269 39.5856 56.6928 40.2539 57.0269C40.7885 57.2942 42.036 55.1334 42.5929 54.0196V49.6756V44.3292C42.5929 42.458 44.4864 40.5422 45.4332 39.8182C45.9344 38.8157 46.6361 36.6104 45.4332 35.8084C43.9295 34.8059 45.4332 34.3047 45.4332 32.801V30.2949L42.5929 31.1303C41.5905 31.7429 39.0176 32.6006 36.7454 31.1303Z" stroke="#FCFCFC" stroke-width="2"/>
<path d="M56.1248 26.2848C55.1892 25.8839 54.0643 27.5657 53.6187 28.4568C53.0061 29.8491 51.6139 32.6671 50.9456 32.8008C50.1102 32.9678 52.1151 36.8106 53.6187 36.9776C55.1224 37.1447 56.1248 41.6557 57.4614 42.6582C58.798 43.6606 59.4663 44.3289 61.137 44.6631C62.8078 44.9972 63.1419 41.3216 63.1419 39.8179C63.1419 38.3142 65.9822 36.8106 66.8175 35.641C67.6529 34.4715 66.6505 30.6288 65.9822 30.6288C65.3139 30.6288 64.4785 30.6288 63.1419 28.4568C61.8053 26.2848 59.1322 28.4568 58.2968 28.4568C57.4614 28.4568 57.2944 26.7861 56.1248 26.2848Z" stroke="#FCFCFC" stroke-width="2"/>
<path d="M27.3882 28.4568L23.5455 26.2848H21.2065L20.3711 23.6116C20.7052 22.5535 21.6409 20.6377 22.7101 21.4397C24.0467 22.4421 24.2138 18.4323 23.5455 17.4299C23.0109 16.6279 23.3228 15.2022 23.5455 14.5896H26.3858C27.0541 13.9213 28.6914 12.3508 29.8943 11.4152C31.0973 10.4795 35.7419 11.0253 37.9139 11.4152C40.0524 10.4795 41.9236 11.805 42.5919 12.5847L44.7639 14.5896C48.5063 14.1886 49.4419 16.316 49.4419 17.4299L50.9456 19.1006C50.9456 19.6575 50.4778 20.7045 48.6066 20.4372C46.7354 20.1699 45.2651 21.7738 44.7639 22.6092V24.447H42.5919C42.035 25.0596 40.5536 26.1178 39.0834 25.4495C37.2456 24.6141 32.4004 26.2848 31.2309 26.2848C30.2953 26.2848 28.2793 27.7328 27.3882 28.4568Z" stroke="#FCFCFC" stroke-width="2"/>
<path d="M13.1884 18.9338C11.9855 18.6664 10.9051 20.9387 10.5152 22.1082L9.01153 24.7814C8.51033 25.1712 7.24059 26.3853 6.17131 28.1229C4.8347 30.2948 7.67499 33.1351 7.50791 32.1327C7.37425 31.3307 9.4571 30.6847 10.5152 30.4619L13.1884 28.9582C13.6339 28.2343 14.4582 26.6192 14.1909 25.9509C13.9235 25.2826 15.7502 24.8928 16.697 24.7814C17.2539 23.8903 18.3009 22.1082 18.0335 22.1082C17.7662 22.1082 18.9246 19.9919 19.5372 18.9338L21.8762 17.263V13.9215H19.5372L16.697 15.2581L15.5274 17.263C15.249 17.9313 14.3913 19.2011 13.1884 18.9338Z" stroke="#FCFCFC" stroke-width="2"/>
<path d="M13.1884 42.8255C12.3865 41.3552 9.06727 40.4307 7.50791 40.1523L6.17131 42.8255L8.17617 46.8353C8.45462 48.6731 9.01153 52.7497 9.01153 54.3536C9.01153 55.9576 10.5709 57.8065 11.3506 58.5305L13.1884 57.5281C13.5226 56.3028 14.1909 53.5517 14.1909 52.3487C14.1909 50.8451 16.697 49.6755 18.0335 47.1694C19.1028 45.1645 17.588 43.4381 16.697 42.8255C15.8616 43.4381 13.9904 44.2957 13.1884 42.8255Z" stroke="#FCFCFC" stroke-width="2"/>
</svg>
