<svg width="331" height="241" viewBox="0 0 331 241" fill="none" xmlns="http://www.w3.org/2000/svg">
<path d="M57.4929 -29.2897C61.2855 -4.90702 75.0432 17.3597 94.6266 31.9582C97.2426 33.8592 99.5912 35.4348 101.841 36.7613C104.471 38.2943 107.186 39.696 109.987 40.9662C116.624 43.9766 123.472 45.9593 130.526 47.4232C144.046 50.0842 157.937 50.5655 171.622 49.32C183.94 48.271 195.307 45.872 206.51 40.6425C216.662 36.0595 226.277 29.0887 232.508 19.1541C232.849 18.6283 233.202 18.0737 233.566 17.4903C233.172 18.2306 234.063 16.4906 234.166 16.2311C234.805 14.9558 235.36 13.6423 235.832 12.2908C236.061 11.7142 236.274 11.0961 236.47 10.4364C236.538 10.2634 237.077 8.15989 236.867 9.18746C237.17 7.7597 237.378 6.32267 237.49 4.87636C237.552 4.22356 237.585 3.55807 237.59 2.87987C237.628 2.28474 237.59 2.87985 237.64 3.00444C237.642 2.66534 237.617 2.31354 237.563 1.94903C237.49 1.30308 237.416 0.657149 237.342 0.0111979C237.289 -0.353305 237.224 -0.68899 237.148 -0.995841C237.083 -1.33151 236.938 -2.21395 237.117 -1.418C236.739 -2.71232 236.243 -3.95822 235.712 -5.11767C235.281 -6.02793 235.514 -5.61608 235.613 -5.3669C235.424 -5.72455 235.236 -6.08219 235.048 -6.43985C234.592 -7.1229 234.097 -7.78984 233.562 -8.44064C233.351 -8.74064 233.1 -9.02455 232.81 -9.29229C233.028 -9.09148 233.413 -8.81441 232.592 -9.49304C232.068 -10.0031 231.532 -10.4844 230.985 -10.9368C230.493 -11.3638 229.962 -11.7747 229.392 -12.1695C229.224 -12.2457 228.418 -12.7132 229.14 -12.2838C228.771 -12.5193 228.43 -12.7421 228.117 -12.9522C225.161 -14.497 222.873 -15.2282 220.112 -15.7659C214.337 -16.9558 209.192 -16.737 203.398 -15.3836C203.196 -15.3734 201.641 -14.9555 202.436 -15.2077C201.771 -15.0327 201.106 -14.8577 200.442 -14.6827C199.146 -14.2497 197.866 -13.7752 196.603 -13.2591C194.269 -12.378 191.916 -11.1993 189.648 -9.98244C189.529 -9.93406 188.75 -9.47078 189.529 -9.93405C189.348 -9.81188 189.128 -9.67357 188.868 -9.51915C188.349 -9.2103 187.857 -8.88877 187.394 -8.55453C186.253 -7.84692 185.117 -7.06897 183.987 -6.22065C181.929 -4.70383 179.949 -3.04971 178.047 -1.2583C177.894 -1.12343 176.568 0.215003 177.214 -0.410966C176.784 0.00634544 176.381 0.436342 176.007 0.879061C174.998 1.91891 174.046 2.9842 173.149 4.07486C171.481 6.10861 169.914 8.22198 168.447 10.415C167.741 11.5242 167.024 12.6623 166.296 13.8291C166.204 14.0598 166.085 14.2777 165.937 14.4829C165.868 14.6559 165.287 15.6175 165.612 15.0502C165.937 14.4829 165.509 15.3097 165.425 15.2716C165.242 15.7328 165.042 16.1526 164.825 16.5308C163.513 18.9984 162.342 21.5295 161.31 24.1241C160.301 26.6611 159.405 29.249 158.62 31.8876C158.447 32.4895 158.274 33.0915 158.1 33.6935C157.997 33.953 157.546 35.586 157.84 34.5965C157.458 36.0565 157.144 37.5131 156.896 38.9662C156.359 41.6488 155.973 44.366 155.738 47.1179C155.592 48.4812 155.487 49.8283 155.42 51.1593C155.415 51.8375 155.421 52.4869 155.439 53.1074C155.413 53.5042 155.399 53.8721 155.397 54.2112C155.389 55.2285 155.347 54.0866 155.393 54.7199C155.551 67.0418 158.349 78.2129 163.103 89.4541C172.709 112.186 189.916 131.015 210.061 144.949C231.748 159.992 257.612 169.272 283.725 170.192C296.519 170.686 309.941 168.607 322.198 164.468C334.81 160.184 346.796 153.982 358.114 146.967C382.293 131.8 404.441 113.261 423.743 91.9007C428.46 86.6897 433.014 81.3033 437.408 75.7415C439.093 78.8197 440.778 81.8979 442.463 84.9761C424.048 89.5548 405.633 94.1335 387.218 98.7122C386.729 94.9518 386.213 91.1788 385.669 87.393C405.946 86.2789 425.544 81.3859 443.821 72.8314C447.274 71.1307 452.288 74.732 451.329 78.8907C447.35 96.38 440.851 112.726 431.915 127.967C430.394 130.544 426.415 130.577 424.253 128.78C421.706 126.706 421.748 123.357 423.269 120.779C431.162 107.413 436.958 92.5857 440.566 77.276C443.069 79.2958 445.571 81.3156 448.074 83.3354C429.018 92.3532 408.22 97.5189 387.218 98.7122C384.265 98.9044 381.481 96.9272 381.05 93.7713C380.604 90.4042 382.796 88.132 385.669 87.393C404.084 82.8143 422.499 78.2356 440.914 73.6569C442.992 73.1701 445.39 74.8703 446.372 76.6424C447.368 78.6256 447.383 81.0824 445.97 82.8914C426.796 107.169 404.289 128.607 379.4 146.311C355.629 163.194 328.99 178.063 299.661 180.993C271.057 183.843 241.657 176.225 216.238 161.838C192.8 148.453 171.938 129.089 158.517 104.729C152.014 92.8982 147.426 79.9962 145.522 66.5764C143.679 54.001 144.601 41.4547 147.915 29.3802C154.075 6.65321 169.478 -14.1278 190.727 -23.1722C202.552 -28.2215 216.222 -29.6782 228.63 -24.9693C234.901 -22.5335 240.786 -18.129 244.314 -12.0372C247.709 -6.10807 249.056 0.730053 248.211 7.59471C246.589 21.151 238.173 32.3405 228.196 40.4738C217.726 49.0982 205.14 54.3131 192.165 57.514C178.988 60.7252 165.189 61.5104 151.584 61.057C135.906 60.5818 120.144 57.8228 105.608 51.2304C80.9902 40.0654 61.0948 17.7712 51.6994 -8.23386C49.405 -14.6849 47.7522 -21.2532 46.6571 -27.977C46.2757 -31.0084 48.4226 -33.9139 51.3254 -34.2307C54.3466 -34.5959 56.993 -32.2727 57.4929 -29.2897Z" fill="#3B82F6"/>
</svg>
