<svg width="394" height="280" viewBox="0 0 394 280" fill="none" xmlns="http://www.w3.org/2000/svg">
<path d="M-27.8458 71.1403C-32.9442 100.66 -26.1925 131.846 -10.0597 156.63C-7.88591 159.885 -5.88429 162.656 -3.89757 165.101C-1.56788 167.94 0.90651 170.662 3.52558 173.269C9.73276 179.448 16.5649 184.534 23.8237 189.11C37.7911 197.714 53.0011 203.971 68.6414 208.163C82.6916 212.019 96.203 213.936 110.613 212.54C123.612 211.454 136.925 207.409 147.62 198.575C148.199 198.112 148.801 197.621 149.427 197.101C148.709 197.789 150.359 196.159 150.572 195.904C151.767 194.704 152.884 193.425 153.922 192.069C154.396 191.502 154.867 190.88 155.336 190.204C155.478 190.034 156.878 187.843 156.253 188.935C157.134 187.423 157.912 185.86 158.588 184.247C158.905 183.524 159.196 182.774 159.46 181.999C159.73 181.332 159.46 181.999 159.468 182.162C159.6 181.774 159.706 181.36 159.786 180.92C159.95 180.149 160.115 179.378 160.28 178.607C160.36 178.167 160.416 177.756 160.448 177.372C160.504 176.961 160.68 175.889 160.576 176.876C160.65 175.236 160.576 173.603 160.43 172.056C160.299 170.835 160.4 171.403 160.415 171.729C160.343 171.242 160.27 170.754 160.198 170.267C159.954 169.296 159.659 168.328 159.315 167.362C159.196 166.931 159.026 166.503 158.806 166.076C158.971 166.396 159.293 166.872 158.642 165.757C158.255 164.957 157.845 164.184 157.411 163.441C157.029 162.749 156.598 162.06 156.116 161.373C155.959 161.217 155.245 160.35 155.881 161.139C155.562 160.717 155.268 160.321 155.002 159.952C152.315 156.966 150.059 155.188 147.204 153.437C141.259 149.701 135.474 147.839 128.537 147.011C128.308 146.94 126.426 146.781 127.403 146.818C126.6 146.746 125.797 146.673 124.993 146.601C123.392 146.565 121.793 146.584 120.196 146.657C117.274 146.709 114.217 147.094 111.238 147.558C111.089 147.565 110.049 147.776 111.089 147.565C110.842 147.631 110.545 147.699 110.198 147.769C109.505 147.91 108.837 148.077 108.196 148.27C106.662 148.613 105.107 149.039 103.53 149.547C100.671 150.442 97.8463 151.525 95.0549 152.798C94.8341 152.89 92.8546 153.881 93.8088 153.428C93.1727 153.73 92.5627 154.058 91.979 154.412C90.4648 155.19 89.0029 156.021 87.5934 156.903C84.9691 158.55 82.4258 160.33 79.9636 162.243C78.7586 163.225 77.53 164.236 76.2777 165.275C76.0881 165.502 75.8723 165.702 75.6303 165.877C75.4881 166.047 74.4778 166.911 75.0541 166.394C75.6303 165.877 74.8407 166.649 74.7622 166.571C74.383 167.025 74.0013 167.424 73.6171 167.769C71.2222 170.06 68.9583 172.482 66.8253 175.033C64.7397 177.529 62.7588 180.128 60.8827 182.832C60.4611 183.451 60.0395 184.07 59.6179 184.689C59.4046 184.944 58.2819 186.632 58.9855 185.618C58.005 187.135 57.1007 188.677 56.2724 190.242C54.6532 193.097 53.1887 196.055 51.8789 199.114C51.1978 200.618 50.5665 202.119 49.9852 203.618C49.7207 204.394 49.48 205.141 49.2629 205.86C49.0833 206.305 48.9273 206.721 48.795 207.109C48.3983 208.272 48.7876 206.945 48.5967 207.69C44.0719 221.886 42.911 235.846 43.8903 250.69C45.8638 280.704 57.7494 309.364 74.7579 333.618C93.0534 359.776 118.174 381.04 146.761 392.82C160.751 398.642 176.417 401.769 191.579 402.057C207.19 402.323 222.838 400.134 238.056 396.738C270.636 389.274 302.252 377.11 331.79 360.541C339.005 356.503 346.107 352.196 353.097 347.622C353.79 351.844 354.483 356.066 355.177 360.289C333.023 357.976 310.869 355.664 288.715 353.352C289.609 348.839 290.476 344.3 291.317 339.735C314.212 346.785 337.797 349.223 361.314 346.919C365.789 346.386 369.972 352.576 367.323 356.951C356.242 375.374 342.804 391.45 327.088 405.259C324.42 407.59 319.997 405.993 318.287 403.044C316.256 399.619 317.58 395.796 320.248 393.465C334.094 381.378 346.173 366.754 356.012 350.679C358.015 354.023 360.017 357.367 362.02 360.711C337.463 363.227 312.445 360.609 288.715 353.352C285.37 352.36 283.04 348.949 283.766 345.152C284.555 341.108 287.852 339.403 291.317 339.735C313.471 342.047 335.624 344.359 357.778 346.672C360.266 346.967 362.275 349.901 362.687 352.337C363.035 355.02 362.114 357.844 359.858 359.338C329.349 379.305 296.23 394.647 261.895 404.727C229.112 414.327 193.92 420.437 160.301 411.751C127.516 403.272 97.8413 382.462 75.1604 355.523C54.2943 330.546 38.5622 299.772 32.9819 266.324C30.2889 250.086 30.1254 233.405 33.135 217.233C35.89 202.055 41.6982 188.046 49.9759 175.56C65.4723 152.026 90.4687 134.521 117.466 132.875C132.497 131.941 148.201 135.885 160.155 146.381C166.175 151.75 171.016 159.218 172.602 167.653C174.102 175.847 172.987 184.242 169.431 191.768C162.463 206.648 148.868 216.024 134.709 221.253C119.816 226.844 103.88 227.655 88.2808 225.997C72.4532 224.268 56.8615 219.501 41.9584 213.394C24.7654 206.409 8.35084 196.772 -5.24211 183.242C-28.2637 160.327 -41.8066 126.589 -42.2981 92.9078C-42.3798 84.5674 -41.7058 76.3561 -40.3544 68.1954C-39.6208 64.5624 -36.1332 62.1122 -32.7956 62.941C-29.3083 63.763 -27.2618 67.5141 -27.8458 71.1403Z" fill="#0F172A"/>
</svg>
