<svg width="145" height="132" viewBox="0 0 145 132" fill="none" xmlns="http://www.w3.org/2000/svg">
<path d="M50.1271 3.38533C69.2305 1.38816 112.96 -0.730572 135.05 6.77184C136.855 14.6786 139.431 27.8258 140.353 37.8544L142.605 51.0569C145.106 91.2781 130.969 119.047 123.589 127.904C114.419 133.74 64.5416 125.473 40.7491 120.61L31.371 112.014C21.641 77.8555 39.5539 25.9598 49.9208 3.82391C49.9933 3.63448 50.0622 3.48724 50.1271 3.38533Z" fill="url(#paint0_linear_139_1109)"/>
<path d="M50.1271 3.38533C69.2305 1.38816 112.96 -0.730571 135.05 6.77184M50.1271 3.38533C48.6683 5.67775 45.1775 30.9115 43.6145 43.2419C43.6145 45.9511 107.524 49.5807 139.479 51.0569C143.022 46.6805 138.003 19.71 135.05 6.77184M50.1271 3.38533C39.7938 25.2674 21.5761 77.6279 31.371 112.014L40.7491 120.61C64.5416 125.473 114.419 133.74 123.589 127.904C130.969 119.047 145.106 91.2781 142.605 51.0569L135.05 6.77184M65.4967 94.5604C63.4127 99.7704 59.8699 111.232 62.3707 115.4C78.6955 119.742 111.762 125.82 113.429 115.4V99.7704C103.79 96.2971 80.71 90.3924 65.4967 94.5604Z" stroke="#FCFCFC" stroke-width="3"/>
<path d="M61.0684 66.6871L64.9759 36.7296C68.1019 34.4372 73.7461 35.7745 76.1774 36.7296C76.1774 40.2724 72.3568 58.8721 70.4464 67.7291C70.0296 70.0215 64.0207 67.9896 61.0684 66.6871Z" fill="url(#paint1_linear_139_1109)" stroke="#FCFCFC" stroke-width="3"/>
<path d="M107.993 68.5669L108.089 38.3557C110.9 35.6871 116.668 36.3013 119.201 36.942C119.648 40.4565 118.205 59.3897 117.428 68.417C117.304 70.7436 111.087 69.4863 107.993 68.5669Z" fill="url(#paint2_linear_139_1109)" stroke="#FCFCFC" stroke-width="3"/>
<path d="M12.876 114.619C1.93493 110.19 -17.8632 84.9218 49.8672 4.42725L38.9262 31.2588C31.1112 51.2305 15.4811 92.9452 15.4811 100.031C15.4811 107.116 24.946 106.109 29.8087 104.72L31.3717 111.753L34.7582 115.921C31.4585 116.79 21.6288 118.162 12.876 114.619Z" fill="url(#paint3_linear_139_1109)" stroke="#FCFCFC" stroke-width="3"/>
<path d="M37.8848 30.2168C35.8877 32.3876 31.8412 37.094 31.6328 38.5528" stroke="#FCFCFC" stroke-width="2"/>
<path d="M25.8948 47.1489C24.4187 49.6671 21.3621 55.016 20.9453 56.2664" stroke="#FCFCFC" stroke-width="2"/>
<path d="M16.2552 68.7705C14.6054 71.636 11.3578 77.888 11.5662 79.972" stroke="#FCFCFC" stroke-width="2"/>
<path d="M8.4518 92.2163C7.75713 95.1686 6.78459 101.49 8.4518 103.157" stroke="#FCFCFC" stroke-width="2"/>
<path d="M16.7754 109.669C19.8146 110.625 26.6744 111.962 29.8005 109.669" stroke="#FCFCFC" stroke-width="2"/>
<defs>
<linearGradient id="paint0_linear_139_1109" x1="85.7331" y1="1.5" x2="85.7331" y2="129.911" gradientUnits="userSpaceOnUse">
<stop stop-color="#1E40AF"/>
<stop offset="1" stop-color="#417CD4"/>
</linearGradient>
<linearGradient id="paint1_linear_139_1109" x1="68.6229" y1="35.4639" x2="68.6229" y2="68.7675" gradientUnits="userSpaceOnUse">
<stop stop-color="#1E40AF"/>
<stop offset="1" stop-color="#417CD4"/>
</linearGradient>
<linearGradient id="paint2_linear_139_1109" x1="111.547" y1="36.6398" x2="115.75" y2="69.6772" gradientUnits="userSpaceOnUse">
<stop stop-color="#1E40AF"/>
<stop offset="1" stop-color="#417CD4"/>
</linearGradient>
<linearGradient id="paint3_linear_139_1109" x1="25.6836" y1="4.42725" x2="25.6836" y2="116.924" gradientUnits="userSpaceOnUse">
<stop stop-color="#1E40AF"/>
<stop offset="1" stop-color="#417CD4"/>
</linearGradient>
</defs>
</svg>
