<svg width="113" height="152" viewBox="0 0 113 152" fill="none" xmlns="http://www.w3.org/2000/svg">
<path d="M40.7934 10.6281C-29.8755 29.1238 8.57548 109.588 56.7302 101.4C136.876 87.7731 99.9212 -4.84698 40.7934 10.6281Z" stroke="#FFD45D" stroke-width="4"/>
<path d="M62.7369 108.074C137.32 90.3291 120.46 -9.01582 39.8711 3.00599L41.2569 10.1661M62.7369 108.074C64.0458 116.936 66.9406 134.984 68.0492 136.277C69.435 137.894 76.3641 138.125 80.2905 139.973C83.4317 141.451 81.5994 144.592 80.2905 145.978L53.9602 149.674C53.0363 150.213 51.05 150.228 50.4956 145.978C49.8027 140.666 59.5034 139.742 60.1963 136.277C60.7506 133.506 56.2698 117.414 53.9602 109.715C55.5596 109.492 57.1234 109.235 58.6517 108.945M62.7369 108.074C61.4044 108.391 60.0428 108.682 58.6517 108.945M57.4247 101.4L58.6517 108.945" stroke="#FFD45D" stroke-width="4"/>
<path d="M50.0299 42.273C46.8887 40.2405 40.4062 41.4261 37.5576 42.273L33.8621 43.1969L32.7073 46.1996C31.9374 47.0465 30.1666 48.7403 29.2428 48.7403C28.3189 48.7403 27.472 51.6659 27.1641 53.1287L30.3976 56.3624C31.1675 57.7482 33.123 60.1503 34.786 58.6721C36.8647 56.8243 38.9434 58.2101 40.7912 58.6721C42.6389 59.134 43.1009 62.5986 43.1009 63.9845C43.1009 65.0931 44.9486 66.2942 45.8725 66.7561V70.9136L48.6441 73.9163L50.0299 78.0738C51.1078 78.8437 53.2635 80.1525 53.2635 79.2287C53.2635 78.0738 53.9564 77.6118 54.8802 78.0738C55.6193 78.4433 57.3439 75.4561 58.1138 73.9163V67.911V60.5199C58.1138 57.933 60.7314 55.2845 62.0403 54.2836C62.7332 52.8978 63.7032 49.8489 62.0403 48.7403C59.9616 47.3544 62.0403 46.6615 62.0403 44.5828V41.1182L58.1138 42.273C56.728 43.1199 53.1711 44.3056 50.0299 42.273Z" stroke="#FFD45D" stroke-width="2"/>
<path d="M76.8237 35.5725C75.5303 35.0182 73.9751 37.3433 73.3592 38.5752C72.5123 40.4999 70.5876 44.3957 69.6637 44.5805C68.5089 44.8114 71.2805 50.1238 73.3592 50.3548C75.4379 50.5857 76.8237 56.822 78.6715 58.2078C80.5192 59.5937 81.4431 60.5176 83.7528 60.9795C86.0624 61.4415 86.5244 56.3601 86.5244 54.2813C86.5244 52.2026 90.4508 50.1238 91.6057 48.507C92.7605 46.8902 91.3747 41.5778 90.4508 41.5778C89.527 41.5778 88.3721 41.5778 86.5244 38.5752C84.6766 35.5725 80.9811 38.5752 79.8263 38.5752C78.6715 38.5752 78.4405 36.2654 76.8237 35.5725Z" stroke="#FFD45D" stroke-width="2"/>
<path d="M37.0972 38.5752L31.7849 35.5725H28.5513L27.3965 31.877C27.8584 30.4141 29.1518 27.7657 30.63 28.8743C32.4778 30.2602 32.7088 24.7168 31.7849 23.331C31.0458 22.2223 31.477 20.2513 31.7849 19.4044H35.7114C36.6353 18.4805 38.8988 16.3094 40.5617 15.0159C42.2247 13.7225 48.6456 14.477 51.6482 15.0159C54.6046 13.7225 57.1914 15.5549 58.1153 16.6327L61.1179 19.4044C66.2916 18.8501 67.585 21.7911 67.585 23.331L69.6637 25.6407C69.6637 26.4106 69.017 27.858 66.4302 27.4885C63.8434 27.1189 61.8108 29.3363 61.1179 30.4911V33.0318H58.1153C57.3454 33.8787 55.2975 35.3415 53.265 34.4177C50.7243 33.2628 44.0263 35.5725 42.4095 35.5725C41.1161 35.5725 38.329 37.5743 37.0972 38.5752Z" stroke="#FFD45D" stroke-width="2"/>
<path d="M17.4623 25.4111C15.7994 25.0416 14.3058 28.1828 13.7669 29.7996L11.6881 33.4952C10.9952 34.0341 9.23987 35.7125 7.76165 38.1146C5.91388 41.1173 9.84039 45.0438 9.60942 43.658C9.42465 42.5493 12.3041 41.6562 13.7669 41.3482L17.4623 39.2695C18.0783 38.2686 19.2177 36.0359 18.8482 35.112C18.4786 34.1881 21.0039 33.6491 22.3127 33.4952C23.0826 32.2633 24.53 29.7996 24.1604 29.7996C23.7909 29.7996 25.3923 26.874 26.2391 25.4111L29.4727 23.1014V18.4819H26.2391L22.3127 20.3297L20.6959 23.1014C20.311 24.0253 19.1253 25.7807 17.4623 25.4111Z" stroke="#FFD45D" stroke-width="2"/>
<path d="M17.4623 58.4402C16.3537 56.4076 11.7651 55.1296 9.60942 54.7446L7.76165 58.4402L10.5332 63.9836C10.9182 66.5243 11.6881 72.16 11.6881 74.3773C11.6881 76.5947 13.8438 79.1508 14.9216 80.1516L17.4623 78.7658C17.9243 77.072 18.8482 73.2687 18.8482 71.6056C18.8482 69.5269 22.3127 67.9101 24.1604 64.4455C25.6386 61.6738 23.5445 59.2871 22.3127 58.4402C21.1578 59.2871 18.571 60.4728 17.4623 58.4402Z" stroke="#FFD45D" stroke-width="2"/>
</svg>
