<svg width="79" height="82" viewBox="0 0 79 82" fill="none" xmlns="http://www.w3.org/2000/svg">
<path d="M39.4869 40.6055L39.1088 43.43C39.0728 43.4114 39.0368 43.402 39.0008 43.402L33.0859 80.848C35.1926 81.1836 37.3533 81.3793 39.4869 81.3793C41.8907 81.3793 44.3215 81.1556 46.6712 80.7082L39.8381 42.4232L39.4869 40.6055Z" fill="#3B82F6"/>
<path d="M39.4326 40.5229L37.3529 42.4805C37.3349 42.4619 37.3169 42.4433 37.2989 42.4246L9.61523 67.2581C12.6132 70.8377 16.1783 73.83 20.1755 76.1511L38.6223 42.117L39.4326 40.5229Z" fill="#3B82F6"/>
<path d="M39.541 40.5498L40.9995 42.9828C40.9815 43.0015 40.9545 43.0201 40.9184 43.0388L59.4733 75.7585C63.4165 73.3535 66.9276 70.2773 69.8445 66.6417L40.2162 41.1091L39.541 40.5498Z" fill="#3B82F6"/>
<path d="M36.6235 40.5795V40.5515L0 41.2786C0.0810254 46.0608 0.945306 50.7031 2.59282 55.1496L39.4594 40.4956L36.6235 40.5795Z" fill="#3B82F6"/>
<path d="M78.946 38.8452L42.3496 40.3554C42.3496 40.374 42.3496 40.3926 42.3496 40.4113L39.5137 40.4952L42.1875 41.418C42.1875 41.4367 42.1875 41.4553 42.1875 41.474L76.6503 54.3941C78.1898 49.9196 79 45.2493 79 40.4672C79 39.9265 78.982 39.3859 78.946 38.8452Z" fill="#3B82F6"/>
<path d="M39.5137 40.4662L39.9998 40.2705L76.0831 25.0292C74.3276 20.6386 71.8968 16.6116 68.8178 13.0879L41.6203 38.4807C41.6203 38.4993 41.6293 38.518 41.6473 38.5366L39.9728 40.0188L39.5137 40.4662Z" fill="#3B82F6"/>
<path d="M36.7859 39.4589L39.4328 40.4657H39.4598L8.61613 14.9331C5.75323 18.6525 3.53853 22.8474 2.08008 27.3498L36.7859 39.5149C36.7859 39.4962 36.7859 39.4776 36.7859 39.4589Z" fill="#3B82F6"/>
<path d="M38.0272 37.9203L39.4317 40.3533L31.5452 0.418457C27.0078 1.36929 22.7404 3.10315 18.8242 5.62006L38.0002 37.9483C38.0002 37.9297 38.0092 37.9203 38.0272 37.9203Z" fill="#3B82F6"/>
<path d="M58.1225 4.3906C54.0442 2.15335 49.6688 0.671175 45.1044 0L39.9188 37.5298L39.5137 40.3544L58.1225 4.3906Z" fill="#3B82F6"/>
</svg>
