<svg width="104" height="104" viewBox="0 0 104 104" fill="none" xmlns="http://www.w3.org/2000/svg">
<g filter="url(#filter0_d_207_4642)">
<rect x="12" width="80" height="80" rx="40" fill="#1E40AF" shape-rendering="crispEdges"/>
<path d="M72.9189 30.801C73.0168 30.6539 73.0168 30.5578 72.9679 30.4598C72.9189 30.3618 72.87 30.2656 72.7251 30.1676C72.5783 30.0696 72.4823 30.0206 72.3356 29.9735C72.2866 29.9735 72.2377 29.9245 72.1888 29.9245H72.042C71.9931 29.9245 71.9931 29.9245 71.9441 29.8755C71.7973 29.7285 71.6035 29.7285 71.4567 29.8755C71.4567 29.8265 71.5057 29.7775 71.5546 29.7775C71.7014 29.7285 71.7484 29.6304 71.7014 29.4853C71.7014 29.3873 71.6524 29.2912 71.6035 29.1931C71.5057 28.999 71.3608 28.95 71.1161 29.0951C71.1161 29.0461 71.1651 29.0461 71.214 28.9971C71.4078 28.9481 71.3608 28.803 71.3118 28.754C71.2629 28.5598 71.118 28.4618 71.0201 28.4128C70.8734 28.3638 70.7285 28.3638 70.5817 28.4618C70.4349 28.5598 70.2411 28.656 70.0943 28.754L69.8986 28.95C69.8496 29.048 69.8496 29.048 69.7047 28.999C69.5109 28.901 69.3152 28.852 69.1214 28.852C69.0725 28.852 68.9746 28.852 68.9275 28.803C68.5869 28.656 68.3931 28.803 68.2952 28.95C68.1974 29.048 68.1485 29.1441 68.0525 29.2912C67.9546 29.4853 67.7608 29.5833 67.5651 29.6323C67.3713 29.6813 67.1755 29.7303 67.0306 29.8265C66.9328 29.8755 66.8368 29.9735 66.7879 30.0696C66.69 30.2638 66.594 30.4108 66.3983 30.5088C66.2045 30.6068 66.1066 30.752 66.2045 30.948V30.997C66.1556 31.144 66.0577 31.1911 65.9128 31.1911C65.5722 31.1911 65.3294 31.2891 65.1337 31.4343C64.9869 31.4833 64.9399 31.4833 64.842 31.4833C64.6952 31.4833 64.6482 31.5813 64.5993 31.6774C64.5503 31.8245 64.5503 32.0186 64.6482 32.1166C64.6971 32.2146 64.842 32.3108 65.0377 32.3108H65.2316H65.2805V32.4088C65.2316 32.5558 65.2316 32.7009 65.3294 32.848C65.2316 32.897 65.1826 32.897 65.0867 32.946C64.9888 32.995 64.8928 32.995 64.795 32.995C64.6482 32.995 64.5033 32.946 64.3565 32.995C63.9669 33.142 63.5774 33.093 63.1878 32.995C62.9451 32.897 62.7494 32.995 62.6045 33.142C62.5066 33.289 62.3128 33.3361 62.1171 33.289C61.8254 33.24 61.5337 33.142 61.1931 32.9969C60.9993 32.9479 60.9014 32.8027 60.9014 32.6067C60.9014 32.4597 60.9503 32.3145 60.9503 32.1675C60.9993 31.8753 60.9993 31.6322 60.9503 31.3872C60.9014 31.193 60.7565 31.095 60.6097 31.046C60.4629 30.997 60.318 31.095 60.1712 31.193C59.9774 31.3872 59.8306 31.5342 59.6368 31.6322C59.49 31.7302 59.394 31.8754 59.49 32.1675C59.5389 32.2655 59.5879 32.3145 59.5879 32.3617L59.6368 32.4597C59.6857 32.5087 59.6857 32.6067 59.6368 32.6538C59.4429 32.897 59.49 33.044 59.6368 33.2871C59.6857 33.3361 59.6857 33.4342 59.6857 33.4813C59.6857 33.6283 59.6368 33.7244 59.5389 33.7734C59.4411 33.8224 59.3451 33.8224 59.1983 33.8224H59.1494H59.1004H59.0515C58.9047 33.8224 58.7109 33.7734 58.5641 33.9205C58.3703 33.6773 58.2235 33.6283 57.9318 33.7734C57.785 33.8224 57.6891 33.8715 57.5912 33.8224C57.5423 33.8224 57.4444 33.7734 57.3974 33.7734C57.3484 33.7734 57.2506 33.7244 57.2035 33.7244C57.0097 33.6754 56.814 33.6264 56.6202 33.7734H56.5713L56.5223 33.7244C56.5223 33.7244 56.5223 33.6754 56.4734 33.6754V33.6264C56.4245 33.4323 56.3266 33.3343 56.1817 33.2853C56.0349 33.2362 55.939 33.2853 55.7432 33.3833C55.6454 33.4323 55.5494 33.4323 55.4516 33.3343C55.3537 33.2362 55.2088 33.0911 55.0131 33.0911V33.0421C55.062 32.848 55.0131 32.7009 54.9152 32.6029C54.8174 32.5049 54.6725 32.4088 54.5257 32.4088H54.3789H54.281C54.2321 32.4088 54.1343 32.4088 54.0872 32.3598C53.9404 32.3108 53.7466 32.3108 53.5998 32.4088C53.5509 32.4578 53.453 32.4578 53.3571 32.4088C53.3081 32.4088 53.3081 32.4088 53.2592 32.3598C53.2103 32.3108 53.1124 32.3108 53.0654 32.2618C52.9675 32.2128 52.8715 32.2128 52.8226 32.2618C52.7737 32.3108 52.7248 32.3598 52.7248 32.4088C52.6758 32.4088 52.6758 32.3598 52.6269 32.3598L52.578 32.3108C52.4801 32.2618 52.4312 32.2618 52.3352 32.2128C52.2374 32.2128 52.1884 32.1638 52.1414 32.0657C52.2374 32.0676 52.1414 31.9696 51.9457 31.9696H51.7518C51.654 31.9696 51.558 31.9696 51.5091 31.8716C51.4601 31.8226 51.3623 31.7736 51.3152 31.7246C51.1685 31.6266 51.0236 31.6266 50.9746 31.7246C50.9257 31.7736 50.8768 31.7736 50.7808 31.7246C50.7319 31.6756 50.634 31.6266 50.587 31.5775C50.4891 31.5285 50.4402 31.4305 50.3442 31.3834C50.2953 31.3344 50.1974 31.2854 50.1014 31.2854C50.0525 31.2854 50.0036 31.2364 50.0036 31.1874C49.9547 31.0404 49.9057 30.9442 49.7608 30.8952L49.567 30.7972C49.4202 30.7482 49.3242 30.6992 49.1775 30.6502C49.1285 30.6012 49.0307 30.6012 48.9836 30.5522C48.8368 30.4051 48.7409 30.26 48.5452 30.211C48.5452 30.113 48.643 30.064 48.6919 29.9679C48.8387 29.8208 48.8858 29.6757 48.8387 29.4797C48.7898 29.3817 48.8387 29.3327 48.8877 29.3327C48.9366 29.2836 48.9855 29.2346 48.9855 29.1385C48.9855 28.9444 49.0834 28.7973 49.2772 28.6503C49.3261 28.6013 49.3261 28.6013 49.3751 28.5523C49.424 28.5033 49.4729 28.4543 49.5689 28.4053L49.6178 28.3563C49.6667 28.3563 49.6667 28.3073 49.7157 28.3073C49.8135 28.2583 49.8624 28.1603 49.8135 28.0641C49.8135 27.9661 49.7646 27.9171 49.6667 27.87C49.6178 27.821 49.5689 27.772 49.4729 27.723C49.424 27.674 49.424 27.674 49.375 27.625H49.3261C49.2772 27.5759 49.2283 27.5269 49.1793 27.5269C49.0815 27.4779 48.9366 27.4289 48.8387 27.4289L48.7409 27.3799V27.3309C48.7409 27.0878 48.643 26.9898 48.4002 26.9898H48.3513C48.2535 26.7956 48.1086 26.6976 47.8639 26.7466C47.7661 26.7466 47.7171 26.7466 47.6212 26.6486V26.5996C47.5722 26.5506 47.5233 26.4526 47.4273 26.4054C47.3784 26.3564 47.3295 26.3074 47.3295 26.2584C47.2316 26.0153 47.0867 25.9173 46.8421 25.9663C46.7932 25.9663 46.7442 26.0153 46.6953 26.0153C46.7442 25.9663 46.7932 25.8211 46.6464 25.6741C46.5974 25.6251 46.5974 25.5761 46.6464 25.5271C46.7442 25.2839 46.6953 25.1369 46.4996 24.9918C46.4017 24.8937 46.3528 24.7976 46.3528 24.6506C46.3528 24.6016 46.4017 24.4564 46.3039 24.4074L46.4017 24.3094L46.4507 24.3584C46.4996 24.4074 46.4996 24.4564 46.5485 24.5055C46.6953 24.6996 46.8891 24.6996 47.083 24.6035L47.1319 24.5545C47.1808 24.5055 47.2297 24.5055 47.2787 24.4564C47.3276 24.4564 47.3276 24.4074 47.3765 24.4074L47.4255 24.3584C47.5722 24.3584 47.6682 24.2604 47.6682 24.1643C47.7172 24.0663 47.6682 23.9702 47.6193 23.8721C47.5214 23.7741 47.5214 23.7251 47.5214 23.58V23.531V23.482C47.5214 23.3349 47.5214 23.2388 47.4236 23.1408C47.3747 23.0918 47.2768 23.0428 47.1319 23.0428C47.083 23.0428 47.083 23.0428 47.083 22.9938C47.083 22.9448 47.034 22.8958 46.9851 22.7996L46.9362 22.7506C46.9362 22.6526 46.8873 22.5075 46.8383 22.4585C46.8383 22.4585 46.8383 22.4095 46.7894 22.4095C46.8873 22.3115 46.9362 22.2153 46.9362 22.0683C47.034 22.0193 47.083 22.0193 47.179 22.0193C47.5196 22.0193 47.6663 21.9213 47.7623 21.5801C47.8112 21.386 47.9091 21.288 48.054 21.1899C48.1029 21.1409 48.1519 21.1409 48.1519 21.0919C48.2008 21.0429 48.2497 21.0429 48.2986 20.9939C48.5903 20.8469 48.7371 20.6037 48.7371 20.2626V20.2136V20.1156C48.7371 20.0666 48.786 19.9685 48.786 19.9214C48.8839 19.7744 48.9328 19.6293 48.835 19.4822C48.978 19.3955 48.8801 19.2975 48.6863 19.2975C48.5885 19.2975 48.4435 19.2485 48.3457 19.1995C48.1519 19.1015 48.0051 18.9074 47.8583 18.7113C47.7115 18.5643 47.5666 18.5172 47.3709 18.5643C47.2731 18.5643 47.2241 18.6133 47.1281 18.6623C47.0792 18.6623 47.0303 18.7113 46.9814 18.7113H46.9324C46.8835 18.7113 46.7856 18.7603 46.7386 18.7603C46.4469 18.8093 46.2041 18.9074 46.0085 19.0525C45.8146 19.1995 45.6189 19.2466 45.4251 19.1995H45.2783H45.1805L45.0337 19.1505C44.7909 19.1015 44.5463 19.0525 44.3035 18.9564C44.2057 18.9074 44.1097 18.8584 44.0608 18.7622C43.9629 18.5681 43.8669 18.5191 43.6712 18.5681H43.5734C43.4755 18.5681 43.3795 18.5681 43.3306 18.5191C43.2817 18.4701 43.2817 18.3721 43.2817 18.2759C43.2817 18.1779 43.3306 18.0328 43.3795 17.8858C43.4285 17.7387 43.4285 17.5936 43.3795 17.4956C43.2817 17.2524 43.1368 17.1054 42.8921 17.0074C42.8432 17.0074 42.8432 16.9584 42.7943 16.9584C42.5515 16.8604 42.3558 16.8114 42.2109 16.6172C42.162 16.5192 42.0171 16.4702 41.9192 16.5192C41.8703 16.5192 41.8703 16.5192 41.8214 16.5682C41.7724 16.5682 41.7724 16.6172 41.7235 16.6172H41.6257C41.4789 16.5192 41.2361 16.4702 41.0912 16.5682C40.9482 16.7624 40.7543 16.8114 40.6076 16.8604H40.0242H39.7325H39.6836C39.4898 16.8604 39.2451 16.8604 39.0513 17.0074H38.9534H38.9045H38.7577H38.6599C38.466 17.0074 38.3193 17.1054 38.2214 17.2996C38.2214 17.3486 38.1725 17.3976 38.1235 17.4466C37.8808 17.5936 37.7829 17.7878 37.7829 18.0309C37.7829 18.274 37.9297 18.4701 38.1725 18.6152C38.2214 18.6152 38.2703 18.6642 38.2703 18.6642C38.3193 18.6642 38.4171 18.7132 38.4642 18.7622C38.7069 18.9092 38.9515 19.0544 39.0965 19.2975C39.1454 19.3465 39.1943 19.3956 39.2432 19.4446C39.2432 19.4446 39.2922 19.4446 39.2922 19.4936C39.2922 19.4936 39.3411 19.5426 39.39 19.5426C39.39 19.5426 39.439 19.5426 39.439 19.5916C39.5368 19.7386 39.6817 19.8347 39.9263 19.8837C39.9753 19.8837 40.0242 19.9327 40.0731 19.9327C40.1221 19.9327 40.171 19.9818 40.2199 19.9818C40.2688 19.9818 40.3178 20.0308 40.2688 20.1288C40.2688 20.2268 40.2199 20.2758 40.2199 20.3719C40.2199 20.4209 40.171 20.5189 40.171 20.5661C40.0731 20.9072 40.0731 21.1994 40.2199 21.4916C40.2688 21.5896 40.2688 21.7347 40.2688 21.8327V21.9307V22.6621V22.7111C40.2688 22.8091 40.2688 22.9052 40.171 22.9542C40.1221 23.0032 40.0731 23.1012 40.1221 23.1484C40.171 23.2464 40.2688 23.4405 40.5116 23.4895H40.5605V23.5385C40.5116 23.6856 40.6095 23.8307 40.7073 23.8797C40.7562 23.9287 40.8541 23.9287 40.9011 23.9777C40.9011 23.9777 40.9501 23.9777 40.9501 24.0267V24.0757V24.2699C40.9501 24.3189 40.9501 24.3679 40.999 24.4169C41.0479 24.4659 41.0969 24.4659 41.1458 24.4659H41.3396H41.4864C41.6332 24.4659 41.7292 24.5149 41.827 24.6129C41.7781 24.6129 41.7292 24.6619 41.6802 24.6619C41.5334 24.7109 41.3885 24.809 41.1928 24.9051C40.9501 25.0031 40.7544 25.1482 40.6095 25.2462C40.5116 25.2953 40.5116 25.3443 40.5116 25.3933C40.5116 25.4423 40.5116 25.4913 40.6095 25.5403C40.8033 25.6383 40.8033 25.7344 40.7073 25.8815C40.6095 26.0285 40.5135 26.1736 40.4157 26.3206C40.3667 26.3696 40.3178 26.4187 40.2689 26.4677C39.9282 26.8578 39.5876 27.297 39.4898 27.8323C39.0513 27.8813 38.8575 28.0755 38.6617 28.4656C38.6128 28.6127 38.5639 28.7578 38.5149 28.9048C38.4171 29.148 38.2722 29.344 38.0275 29.4401C37.8808 29.4891 37.7848 29.5872 37.638 29.6343C37.3952 29.7813 37.1995 29.9754 37.1035 30.1696C37.0546 30.2676 36.9568 30.4128 36.9097 30.5598C36.7159 30.8519 36.4712 30.999 36.1796 30.999C35.8879 30.999 35.6451 31.048 35.4005 31.146H35.3026C35.1088 31.195 35.0599 31.146 34.962 30.999V30.9499C34.9131 30.9009 34.9131 30.8519 34.8641 30.8029C34.7663 30.6559 34.6214 30.6088 34.4257 30.6559C34.3767 30.6559 34.2789 30.7049 34.2789 30.8029C34.2789 30.8519 34.23 30.9009 34.23 30.9009C33.9872 30.999 33.9383 31.1931 33.8893 31.3891C33.8404 31.5833 33.7915 31.6813 33.5977 31.7303C33.306 31.8283 33.1592 32.0715 33.1103 32.3636C33.0613 32.6068 33.0613 32.8028 33.2081 32.9479C33.306 33.0949 33.4998 33.1911 33.7426 33.2401H33.7915C33.8404 33.2401 33.8894 33.2401 33.9383 33.2891C33.9383 33.2891 33.9872 33.2891 33.9872 33.3381C33.9872 33.3871 33.9383 33.4361 33.9383 33.4851C33.8894 33.6321 33.8404 33.7773 33.8404 33.9733C33.7915 34.3635 33.9383 34.6556 34.3749 34.7536H34.4238C34.4727 34.7536 34.5217 34.7536 34.5706 34.8026C34.6685 34.8026 34.7174 34.9007 34.7174 34.9968V35.0458C34.7174 35.1928 34.7663 35.387 34.8152 35.534C34.9131 35.8261 34.962 36.1183 35.0091 36.4595C35.0091 36.7026 35.0091 36.7026 34.7663 36.7516C34.7663 36.7516 34.7174 36.7516 34.7174 36.7026C34.6195 36.5556 34.5236 36.5085 34.3768 36.5085C34.0851 36.5085 33.8423 36.5575 33.6466 36.7026C33.5488 36.8006 33.4528 36.8006 33.306 36.7026C32.9165 36.5085 32.5269 36.4595 32.1863 36.4105C31.9925 36.4105 31.8946 36.4105 31.8457 36.5085C31.7478 36.6065 31.7478 36.7026 31.7478 36.8986V36.9967H31.6989H31.65H31.5521C31.3094 36.9967 31.0647 37.1437 31.0177 37.3868C30.9687 37.581 31.0177 37.826 31.2115 37.9711C31.2604 37.9711 31.2604 38.0201 31.2604 38.0691C31.3094 38.4103 31.5521 38.5573 31.7478 38.6534C31.8457 38.7024 31.9417 38.7514 32.0395 38.8476C32.0884 38.8966 32.1374 38.8966 32.1863 38.9456C32.2352 38.9946 32.3331 39.0436 32.3801 39.0436C32.478 39.0926 32.574 39.1906 32.7207 39.2377C32.9146 39.3358 33.0614 39.3358 33.2552 39.2377C33.3531 39.1887 33.402 39.1887 33.498 39.1397C33.6447 39.0907 33.7897 39.0907 33.8875 39.1397C33.8386 39.1887 33.7897 39.1887 33.7407 39.1887C33.5939 39.1887 33.449 39.2868 33.3512 39.3829C33.2533 39.4809 33.1573 39.5299 33.0106 39.577H32.9127C32.7659 39.577 32.621 39.626 32.4742 39.675C32.3764 39.724 32.3764 39.724 32.2804 39.577C32.1825 39.43 32.0866 39.3829 31.8909 39.43C31.7441 39.479 31.697 39.577 31.697 39.7712C31.697 39.9653 31.7949 40.1613 31.9398 40.3065C31.9944 40.3536 31.9944 40.3536 32.0433 40.4026C32.0922 40.4516 32.1411 40.5006 32.1901 40.5496C32.4328 40.8418 32.6286 41.1339 32.8224 41.379L33.2119 41.8672C33.2609 41.9652 33.3587 42.0142 33.4058 42.1103C33.8931 42.6457 34.4276 42.7927 35.1089 42.5495C35.1578 42.5005 35.2556 42.5005 35.3027 42.4515C35.4495 42.4025 35.5454 42.3535 35.6922 42.3045C35.935 42.2555 36.1307 42.1575 36.3245 42.0613C36.3735 42.0123 36.4224 42.0123 36.5184 41.9633C36.6162 41.9143 36.7122 41.8163 36.7122 41.6712V41.5732V41.33C36.7611 41.1359 36.7122 40.9888 36.6143 40.8418V40.7928L36.6633 40.7438C36.8571 40.6458 36.906 40.4517 36.8571 40.2556L37.0039 40.3046V40.3536V40.5478V40.6458C36.906 40.987 36.906 41.085 37.1507 41.2301C36.9568 41.4242 36.9079 41.5713 37.0528 41.8634C37.1017 41.9614 37.1507 42.0576 37.1996 42.1556C37.2975 42.3026 37.2975 42.4477 37.2975 42.6438C37.2975 42.6928 37.2975 42.7908 37.2485 42.8379C37.1996 43.0811 37.1507 43.2771 37.0547 43.5203C36.9568 43.7144 36.9079 43.9104 36.9568 44.1536C37.0547 44.5437 37.0547 44.983 37.0547 45.3241C37.0547 45.3731 37.0547 45.5182 37.2015 45.5673V45.6163C37.0547 45.8594 37.0547 46.0554 37.2015 46.3476C37.2504 46.3966 37.2504 46.4946 37.2504 46.5417C37.2504 46.8339 37.2993 47.0771 37.3483 47.3221V47.3711C37.3972 47.5652 37.4461 47.7613 37.4461 47.9554V48.2966V48.6867C37.495 49.0769 37.5929 49.5161 37.64 49.9043V49.9534C37.6889 50.2455 37.7867 50.4887 37.9316 50.6357L37.9806 50.6847C38.0784 50.7827 38.1274 50.8317 38.0784 50.9279V51.0259C38.0784 51.0749 38.0784 51.0749 38.1273 51.1239C38.1273 51.2219 38.1763 51.2709 38.1763 51.367C38.2252 51.8552 38.419 52.2925 38.7596 52.5847C38.9064 52.7317 38.9535 52.8768 39.0024 53.0728C39.0513 53.267 39.0513 53.512 39.1492 53.7062C39.296 53.9983 39.343 54.2905 39.343 54.5826C39.343 55.0218 39.3919 55.412 39.5858 55.8003C39.7796 56.1904 39.9753 56.5806 40.1691 57.0179C40.2181 57.1159 40.3159 57.212 40.4119 57.31C40.5097 57.359 40.5587 57.4571 40.5587 57.6022C40.6076 57.7963 40.6565 57.8944 40.7055 58.0414C40.8523 58.2845 40.9482 58.5296 41.0461 58.7727C41.095 58.9197 41.1439 59.0159 41.1929 59.1629C41.2418 59.2609 41.2418 59.3099 41.2907 59.406C41.3396 59.504 41.3396 59.6492 41.3886 59.7472C41.3886 59.7962 41.4375 59.8942 41.4375 59.9903C41.4375 60.0884 41.4375 60.1374 41.4864 60.2335C41.5354 60.3805 41.5354 60.4766 41.5843 60.6237C41.6332 60.7217 41.6332 60.8178 41.6332 60.9158C41.6821 61.0628 41.6821 61.159 41.7311 61.306C41.78 61.5491 41.8289 61.8413 41.9249 62.0863C42.0717 62.5745 42.3144 62.9157 42.704 63.0608C42.9468 63.1588 43.1425 63.255 43.3852 63.402C43.4831 63.451 43.628 63.5 43.7748 63.5C43.8237 63.5 43.8726 63.5 43.9686 63.451C44.2114 63.353 44.456 63.2569 44.6988 63.0118C44.7966 62.9138 44.7966 62.7687 44.7477 62.6706V62.6216C44.7477 62.5236 44.6988 62.4275 44.6988 62.3295C44.6988 62.1825 44.7477 62.0863 44.7966 61.9393V61.8903C44.8455 61.7433 44.9434 61.6962 45.0883 61.6962C45.38 61.7452 45.6717 61.6472 45.9163 61.5982C46.1102 61.5491 46.208 61.4511 46.1591 61.208C46.1102 61.0138 46.1591 60.8668 46.3059 60.7688C46.4997 60.5256 46.6954 60.2806 46.7933 59.9884C46.7933 59.9394 46.8422 59.8904 46.9401 59.8904C47.0869 59.8904 47.2318 59.8904 47.3786 59.9394C47.4275 59.9394 47.5253 59.9394 47.5253 59.8904C47.5253 59.8904 47.5743 59.8414 47.5743 59.7924V59.7434C47.5743 59.5964 47.6232 59.5003 47.5743 59.3532C47.5253 59.0611 47.5253 58.8179 47.5253 58.5729C47.5743 58.3297 47.5743 58.0376 47.4764 57.7925C47.3786 57.5984 47.4275 57.4024 47.5743 57.1592C47.7681 56.8671 47.9149 56.5749 48.0617 56.3298L48.1106 56.2318C48.2084 56.0377 48.2574 55.8417 48.2084 55.6475C48.2084 55.5985 48.2084 55.5005 48.2574 55.4044C48.3552 55.2102 48.4042 55.0142 48.3552 54.8201C48.3063 54.7221 48.3063 54.6259 48.2574 54.4789C48.2084 54.3319 48.2084 54.2358 48.2574 54.1377C48.3552 53.9436 48.3552 53.7476 48.2084 53.6024C48.1106 53.5044 48.1106 53.4083 48.1595 53.2613C48.2574 52.9691 48.2574 52.677 48.1106 52.3358C48.0617 52.1887 48.0127 52.0926 48.0617 51.9946C48.1595 51.8005 48.1595 51.6534 48.1595 51.4103C48.1595 51.3123 48.1595 51.2633 48.2574 51.2162H48.3063C48.3552 51.2162 48.3552 51.2162 48.4042 51.1671C48.4531 51.1671 48.502 51.1181 48.502 51.1181C48.5999 51.0691 48.6488 51.0201 48.7448 51.0201H48.7937C48.8426 51.0691 48.8426 51.0691 48.8915 51.1181C48.9405 51.1671 48.9894 51.2162 49.0383 51.2162C49.1362 51.2652 49.2322 51.2652 49.33 51.2652C49.3789 51.2652 49.4279 51.2162 49.4768 51.1671C49.5257 51.0691 49.5257 50.973 49.5747 50.924C49.6236 50.826 49.6236 50.7299 49.6725 50.6318C49.6725 50.5828 49.7214 50.5338 49.7214 50.5338C49.8193 50.4848 49.8682 50.4358 49.8682 50.3397V50.2417H49.9661C50.015 50.2417 50.015 50.2417 50.0639 50.2907C50.1129 50.2907 50.1618 50.3397 50.2107 50.3397C50.2107 50.3397 50.3575 50.3397 50.4046 50.2907C50.4535 50.1927 50.5513 50.1927 50.6473 50.1927H50.7941H50.9409C51.1837 50.1927 51.3794 50.0947 51.4753 49.9005C51.5732 49.6574 51.6221 49.4123 51.5243 49.1692C51.4753 49.1202 51.5243 49.0712 51.5732 49.0222L51.6221 48.9732C51.6711 48.9241 51.72 48.9241 51.7689 48.8751C51.8668 48.7771 52.0117 48.681 52.2074 48.632C52.5969 48.534 52.8397 48.3398 52.9865 47.9987C53.1333 47.7065 53.3271 47.5105 53.6677 47.4144H53.7167H53.7656C53.9594 47.3164 54.1551 47.2202 54.3001 47.0242C54.349 46.9752 54.3979 46.9262 54.4468 46.8772C54.4958 46.8282 54.5447 46.7792 54.5936 46.683C54.5936 46.634 54.6426 46.634 54.6426 46.585C54.7404 46.487 54.8364 46.3419 54.8853 46.1948C54.9832 45.9027 55.177 45.6595 55.3727 45.4635C55.6155 45.2204 55.9072 44.9753 56.2478 44.7812C56.2967 44.7322 56.3946 44.7322 56.4905 44.6832C56.6844 44.6342 56.8801 44.5851 57.1228 44.5361L57.3167 44.4871C57.5105 44.4381 57.6084 44.3401 57.7062 44.195C57.7551 44.097 57.8041 44.048 57.853 44.0008C57.9508 43.9028 58.0468 43.8067 58.0958 43.6597C58.0958 43.5617 58.1447 43.4655 58.2896 43.4165C58.3385 43.3675 58.3874 43.3675 58.4364 43.3185C58.5342 43.2205 58.6302 43.1244 58.6302 43.0263C58.6302 42.9283 58.6302 42.7832 58.5323 42.6852C58.4834 42.6362 58.4834 42.5872 58.4345 42.5381L58.3856 42.4891C58.3366 42.4401 58.3366 42.3911 58.3366 42.295C58.3366 42.246 58.3856 42.197 58.4345 42.148C58.4834 42.148 58.4834 42.099 58.5323 42.099C58.6791 42.001 58.7751 41.9048 58.824 41.7578C58.824 41.7088 58.873 41.6598 58.9708 41.6598C59.2136 41.6108 59.4093 41.6108 59.6521 41.5618H59.8459C59.8948 41.6598 59.9927 41.7559 60.1376 41.7559C60.2844 41.7559 60.4293 41.6579 60.4293 41.5128H60.5761C60.625 41.5618 60.6739 41.6108 60.6739 41.6108H60.7228C60.7718 41.5618 60.8207 41.6108 60.9167 41.6108H60.9656C60.9656 41.6108 61.0635 41.6108 61.1124 41.5618C61.1613 41.5128 61.1613 41.5128 61.2102 41.5618H61.2592C61.406 41.6108 61.5019 41.5618 61.5509 41.4638C61.5998 41.3657 61.5998 41.2696 61.5509 41.1226C61.453 40.9284 61.453 40.9285 61.5998 40.7814C61.6487 40.7324 61.6976 40.6344 61.6976 40.5383C61.6976 40.4893 61.6487 40.4403 61.5998 40.3913C61.453 40.2932 61.453 40.1971 61.453 39.9521C61.453 39.805 61.4041 39.6109 61.3062 39.3678C61.2573 39.2698 61.2084 39.1736 61.2573 39.0756C61.3062 38.9776 61.3062 38.8815 61.2573 38.8325C61.2084 38.7835 61.1594 38.7344 61.0145 38.6854H60.9656C61.0635 38.4913 61.0145 38.3933 60.8188 38.2463L60.7699 38.1973C60.721 38.0992 60.7699 38.0502 60.8188 37.9541C61.0126 37.8071 60.9656 37.7109 60.8677 37.5639C60.8677 37.4169 60.8677 37.3208 60.7699 37.1738C60.672 37.0267 60.5271 36.9796 60.3314 36.9306C60.2825 36.9306 60.2336 36.8816 60.1846 36.8326C60.0868 36.7836 60.0378 36.6856 59.9908 36.6384L59.9419 36.5894L59.8929 36.5404C59.8929 36.4914 59.9419 36.4424 59.9419 36.4424C60.0886 36.3934 60.1846 36.3444 60.2825 36.2483C60.3803 36.1503 60.4293 36.1013 60.4293 35.9561V35.9071H60.5271C60.6739 35.9071 60.8188 35.9071 60.9167 35.8581C61.0145 35.8581 61.1105 35.7601 61.1105 35.664C61.1594 35.566 61.1105 35.4698 61.0616 35.4208C61.0126 35.3718 60.9637 35.3718 60.9148 35.3228C60.9148 35.1287 60.8169 35.0796 60.6231 35.0796H60.4293C60.3314 34.8855 60.1865 34.8365 60.0397 34.7875C59.9908 34.7875 59.9419 34.7385 59.8929 34.7385C59.9908 34.6895 60.0397 34.5443 59.9908 34.3973L60.0397 34.3483C60.1865 34.2503 60.2335 34.1542 60.2825 34.0071V33.9581H60.3314C60.3314 33.9581 60.3803 33.9581 60.3803 34.0071C60.4293 34.0562 60.4782 34.0562 60.5271 34.0562H60.576C60.625 34.1052 60.7228 34.1542 60.8188 34.1542C61.0126 34.1542 61.0126 34.1052 61.0616 33.96C61.0616 34.009 61.1105 34.009 61.1105 34.058C61.1594 34.156 61.2083 34.3012 61.3043 34.3502C61.4511 34.3992 61.596 34.4482 61.7428 34.4972H61.9366C61.9856 34.4482 61.9856 34.3502 61.9856 34.3031V34.2541H62.0345V34.3031C62.0345 34.3521 62.0834 34.4501 62.0834 34.4972C62.1323 34.5952 62.1323 34.6442 62.0834 34.6914C61.9366 34.8855 61.9366 35.1795 62.0345 35.3737C62.1323 35.6169 62.3262 35.7639 62.5689 35.8129C62.9096 35.8619 63.2012 35.9109 63.4929 35.9109C63.7846 35.9109 64.0763 35.8619 64.321 35.8619C64.4188 35.8619 64.4678 35.8619 64.5638 35.8129H64.6127C64.8065 35.8129 65.0022 35.7639 65.196 35.8129C65.3899 35.8619 65.5856 35.8619 65.7305 35.8129H65.8284C65.6345 35.9599 65.5856 36.1541 65.5367 36.3011C65.5367 36.3501 65.5367 36.3501 65.4877 36.3991V36.4971C65.4388 36.7402 65.245 36.9363 64.9533 36.9853C64.6127 37.0833 64.2231 37.2774 64.1742 37.8146V37.8636V38.0107C64.1742 38.2048 64.1253 38.4008 64.2231 38.546C64.3699 38.7891 64.5637 38.9852 64.7576 39.1303C64.9514 39.2773 65.245 39.2283 65.4388 39.0323C65.5367 38.9343 65.5367 38.7891 65.4388 38.6911C65.4388 38.6911 65.4388 38.6421 65.3899 38.6421C65.4877 38.4951 65.5837 38.3009 65.5837 38.1068H65.7775V38.1558C65.7775 38.2048 65.8265 38.3028 65.8265 38.3499C65.8754 38.7401 65.9243 39.0323 66.1182 39.3244C66.1671 39.3734 66.1671 39.4714 66.1671 39.5186V39.6166V39.7636C66.1671 39.8616 66.216 40.0067 66.216 40.1538C66.216 40.2028 66.3139 40.3008 66.3628 40.3479C66.4607 40.3969 66.6056 40.4459 66.7034 40.4949C66.8502 40.5439 66.9462 40.5439 67.044 40.3969C67.2379 40.1048 67.4336 39.7636 67.2868 39.2754C67.2379 39.0813 67.2379 38.9342 67.3357 38.7401C67.3847 38.6911 67.3847 38.6421 67.4336 38.5931C67.5314 38.446 67.5804 38.2519 67.5314 38.0577C67.5314 37.9107 67.4825 37.7656 67.4825 37.6186V37.5206H67.5314C67.5804 37.4715 67.6293 37.4715 67.6293 37.4225C67.6293 37.3735 67.6293 37.3735 67.6782 37.3735H67.7761C67.825 37.3735 67.8739 37.4225 67.9699 37.4225C68.0678 37.4715 68.1167 37.4715 68.2127 37.5206C68.4065 37.5696 68.5533 37.5206 68.6511 37.3264C68.7001 37.2284 68.749 37.1323 68.749 37.0343C68.7979 36.8401 68.8469 36.6931 68.8958 36.4989C68.9936 36.0108 69.1385 35.5245 69.1875 35.0363V34.9873C69.4792 34.8403 69.6259 34.5481 69.7708 34.2559C69.9176 33.9148 69.9647 33.6226 69.8198 33.3305V33.2814C69.8198 33.1834 69.8198 33.1344 69.8687 33.0873C69.9176 33.0383 69.9665 32.9893 70.0155 32.9403C70.0644 32.8913 70.0644 32.8423 70.1133 32.8423L70.1622 32.7933C70.2112 32.7443 70.2601 32.6953 70.3561 32.6462C70.5499 32.5482 70.6967 32.4521 70.7946 32.2071C70.8435 32.0129 70.9884 31.9639 71.1841 31.9149C71.4269 31.9149 71.5736 31.8659 71.7186 31.7208C71.7675 31.6717 71.8164 31.6718 71.8164 31.6718C71.8653 31.6718 71.8653 31.7208 71.9143 31.7698C71.9143 31.7698 71.9632 31.8188 71.9632 31.8678V31.9168C72.0121 32.0148 72.061 32.0638 72.157 32.1109C72.2549 32.1599 72.3038 32.1109 72.3998 32.0619C72.4487 32.0129 72.4976 32.0129 72.4976 31.9149C72.4976 31.8659 72.4976 31.8169 72.4487 31.7679C72.3998 31.7189 72.3509 31.6699 72.3019 31.6208L72.253 31.5718C72.0102 31.2797 72.0102 31.2307 72.3019 30.9875C72.7253 31.0441 72.823 30.8971 72.9189 30.801Z" fill="#FFD45D"/>
</g>
<defs>
<filter id="filter0_d_207_4642" x="0" y="0" width="104" height="104" filterUnits="userSpaceOnUse" color-interpolation-filters="sRGB">
<feFlood flood-opacity="0" result="BackgroundImageFix"/>
<feColorMatrix in="SourceAlpha" type="matrix" values="0 0 0 0 0 0 0 0 0 0 0 0 0 0 0 0 0 0 127 0" result="hardAlpha"/>
<feOffset dy="12"/>
<feGaussianBlur stdDeviation="6"/>
<feComposite in2="hardAlpha" operator="out"/>
<feColorMatrix type="matrix" values="0 0 0 0 0 0 0 0 0 0 0 0 0 0 0 0 0 0 0.05 0"/>
<feBlend mode="normal" in2="BackgroundImageFix" result="effect1_dropShadow_207_4642"/>
<feBlend mode="normal" in="SourceGraphic" in2="effect1_dropShadow_207_4642" result="shape"/>
</filter>
</defs>
</svg>
