<svg width="295" height="90" viewBox="0 0 295 90" fill="none" xmlns="http://www.w3.org/2000/svg">
<path d="M89.8217 44.9182C83.1626 41.9402 72.943 36.3875 63.0538 26.4015C53.3458 16.6025 47.9349 6.56092 45.0205 0C45.0146 0.032147 45.0088 0.0672151 45 0.108129C44.9883 0.0672151 44.9854 0.0292246 44.9795 0C42.0651 6.56384 36.6513 16.6025 26.9462 26.4015C17.0511 36.3904 6.83449 41.9431 0.178321 44.9182C0.119857 44.9503 0.0584643 44.9766 0 45C0.0584643 45.0263 0.119857 45.0526 0.178321 45.0818C6.83741 48.054 17.0511 53.6125 26.9462 63.5985C36.6513 73.3975 42.0651 83.4391 44.9795 90C44.9854 89.9679 44.9912 89.9328 45 89.8918C45.0117 89.9328 45.0146 89.9708 45.0205 90C47.9349 83.4362 53.3458 73.3975 63.0538 63.5985C72.946 53.6096 83.1655 48.051 89.8217 45.0818C89.8802 45.0497 89.9415 45.0234 90 45C89.9415 44.9737 89.8802 44.9474 89.8217 44.9182ZM56.1901 55.1818C48.809 62.3126 45.9647 70.7644 44.9912 77.5679C44.0237 70.7644 41.1794 62.3126 33.8041 55.1818C27.0778 48.6852 19.3926 45.9995 13.0259 45.0029C19.3926 43.9976 27.0778 41.3118 33.8041 34.8181C41.1823 27.6874 44.0237 19.2415 44.9912 12.438C45.9647 19.2415 48.806 27.6932 56.1901 34.8181C62.9164 41.3148 70.6015 44.0005 76.9683 45.0029C70.6015 46.0024 62.9164 48.6881 56.1901 55.1818Z" fill="#FEA815"/>
<path d="M110.08 55V26.2H117.56V55H110.08ZM140.48 55L138.8 49.04H128.76L127.12 55H119.52L129.2 26.2H138.36L148.08 55H140.48ZM130.44 43.04H137.16L134.28 32.76H133.32L130.44 43.04ZM148.483 45.04H155.043C155.443 47.76 157.963 49.52 161.323 49.52C163.803 49.52 165.523 48.4 165.523 46.84C165.523 45.2 164.043 44.36 161.323 43.76C156.643 42.72 149.323 42.12 149.323 35.16C149.323 29.44 154.003 25.6 161.043 25.6C167.803 25.6 172.003 29 172.603 35H166.403C165.803 32.68 163.083 31.64 160.883 31.64C159.123 31.64 156.803 32.32 156.803 34.28C156.803 35.68 158.283 36.52 160.603 37.04C165.243 38.16 172.963 38.72 172.963 46C172.963 51.96 168.443 55.6 161.083 55.6C153.283 55.6 148.643 51.64 148.483 45.04Z" fill="#0A4B83"/>
<path d="M182.389 45.04H188.949C189.349 47.76 191.869 49.52 195.229 49.52C197.709 49.52 199.429 48.4 199.429 46.84C199.429 45.2 197.949 44.36 195.229 43.76C190.549 42.72 183.229 42.12 183.229 35.16C183.229 29.44 187.909 25.6 194.949 25.6C201.709 25.6 205.909 29 206.509 35H200.309C199.709 32.68 196.989 31.64 194.789 31.64C193.029 31.64 190.709 32.32 190.709 34.28C190.709 35.68 192.189 36.52 194.509 37.04C199.149 38.16 206.869 38.72 206.869 46C206.869 51.96 202.349 55.6 194.989 55.6C187.189 55.6 182.549 51.64 182.389 45.04ZM209.248 63.32V33.88H215.688L216.328 37.32H217.288C218.488 34.72 220.368 33.28 222.928 33.28C227.728 33.28 230.848 37.84 230.848 44.64C230.848 51.24 227.608 55.6 222.608 55.6C220.008 55.6 218.088 53.88 217.288 51.44H216.328V63.32H209.248ZM220.048 49.48C222.248 49.48 223.768 47.4 223.768 44.36C223.768 41.36 222.248 39.32 220.008 39.32C217.848 39.32 216.328 41.36 216.328 44.4C216.328 47.4 217.808 49.48 220.048 49.48ZM245.354 41.76C245.354 39.4 243.994 38.44 242.114 38.44C240.434 38.44 239.114 39.4 238.714 41.04H232.554C233.394 35.64 237.954 33.28 242.674 33.28C247.754 33.28 252.234 35.76 252.234 41.68V55H245.794L245.354 51.92H244.394C242.794 54.32 240.834 55.6 237.994 55.6C234.514 55.6 232.074 53.48 232.074 49.72C232.074 43.8 238.114 42.08 243.274 42.12H245.354V41.76ZM245.354 45.8C244.754 45.8 243.874 45.8 243.394 45.8C241.274 45.8 238.954 46.52 238.954 48.36C238.954 49.68 240.034 50.4 241.354 50.4C243.634 50.4 245.354 48.64 245.354 46.6V45.8ZM270.306 33.88V40.56H267.226C264.706 40.56 262.226 42.32 262.226 45.56V55H255.146V33.88H261.586L262.226 38.2H263.186C264.186 35.24 265.506 33.88 267.906 33.88H270.306ZM279.609 55H272.529V26.2H279.609V41.8H280.529L285.729 33.88H294.049L286.769 43.48L294.449 55H285.929L280.529 45.4H279.609V55Z" fill="#FEA815"/>
</svg>
