<svg width="512" height="512" viewBox="0 0 512 512" fill="none" xmlns="http://www.w3.org/2000/svg">
<path d="M510.993 255.526C473.114 238.592 414.978 207.003 358.708 150.189C303.474 94.4421 272.703 37.3327 256.118 0C256.089 0.177634 256.059 0.384848 256 0.621693C255.941 0.384848 255.911 0.177634 255.882 0C239.297 37.3327 208.496 94.4421 153.292 150.189C96.9921 207.003 38.8857 238.592 1.00695 255.526C0.681178 255.704 0.325775 255.852 0 256C0.325775 256.148 0.681178 256.296 1.00695 256.474C38.8857 273.378 96.9921 304.997 153.292 361.811C208.496 417.558 239.297 474.667 255.882 512C255.911 511.822 255.941 511.615 256 511.378C256.059 511.615 256.089 511.822 256.118 512C272.703 474.667 303.474 417.558 358.708 361.811C414.978 304.997 473.114 273.378 510.993 256.474C511.319 256.296 511.674 256.148 512 256C511.674 255.852 511.319 255.704 510.993 255.526ZM319.674 313.909C277.679 354.468 261.509 402.548 255.97 441.243C250.462 402.548 234.292 354.468 192.326 313.909C154.062 276.961 110.349 261.684 74.1286 256C110.349 250.286 154.062 235.01 192.326 198.062C234.292 157.502 250.462 109.452 255.97 70.7575C261.509 109.452 277.679 157.532 319.674 198.062C357.938 235.01 401.651 250.286 437.871 256C401.651 261.684 357.938 276.961 319.674 313.909Z" fill="#0A4B83"/>
</svg>
