<svg width="60" height="60" viewBox="0 0 60 60" fill="none" xmlns="http://www.w3.org/2000/svg">
<rect width="60" height="60" rx="30" fill="#FCFCFC"/>
<path d="M14.5433 35.7244H17.272C17.3433 35.7247 17.4138 35.7105 17.4795 35.6828C17.5451 35.655 17.6044 35.6143 17.6539 35.563C17.7049 35.5135 17.7452 35.4541 17.7725 35.3884C17.7997 35.3227 17.8132 35.2522 17.8122 35.1811C17.8081 35.0406 17.7495 34.9071 17.6486 34.8092C17.5477 34.7112 17.4126 34.6564 17.272 34.6565H14.5433C14.4 34.6573 14.2627 34.7144 14.1611 34.8154C14.0595 34.9164 14.0016 35.0534 14 35.1967C14.004 35.338 14.0631 35.4723 14.1645 35.5708C14.266 35.6694 14.4018 35.7245 14.5433 35.7244Z" fill="#1E40AF"/>
<path d="M16.1387 16.496V18.4735H17.2718C17.5794 18.4743 17.8743 18.5969 18.0918 18.8144C18.3094 19.032 18.432 19.3268 18.4328 19.6345C18.4344 19.7876 18.405 19.9394 18.3463 20.0808C18.2876 20.2222 18.2009 20.3502 18.0913 20.4572C17.9842 20.5656 17.8566 20.6517 17.7159 20.7103C17.5752 20.7689 17.4242 20.7989 17.2718 20.7986H16.1387V23.6547H17.2718C17.5044 23.6523 17.7325 23.7198 17.9264 23.8483C18.1204 23.9769 18.2714 24.1606 18.36 24.3758C18.4485 24.5909 18.4705 24.8277 18.4232 25.0555C18.3759 25.2834 18.2614 25.4918 18.0944 25.6539C17.8731 25.8655 17.578 25.9824 17.2718 25.9798H16.1387V28.839H17.2718C17.4242 28.839 17.5752 28.869 17.7161 28.9274C17.8569 28.9857 17.9849 29.0712 18.0928 29.179C18.2006 29.2869 18.2861 29.4149 18.3444 29.5557C18.4028 29.6966 18.4328 29.8476 18.4328 30C18.4328 30.1525 18.4028 30.3035 18.3444 30.4443C18.2861 30.5852 18.2006 30.7132 18.0928 30.821C17.9849 30.9288 17.8569 31.0143 17.7161 31.0727C17.5752 31.131 17.4242 31.1611 17.2718 31.1611H16.1387V34.0357H17.2718C17.5794 34.0365 17.8743 34.1591 18.0918 34.3767C18.3094 34.5943 18.432 34.8891 18.4328 35.1968C18.4344 35.3498 18.405 35.5017 18.3463 35.6431C18.2876 35.7845 18.2009 35.9125 18.0913 36.0194C17.9829 36.1251 17.8547 36.2083 17.7141 36.2642C17.5734 36.3201 17.4231 36.3477 17.2718 36.3454H16.1387V39.2014H17.2718C17.4993 39.204 17.7212 39.2732 17.9098 39.4005C18.0985 39.5278 18.2457 39.7077 18.3332 39.9177C18.4207 40.1278 18.4448 40.359 18.4023 40.5826C18.3599 40.8062 18.2528 41.0124 18.0944 41.1758C17.8771 41.3965 17.5815 41.5225 17.2718 41.5266H16.1387V43.5041C16.1387 43.7923 16.2531 44.0686 16.4569 44.2724C16.6607 44.4762 16.937 44.5906 17.2252 44.5906H20.7456V15.4094H17.2252C16.937 15.4094 16.6607 15.5239 16.4569 15.7277C16.2531 15.9314 16.1387 16.2078 16.1387 16.496Z" fill="#1E40AF"/>
<path d="M14.5433 20.1777H17.272C17.4153 20.176 17.5522 20.1182 17.6533 20.0166C17.7543 19.9149 17.8114 19.7777 17.8122 19.6344C17.8122 19.4911 17.7553 19.3537 17.654 19.2524C17.5527 19.1511 17.4153 19.0942 17.272 19.0942H14.5433C14.4 19.095 14.2627 19.1521 14.1611 19.2532C14.0595 19.3542 14.0016 19.4911 14 19.6344C14 19.7785 14.0572 19.9167 14.1591 20.0185C14.261 20.1204 14.3992 20.1777 14.5433 20.1777Z" fill="#1E40AF"/>
<path d="M24.4961 26.6659H36.9136V18.9795H24.4961V26.6659ZM26.2221 20.5068H35.1876C35.2699 20.5068 35.3489 20.5396 35.4071 20.5978C35.4653 20.656 35.498 20.735 35.498 20.8173C35.498 20.8996 35.4653 20.9786 35.4071 21.0368C35.3489 21.095 35.2699 21.1277 35.1876 21.1277H26.2221C26.1398 21.1277 26.0608 21.095 26.0026 21.0368C25.9444 20.9786 25.9117 20.8996 25.9117 20.8173C25.9117 20.735 25.9444 20.656 26.0026 20.5978C26.0608 20.5396 26.1398 20.5068 26.2221 20.5068ZM26.2221 22.5123H35.1876C35.2284 22.5123 35.2687 22.5203 35.3064 22.5359C35.3441 22.5515 35.3783 22.5744 35.4071 22.6032C35.4359 22.632 35.4588 22.6663 35.4744 22.7039C35.49 22.7416 35.498 22.782 35.498 22.8227C35.498 22.8635 35.49 22.9039 35.4744 22.9415C35.4588 22.9792 35.4359 23.0134 35.4071 23.0422C35.3783 23.0711 35.3441 23.0939 35.3064 23.1095C35.2687 23.1251 35.2284 23.1332 35.1876 23.1332H26.2221C26.1398 23.1332 26.0608 23.1005 26.0026 23.0422C25.9444 22.984 25.9117 22.9051 25.9117 22.8227C25.9117 22.7404 25.9444 22.6614 26.0026 22.6032C26.0608 22.545 26.1398 22.5123 26.2221 22.5123ZM26.2221 24.5177H35.1876C35.2699 24.5177 35.3489 24.5504 35.4071 24.6086C35.4653 24.6669 35.498 24.7458 35.498 24.8282C35.498 24.9105 35.4653 24.9894 35.4071 25.0477C35.3489 25.1059 35.2699 25.1386 35.1876 25.1386H26.2221C26.1398 25.1386 26.0608 25.1059 26.0026 25.0477C25.9444 24.9894 25.9117 24.9105 25.9117 24.8282C25.9117 24.7458 25.9444 24.6669 26.0026 24.6086C26.0608 24.5504 26.1398 24.5177 26.2221 24.5177Z" fill="#1E40AF"/>
<path d="M14.5441 30.5403H17.2728C17.3438 30.5403 17.414 30.5263 17.4795 30.4992C17.5451 30.472 17.6046 30.4322 17.6548 30.3821C17.7049 30.3319 17.7447 30.2724 17.7719 30.2068C17.799 30.1413 17.813 30.0711 17.813 30.0001C17.813 29.8569 17.7561 29.7195 17.6548 29.6182C17.5535 29.5169 17.4161 29.46 17.2728 29.46H14.5441C14.4731 29.46 14.4029 29.4739 14.3374 29.5011C14.2718 29.5282 14.2123 29.568 14.1621 29.6182C14.112 29.6683 14.0722 29.7279 14.045 29.7934C14.0179 29.8589 14.0039 29.9292 14.0039 30.0001C14.0039 30.0711 14.0179 30.1413 14.045 30.2068C14.0722 30.2724 14.112 30.3319 14.1621 30.3821C14.2123 30.4322 14.2718 30.472 14.3374 30.4992C14.4029 30.5263 14.4731 30.5403 14.5441 30.5403Z" fill="#1E40AF"/>
<path d="M14.5433 25.3591H17.272C17.4161 25.3588 17.5544 25.302 17.657 25.2007C17.7067 25.1505 17.746 25.0908 17.7727 25.0253C17.7993 24.9598 17.8127 24.8896 17.8122 24.8189C17.8122 24.6754 17.7554 24.5376 17.6542 24.4358C17.553 24.3341 17.4156 24.2765 17.272 24.2756H14.5433C14.3994 24.2764 14.2617 24.3339 14.16 24.4357C14.0583 24.5374 14.0008 24.6751 14 24.8189C14 24.8901 14.0141 24.9606 14.0414 25.0263C14.0688 25.0921 14.1088 25.1518 14.1593 25.202C14.2098 25.2522 14.2697 25.2919 14.3356 25.3188C14.4015 25.3458 14.4721 25.3595 14.5433 25.3591Z" fill="#1E40AF"/>
<path d="M17.657 40.7474C17.7067 40.6971 17.746 40.6375 17.7727 40.5719C17.7993 40.5064 17.8127 40.4363 17.8122 40.3655C17.8122 40.222 17.7554 40.0843 17.6542 39.9825C17.553 39.8807 17.4156 39.8231 17.272 39.8223H14.5433C14.3994 39.8231 14.2617 39.8806 14.16 39.9823C14.0583 40.084 14.0008 40.2217 14 40.3655C14 40.4367 14.0141 40.5072 14.0414 40.573C14.0688 40.6387 14.1088 40.6984 14.1593 40.7486C14.2098 40.7988 14.2697 40.8385 14.3356 40.8655C14.4015 40.8924 14.4721 40.9061 14.5433 40.9057H17.272C17.4161 40.9054 17.5544 40.8486 17.657 40.7474Z" fill="#1E40AF"/>
<path d="M38.9318 15.4094H21.3672V44.5906H38.9318C39.22 44.5906 39.4963 44.4762 39.7001 44.2724C39.9039 44.0686 40.0183 43.7923 40.0183 43.5041V16.496C40.0183 16.2078 39.9039 15.9314 39.7001 15.7277C39.4963 15.5239 39.22 15.4094 38.9318 15.4094ZM37.5348 26.9764C37.5348 27.0587 37.5021 27.1377 37.4439 27.1959C37.3857 27.2541 37.3067 27.2868 37.2244 27.2868H24.186C24.1036 27.2868 24.0247 27.2541 23.9665 27.1959C23.9082 27.1377 23.8755 27.0587 23.8755 26.9764V18.669C23.8755 18.5867 23.9082 18.5077 23.9665 18.4495C24.0247 18.3913 24.1036 18.3586 24.186 18.3586H37.2244C37.3067 18.3586 37.3857 18.3913 37.4439 18.4495C37.5021 18.5077 37.5348 18.5867 37.5348 18.669V26.9764Z" fill="#1E40AF"/>
<path d="M45.9996 21.5312H44.3574V39.6733H45.9996V21.5312Z" fill="#1E40AF"/>
<path d="M45.2854 17.5576H42.8019C42.6125 17.5576 42.4309 17.6328 42.297 17.7667C42.1631 17.9006 42.0879 18.0823 42.0879 18.2716V20.9104H45.9932V18.2716C45.9932 18.0833 45.9188 17.9027 45.7863 17.7689C45.6537 17.6352 45.4737 17.5593 45.2854 17.5576Z" fill="#1E40AF"/>
<path d="M44.0471 44.159L44.6587 42.8303H43.4355L44.0471 44.159Z" fill="#1E40AF"/>
<path d="M43.1492 42.2096H44.9436L45.8252 40.2942H42.2676L43.1492 42.2096Z" fill="#1E40AF"/>
<path d="M43.736 21.5312H42.0938V39.6733H43.736V21.5312Z" fill="#1E40AF"/>
</svg>
