<svg width="60" height="60" viewBox="0 0 60 60" fill="none" xmlns="http://www.w3.org/2000/svg">
<rect width="60" height="60" rx="30" fill="#FCFCFC"/>
<path fill-rule="evenodd" clip-rule="evenodd" d="M43.9643 23.9475V41.802C43.9643 43.1161 43.076 44.237 41.7932 44.5363L35.0815 46.1021H44.3929C45.2975 46.1021 46.0307 45.3648 46.0307 44.4642V23.9477L43.9643 23.9475ZM33.7551 20.2867C35.3753 21.9068 35.7807 24.4085 34.7332 26.4573C33.4926 28.8814 31.9391 28.0842 31.9391 31.0485H28.0635C28.0635 29.9494 27.9097 29.0842 26.8936 28.3496C25.5169 27.3552 24.6925 25.7718 24.6925 24.0415C24.6912 19.3252 30.4195 16.9515 33.755 20.287L33.7551 20.2867ZM28.3667 34.5432C27.5968 34.5432 27.5968 33.3733 28.3667 33.3733H31.6356C32.4055 33.3733 32.4055 34.5432 31.6356 34.5432H28.3667ZM23.7075 29.5072C23.1253 30.0894 22.2778 30.673 22.8233 31.2185C23.3688 31.764 23.9524 30.9165 24.5346 30.3343C25.0787 29.7902 24.2517 28.9631 23.7075 29.5072ZM36.3506 16.8641C35.7684 17.4464 34.9209 18.03 35.4664 18.5754C36.0119 19.1209 36.5955 18.2734 37.1777 17.6912C37.7218 17.1471 36.8947 16.32 36.3506 16.8641ZM21.6849 23.4564C22.4549 23.4564 22.4549 24.6263 21.6849 24.6263C20.8619 24.6263 19.8498 24.8127 19.8498 24.0414C19.8498 23.2701 20.8633 23.4564 21.6849 23.4564ZM39.5667 23.4564C40.3366 23.4564 40.3366 24.6263 39.5667 24.6263C38.7437 24.6263 37.7316 24.8127 37.7316 24.0414C37.7302 23.2701 38.7437 23.4564 39.5667 23.4564ZM24.535 17.7483C23.9527 17.1661 23.3691 16.3186 22.8236 16.8641C22.2782 17.4096 23.1256 17.9932 23.7079 18.5754C24.252 19.1195 25.0791 18.2925 24.535 17.7483ZM37.178 30.3938C37.7195 30.938 36.8937 31.761 36.351 31.2169C35.7728 30.636 34.9212 30.0524 35.4695 29.5083C36.0136 28.9655 36.5958 29.8102 37.178 30.3938ZM29.416 14.4752C29.416 13.7052 30.5859 13.7052 30.5859 14.4752C30.5859 15.2982 30.7722 16.3102 30.0009 16.3102C29.2282 16.3116 29.416 15.2982 29.416 14.4752ZM40.4933 38.7138C41.2429 38.5397 41.5068 39.6769 40.7586 39.8524L32.798 41.7079C32.0485 41.882 31.7846 40.7448 32.5328 40.5693L40.4933 38.7138ZM40.4933 35.0231C41.2429 34.849 41.5068 35.9862 40.7586 36.1617L32.798 38.0185C32.0485 38.1926 31.7846 37.0554 32.5328 36.8799L40.4933 35.0231ZM29.416 45.9493L18.4734 43.3973C17.7197 43.2218 17.2083 42.577 17.2083 41.8017L17.2069 19.9506L23.8657 21.9462C22.9421 24.6519 23.9065 27.631 26.211 29.2949C27.5713 30.2771 26.2627 32.2183 27.4774 32.2183H32.5228C33.7376 32.2183 32.429 30.2771 33.7893 29.2949C36.0923 27.6312 37.0582 24.6521 36.1345 21.9462L42.7947 19.9506V41.8017C42.7947 42.5784 42.2832 43.2218 41.5296 43.3973L30.5856 45.9493V36.6243C30.5856 35.8544 29.4157 35.8544 29.4157 36.6243L29.416 45.9493ZM16.0371 23.9471H13.9707V44.4623C13.9707 44.9126 14.1543 45.322 14.4523 45.6186L14.4509 45.6199C14.7475 45.9165 15.1569 46.1001 15.6085 46.1001H24.9199L18.2082 44.5344C16.9254 44.2351 16.0371 43.1156 16.0371 41.8001L16.0371 23.9471ZM19.2434 39.8508L27.2039 41.7077C27.9535 41.8818 28.2174 40.7446 27.4692 40.5691L19.5086 38.7122C18.7605 38.5395 18.4952 39.6767 19.2434 39.8508ZM19.2434 36.1615L27.2039 38.0183C27.9535 38.1925 28.2174 37.0552 27.4692 36.8798L19.5086 35.0229C18.7605 34.8488 18.4952 35.9874 19.2434 36.1615Z" fill="#1E40AF"/>
</svg>
