<svg width="60" height="60" viewBox="0 0 60 60" fill="none" xmlns="http://www.w3.org/2000/svg">
<rect width="60" height="60" rx="30" fill="#FCFCFC"/>
<path d="M27.9423 29.6116L24.7434 30.6218C24.1373 30.8238 23.5312 30.8911 22.8914 30.8911H20.3323C19.4904 30.8911 18.716 31.1942 18.0762 31.7666L14.4059 35.1002C13.9008 35.5716 13.8671 36.3798 14.3049 36.8849C14.5406 37.1542 14.911 37.2889 15.2477 37.2889C15.5507 37.2889 15.8538 37.1879 16.0895 36.9522L18.3456 34.8982V43.8888C18.3456 44.5959 18.918 45.1347 19.5915 45.1347C20.2986 45.1347 20.8373 44.5622 20.8373 43.8888V38.9052C20.8373 38.7369 20.972 38.5685 21.1741 38.5685H22.3189C22.4873 38.5685 22.6557 38.7032 22.6557 38.9052V43.9224C22.6557 44.6296 23.2281 45.1683 23.9016 45.1683C24.575 45.1683 25.1474 44.5959 25.1474 43.9224V33.0799C25.2485 33.0462 25.3158 33.0462 25.4168 33.0125L28.178 32.137C27.9759 31.834 27.8076 31.4636 27.7402 31.0932C27.7066 30.6218 27.7402 30.083 27.9423 29.6116Z" fill="#1E40AF"/>
<path d="M21.7791 30.1167C23.4714 30.1167 24.8433 28.7448 24.8433 27.0525C24.8433 25.3602 23.4714 23.9883 21.7791 23.9883C20.0867 23.9883 18.7148 25.3602 18.7148 27.0525C18.7148 28.7448 20.0867 30.1167 21.7791 30.1167Z" fill="#1E40AF"/>
<path d="M45.6887 29.679L41.8164 23.9884C41.1429 22.9782 39.998 22.3721 38.7858 22.3721H36.2604C35.0482 22.3721 33.9033 22.9782 33.2298 23.9884L29.3238 29.679C28.8861 30.2851 28.9198 31.1606 29.4922 31.6657C30.1993 32.3392 31.2768 32.1708 31.7819 31.43L34.2064 27.8607L31.9503 34.7636C31.7146 35.4371 32.2197 36.1442 32.9605 36.1442H33.8696L33.4992 43.5185C33.4656 44.2593 33.937 44.9664 34.6778 45.1348C35.6206 45.3368 36.4624 44.6634 36.4961 43.7205L36.8665 36.2789C36.8665 36.1779 36.9338 36.1105 37.0349 36.1105H38.045C38.1461 36.1105 38.2134 36.1779 38.2134 36.2789L38.5838 43.7205C38.6175 44.5287 39.2909 45.1684 40.0991 45.1684C40.1327 45.1684 40.1327 45.1684 40.1664 45.1684C41.0082 45.1348 41.648 44.4276 41.5807 43.5858L41.2103 36.1442H42.1194C42.8266 36.1442 43.3653 35.4371 43.1296 34.7636L40.8735 27.8607L43.298 31.43C43.601 31.8678 44.0724 32.1035 44.5439 32.1035C44.8806 32.1035 45.2173 32.0024 45.5204 31.7667C46.0928 31.2616 46.1601 30.3188 45.6887 29.679Z" fill="#1E40AF"/>
<path d="M37.5055 21.4965C39.3466 21.4965 40.8391 20.004 40.8391 18.1629C40.8391 16.3218 39.3466 14.8293 37.5055 14.8293C35.6644 14.8293 34.1719 16.3218 34.1719 18.1629C34.1719 20.004 35.6644 21.4965 37.5055 21.4965Z" fill="#1E40AF"/>
</svg>
