<svg width="233" height="50" viewBox="0 0 233 50" fill="none" xmlns="http://www.w3.org/2000/svg">
<path d="M25 19.2188C29.6042 19.2188 33.3333 15.4896 33.3333 10.8854C33.3333 6.28126 29.6042 2.55209 25 2.55209C20.3958 2.55209 16.6667 6.28126 16.6667 10.8854C16.6667 15.4896 20.3958 19.2188 25 19.2188ZM25 6.71876C27.2917 6.71876 29.1667 8.59376 29.1667 10.8854C29.1667 13.1771 27.2917 15.0521 25 15.0521C22.7083 15.0521 20.8333 13.1771 20.8333 10.8854C20.8333 8.59376 22.7083 6.71876 25 6.71876ZM25 24.5313C20.0833 19.9479 13.5 17.1354 6.25 17.1354V40.0521C13.5 40.0521 20.0833 42.8646 25 47.4479C29.9167 42.8854 36.5 40.0521 43.75 40.0521V17.1354C36.5 17.1354 29.9167 19.9479 25 24.5313ZM39.5833 36.1563C34.3125 36.8646 29.3125 38.8646 25 42.0313C20.7083 38.8646 15.6875 36.8438 10.4167 36.1354V21.6563C14.7917 22.4479 18.8542 24.4688 22.1667 27.5521L25 30.2188L27.8333 27.5729C31.1458 24.4896 35.2083 22.4688 39.5833 21.6771V36.1563Z" fill="#FFD45D"/>
<path d="M64.88 41V11.2H70.32V41H64.88ZM71.6119 41L81.8919 11.2H88.9319L99.2119 41H93.2919L91.1719 34.6H79.6519L77.4919 41H71.6119ZM81.2119 29.8H89.6119L84.6519 14.96H86.1719L81.2119 29.8ZM110.778 41.48C108.884 41.48 107.124 41.1333 105.498 40.44C103.898 39.7467 102.511 38.7867 101.338 37.56C100.191 36.3067 99.3511 34.8533 98.8178 33.2L103.338 31.24C104.058 32.9467 105.098 34.2933 106.458 35.28C107.818 36.24 109.351 36.72 111.058 36.72C112.018 36.72 112.844 36.5733 113.538 36.28C114.258 35.96 114.804 35.5333 115.178 35C115.578 34.4667 115.778 33.8267 115.778 33.08C115.778 32.2 115.511 31.48 114.978 30.92C114.471 30.3333 113.698 29.88 112.658 29.56L106.938 27.72C104.618 27 102.871 25.92 101.698 24.48C100.524 23.04 99.9378 21.3467 99.9378 19.4C99.9378 17.6933 100.351 16.1867 101.178 14.88C102.031 13.5733 103.204 12.56 104.698 11.84C106.218 11.0933 107.951 10.72 109.898 10.72C111.684 10.72 113.324 11.04 114.818 11.68C116.311 12.2933 117.591 13.16 118.658 14.28C119.751 15.3733 120.564 16.6667 121.098 18.16L116.618 20.16C116.031 18.6667 115.151 17.52 113.978 16.72C112.804 15.8933 111.444 15.48 109.898 15.48C108.991 15.48 108.191 15.64 107.498 15.96C106.804 16.2533 106.258 16.68 105.858 17.24C105.484 17.7733 105.298 18.4133 105.298 19.16C105.298 19.9867 105.564 20.72 106.098 21.36C106.631 21.9733 107.444 22.4533 108.538 22.8L114.018 24.52C116.391 25.2933 118.164 26.36 119.338 27.72C120.538 29.08 121.138 30.76 121.138 32.76C121.138 34.4667 120.698 35.9733 119.818 37.28C118.938 38.5867 117.724 39.6133 116.178 40.36C114.631 41.1067 112.831 41.48 110.778 41.48ZM139.786 41.48C137.892 41.48 136.132 41.1333 134.506 40.44C132.906 39.7467 131.519 38.7867 130.346 37.56C129.199 36.3067 128.359 34.8533 127.826 33.2L132.346 31.24C133.066 32.9467 134.106 34.2933 135.466 35.28C136.826 36.24 138.359 36.72 140.066 36.72C141.026 36.72 141.852 36.5733 142.546 36.28C143.266 35.96 143.812 35.5333 144.186 35C144.586 34.4667 144.786 33.8267 144.786 33.08C144.786 32.2 144.519 31.48 143.986 30.92C143.479 30.3333 142.706 29.88 141.666 29.56L135.946 27.72C133.626 27 131.879 25.92 130.706 24.48C129.532 23.04 128.946 21.3467 128.946 19.4C128.946 17.6933 129.359 16.1867 130.186 14.88C131.039 13.5733 132.212 12.56 133.706 11.84C135.226 11.0933 136.959 10.72 138.906 10.72C140.692 10.72 142.332 11.04 143.826 11.68C145.319 12.2933 146.599 13.16 147.666 14.28C148.759 15.3733 149.572 16.6667 150.106 18.16L145.626 20.16C145.039 18.6667 144.159 17.52 142.986 16.72C141.812 15.8933 140.452 15.48 138.906 15.48C137.999 15.48 137.199 15.64 136.506 15.96C135.812 16.2533 135.266 16.68 134.866 17.24C134.492 17.7733 134.306 18.4133 134.306 19.16C134.306 19.9867 134.572 20.72 135.106 21.36C135.639 21.9733 136.452 22.4533 137.546 22.8L143.026 24.52C145.399 25.2933 147.172 26.36 148.346 27.72C149.546 29.08 150.146 30.76 150.146 32.76C150.146 34.4667 149.706 35.9733 148.826 37.28C147.946 38.5867 146.732 39.6133 145.186 40.36C143.639 41.1067 141.839 41.48 139.786 41.48ZM152.604 49V19.24H157.524V23.56L157.044 22.48C157.791 21.3067 158.804 20.4 160.084 19.76C161.364 19.0933 162.844 18.76 164.524 18.76C166.577 18.76 168.431 19.2667 170.084 20.28C171.737 21.2933 173.044 22.6533 174.004 24.36C174.991 26.0667 175.484 27.9867 175.484 30.12C175.484 32.2267 175.004 34.1467 174.044 35.88C173.084 37.6133 171.777 38.9867 170.124 40C168.471 40.9867 166.591 41.48 164.484 41.48C162.911 41.48 161.457 41.1733 160.124 40.56C158.817 39.92 157.777 39.0133 157.004 37.84L157.844 36.8V49H152.604ZM163.884 36.68C165.084 36.68 166.151 36.4 167.084 35.84C168.017 35.28 168.737 34.5067 169.244 33.52C169.777 32.5333 170.044 31.4 170.044 30.12C170.044 28.84 169.777 27.72 169.244 26.76C168.737 25.7733 168.017 25 167.084 24.44C166.151 23.8533 165.084 23.56 163.884 23.56C162.737 23.56 161.697 23.84 160.764 24.4C159.857 24.96 159.137 25.7467 158.604 26.76C158.097 27.7467 157.844 28.8667 157.844 30.12C157.844 31.4 158.097 32.5333 158.604 33.52C159.137 34.5067 159.857 35.28 160.764 35.84C161.697 36.4 162.737 36.68 163.884 36.68ZM184.079 41.48C182.559 41.48 181.239 41.2267 180.119 40.72C178.999 40.2133 178.132 39.4933 177.519 38.56C176.906 37.6 176.599 36.4933 176.599 35.24C176.599 34.04 176.866 32.9733 177.399 32.04C177.932 31.08 178.759 30.28 179.879 29.64C180.999 29 182.412 28.5467 184.119 28.28L191.239 27.12V31.12L185.119 32.16C184.079 32.3467 183.306 32.68 182.799 33.16C182.292 33.64 182.039 34.2667 182.039 35.04C182.039 35.7867 182.319 36.3867 182.879 36.84C183.466 37.2667 184.186 37.48 185.039 37.48C186.132 37.48 187.092 37.2533 187.919 36.8C188.772 36.32 189.426 35.6667 189.879 34.84C190.359 34.0133 190.599 33.1067 190.599 32.12V26.52C190.599 25.5867 190.226 24.8133 189.479 24.2C188.759 23.56 187.799 23.24 186.599 23.24C185.479 23.24 184.479 23.5467 183.599 24.16C182.746 24.7467 182.119 25.5333 181.719 26.52L177.439 24.44C177.866 23.2933 178.532 22.3067 179.439 21.48C180.372 20.6267 181.466 19.96 182.719 19.48C183.972 19 185.332 18.76 186.799 18.76C188.586 18.76 190.159 19.0933 191.519 19.76C192.879 20.4 193.932 21.3067 194.679 22.48C195.452 23.6267 195.839 24.9733 195.839 26.52V41H190.879V37.28L191.999 37.2C191.439 38.1333 190.772 38.92 189.999 39.56C189.226 40.1733 188.346 40.6533 187.359 41C186.372 41.32 185.279 41.48 184.079 41.48ZM198.682 41V19.24H203.602V24.08L203.202 23.36C203.709 21.7333 204.496 20.6 205.562 19.96C206.656 19.32 207.962 19 209.482 19H210.762V23.64H208.882C207.389 23.64 206.189 24.1067 205.282 25.04C204.376 25.9467 203.922 27.2267 203.922 28.88V41H198.682ZM211.643 41V10.72H216.883V30.56L214.883 29.96L225.123 19.24H231.643L223.603 28L231.803 41H225.803L218.683 29.72L221.803 29.08L215.243 36.12L216.883 32.92V41H211.643Z" fill="#1E40AF"/>
</svg>
