<svg width="178" height="206" viewBox="0 0 178 206" fill="none" xmlns="http://www.w3.org/2000/svg">
<path d="M50.4379 -14.3021C51.9719 7.0129 61.327 25.8904 75.6227 37.6636C77.5351 39.193 79.2596 40.4502 80.9217 41.4931C82.8661 42.6968 84.884 43.7795 86.9753 44.7412C91.9316 47.0206 97.1093 48.3805 102.476 49.2704C112.77 50.8482 123.476 50.48 134.122 48.5987C143.699 46.9691 152.62 44.2016 161.576 38.9438C169.683 34.317 177.511 27.6123 182.895 18.4837C183.189 17.9999 183.493 17.49 183.808 16.954C183.461 17.6301 184.249 16.0428 184.343 15.8078C184.91 14.645 185.415 13.4535 185.856 12.2331C186.066 11.7108 186.266 11.1528 186.455 10.5591C186.519 10.4024 187.055 8.51408 186.834 9.43351C187.15 8.15538 187.393 6.87452 187.562 5.59092C187.647 5.01095 187.711 4.42139 187.754 3.8222C187.818 3.29446 187.754 3.82217 187.785 3.92936C187.806 3.62976 187.807 3.32055 187.787 3.00171C187.767 2.43551 187.747 1.86931 187.727 1.30311C187.706 0.984279 187.675 0.691548 187.634 0.424941C187.603 0.132223 187.542 -0.638742 187.635 0.0538883C187.417 -1.0675 187.105 -2.13939 186.761 -3.13296C186.48 -3.91214 186.636 -3.56175 186.698 -3.34737C186.573 -3.65244 186.448 -3.95751 186.323 -4.26259C186.01 -4.83975 185.666 -5.40044 185.29 -5.94462C185.144 -6.19746 184.966 -6.43385 184.758 -6.65371C184.914 -6.48882 185.196 -6.26617 184.601 -6.81857C184.225 -7.23905 183.838 -7.63346 183.441 -8.00172C183.086 -8.35075 182.699 -8.68327 182.281 -8.99931C182.156 -9.05702 181.56 -9.42386 182.093 -9.08585C181.821 -9.27272 181.571 -9.45 181.341 -9.61763C179.145 -10.813 177.419 -11.3281 175.317 -11.6453C170.923 -12.3663 166.935 -11.8794 162.38 -10.3534C162.223 -10.3327 160.998 -9.87495 161.626 -10.143C161.103 -9.95055 160.579 -9.75807 160.056 -9.5656C159.03 -9.10921 158.014 -8.61713 157.008 -8.08929C155.154 -7.17791 153.269 -6.00267 151.446 -4.79857C151.352 -4.74909 150.723 -4.29548 151.352 -4.74907C151.205 -4.63086 151.027 -4.49615 150.817 -4.34496C150.398 -4.04256 150 -3.73057 149.623 -3.40894C148.701 -2.71893 147.779 -1.9671 146.857 -1.15341C145.18 0.303536 143.555 1.87729 141.983 3.56785C141.857 3.69568 140.756 4.95329 141.291 4.36365C140.934 4.75674 140.599 5.15944 140.284 5.57176C139.445 6.5476 138.648 7.54271 137.893 8.55702C136.488 10.4482 135.155 12.404 133.896 14.4243C133.288 15.4441 132.669 16.49 132.039 17.562C131.955 17.7709 131.85 17.9702 131.724 18.1599C131.661 18.3166 131.157 19.1989 131.441 18.6794C131.724 18.1599 131.346 18.9144 131.283 18.8855C131.115 19.3034 130.937 19.6854 130.748 20.0318C129.593 22.2857 128.542 24.5878 127.597 26.938C126.672 29.2359 125.831 31.5723 125.074 33.9472C124.905 34.4887 124.737 35.0301 124.569 35.5716C124.474 35.8066 124.032 37.2744 124.316 36.3839C123.937 37.695 123.611 38.9992 123.336 40.2965C122.767 42.6961 122.313 45.1177 121.974 47.5612C121.784 48.7733 121.625 49.969 121.497 51.1482C121.454 51.7474 121.422 52.3204 121.4 52.8674C121.358 53.2192 121.326 53.5449 121.304 53.8445C121.24 54.7433 121.273 53.7374 121.272 54.2939C120.689 65.166 122.211 74.871 125.24 84.5264C131.361 104.052 143.578 119.696 158.345 130.851C174.242 142.896 193.695 149.614 213.819 148.936C223.677 148.642 234.167 146.039 243.874 141.684C253.865 137.181 263.482 131.02 272.629 124.179C292.18 109.405 310.355 91.769 326.493 71.8042C330.436 66.9333 334.264 61.9166 337.977 56.7543C339.103 59.3763 340.229 61.9984 341.354 64.6204C326.863 69.7152 312.372 74.81 297.88 79.9048C297.718 76.6121 297.536 73.3097 297.332 69.9977C313.063 67.8561 328.487 62.4162 343.099 53.8183C345.865 52.1193 349.533 55.0132 348.553 58.7403C344.477 74.4118 338.519 89.2177 330.742 103.187C329.419 105.549 326.342 105.805 324.775 104.342C322.926 102.656 323.15 99.6958 324.473 97.3332C331.337 85.0792 336.665 71.6545 340.33 57.9291C342.148 59.5697 343.966 61.2105 345.784 62.8511C330.543 71.9027 314.177 77.6518 297.88 79.9048C295.588 80.2432 293.55 78.6562 293.398 75.8939C293.246 72.946 295.07 70.8143 297.332 69.9977C311.823 64.9029 326.315 59.8081 340.806 54.7132C342.439 54.1647 344.195 55.5291 344.852 57.038C345.508 58.7324 345.379 60.9011 344.183 62.5792C327.978 85.1126 309.359 105.329 289.113 122.384C269.779 138.651 248.344 153.302 225.514 157.564C203.249 161.714 180.968 156.666 162.151 145.413C144.808 134.93 129.797 119.022 120.822 98.2767C116.475 88.2009 113.668 77.0696 112.966 65.3277C112.262 54.328 113.694 43.1961 116.945 32.3443C123.007 11.923 136.099 -7.30756 153.035 -16.5077C162.462 -21.6418 173.108 -23.7086 182.426 -20.2589C187.132 -18.466 191.427 -14.9126 193.804 -9.73456C196.087 -4.69256 196.737 1.26904 195.69 7.37926C193.661 19.443 186.517 29.8046 178.342 37.5566C169.758 45.7704 159.735 51.0941 149.526 54.6616C139.16 58.2498 128.452 59.7311 117.966 60.1076C105.879 60.5831 93.8579 59.0467 83.0041 54.0552C64.6217 45.6014 50.5257 27.0501 44.7554 4.62244C43.352 -0.94326 42.4512 -6.64918 41.9901 -12.5242C41.8689 -15.1793 43.6943 -17.8677 45.9553 -18.3132C48.3107 -18.8082 50.2225 -16.9078 50.4379 -14.3021Z" fill="#FFD45D"/>
</svg>
