<svg width="75" height="68" viewBox="0 0 75 68" fill="none" xmlns="http://www.w3.org/2000/svg">
<path d="M26.056 2.45201C35.7022 1.44353 57.7834 0.373657 68.938 4.16205C69.849 8.15461 71.1498 14.7934 71.6154 19.8574L72.7527 26.5241C74.0155 46.8341 66.8772 60.8564 63.1502 65.3288C58.5201 68.2754 33.3346 64.1011 21.3206 61.6457L16.5851 57.3048C11.6719 40.0563 20.717 13.8512 25.9518 2.67347C25.9884 2.57782 26.0232 2.50347 26.056 2.45201Z" fill="#FFD45D"/>
<path d="M26.056 2.45201C35.7022 1.44353 57.7834 0.373657 68.938 4.16205M26.056 2.45201C25.3193 3.60958 23.5567 16.3516 22.7675 22.5779C22.7675 23.9459 55.0386 25.7787 71.1741 26.5241C72.9631 24.3142 70.4287 10.6953 68.938 4.16205M26.056 2.45201C20.8382 13.5015 11.6392 39.9413 16.5851 57.3048L21.3206 61.6457C33.3346 64.1011 58.5201 68.2754 63.1502 65.3288C66.8772 60.8564 74.0155 46.8341 72.7527 26.5241L68.938 4.16205M33.8169 48.4915C32.7645 51.1224 30.9756 56.9102 32.2384 59.0148C40.4815 61.2072 57.1783 64.2765 58.0202 59.0148V51.1224C53.1532 49.3685 41.4988 46.3869 33.8169 48.4915Z" stroke="#FCFCFC" stroke-width="3"/>
<path d="M31.5781 34.4171L33.5512 19.2898C35.1297 18.1322 37.9797 18.8075 39.2074 19.2898C39.2074 21.0787 37.2782 30.4708 36.3136 34.9432C36.1031 36.1008 33.0689 35.0748 31.5781 34.4171Z" fill="#FFD45D" stroke="#FCFCFC" stroke-width="3"/>
<path d="M55.273 35.3659L55.3212 20.1106C56.741 18.7631 59.6534 19.0732 60.9322 19.3967C61.158 21.1714 60.4295 30.7318 60.037 35.2902C59.9743 36.4651 56.8349 35.8302 55.273 35.3659Z" fill="#FFD45D" stroke="#FCFCFC" stroke-width="3"/>
<path d="M7.2443 58.6201C1.71962 56.3839 -8.27741 43.6243 25.923 2.97803L20.3983 16.5268C16.4521 26.6116 8.55974 47.6758 8.55974 51.2537C8.55974 54.8317 13.339 54.323 15.7944 53.6215L16.5837 57.1731L18.2937 59.2778C16.6275 59.7162 11.664 60.409 7.2443 58.6201Z" fill="#FFD45D" stroke="#FCFCFC" stroke-width="3"/>
<path d="M19.8757 16.0012C18.8672 17.0974 16.824 19.4739 16.7188 20.2105" stroke="#FCFCFC" stroke-width="2"/>
<path d="M13.8196 24.5508C13.0742 25.8223 11.5308 28.5233 11.3203 29.1547" stroke="#FCFCFC" stroke-width="2"/>
<path d="M8.95068 35.469C8.11759 36.916 6.47772 40.0729 6.58296 41.1253" stroke="#FCFCFC" stroke-width="2"/>
<path d="M5.0078 47.3079C4.65703 48.7987 4.16595 51.9907 5.0078 52.8326" stroke="#FCFCFC" stroke-width="2"/>
<path d="M9.21484 56.1211C10.7495 56.6034 14.2134 57.2787 15.7918 56.1211" stroke="#FCFCFC" stroke-width="2"/>
</svg>
