<svg width="174" height="221" viewBox="0 0 174 221" fill="none" xmlns="http://www.w3.org/2000/svg">
<path d="M45.2185 0.697856C46.7526 22.0129 56.1076 40.8904 70.4033 52.6636C72.3158 54.193 74.0403 55.4502 75.7024 56.4931C77.6468 57.6968 79.6646 58.7795 81.7559 59.7412C86.7123 62.0206 91.8899 63.3805 97.2567 64.2704C107.551 65.8482 118.257 65.48 128.902 63.5987C138.48 61.9691 147.4 59.2016 156.356 53.9438C164.464 49.317 172.292 42.6123 177.675 33.4837C177.969 32.9999 178.273 32.49 178.588 31.954C178.242 32.6301 179.029 31.0428 179.124 30.8078C179.691 29.645 180.195 28.4535 180.637 27.2331C180.847 26.7108 181.047 26.1528 181.236 25.5591C181.299 25.4024 181.836 23.5141 181.615 24.4335C181.931 23.1554 182.174 21.8745 182.343 20.5909C182.428 20.011 182.492 19.4214 182.534 18.8222C182.598 18.2945 182.534 18.8222 182.566 18.9294C182.587 18.6298 182.588 18.3205 182.567 18.0017C182.547 17.4355 182.527 16.8693 182.507 16.3031C182.487 15.9843 182.456 15.6915 182.415 15.4249C182.384 15.1322 182.322 14.3613 182.415 15.0539C182.197 13.9325 181.885 12.8606 181.542 11.867C181.26 11.0879 181.417 11.4383 181.479 11.6526C181.354 11.3476 181.229 11.0425 181.104 10.7374C180.791 10.1602 180.447 9.59956 180.071 9.05538C179.925 8.80254 179.747 8.56615 179.538 8.34629C179.695 8.51118 179.977 8.73383 179.382 8.18143C179.006 7.76095 178.619 7.36654 178.222 6.99828C177.867 6.64925 177.48 6.31673 177.062 6.00069C176.937 5.94298 176.341 5.57614 176.874 5.91415C176.602 5.72728 176.351 5.55 176.121 5.38237C173.926 4.18699 172.2 3.67189 170.097 3.35468C165.703 2.6337 161.715 3.12064 157.161 4.64664C157.004 4.66728 155.779 5.12505 156.407 4.85699C155.884 5.04945 155.36 5.24193 154.836 5.4344C153.81 5.89079 152.794 6.38287 151.789 6.91071C149.935 7.82209 148.05 8.99733 146.227 10.2014C146.132 10.2509 145.504 10.7045 146.132 10.2509C145.986 10.3691 145.808 10.5038 145.598 10.655C145.179 10.9574 144.781 11.2694 144.404 11.5911C143.482 12.2811 142.559 13.0329 141.637 13.8466C139.96 15.3035 138.336 16.8773 136.763 18.5678C136.637 18.6957 135.537 19.9533 136.071 19.3637C135.715 19.7567 135.379 20.1594 135.065 20.5718C134.226 21.5476 133.429 22.5427 132.674 23.557C131.268 25.4482 129.936 27.404 128.677 29.4243C128.068 30.4441 127.449 31.49 126.82 32.562C126.736 32.7709 126.631 32.9702 126.505 33.1599C126.442 33.3166 125.938 34.1989 126.221 33.6794C126.505 33.1599 126.127 33.9144 126.064 33.8855C125.896 34.3034 125.717 34.6854 125.528 35.0318C124.373 37.2857 123.323 39.5878 122.377 41.938C121.453 44.2359 120.612 46.5723 119.854 48.9472C119.686 49.4887 119.517 50.0301 119.349 50.5716C119.255 50.8066 118.813 52.2744 119.097 51.3839C118.718 52.695 118.391 53.9992 118.117 55.2965C117.548 57.6961 117.094 60.1177 116.755 62.5612C116.564 63.7733 116.406 64.969 116.278 66.1482C116.235 66.7474 116.203 67.3204 116.181 67.8674C116.138 68.2192 116.107 68.5449 116.085 68.8445C116.021 69.7433 116.054 68.7374 116.053 69.2939C115.47 80.166 116.992 89.871 120.021 99.5264C126.141 119.052 138.358 134.696 153.126 145.851C169.022 157.896 188.475 164.614 208.599 163.936C218.457 163.642 228.947 161.039 238.655 156.684C248.646 152.181 258.262 146.02 267.409 139.179C286.961 124.405 305.136 106.769 321.274 86.8042C325.217 81.9333 329.045 76.9166 332.758 71.7543C333.883 74.3763 335.009 76.9984 336.135 79.6204C321.644 84.7152 307.152 89.81 292.661 94.9048C292.499 91.6121 292.316 88.3097 292.112 84.9977C307.844 82.8561 323.267 77.4162 337.88 68.8183C340.645 67.1193 344.313 70.0132 343.334 73.7403C339.258 89.4118 333.3 104.218 325.522 118.187C324.2 120.549 321.123 120.805 319.556 119.342C317.706 117.656 317.931 114.696 319.253 112.333C326.118 100.079 331.446 86.6545 335.11 72.9291C336.928 74.5697 338.746 76.2105 340.564 77.8511C325.324 86.9027 308.958 92.6518 292.661 94.9048C290.369 95.2432 288.331 93.6562 288.178 90.8939C288.026 87.946 289.851 85.8143 292.112 84.9977C306.604 79.9029 321.095 74.8081 335.587 69.7132C337.22 69.1647 338.976 70.5291 339.632 72.038C340.289 73.7324 340.16 75.9011 338.964 77.5792C322.759 100.113 304.14 120.329 283.894 137.384C264.56 153.651 243.125 168.302 220.295 172.564C198.03 176.714 175.749 171.666 156.932 160.413C139.589 149.93 124.578 134.022 115.603 113.277C111.256 103.201 108.449 92.0696 107.747 80.3277C107.043 69.328 108.474 58.1961 111.726 47.3443C117.788 26.923 130.88 7.69244 147.816 -1.50768C157.243 -6.64176 167.888 -8.70863 177.206 -5.25889C181.912 -3.46601 186.207 0.0874038 188.585 5.26544C190.868 10.3074 191.517 16.269 190.471 22.3793C188.442 34.443 181.298 44.8046 173.123 52.5566C164.539 60.7704 154.515 66.0941 144.306 69.6616C133.941 73.2498 123.233 74.7311 112.747 75.1076C100.66 75.5831 88.6385 74.0467 77.7848 69.0552C59.4024 60.6014 45.3063 42.0501 39.5361 19.6224C38.1327 14.0567 37.2318 8.35082 36.7707 2.47579C36.6496 -0.179321 38.4749 -2.86765 40.736 -3.31319C43.0913 -3.80821 45.0031 -1.90777 45.2185 0.697856Z" fill="#FFD45D"/>
</svg>
