<svg width="60" height="60" viewBox="0 0 60 60" fill="none" xmlns="http://www.w3.org/2000/svg">
<rect width="60" height="60" rx="30" fill="#FCFCFC"/>
<path fill-rule="evenodd" clip-rule="evenodd" d="M31.8223 45.6721H34.1223V42.4763C34.1223 42.1902 34.3543 41.9513 34.639 41.9513C34.932 41.9513 35.164 42.1902 35.164 42.4763V45.6721H42.6583V42.4763C42.6583 42.1902 42.8972 41.9513 43.1833 41.9513C43.4694 41.9513 43.7083 42.1902 43.7083 42.4763V45.6721H45.9999V43.8971C45.9999 40.5319 43.2527 37.7763 39.8876 37.7763H37.9432C34.578 37.7763 31.8224 40.5318 31.8224 43.8971L31.8223 45.6721ZM29.5529 24.2224L34.3849 19.2365L39.6794 19.1976L42.2182 16.4268L41.146 15.431L46 14.3282L45.2667 19.2519L44.1945 18.2561L40.8529 21.899L35.5278 21.9379L31.4916 26.106L29.5529 24.2224ZM22.4127 14.3281C24.6738 14.3281 26.503 16.1573 26.503 18.4184C26.503 20.6725 24.6739 22.5086 22.4127 22.5086C20.1516 22.5086 18.3225 20.6712 18.3225 18.4184C18.3225 16.1573 20.1516 14.3281 22.4127 14.3281ZM27.4765 45.6721H22.9375V43.1096C22.9375 42.8166 22.6986 42.5846 22.4125 42.5846C22.1195 42.5846 21.8875 42.8166 21.8875 43.1096V45.6721H17.35V29.7569C17.3736 29.5639 17.2889 29.3791 17.1264 29.2708C16.9639 29.1625 16.7555 29.1625 16.5944 29.2708C16.4319 29.3791 16.3403 29.5639 16.3708 29.7569L16.3694 40.9721C15.0347 40.779 14 39.6207 14 38.2388V31.4388C14 27.4485 17.2722 24.1849 21.2625 24.1849H23.5625C26.4263 24.1849 28.9192 25.8668 30.1 28.2986L32.2375 32.0347L34.5374 32.5292C34.5069 32.7528 34.4916 32.9847 34.4916 33.2167C34.4916 34.4819 35.0166 35.625 35.8735 36.4277C35.4569 36.543 35.0097 36.5583 34.5611 36.4666L30.5554 35.5944C30.0304 35.4861 29.6221 35.1847 29.3513 34.7222L27.4763 31.3806L27.4765 45.6721ZM38.9153 29.7722C40.8139 29.7722 42.3569 31.3152 42.3569 33.2138C42.3569 35.1124 40.8139 36.6555 38.9153 36.6555C37.0084 36.6555 35.4723 35.1124 35.4723 33.2138C35.4723 31.3153 37.0084 29.7722 38.9153 29.7722Z" fill="#1E40AF"/>
</svg>
