<svg width="471" height="248" viewBox="0 0 471 248" fill="none" xmlns="http://www.w3.org/2000/svg">
<path d="M-0.000477014 245.938C0.00529153 246.313 0.0110601 246.688 0.0168286 247.063C1.10208 247.171 2.18715 247.267 3.27202 247.35C7.61151 247.683 11.9479 247.817 16.2812 247.75C31.4479 247.517 46.6104 247.011 61.7687 246.233C62.8514 246.178 63.9341 246.121 65.0168 246.063C65.0111 245.688 65.0053 245.313 64.9995 244.938C63.9155 244.913 62.8316 244.889 61.7477 244.867C46.5726 244.556 31.4018 244.517 16.2351 244.75C11.9018 244.817 7.57151 245.084 3.24433 245.55C2.16254 245.667 1.08093 245.796 -0.000477014 245.938Z" fill="#4C6169"/>
<path d="M78.9995 244.938C79.0053 245.313 79.0111 245.688 79.0168 246.063C80.1021 246.171 81.1871 246.267 82.272 246.35C86.6115 246.683 90.9479 246.817 95.2812 246.75C110.448 246.517 125.61 246.011 140.769 245.233C141.851 245.178 142.934 245.121 144.017 245.063C144.011 244.688 144.005 244.313 144 243.938C142.916 243.913 141.832 243.889 140.748 243.867C125.573 243.556 110.402 243.517 95.2351 243.75C90.9018 243.817 86.5715 244.084 82.2443 244.55C81.1625 244.667 80.0809 244.796 78.9995 244.938Z" fill="#4C6169"/>
<path d="M158 243.938C158.005 244.313 158.011 244.688 158.017 245.063C159.102 245.171 160.187 245.267 161.272 245.35C165.612 245.683 169.948 245.817 174.281 245.75C189.448 245.517 204.61 245.011 219.769 244.233C220.851 244.178 221.934 244.121 223.017 244.063C223.011 243.688 223.005 243.313 223 242.938C221.916 242.913 220.832 242.889 219.748 242.867C204.573 242.556 189.402 242.517 174.235 242.75C169.902 242.817 165.572 243.084 161.244 243.55C160.163 243.667 159.081 243.796 158 243.938Z" fill="#4C6169"/>
<path d="M237 242.938C237.005 243.313 237.011 243.688 237.017 244.063C238.102 244.171 239.187 244.267 240.272 244.35C244.612 244.683 248.948 244.817 253.281 244.75C268.448 244.517 283.61 244.011 298.769 243.233C299.851 243.178 300.934 243.121 302.017 243.063C302.011 242.688 302.005 242.313 302 241.938C300.916 241.913 299.832 241.889 298.748 241.867C283.573 241.556 268.402 241.517 253.235 241.75C248.902 241.817 244.572 242.084 240.244 242.55C239.163 242.667 238.081 242.796 237 242.938Z" fill="#4C6169"/>
<path d="M316 241.938C316.005 242.313 316.011 242.688 316.017 243.063C317.102 243.171 318.187 243.267 319.272 243.35C323.612 243.683 327.948 243.817 332.281 243.75C347.448 243.517 362.61 243.011 377.769 242.233C378.851 242.178 379.934 242.121 381.017 242.063C381.011 241.688 381.005 241.313 381 240.938C379.916 240.913 378.832 240.889 377.748 240.867C362.573 240.556 347.402 240.517 332.235 240.75C327.902 240.817 323.572 241.084 319.244 241.55C318.163 241.667 317.081 241.796 316 241.938Z" fill="#4C6169"/>
<path d="M395 240.938C395.005 241.313 395.011 241.688 395.017 242.063C396.102 242.171 397.187 242.267 398.272 242.35C402.612 242.683 406.948 242.817 411.281 242.75C426.448 242.517 441.61 242.011 456.769 241.233C457.851 241.178 458.934 241.121 460.017 241.063C460.011 240.688 460.005 240.313 460 239.938C458.916 239.913 457.832 239.889 456.748 239.867C441.573 239.556 426.402 239.517 411.235 239.75C406.902 239.817 402.572 240.084 398.244 240.55C397.163 240.667 396.081 240.796 395 240.938Z" fill="#4C6169"/>
<path d="M307.316 183.229C308.124 179.728 308.932 176.227 309.741 172.726C312.455 165.596 316.773 159.627 322.696 154.817L331.912 149.227C334.877 147.937 337.902 147.021 340.981 146.438C344.29 146.39 347.597 146.498 350.778 146.513C351.102 146.515 351.399 146.477 351.684 146.422C353.611 146.667 355.68 147.044 357.578 146.926C357.586 146.928 357.594 146.929 357.602 146.93C358.106 147.004 358.557 146.985 358.984 146.928C359.237 146.985 359.492 147.034 359.745 147.09C362.711 147.941 365.517 149.216 368.152 150.946C373.355 153.182 377.687 156.621 381.149 161.264C384.778 165.477 387.143 170.249 388.242 175.579C390.191 180.607 390.805 185.849 390.082 191.306C389.273 194.807 388.465 198.307 387.657 201.808C384.943 208.939 380.625 214.908 374.702 219.717C371.63 221.581 368.558 223.444 365.486 225.308C358.83 228.203 351.889 229.317 344.661 228.65C339.014 228.315 333.875 226.628 329.245 223.588C324.043 221.352 319.711 217.913 316.249 213.271C312.619 209.058 310.255 204.286 309.155 198.955C307.206 193.928 306.593 188.686 307.316 183.229Z" fill="#4C6169"/>
<path d="M93.0515 174.201C93.6288 170.177 95.0088 166.455 97.1649 163.025C99.6391 157.891 103.115 153.482 107.625 149.821C112.86 145.663 118.775 143.044 125.369 141.963C128.927 141.696 132.514 141.32 136.049 141.701C137.569 141.864 144.615 143.498 146.026 144.026C147.536 144.591 153.864 148.022 155.243 148.949C157 150.132 157.932 151.319 159.773 153.068C160.251 153.522 162.632 155.509 163.731 156.878C163.817 156.981 163.897 157.091 163.969 157.205C165.672 160.013 167.375 162.82 169.078 165.628C169.28 166.005 169.454 166.358 169.61 166.758C170.199 168.268 172.101 174.766 172.44 176.351C172.49 176.583 172.543 176.812 172.582 177.047C172.613 177.234 172.61 177.424 172.628 177.612C172.73 180.85 172.833 184.087 172.935 187.325C172.94 187.466 172.938 187.606 172.927 187.746C172.909 187.93 172.886 188.112 172.865 188.295C172.673 189.996 171.124 196.696 170.562 198.293C170.504 198.46 170.444 198.628 170.386 198.796C169.935 200.104 166.263 206.822 165.453 208.012C165.331 208.19 165.214 208.37 165.091 208.547C164.7 209.11 158.43 215.696 157.896 216.126C157.727 216.263 157.553 216.395 157.382 216.529C156.096 217.537 150.167 221.119 148.72 221.766C147.884 222.139 146.379 222.579 145.202 222.897C144.359 223.199 143.509 223.46 142.653 223.68C139.877 224.738 136.996 225.135 134.007 224.86C130.995 225.333 128.052 225.101 125.177 224.181C124.662 224.078 124.149 223.955 123.637 223.823C122.079 223.642 120.586 223.255 119.169 222.636C116.176 221.029 113.183 219.422 110.189 217.816C109.95 217.675 109.714 217.546 109.483 217.391C106.341 215.283 103.368 212.437 101.077 209.348C98.8402 206.335 96.689 203.14 95.279 199.654C95.2377 199.522 95.1963 199.391 95.155 199.259C94.2387 196.152 93.3224 193.045 92.4063 189.938C92.3229 189.514 92.2654 189.147 92.2503 188.713C91.2651 183.753 91.5322 178.915 93.0515 174.201Z" fill="#4C6169"/>
<path d="M329.79 185.688C330.234 179.853 333.445 174.668 338.067 171.599C338.186 171.518 338.306 171.44 338.426 171.362C338.656 171.217 338.885 171.075 339.121 170.941C342.311 169.074 346.048 168.136 349.856 168.48C359.834 169.382 367.67 178.924 366.728 188.865C365.762 199.052 356.456 205.892 346.575 205.333C336.508 204.763 329.038 195.551 329.79 185.688Z" fill="#DCEEF5"/>
<path d="M115.838 177.484C117.435 173.48 120.553 170.203 124.47 168.4C126.79 167.332 130.542 166.349 133.14 166.947C135.111 167.064 136.905 167.653 138.521 168.714C139.078 168.954 139.596 169.246 140.096 169.565C142.342 170.603 144.367 172.098 145.956 174.06C145.988 174.1 146.011 174.143 146.042 174.183C149.804 178.398 151.183 184.333 149.121 189.855C148.747 190.855 148.249 191.769 147.697 192.639C145.183 197.567 140.107 200.996 134.696 201.843C128.583 202.801 121.859 199.982 118.296 194.907C114.706 189.795 113.478 183.404 115.838 177.484Z" fill="#DCEEF5"/>
<path d="M333.173 187.474C333.286 186.248 334.217 185.228 335.495 185.279C336.625 185.325 337.349 186.333 337.735 187.286C337.937 187.784 338.136 188.274 338.397 188.746C338.422 188.79 338.527 188.991 338.625 189.167C338.631 189.175 338.657 189.214 338.722 189.308C338.793 189.412 338.862 189.516 338.933 189.619C339.532 189.856 340.041 190.296 340.292 190.946C340.345 191.081 340.404 191.213 340.464 191.345C340.641 191.493 340.816 191.642 341 191.779C341.238 191.956 341.483 192.123 341.734 192.281C341.848 192.353 341.965 192.42 342.079 192.491C342.09 192.498 342.091 192.499 342.1 192.505C342.674 192.782 343.254 193.031 343.865 193.217C343.968 193.248 344.071 193.277 344.174 193.306C344.277 193.334 344.381 193.36 344.485 193.385C344.388 193.362 344.29 193.338 344.192 193.315C344.256 193.431 344.98 193.447 345.143 193.465C345.37 193.489 345.666 193.526 345.922 193.51C345.939 193.506 345.954 193.501 345.973 193.499C346.187 193.474 346.401 193.459 346.615 193.432C347.825 193.278 348.968 193.971 349.315 195.15C349.652 196.291 349.108 197.579 347.984 198.061C343.392 200.031 337.665 197.793 335.595 193.255C335.122 192.683 334.68 192.081 334.298 191.43C333.644 190.319 333.054 188.773 333.173 187.474Z" fill="#F5FCFF"/>
<path d="M315.867 189.949C319.104 200.343 326.183 209.261 335.092 215.431C336.038 216.087 335.183 217.815 334.109 217.266C323.719 211.946 316.172 202.449 312.67 191.36C311.999 189.236 315.198 187.802 315.867 189.949Z" fill="#F5FCFF"/>
<path d="M108.033 198.876C110.931 202.298 113.905 205.738 117.497 208.457C121.147 211.22 125.243 213.184 129.727 214.144C131.248 214.469 131.039 216.893 129.489 216.581C120.121 214.691 109.906 209.3 105.81 200.225C105.191 198.854 107.079 197.748 108.033 198.876Z" fill="#F5FCFF"/>
<path d="M15.0415 150.083C15.804 145.765 17.297 141.648 19.4694 137.922C20.1041 133.244 21.913 128.798 25.0385 124.972C26.1678 123.592 27.3799 122.331 28.6885 121.176C29.3335 119.779 30.223 118.498 31.4518 117.398C33.5663 115.501 36.2517 114.642 39.0283 114.292C39.6819 114.023 40.35 113.809 41.0178 113.58C41.2158 113.375 41.481 113.195 41.8288 113.094C51.2378 110.181 61.0594 109.128 70.8828 108.842C75.5322 108.698 80.2261 108.767 84.8842 109.066C89.3719 103.385 93.2311 97.2052 97.2281 91.1838C102.178 83.7054 106.963 76.0552 112.212 68.7727C114.53 65.554 117.215 62.6109 120.644 60.5808C124.259 58.426 128.535 57.7239 132.623 57.039C142.594 55.3651 152.642 54.2141 162.727 53.5598C167.857 53.231 173.003 53.0631 178.151 52.9492C180.785 52.8977 183.42 52.8732 186.056 52.8754C188.449 52.8823 190.77 53.3076 193.105 53.7327C195.643 53.5755 198.168 53.4185 200.693 53.275C208.55 52.8257 216.409 52.5108 224.284 52.3031C227.107 52.2345 229.93 52.1794 232.752 52.1377C232.804 52.0695 232.844 52.0015 232.91 51.9464C234.071 50.8211 235.985 51.0526 237.48 51.1984C238.895 51.3321 240.299 51.6541 241.679 52.044C243.319 52.0388 244.972 52.02 246.612 52.0148C246.51 52.2991 246.435 52.583 246.387 52.8663C247.631 53.2453 248.863 53.6783 250.07 54.1926C250.593 54.1419 251.147 54.2658 251.693 54.6853C252.007 54.9212 252.308 55.1843 252.622 55.4202C254.184 56.2098 255.72 57.0538 257.177 58.0202C257.803 58.4247 258.139 59.0906 258.22 59.7881C273.248 71.9588 286.978 85.7817 298.892 101.012C300.81 103.462 302.673 105.94 304.497 108.472C305.161 109.4 305.946 110.367 306.679 111.388C315.142 111.652 323.605 111.985 332.066 112.129C332.523 112.133 332.902 112.26 333.229 112.456C335.321 112.213 337.414 111.957 339.507 111.714C339.56 111.7 339.614 111.699 339.668 111.684C339.846 111.883 340.025 112.081 340.217 112.279C355.656 111.735 371.094 111.877 386.498 113.687C392.536 114.403 398.582 115.548 404.511 116.885C406.672 117.367 408.833 117.876 410.981 118.412C412.436 118.545 413.892 118.718 415.322 118.973C421.853 120.149 428.041 122.408 433.793 125.684C445.065 132.079 453.504 143.545 457.374 155.826C459.18 161.532 460.143 167.443 460.124 173.387C460.13 174.355 460.095 175.324 460.047 176.293C460.018 176.885 459.976 177.464 459.92 178.057C459.831 179.026 459.323 179.856 458.595 180.435C458.654 180.676 458.698 180.904 458.716 181.146C459 183.278 458.292 185.604 456.508 187.199C456.125 187.543 455.714 187.82 455.288 188.07C455.049 189.567 453.838 190.909 451.886 190.785C443.162 190.243 434.425 189.688 425.701 189.132C420.869 188.823 416.049 188.527 411.216 188.219C409.156 188.111 407.097 188.003 405.038 187.909C402.847 189.995 398.143 189.402 397.909 185.709L397.905 185.507C397.567 184.694 397.508 183.753 397.72 182.929C397.643 181.747 397.54 180.58 397.423 179.399C397.363 179.091 397.303 178.782 397.243 178.474C396.555 175.597 395.787 172.735 395.072 169.858C394.955 169.389 394.959 168.919 395.058 168.46C394.232 166.096 393.287 163.855 392.278 161.764C391.858 160.898 391.37 160.007 390.828 159.13C387.498 155.901 383.943 152.918 380.193 150.222C379.733 150.056 379.259 149.904 378.786 149.752C377.717 149.436 376.895 148.632 376.392 147.661C372.866 145.417 369.184 143.458 365.333 141.839C362.595 140.71 359.78 139.77 356.928 139.005C352.854 139.031 348.779 138.99 344.703 138.868C342.362 138.792 340.021 138.704 337.692 138.601C331.063 141.339 324.434 144.037 317.804 146.735C308.275 155.217 302.395 168.764 297.473 180.451C298.395 181.495 297.805 183.658 296.045 183.733C295.198 185.121 293.566 186.242 291.906 185.925C291.758 185.901 291.596 185.863 291.448 185.839C291.036 186.802 290.15 187.572 288.832 187.531C262.558 186.807 236.301 186.245 210.028 185.548C206.341 185.445 202.655 185.342 198.969 185.226C196.654 185.15 194.301 185.143 191.96 185.054C190.513 186.01 188.336 186.052 187.152 184.664C185.787 184.314 184.756 183.124 184.727 181.672C184.718 181.188 184.842 180.675 185.062 180.2C184.177 179.68 183.488 178.806 183.301 177.492C183.144 176.352 182.975 175.239 182.792 174.127C181.367 170.753 179.863 167.407 178.253 164.104C176.725 160.948 175.118 157.832 173.471 154.745C171.95 151.911 170.454 148.969 168.588 146.329C166.888 144.668 165.136 143.089 163.305 141.592C158.638 138.806 153.764 136.4 148.63 134.457C143.902 132.653 139.076 131.295 134.163 130.329C126.441 130.856 118.796 132.512 111.562 135.235C109.561 136.027 107.587 136.872 105.628 137.771C101.258 139.846 97.0842 142.294 93.1877 145.181C92.9226 145.374 92.6433 145.528 92.3764 145.64C91.6697 146.636 91.004 147.644 90.352 148.678C84.262 158.371 80.4437 170.089 79.3484 181.472C79.2607 182.496 78.5418 183.545 77.5985 184.115C78.3458 185.902 77.2527 188.438 74.695 188.3C58.341 187.409 41.972 186.438 25.627 185.332C25.0347 185.29 24.5456 185.044 24.1487 184.689C23.0598 184.683 21.9705 184.678 20.895 184.685C20.0751 184.688 19.5563 184.295 19.3305 183.748C18.8374 182.601 19.5957 180.811 21.2757 180.765C22.1222 180.748 22.9689 180.718 23.8016 180.675C23.958 180.417 24.1283 180.198 24.3124 179.98C24.2562 179.86 24.2002 179.74 24.1573 179.62C23.0836 179.708 22.01 179.823 20.9377 179.992C18.9672 180.299 17.2328 178.935 16.846 177.033C16.3698 174.689 15.9063 172.305 15.5229 169.892C15.2329 168.123 14.983 166.326 14.8 164.541C14.7699 164.381 14.7534 164.22 14.7501 164.058C14.2679 159.375 14.23 154.67 15.0415 150.083ZM297.934 111.156C298.271 111.162 298.593 111.17 298.93 111.177C297.782 109.572 296.648 107.954 295.474 106.363C292.298 102.069 288.975 97.8715 285.521 93.7975C278.529 85.5306 271.006 77.6503 262.919 70.44C259.703 67.5582 256.382 64.8128 253.008 62.1223C249.049 62.5225 245.03 62.5608 241.053 62.7324C236.916 62.9073 232.779 63.163 228.642 63.3783C220.368 63.8223 212.093 64.1991 203.817 64.5625C202.568 64.6139 201.331 64.665 200.082 64.7162C200.363 69.4437 200.602 74.1586 200.722 78.8892C202.044 89.4317 202.172 100.119 201.142 110.707C203.47 110.783 205.797 110.872 208.112 110.961C208.152 110.96 208.193 110.96 208.233 110.945C218.272 110.709 228.313 110.553 238.369 110.477C258.226 110.331 278.08 110.723 297.934 111.156ZM198.495 178.217C197.875 178.175 197.256 178.147 196.637 178.119C196.139 178.088 195.707 177.962 195.313 177.781C195.181 177.932 195.05 178.069 194.891 178.206C196.088 178.223 197.298 178.213 198.495 178.217ZM166.913 126.032C167.347 126.225 167.755 126.446 168.175 126.653C168.282 126.637 168.39 126.622 168.497 126.606C168.493 126.378 168.489 126.162 168.525 125.947C168.038 125.808 167.551 125.67 167.078 125.531C166.553 125.501 166.014 125.471 165.489 125.428C165.964 125.634 166.451 125.812 166.913 126.032ZM176.523 110.045C177.811 109.886 179.114 109.833 180.236 110.134C183.37 110.207 186.492 110.294 189.626 110.381C188.485 103.573 188.468 96.5275 188.954 89.7413C189.459 82.5514 190.611 75.4295 191.439 68.2735C191.217 67.2157 190.967 66.1582 190.718 65.1009C178.747 65.5902 166.789 66.0525 154.817 66.4345C150.933 66.5507 147.05 66.6938 143.167 66.81C143.033 67.5521 142.927 68.2937 142.874 69.0478C144.224 76.1882 144.797 83.4915 144.589 90.7561C144.495 94.2001 144.212 97.6209 143.741 101.032C143.762 101.394 143.796 101.757 143.83 102.119C143.882 102.75 143.677 103.265 143.335 103.648C143.035 105.47 142.68 107.292 142.272 109.101C142.235 109.25 142.197 109.385 142.159 109.534C153.617 109.646 165.063 109.799 176.523 110.045ZM114.721 107.717C116.356 107.429 117.636 108.238 118.344 109.407C122.768 109.415 127.192 109.436 131.616 109.457C131.599 107.857 131.769 106.241 132.046 104.608C132.02 103.963 131.98 103.305 131.954 102.661C131.802 99.0061 131.73 95.3368 131.847 91.6773C131.997 86.2961 132.417 80.9364 133.066 75.6126L132.804 72.525C132.753 71.9883 132.865 71.5289 133.059 71.1353C133.032 71.1359 133.005 71.1497 132.979 71.1637C132.136 71.3683 131.279 71.56 130.422 71.7515C130.569 72.3673 130.555 73.0263 130.365 73.6484C129.924 75.1629 128.355 76.0407 126.908 75.6522C122.631 83.1174 118.38 90.5958 114.102 98.0477C111.995 101.733 109.958 105.484 107.811 109.156C110.1 108.614 112.402 108.111 114.721 107.717ZM73.503 176.881C73.5528 176.678 73.6031 176.489 73.6395 176.286C73.1669 176.188 72.7066 176.022 72.2718 175.789C71.8591 175.999 71.4043 176.129 70.8809 176.179C71.7593 176.404 72.6376 176.629 73.503 176.881Z" fill="#4C6169"/>
<path d="M142.205 109.534C153.663 109.646 165.108 109.799 176.569 110.046C177.857 109.886 179.16 109.834 180.282 110.135C183.416 110.208 186.537 110.295 189.672 110.381C188.53 103.573 188.514 96.5281 189 89.7419C189.505 82.552 190.656 75.4301 191.484 68.2741C191.262 67.2163 191.013 66.1588 190.764 65.1016C178.793 65.5908 166.835 66.0531 154.862 66.4351C150.979 66.5513 147.096 66.6944 143.212 66.8106C143.079 67.5528 142.972 68.2943 142.92 69.0484C144.269 76.1888 144.842 83.4921 144.635 90.7567C144.54 94.2008 144.258 97.6216 143.787 101.032C143.807 101.395 143.841 101.757 143.875 102.12C143.928 102.751 143.723 103.266 143.381 103.649C143.08 105.47 142.726 107.292 142.318 109.102C142.28 109.25 142.242 109.386 142.205 109.534Z" fill="white"/>
<path d="M201.174 110.706C203.501 110.781 205.829 110.87 208.143 110.959C208.184 110.959 208.224 110.958 208.264 110.944C218.304 110.707 228.345 110.551 238.401 110.476C258.257 110.33 278.111 110.722 297.966 111.154C298.302 111.161 298.625 111.168 298.961 111.175C297.814 109.571 296.68 107.952 295.505 106.362C292.329 102.067 289.007 97.8702 285.552 93.7962C278.56 85.5292 271.038 77.649 262.95 70.4387C259.734 67.5569 256.413 64.8116 253.04 62.1211C249.081 62.5212 245.061 62.5595 241.085 62.7312C236.947 62.9061 232.81 63.1618 228.673 63.3771C220.399 63.821 212.124 64.1979 203.848 64.5612C202.599 64.6127 201.363 64.6637 200.113 64.715C200.394 69.4424 200.634 74.1574 200.753 78.8879C202.076 89.4302 202.204 100.117 201.174 110.706Z" fill="white"/>
<path d="M64.8456 123.652C65.4564 123.64 65.3572 124.585 64.7534 124.597C64.1428 124.609 64.2418 123.664 64.8456 123.652Z" fill="#FFEFB5"/>
<path d="M326.781 117.511C358.602 114.298 392.902 112.681 422.182 127.808C429.415 131.545 436.053 136.215 441.879 141.911C443.1 143.106 441.019 144.746 439.804 143.574C417.675 122.215 385.302 117.966 355.875 118.518C346.291 118.698 336.712 119.311 327.135 119.721C325.731 119.781 325.318 117.658 326.781 117.511Z" fill="#F5FCFF"/>
<path d="M208.304 118.035C231.905 114.679 256.236 115.058 279.923 117.274C281.742 117.444 281.463 120.263 279.648 120.093C267.903 118.994 256.109 118.457 244.312 118.513C232.399 118.57 220.522 119.331 208.642 120.143C207.294 120.235 206.92 118.232 208.304 118.035Z" fill="#F5FCFF"/>
<path d="M308.048 126.622C308.252 125.99 308.808 125.542 309.422 125.361C309.973 125.199 310.486 125.252 310.992 125.523C311.624 125.862 311.89 126.354 312.081 127.023C312.463 128.361 312.845 129.699 313.228 131.037C313.415 131.693 313.603 132.35 313.79 133.006C313.984 133.685 314.061 134.388 314.168 135.085C314.298 135.931 313.772 136.745 312.958 136.985C312.132 137.228 311.282 136.826 310.91 136.048C310.618 135.436 310.288 134.831 310.075 134.187C309.852 133.513 309.629 132.84 309.406 132.167C308.969 130.845 308.531 129.523 308.094 128.201C307.914 127.657 307.87 127.169 308.048 126.622Z" fill="#F5FCFF"/>
<path d="M200.549 135.469C200.145 133.664 202.974 133.22 203.38 135.014C205.788 145.679 206.8 156.589 205.921 167.502C205.807 168.919 203.755 168.663 203.762 167.292C203.817 156.61 202.884 145.903 200.549 135.469Z" fill="#F5FCFF"/>
<path d="M104.56 118.666C104.61 118.467 104.765 118.286 105.022 118.281C105.281 118.276 105.4 118.452 105.411 118.649C106.438 118.802 107.363 119.538 107.502 120.639C107.699 122.198 107.965 123.766 108.074 125.334C108.193 127.014 108.282 128.683 108.297 130.368C108.304 131.135 107.513 131.899 106.776 131.986C106.043 132.071 105.059 131.708 104.826 130.925C104.344 129.313 103.929 127.699 103.546 126.061C103.189 124.531 102.98 122.955 102.709 121.408C102.499 120.21 103.356 118.909 104.56 118.666Z" fill="#F5FCFF"/>
<path d="M98.4327 105.784C103.031 97.6254 108.158 89.7688 113.162 81.8568C114.195 80.223 116.641 81.9928 115.598 83.6188C110.55 91.4829 105.606 99.4358 100.162 107.035C99.3435 108.178 97.7746 106.951 98.4327 105.784Z" fill="#F5FCFF"/>
<path d="M31.3207 132.885C35.6111 126.112 43.0927 121.329 50.391 118.354C57.9279 115.282 65.984 113.833 74.1171 114.434C76.7916 114.632 76.3798 118.778 73.7133 118.572C66.2641 117.997 58.6666 119.222 51.8259 122.252C44.8557 125.339 39.355 130.15 33.8043 135.249C32.3006 136.631 30.325 134.457 31.3207 132.885Z" fill="#F5FCFF"/>
<path d="M5.72969 167.099C7.95015 164.122 11.6753 164.107 15.0366 164.052C23.6536 163.91 32.3436 163.963 40.9364 164.653C43.6173 164.869 48.6763 164.611 49.7942 167.869C49.9456 168.31 49.9491 168.701 49.8645 169.044C50.3749 169.591 50.8089 170.216 51.122 170.943C53.722 176.983 47.3133 182.783 41.7945 183.405C38.1716 183.814 34.6267 182.914 31.0209 182.805C27.4309 182.696 23.88 183.572 20.3006 183.734C14.3297 184.005 7.39457 182.078 4.86184 176.035C3.65977 173.166 3.83752 169.637 5.72969 167.099Z" fill="#4C6169"/>
<path d="M424.682 178.729C425.622 176.426 426.926 174.359 429.259 173.266C431.548 172.193 434.366 172.092 436.847 171.899C439.764 171.672 442.712 171.623 445.637 171.685C448.749 171.751 451.83 172.024 454.908 172.488C457.779 172.921 460.804 173.357 463.541 174.362C468.014 176.003 471.811 181.056 469.251 185.629C469.434 187.387 469.035 189.178 467.842 190.695C464.583 194.839 458.164 193.272 453.701 192.839C447.84 192.27 441.955 191.771 436.114 191.032C433.273 190.673 430.287 190.528 427.496 189.881C425.099 189.325 423.519 187.457 423.28 185.016C423.066 182.829 423.871 180.716 424.682 178.729Z" fill="#4C6169"/>
<path d="M5.10393 165.675C8.94486 164.271 13.4709 164.584 17.5011 164.54C21.7427 164.493 25.9845 164.446 30.2262 164.399C35.8181 164.337 43.6293 163.99 46.1676 170.267C47.4108 173.341 42.7117 175.442 41.4386 172.354C40.6686 170.486 38.6145 169.989 36.7667 169.756C33.6706 169.366 30.4773 169.633 27.3684 169.688C23.6825 169.753 19.9965 169.819 16.3106 169.884C12.6861 169.948 8.6901 170.269 5.20394 169.105C3.7235 168.611 3.58348 166.231 5.10393 165.675Z" fill="#F5FCFF"/>
<path d="M433.722 178.377C435.41 176.615 438.806 176.075 441.098 175.584C443.594 175.05 446.138 174.861 448.687 174.828C453.95 174.759 459.169 175.731 464.088 177.597C467.16 178.763 465.357 183.581 462.305 182.375C457.89 180.63 453.226 179.674 448.479 179.542C446.161 179.477 443.843 179.653 441.545 179.951C440.381 180.102 439.235 180.328 438.083 180.549C436.918 180.773 435.685 181.147 434.498 180.984C433.118 180.794 432.858 179.279 433.722 178.377Z" fill="#F5FCFF"/>
<path d="M349.591 155.481C355.171 154.835 361.27 157.234 365.979 160.04C370.948 163.002 375.061 167.202 377.942 172.213C378.664 173.469 376.622 174.332 375.893 173.117C373.169 168.58 369.231 164.847 364.655 162.212C362.441 160.937 360.046 159.952 357.592 159.247C354.98 158.496 352.326 158.291 349.664 157.84C348.401 157.625 348.173 155.646 349.591 155.481Z" fill="#F5FCFF"/>
<path d="M131.745 151.513C134.982 150.167 138.805 150.888 142.07 151.797C145.341 152.707 148.462 154.251 151.218 156.23C156.823 160.255 160.997 165.95 162.582 172.71C162.997 174.475 160.26 174.879 159.821 173.153C158.324 167.276 154.41 162.11 149.349 158.814C146.86 157.194 144.078 155.985 141.186 155.295C138.212 154.586 135.198 154.899 132.211 154.418C130.779 154.188 130.263 152.129 131.745 151.513Z" fill="#F5FCFF"/>
<path d="M122.09 184.914C123.231 184.469 124.249 184.965 124.831 185.976C124.844 185.999 124.86 186.033 124.877 186.069C124.872 186.058 124.87 186.052 124.865 186.04C124.91 186.152 125.005 186.26 125.071 186.36C125.225 186.593 125.386 186.822 125.553 187.046C125.872 187.474 126.215 187.885 126.577 188.278C126.706 188.417 126.878 188.565 127.02 188.719C127.007 188.717 127.029 188.754 127.14 188.854L127.141 188.855C127.146 188.864 127.158 188.871 127.163 188.88C127.159 188.873 127.155 188.87 127.151 188.864C127.242 188.946 127.333 189.028 127.425 189.108C127.848 189.474 128.291 189.818 128.75 190.138C129.182 190.439 129.632 190.706 130.086 190.971C130.218 191.036 130.35 191.103 130.483 191.167C130.713 191.276 130.945 191.38 131.178 191.481C132.324 191.984 134.212 192.412 134.652 193.735C134.816 194.229 134.884 194.904 134.483 195.326C134.065 195.767 133.663 196.077 133.035 196.157C132.621 196.209 132.208 196.203 131.796 196.145C131.077 196.044 130.405 195.836 129.735 195.563C128.506 195.064 127.318 194.379 126.243 193.603C124.068 192.033 122.323 189.995 121.028 187.655C120.5 186.701 121.109 185.296 122.09 184.914Z" fill="#F5FCFF"/>
<path d="M127.017 188.719C127.032 188.721 127.09 188.774 127.148 188.864C127.145 188.861 127.142 188.858 127.138 188.855C127.107 188.808 127.059 188.764 127.017 188.719Z" fill="#F5FCFF"/>
<path d="M133.234 181.221C133.217 181.212 133.205 181.205 133.187 181.195C133.193 181.199 133.197 181.2 133.203 181.204C133.214 181.21 133.225 181.215 133.234 181.221Z" fill="#F5FCFF"/>
<path d="M127.335 177.087C127.484 176.442 128.044 175.843 128.732 175.766C128.929 175.744 129.126 175.722 129.323 175.709C129.819 175.675 130.187 175.732 130.665 175.844C131.081 175.942 131.493 176.051 131.901 176.175C132.714 176.423 133.517 176.717 134.276 177.102C135.927 177.938 137.467 178.928 138.844 180.168C139.261 180.543 139.572 180.927 139.664 181.5C139.744 181.995 139.619 182.623 139.302 183.022C138.667 183.822 137.309 184.235 136.449 183.48C135.844 182.949 135.21 182.456 134.543 182.006C134.21 181.781 133.869 181.568 133.522 181.365C133.427 181.309 133.33 181.256 133.234 181.201C133.269 181.219 133.304 181.237 133.329 181.248C133.295 181.233 133.262 181.213 133.227 181.196C133.223 181.194 133.219 181.192 133.214 181.189C133.037 181.087 133.123 181.14 133.224 181.195C133.068 181.119 132.915 181.035 132.76 180.96C132.037 180.608 131.309 180.265 130.555 179.982C130.18 179.841 129.8 179.712 129.416 179.595C128.899 179.439 128.457 179.142 127.992 178.875C127.407 178.539 127.195 177.69 127.335 177.087Z" fill="#F5FCFF"/>
<path d="M347.632 176.496C348.21 176.452 348.784 176.409 349.355 176.519C349.937 176.63 350.53 176.753 351.091 176.95C352.126 177.313 353.122 177.827 354.054 178.401C355.826 179.495 357.392 181.002 358.547 182.735C359.017 183.44 359.047 184.47 358.295 185.02C357.624 185.511 356.529 185.515 356.01 184.768C355.738 184.377 355.45 184 355.14 183.64C355 183.478 354.856 183.32 354.709 183.165C354.627 183.078 354.542 182.995 354.46 182.909C354.436 182.885 354.439 182.887 354.427 182.874C354.423 182.87 354.427 182.874 354.421 182.869C353.727 182.25 353.001 181.683 352.204 181.201C352.122 181.152 352.041 181.103 351.958 181.056C351.957 181.055 351.847 180.994 351.777 180.955C351.711 180.921 351.623 180.875 351.603 180.865C351.497 180.813 351.39 180.761 351.282 180.711C350.873 180.521 350.455 180.35 350.029 180.202C349.137 179.89 348.242 179.608 347.355 179.288C346.773 179.078 346.33 178.414 346.418 177.787C346.503 177.184 346.978 176.546 347.632 176.496Z" fill="#F5FCFF"/>
<path d="M442.42 146.288C442.43 146.268 442.443 146.252 442.453 146.232C442.507 145.974 442.556 145.715 442.619 145.458C442.7 144.683 442.793 143.907 442.931 143.136C443.207 141.587 444.75 140.351 446.254 140.672C447.044 140.68 447.83 140.992 448.371 141.691C448.804 142.252 449.206 142.835 449.593 143.428C453.097 147.561 454.603 153.123 453.929 158.444C453.845 161.297 453.259 164.139 452.086 166.826C451.326 168.568 448.927 169.681 447.274 168.281C441.025 162.989 438.809 153.747 442.42 146.288Z" fill="#FFEEB3"/>
<path d="M216.648 52.9233C215.414 44.2375 214.18 35.5519 212.945 26.8663C212.854 26.2212 212.751 25.5471 212.367 25.0203C211.72 24.132 210.5 23.9308 209.408 23.8146C203.998 23.2392 198.554 22.9917 193.114 23.074C192.499 23.0833 191.846 23.1085 191.336 23.4534C190.729 23.8643 190.478 24.6223 190.28 25.3284C189.274 28.9148 188.622 32.5894 187.972 36.2567C186.918 42.2032 185.864 48.1497 184.809 54.0964C190.281 53.6723 195.77 53.5185 201.256 53.3649C205.158 53.2558 209.059 53.1464 212.96 53.037C213.98 53.0083 215 52.9799 216.648 52.9233Z" fill="#E02020"/>
<path d="M162.336 6.24884C162.679 5.51949 163.634 5.13176 164.373 5.5113C170.171 8.48988 175.664 12.0871 180.921 15.9341C181.613 16.4412 181.624 17.5556 181.097 18.1729C180.502 18.8693 179.554 18.8548 178.858 18.349C173.796 14.6761 168.482 11.4184 163.074 8.28544C162.359 7.87123 161.964 7.04298 162.336 6.24884Z" fill="#E02020"/>
<path d="M147.74 23.6455C156.348 25.2153 164.851 27.3416 173.27 29.7124C175.217 30.2604 174.67 33.3781 172.71 32.8263C164.281 30.4526 155.763 28.4479 147.225 26.5111C145.402 26.0978 145.887 23.3075 147.74 23.6455Z" fill="#E02020"/>
<path d="M135.392 45.0822C147.286 44.2709 159.188 44.5857 171.049 45.7304C173.392 45.9564 172.719 49.5249 170.405 49.3156C158.858 48.2719 147.239 48.0585 135.653 48.3992C133.523 48.4619 133.242 45.2289 135.392 45.0822Z" fill="#E02020"/>
<path d="M223.038 15.7425C230.576 10.7624 237.971 5.55743 245.312 0.270168C246.797 -0.799289 248.34 1.57722 246.884 2.68211C239.668 8.15457 232.243 13.3201 224.712 18.3111C223.096 19.3815 221.411 16.8177 223.038 15.7425Z" fill="#E02020"/>
<path d="M227.55 31.1434C239.065 28.4623 250.583 25.7998 262.126 23.2407C263.824 22.8644 264.763 25.4259 263.03 25.836C251.525 28.5575 239.998 31.1749 228.466 33.7745C226.742 34.163 225.797 31.5517 227.55 31.1434Z" fill="#E02020"/>
<path d="M234.505 46.2396C249.676 46.806 264.827 47.9679 279.885 49.9163C281.626 50.1417 281.125 52.7737 279.406 52.5835C264.56 50.9421 249.671 49.7694 234.742 49.2547C232.814 49.1884 232.562 46.1672 234.505 46.2396Z" fill="#E02020"/>
<path d="M205.525 28.8638C205.109 27.1858 207.589 26.2534 208.108 27.9647C209.764 33.4183 210.715 39.1471 210.711 44.8508C210.71 46.6689 207.963 46.9377 207.859 45.0751C207.554 39.5984 206.844 34.1911 205.525 28.8638Z" fill="white"/>
<path d="M421.87 79.8242C421.862 80.4677 421.864 81.1113 421.876 81.7548C421.398 81.6063 420.942 81.3987 420.484 81.1976C420.521 80.7492 420.516 80.3023 420.513 79.8527L420.56 79.8714C421.061 80.0706 421.388 80.0333 421.87 79.8242Z" fill="#7C553D"/>
<path d="M420.512 79.8486C420.469 79.8153 420.427 79.7823 420.387 79.7456C420.127 79.5096 419.949 79.2206 419.938 78.8614C419.937 78.8203 419.938 78.7793 419.941 78.7384C419.944 78.6974 419.95 78.6568 419.957 78.6163C419.964 78.5759 419.974 78.5361 419.985 78.4967C419.997 78.4572 420.01 78.4185 420.026 78.3805C420.041 78.3425 420.059 78.3054 420.078 78.2692C420.098 78.233 420.119 78.1979 420.142 78.1638C420.165 78.1298 420.189 78.097 420.216 78.0656C420.242 78.0341 420.27 78.0041 420.3 77.9755C420.331 77.9447 420.365 77.9155 420.399 77.8879C420.434 77.8603 420.47 77.8346 420.507 77.8106C420.544 77.7867 420.583 77.7647 420.622 77.7447C420.661 77.7246 420.702 77.7066 420.743 77.6906C420.784 77.6746 420.826 77.6607 420.869 77.6489C420.912 77.6371 420.955 77.6276 420.999 77.6202C421.042 77.6127 421.086 77.6075 421.13 77.6045C421.174 77.6016 421.219 77.6008 421.263 77.6023C421.569 77.6124 421.859 77.7367 422.068 77.9618C422.284 78.1937 422.448 78.5705 422.422 78.8913C422.391 79.2772 422.154 79.5784 421.869 79.8202C421.387 80.0292 421.06 80.0665 420.559 79.8674L420.512 79.8486Z" fill="#FE9A15"/>
<path d="M420.562 107.895C421.034 107.982 421.498 108.191 421.971 108.304C421.928 115.473 421.925 122.641 421.963 129.809L420.643 129.81L420.613 114.159L420.606 110.058C420.605 109.352 420.66 108.592 420.562 107.895Z" fill="#3F3939"/>
<path d="M440.327 89.0556C440.933 89.0089 441.625 89.1489 442.135 89.4878C442.656 89.8333 442.993 90.3766 443.112 90.9843C443.315 92.0216 442.951 93.1392 442.375 93.9979C441.438 95.3926 439.892 96.3362 438.257 96.6598C438.201 96.6686 438.145 96.6765 438.089 96.6833C437.437 96.762 436.749 96.6001 436.231 96.189C435.711 95.7767 435.421 95.1831 435.354 94.5299C435.224 93.2549 435.801 92.0433 436.601 91.0828C437.524 89.9749 438.881 89.1864 440.327 89.0556Z" fill="#0445B5"/>
<path d="M439.968 89.6529C440.481 89.5658 441.12 89.6606 441.579 89.9029C442.042 90.147 442.369 90.5515 442.519 91.0518C442.766 91.8732 442.534 92.7418 442.123 93.4667C441.368 94.7985 440.057 95.6757 438.601 96.0698C437.951 96.1694 437.345 96.1646 436.771 95.7899C436.313 95.4912 436.03 95.0073 435.937 94.4736C435.768 93.5002 436.172 92.4287 436.739 91.6513C436.787 91.5853 436.836 91.5204 436.886 91.4568C436.937 91.3932 436.989 91.3308 437.042 91.2698C437.096 91.2087 437.151 91.149 437.207 91.0907C437.264 91.0324 437.322 90.9755 437.381 90.92C437.44 90.8645 437.501 90.8105 437.563 90.758C437.625 90.7056 437.688 90.6546 437.753 90.6053C437.817 90.5559 437.883 90.5082 437.95 90.4621C438.017 90.416 438.085 90.3716 438.154 90.3289C438.223 90.2861 438.293 90.2451 438.364 90.2058C438.435 90.1665 438.507 90.129 438.58 90.0933C438.653 90.0576 438.727 90.0237 438.801 89.9916C438.876 89.9595 438.951 89.9293 439.027 89.901C439.103 89.8726 439.18 89.8461 439.258 89.8216C439.335 89.797 439.413 89.7743 439.491 89.7536C439.57 89.7329 439.649 89.7142 439.729 89.6974C439.808 89.6805 439.888 89.6657 439.968 89.6529Z" fill="#FEFEFE"/>
<path d="M437.742 90.7812C438.089 91.1155 438.407 91.5378 438.63 91.9643L438.66 92.0224L438.728 92.0038C438.753 92.0679 438.779 92.1301 438.797 92.1964C438.222 91.8937 437.98 91.3547 437.742 90.7812Z" fill="#0445B5"/>
<path d="M439.665 93.5625C439.844 94.0894 440.258 94.499 440.418 95.0579C439.934 94.6193 439.867 94.1346 439.508 93.6574L439.665 93.5625Z" fill="#0445B5"/>
<path d="M439.46 93.7734C439.645 94.1322 439.761 94.8381 439.641 95.2245L439.599 95.2121C439.41 94.7653 439.45 94.2662 439.344 93.8021L439.46 93.7734Z" fill="#0445B5"/>
<path d="M438.357 92.8259C437.866 92.7724 437.259 92.692 436.809 92.4876L436.805 92.4423C437.133 92.3983 438.075 92.5262 438.342 92.7058C438.346 92.7438 438.346 92.7893 438.357 92.8259Z" fill="#0445B5"/>
<path d="M439.071 93.8307C439.125 93.7938 439.224 93.7776 439.288 93.7578C439.236 94.1645 439.213 95.4212 438.913 95.6564L438.867 95.6194C438.931 95.0574 439.17 94.3871 439.071 93.8307Z" fill="#0445B5"/>
<path d="M436.828 91.7891C437.315 91.9035 437.742 92.0864 438.184 92.3192C438.352 92.4082 438.51 92.5194 438.689 92.5858C438.641 92.6459 438.594 92.6916 438.569 92.7645C438.417 92.5588 437.254 92.1224 436.828 91.7891Z" fill="#0445B5"/>
<path d="M438.222 93.092C437.793 93.1265 436.794 93.1437 436.406 93.033C436.412 93.0269 436.416 93.0188 436.423 93.015C436.8 92.8144 437.956 92.8909 438.407 92.9044C438.329 92.9635 438.266 93.0024 438.222 93.092Z" fill="#0445B5"/>
<path d="M439.031 90.0547C439.063 90.2452 439.092 90.4329 439.109 90.6259C439.21 91.1581 439.04 91.7617 439.178 92.2679C439.115 92.2957 439.056 92.318 439 92.3587C439.052 92.0499 438.985 91.675 438.964 91.3612C438.937 90.9059 438.925 90.5002 439.031 90.0547Z" fill="#0445B5"/>
<path d="M439.188 92.2679C439.486 91.6052 439.366 90.5937 439.704 89.8359C439.722 90.7064 439.465 91.5615 439.358 92.4201C439.715 91.5817 439.848 90.6283 440.342 89.8497C440.34 89.8664 440.338 89.8834 440.336 89.9001C440.262 90.4 439.618 91.8779 439.68 92.1647C439.843 91.9173 439.933 91.6248 440.062 91.3579C440.297 90.8708 440.588 90.3666 440.919 89.938C440.659 90.7464 440.168 91.5363 439.799 92.3059L439.836 92.3204C440.029 92.1282 440.145 91.8494 440.282 91.6154C440.574 91.1147 440.952 90.6156 441.406 90.2497C441.042 90.9315 440.498 91.5142 440.083 92.166C440.674 91.6467 441.137 90.9775 441.812 90.5559C441.802 90.5727 441.791 90.5896 441.781 90.6063C441.437 91.1437 440.795 91.738 440.291 92.1384C440.21 92.2033 439.946 92.3707 439.938 92.4773C440.155 92.4333 441.646 91.2437 442.108 91.001L442.164 90.9715L442.197 90.9542L442.159 90.9969C441.799 91.3901 441.284 91.7577 440.837 92.0525C440.625 92.1924 440.3 92.3209 440.139 92.5098L440.182 92.5265C440.859 92.1956 441.524 91.8339 442.218 91.539C442.209 91.5486 442.201 91.5583 442.192 91.5677C441.862 91.9231 441.164 92.2369 440.718 92.4355C440.536 92.5167 440.272 92.5911 440.122 92.7198C440.666 92.6693 441.161 92.4575 441.751 92.4151C441.455 92.5288 441.159 92.6453 440.854 92.7343C440.655 92.7924 440.239 92.8005 440.091 92.9174C440.113 92.9311 440.133 92.9494 440.157 92.9586C440.16 92.9599 441.854 92.7372 442.117 92.7407C441.733 92.9097 441.271 92.964 440.86 93.0453L440.994 93.0596C440.597 93.107 440.227 93.053 439.832 93.0589C440.499 93.273 441.192 93.1823 441.854 93.4049C441.193 93.422 440.629 93.3882 439.989 93.2285C440.285 93.3968 441.208 93.6834 441.348 93.9321C441.102 94.0012 440.486 93.6892 440.251 93.5563C440.137 93.4913 439.947 93.3339 439.819 93.3555C439.919 93.7133 440.951 94.2664 440.9 94.4548C440.74 94.4761 440.604 94.3769 440.481 94.2823C440.186 94.0559 439.972 93.7534 439.697 93.5114L439.68 93.5612L439.523 93.6562L439.481 93.7724L439.365 93.8011L439.303 93.759C439.238 93.7788 439.14 93.7951 439.086 93.8319C438.859 94.5942 438.624 95.3509 438.069 95.9407C438.403 95.2173 438.849 94.4002 438.994 93.6151C438.463 94.5426 438.226 95.0745 437.496 95.8968C437.818 95.1734 438.424 94.5776 438.717 93.8564L438.62 93.7741L438.648 93.7713C438.493 94.3252 437.454 95.2487 436.998 95.6364L437.017 95.6046L437.048 95.5521C437.256 95.1939 438.565 93.8279 438.564 93.7669C437.865 94.215 437.355 94.8567 436.586 95.2298C437.056 94.6809 437.917 94.0094 438.534 93.6421L438.513 93.5901C438.318 93.6023 438.025 93.8714 437.852 93.9848C437.401 94.2795 436.851 94.5985 436.34 94.7566C436.323 94.7618 436.306 94.7666 436.289 94.7716C436.642 94.4422 438.335 93.6133 438.41 93.3592L438.375 93.3085L438.347 93.3837L438.28 93.369L438.288 93.3627C437.789 93.771 436.793 94.1195 436.156 94.2475C436.825 93.8459 437.584 93.6007 438.28 93.2482C437.892 93.3049 436.6 93.7323 436.326 93.5977C436.664 93.4534 437.026 93.3578 437.387 93.2939C437.683 93.2415 438.141 93.2889 438.392 93.1556L438.384 93.1257L438.236 93.0937C438.28 93.0041 438.343 92.9652 438.421 92.9061L438.423 92.8782L438.37 92.825C438.36 92.7884 438.359 92.7429 438.356 92.7049L438.586 92.7652C438.611 92.6923 438.658 92.6466 438.707 92.5865C438.649 92.3834 437.809 91.8365 437.602 91.6236C437.491 91.5095 437.408 91.3818 437.324 91.247C437.726 91.4833 438.514 92.2764 438.852 92.3996C438.834 92.3464 438.818 92.2981 438.809 92.2422C438.806 92.2268 438.804 92.2113 438.802 92.1959C438.784 92.1296 438.758 92.0673 438.733 92.0033C438.649 91.4407 438.415 90.9135 438.328 90.3468C438.463 90.5768 438.562 90.8076 438.647 91.0602C438.725 91.2929 438.888 92.2459 439.011 92.3587C439.066 92.318 439.126 92.2956 439.188 92.2679Z" fill="#062A8E"/>
<path d="M451.687 76.7819C454.029 76.5724 456.291 76.8005 458.541 77.4911C459.187 77.6893 459.863 77.9186 460.458 78.2419L460.491 86.6388C459.755 86.3893 459.06 86.0267 458.316 85.7865C455.472 84.8684 452.462 84.8404 449.533 85.3303C449.491 85.1744 450.313 82.9285 450.412 82.5865C450.965 80.6718 451.33 78.7394 451.687 76.7819Z" fill="#F87E0D"/>
<path d="M449.525 85.3314C452.454 84.8415 455.464 84.8695 458.309 85.7876C459.053 86.0278 459.748 86.3904 460.483 86.6399L460.448 95.6898C454.824 93.269 450.415 93.9361 444.672 95.5309C444.838 95.0394 445.828 93.5657 446.145 93.0095C446.444 92.4816 446.731 91.9473 447.005 91.4067C447.28 90.8661 447.543 90.3196 447.793 89.7674C448.044 89.2152 448.282 88.6576 448.508 88.0949C448.734 87.5321 448.947 86.9645 449.148 86.3923C449.254 86.0901 449.439 85.737 449.446 85.415L449.385 85.3662L449.525 85.3314Z" fill="#ECE8DC"/>
<path d="M421.864 81.7523C423.02 81.9415 424.123 82.1832 425.3 82.2438C430.974 82.5362 437.174 80.5166 442.569 78.8446C445.549 77.9212 448.546 77.0487 451.669 76.7812C451.312 78.7387 450.947 80.6712 450.394 82.5859C450.295 82.9278 449.473 85.1738 449.515 85.3297L449.375 85.3645C448.577 85.4767 447.757 85.6982 446.977 85.9042C445.271 86.3549 443.595 86.8929 441.918 87.4394C435.343 89.5812 427.282 92.1715 420.459 89.8985C420.419 88.2694 420.447 86.6322 420.45 85.0022C420.451 83.7367 420.414 82.4588 420.473 81.195C420.931 81.3962 421.386 81.6037 421.864 81.7523Z" fill="#FE9A15"/>
<path d="M444.679 95.53C450.422 93.9353 454.831 93.2681 460.455 95.6889L460.466 103.855C458.699 103.135 456.949 102.635 455.045 102.445C449.46 101.885 443.918 103.995 438.722 105.767C436.284 106.598 433.853 107.399 431.342 107.989C428.307 108.702 425.045 109.046 421.977 108.303C421.504 108.19 421.041 107.981 420.569 107.893C420.403 107.557 420.493 100.186 420.494 99.1669C421.217 99.4412 422.042 99.584 422.802 99.7153C427.212 100.477 431.923 99.5902 436.157 98.3266C437.618 97.891 439.058 97.3638 440.503 96.8786C441.89 96.4128 443.294 96 444.679 95.53Z" fill="url(#paint0_linear_285_2714)"/>
<defs>
<linearGradient id="paint0_linear_285_2714" x1="450.878" y1="112.707" x2="429.816" y2="90.5329" gradientUnits="userSpaceOnUse">
<stop stop-color="#1E981F"/>
<stop offset="1" stop-color="#24BB3D"/>
</linearGradient>
</defs>
</svg>
