<svg width="139" height="64" viewBox="0 0 139 64" fill="none" xmlns="http://www.w3.org/2000/svg">
<path d="M5.38161 42.0849C7.57561 40.9893 10.3362 41.1245 12.4127 42.4291C11.358 38.6308 14.6652 34.6396 18.524 33.8332C22.3826 33.0266 26.3698 34.6589 29.5893 36.9338C25.9928 33.2684 25.0499 27.2631 27.3497 22.6718C29.6496 18.0804 35.0239 15.2396 40.1129 15.9251C40.7283 16.0081 41.4392 16.1097 41.8951 15.6882C42.3036 15.3108 42.3156 14.6836 42.3426 14.1279C42.5611 9.63522 46.0572 5.44964 50.4791 4.62559C54.9009 3.80153 59.77 6.5822 61.1287 10.8702C61.2536 7.77141 63.2288 4.95324 65.7961 3.21326C68.3631 1.47315 71.4605 0.683489 74.5353 0.279351C80.439 -0.496281 86.9138 0.214465 91.4668 4.05189C96.0198 7.88931 97.6084 15.4978 93.5997 19.9005C94.277 18.5984 96.0554 18.0077 97.3773 18.6458C98.6991 19.2838 99.343 21.0436 98.745 22.384C100.712 21.4933 103.228 22.022 104.671 23.6291C106.113 25.2362 106.367 27.7947 105.27 29.6543C107.133 28.5289 109.643 28.5809 111.458 29.7825C113.273 30.984 114.302 33.2742 113.994 35.4291C114.979 30.2186 121.44 27.2178 126.433 29.0032C131.426 30.7885 134.495 36.2695 134.468 41.5721C136.77 40.611 139.018 43.4707 138.998 45.9649C138.967 49.9237 135.719 53.3752 131.923 54.5007C128.128 55.6264 123.978 54.7772 120.395 53.0945C115.154 57.5644 107.955 59.6486 101.137 58.6697C94.3192 57.6908 87.9971 53.6649 84.2261 47.9011C81.4054 52.0664 76.4336 54.6854 71.4031 54.6556C67.0908 60.221 58.6443 62.0772 52.3959 58.8325C51.6484 60.9552 49.3836 62.1613 47.1907 62.6664C39.4609 64.4473 30.8121 58.9755 29.1107 51.2277C26.7563 57.869 20.5585 63.3622 13.5153 63.572C8.17006 63.7311 2.76013 60.2558 0.726514 55.2986C-1.16533 50.6866 0.724762 44.4105 5.38161 42.0849Z" fill="white"/>
<path d="M134.468 41.5243C134.496 36.2216 131.426 30.7407 126.433 28.9553C125.386 28.5811 124.275 28.4179 123.163 28.4405C125.021 29.2979 126.729 30.3872 127.99 31.977C130.139 34.6872 130.218 39.3315 127.25 41.1093C125.922 41.9054 123.97 41.8593 123.039 40.6211C123.521 43.3427 122.074 46.2963 119.627 47.5826C117.181 48.869 113.927 48.3872 111.958 46.4472C110.292 49.1936 107.019 50.9696 103.83 50.576C100.642 50.1824 97.807 47.4669 97.5503 44.2645C97.2938 41.0622 99.8863 37.8168 103.093 37.6147C101.494 37.7699 99.8508 36.7885 99.2293 35.3081C98.6079 33.8276 99.0584 31.967 100.289 30.935C101.186 30.182 102.368 29.8886 103.477 29.5129C104.243 29.2538 104.991 28.9441 105.717 28.5903C106.243 26.8924 105.864 24.9111 104.671 23.581C103.228 21.9739 100.712 21.4453 98.7451 22.336C99.3432 20.9956 98.6992 19.2357 97.3774 18.5977C96.3607 18.107 95.0758 18.3452 94.2276 19.0729C96.8082 15.4531 96.2173 10.1985 93.6241 6.40625C93.7131 7.54164 93.5368 8.69376 93.0616 9.73243C91.7809 12.5325 88.4593 14.2338 85.4386 13.6368C86.8455 14.6819 87.0664 16.8204 86.3315 18.4114C85.5965 20.0025 84.1285 21.1292 82.6125 22.0083C79.2778 23.942 75.4334 24.987 71.5789 25.0074C74.1012 25.8928 76.8409 25.8677 79.4704 26.3488C82.0999 26.8298 84.8561 28.0237 86.0332 30.4236C87.7211 33.8648 85.4001 37.9509 82.6196 40.589C80.2056 42.8793 76.6382 44.798 73.6714 43.2913C75.2931 44.0658 75.4824 46.4706 74.506 47.9795C73.5299 49.4884 71.8087 50.3114 70.1752 51.0606C68.8278 51.6786 67.4284 52.3087 65.9458 52.3169C64.4634 52.3252 62.8674 51.5327 62.425 50.1178C60.3865 51.7735 58.105 53.3184 55.4998 53.6508C52.8947 53.9833 49.9245 52.7445 49.0482 50.2689C46.0586 52.7924 41.1431 52.5946 38.366 49.8388C35.589 47.0832 35.353 42.1692 37.8532 39.1601C35.96 39.8759 33.7907 39.8303 31.9292 39.0354C31.0425 42.4897 27.2935 44.9445 23.7727 44.3761C23.8968 47.0225 22.2103 49.6592 19.7559 50.6561C17.3014 51.6531 14.2539 50.9394 12.4974 48.9561C11.7064 51.9195 8.27554 53.8276 5.32182 53.166C2.6712 52.5722 0.791882 49.9521 1.26724 47.2676C1.47241 46.1091 2.04421 45.1371 2.64299 44.1762C0.0611713 47.1368 -0.734815 51.6889 0.72606 55.2502C2.75955 60.2072 8.16965 63.6827 13.515 63.5234C20.5581 63.3137 26.7559 57.8206 29.1103 51.1793C30.8119 58.9269 39.4605 64.3989 47.1904 62.618C49.3834 62.1127 51.6481 60.9068 52.3955 58.784C58.644 62.0287 67.0905 60.1725 71.4029 54.6071C76.4334 54.637 81.4052 52.018 84.2259 47.8527C87.9969 53.6165 94.319 57.6424 101.137 58.6214C107.955 59.6003 115.154 57.5161 120.395 53.046C123.978 54.729 128.128 55.578 131.923 54.4523C135.719 53.3266 138.967 49.8753 138.998 45.9164C139.018 43.4229 136.77 40.5632 134.468 41.5243Z" fill="#D4D4D4"/>
<path d="M42.73 34.0532C43.8886 31.3375 47.2025 29.5306 49.9554 30.5979C49.761 27.5863 52.316 24.6672 55.3267 24.4609C58.3375 24.2547 61.2665 26.7982 61.4845 29.8082C60.4759 27.7212 57.8297 26.5898 55.6242 27.3026C53.4186 28.0154 51.9349 30.4815 52.3386 32.764C49.463 31.8675 46.0877 33.69 45.0753 36.5268C44.0309 39.4528 45.4489 42.6013 47.8552 44.3495C43.1604 43.6947 40.8944 38.3554 42.73 34.0532Z" fill="#D4D4D4"/>
<path d="M64.7753 17.5009C67.0852 18.813 68.7855 21.3209 68.7396 23.9771C69.6221 21.8205 69.3343 19.2248 68.0011 17.3138C66.6677 15.4028 64.3308 14.2367 62.0019 14.3206C59.917 14.3958 55.9834 15.3439 54.7188 17.1288C58.3375 16.7703 61.2042 15.4724 64.7753 17.5009Z" fill="#D4D4D4"/>
</svg>
