<svg width="267" height="125" viewBox="0 0 267 125" fill="none" xmlns="http://www.w3.org/2000/svg">
<path d="M49.4624 122.299C49.4682 122.674 49.474 123.049 49.4797 123.424C49.9322 123.542 50.3845 123.647 50.8366 123.74C52.6451 124.113 54.4505 124.285 56.2528 124.257C62.5609 124.16 68.8648 123.791 75.1645 123.149C75.6144 123.104 76.0644 123.056 76.5143 123.008C76.5086 122.633 76.5028 122.258 76.497 121.883C76.0458 121.848 75.5946 121.815 75.1434 121.783C68.827 121.335 62.5147 121.16 56.2066 121.257C54.4043 121.285 52.6051 121.513 50.809 121.941C50.3599 122.047 49.9111 122.167 49.4624 122.299Z" fill="#4C6169"/>
<path d="M82.3218 121.883C82.3276 122.258 82.3333 122.633 82.3391 123.008C82.7916 123.126 83.2439 123.231 83.696 123.324C85.5045 123.697 87.3099 123.869 89.1122 123.841C95.4202 123.744 101.724 123.375 108.024 122.733C108.474 122.688 108.924 122.64 109.374 122.592C109.368 122.217 109.362 121.842 109.356 121.467C108.905 121.432 108.454 121.399 108.003 121.367C101.686 120.92 95.3741 120.744 89.066 120.841C87.2637 120.869 85.4645 121.097 83.6683 121.525C83.2193 121.631 82.7704 121.751 82.3218 121.883Z" fill="#4C6169"/>
<path d="M115.179 121.467C115.185 121.842 115.191 122.217 115.197 122.592C115.649 122.71 116.101 122.815 116.553 122.908C118.362 123.281 120.167 123.453 121.97 123.425C128.278 123.328 134.582 122.959 140.881 122.317C141.331 122.272 141.781 122.224 142.231 122.176C142.225 121.801 142.22 121.426 142.214 121.051C141.763 121.016 141.311 120.983 140.86 120.951C134.544 120.504 128.232 120.329 121.923 120.426C120.121 120.453 118.322 120.681 116.526 121.109C116.077 121.216 115.628 121.335 115.179 121.467Z" fill="#4C6169"/>
<path d="M148.037 121.051C148.042 121.426 148.048 121.801 148.054 122.176C148.506 122.294 148.959 122.399 149.411 122.492C151.219 122.865 153.025 123.037 154.827 123.009C161.135 122.912 167.439 122.543 173.739 121.902C174.189 121.856 174.639 121.809 175.089 121.76C175.083 121.385 175.077 121.01 175.071 120.635C174.62 120.6 174.169 120.567 173.718 120.535C167.401 120.088 161.089 119.913 154.781 120.01C152.979 120.037 151.179 120.265 149.383 120.693C148.934 120.8 148.485 120.919 148.037 121.051Z" fill="#4C6169"/>
<path d="M180.894 120.635C180.9 121.01 180.906 121.385 180.911 121.76C181.364 121.878 181.816 121.984 182.268 122.077C184.077 122.449 185.882 122.621 187.684 122.593C193.993 122.496 200.296 122.127 206.596 121.486C207.046 121.44 207.496 121.393 207.946 121.344C207.94 120.969 207.934 120.594 207.929 120.219C207.477 120.184 207.026 120.151 206.575 120.119C200.259 119.672 193.946 119.497 187.638 119.594C185.836 119.621 184.037 119.849 182.241 120.277C181.792 120.384 181.343 120.503 180.894 120.635Z" fill="#4C6169"/>
<path d="M213.753 120.219C213.759 120.594 213.765 120.969 213.771 121.344C214.223 121.462 214.676 121.568 215.128 121.661C216.936 122.033 218.742 122.205 220.544 122.177C226.852 122.08 233.156 121.711 239.455 121.07C239.905 121.024 240.355 120.977 240.805 120.928C240.8 120.553 240.794 120.178 240.788 119.803C240.337 119.769 239.886 119.735 239.434 119.703C233.118 119.256 226.806 119.081 220.498 119.178C218.695 119.206 216.896 119.433 215.1 119.861C214.651 119.968 214.202 120.087 213.753 120.219Z" fill="#4C6169"/>
<path d="M177.286 97.4205C177.623 95.9643 177.959 94.5083 178.295 93.0522C179.424 90.0866 181.22 87.6036 183.683 85.6034L187.516 83.2783C188.749 82.7418 190.008 82.3608 191.288 82.1184C192.664 82.0982 194.04 82.1434 195.363 82.1495C195.498 82.1502 195.621 82.1344 195.74 82.1115C196.541 82.2136 197.402 82.3701 198.191 82.3214C198.195 82.3218 198.198 82.3225 198.201 82.3229C198.411 82.3534 198.598 82.3456 198.776 82.3222C198.881 82.3456 198.987 82.3661 199.093 82.3893C200.326 82.7434 201.493 83.2737 202.589 83.9933C204.753 84.9233 206.555 86.3537 207.995 88.2847C209.504 90.037 210.488 92.0216 210.945 94.2388C211.756 96.3299 212.011 98.5102 211.71 100.78C211.374 102.236 211.038 103.692 210.702 105.148C209.573 108.114 207.777 110.597 205.313 112.597C204.036 113.372 202.758 114.147 201.48 114.922C198.712 116.126 195.825 116.59 192.819 116.312C190.47 116.173 188.333 115.471 186.407 114.207C184.243 113.277 182.442 111.846 181.002 109.915C179.492 108.163 178.509 106.179 178.051 103.961C177.241 101.87 176.986 99.6899 177.286 97.4205Z" fill="#4C6169"/>
<path d="M88.1959 93.6669C88.436 91.9933 89.01 90.4452 89.9068 89.0186C90.9358 86.8834 92.3817 85.0497 94.2572 83.5268C96.4347 81.7977 98.8947 80.7083 101.637 80.2586C103.117 80.1475 104.609 79.9913 106.079 80.1495C106.711 80.2176 109.642 80.8972 110.229 81.1167C110.857 81.3517 113.489 82.7787 114.062 83.1644C114.793 83.6561 115.181 84.1499 115.947 84.8774C116.145 85.0663 117.136 85.8926 117.593 86.462C117.629 86.5051 117.662 86.5505 117.692 86.598C118.4 87.7658 119.108 88.9337 119.817 90.1015C119.901 90.2583 119.973 90.405 120.038 90.5716C120.283 91.1995 121.074 93.9023 121.215 94.5613C121.236 94.658 121.258 94.7532 121.274 94.851C121.287 94.9288 121.286 95.0077 121.293 95.0858C121.336 96.4325 121.378 97.7791 121.421 99.1257C121.423 99.1842 121.422 99.2424 121.418 99.3007C121.41 99.3771 121.4 99.453 121.392 99.5292C121.312 100.237 120.668 103.023 120.434 103.688C120.41 103.757 120.385 103.827 120.361 103.897C120.173 104.441 118.646 107.235 118.309 107.73C118.258 107.804 118.21 107.879 118.158 107.952C117.996 108.187 115.388 110.926 115.166 111.105C115.096 111.162 115.023 111.217 114.952 111.272C114.417 111.691 111.951 113.182 111.349 113.451C111.002 113.606 110.376 113.789 109.886 113.921C109.536 114.046 109.182 114.155 108.826 114.247C107.672 114.686 106.473 114.852 105.23 114.737C103.977 114.934 102.753 114.838 101.557 114.455C101.343 114.412 101.13 114.361 100.917 114.306C100.269 114.231 99.6482 114.07 99.0588 113.812C97.8138 113.144 96.5689 112.476 95.3239 111.807C95.2243 111.749 95.126 111.695 95.0299 111.631C93.7231 110.754 92.4868 109.57 91.5337 108.286C90.6036 107.032 89.7088 105.704 89.1224 104.254C89.1052 104.199 89.088 104.144 89.0708 104.089C88.6897 102.797 88.3086 101.505 87.9276 100.213C87.8929 100.036 87.869 99.8834 87.8627 99.7029C87.4529 97.64 87.564 95.628 88.1959 93.6669Z" fill="#4C6169"/>
<path d="M186.66 98.4441C186.844 96.0174 188.18 93.8608 190.102 92.5845C190.152 92.5509 190.201 92.5181 190.252 92.4857C190.347 92.4257 190.443 92.3665 190.541 92.3107C191.867 91.534 193.422 91.1441 195.005 91.2873C199.155 91.6623 202.415 95.631 202.023 99.7657C201.621 104.003 197.75 106.848 193.641 106.615C189.454 106.378 186.347 102.546 186.66 98.4441Z" fill="#DCEEF5"/>
<path d="M97.6673 95.0321C98.3313 93.3667 99.6281 92.0035 101.257 91.2536C102.222 90.8095 103.783 90.4006 104.863 90.6495C105.683 90.6983 106.429 90.9432 107.101 91.3845C107.333 91.4841 107.549 91.6058 107.756 91.7382C108.691 92.1701 109.533 92.7919 110.194 93.608C110.207 93.6244 110.216 93.6424 110.23 93.6588C111.794 95.412 112.368 97.8806 111.51 100.177C111.355 100.593 111.147 100.973 110.918 101.335C109.872 103.385 107.761 104.811 105.51 105.164C102.968 105.562 100.171 104.389 98.6894 102.279C97.1963 100.153 96.6857 97.4944 97.6673 95.0321Z" fill="#DCEEF5"/>
<path d="M188.062 99.1873C188.109 98.6773 188.496 98.2529 189.027 98.2743C189.497 98.2934 189.798 98.7128 189.959 99.109C190.043 99.3163 190.126 99.5201 190.234 99.7163C190.244 99.7347 190.288 99.8181 190.329 99.8914C190.331 99.8949 190.343 99.9111 190.369 99.9502C190.399 99.9932 190.428 100.037 190.457 100.079C190.706 100.178 190.918 100.361 191.023 100.631C191.044 100.687 191.069 100.742 191.094 100.797C191.167 100.859 191.24 100.921 191.317 100.978C191.416 101.051 191.518 101.121 191.622 101.187C191.67 101.217 191.718 101.244 191.766 101.274C191.77 101.277 191.771 101.277 191.774 101.28C192.013 101.395 192.255 101.498 192.509 101.576C192.551 101.589 192.594 101.601 192.637 101.613C192.68 101.624 192.723 101.635 192.766 101.646C192.726 101.636 192.685 101.626 192.644 101.616C192.671 101.665 192.972 101.671 193.04 101.679C193.134 101.689 193.258 101.704 193.364 101.698C193.371 101.696 193.377 101.694 193.385 101.693C193.474 101.683 193.563 101.677 193.652 101.665C194.155 101.601 194.631 101.889 194.775 102.38C194.915 102.854 194.689 103.39 194.221 103.591C192.312 104.41 189.93 103.479 189.069 101.592C188.872 101.354 188.688 101.103 188.529 100.833C188.258 100.37 188.012 99.7273 188.062 99.1873Z" fill="#F5FCFF"/>
<path d="M180.846 100.217C182.192 104.54 185.137 108.249 188.842 110.816C189.236 111.088 188.88 111.807 188.433 111.579C184.112 109.366 180.973 105.416 179.516 100.804C179.237 99.9205 180.568 99.3239 180.846 100.217Z" fill="#F5FCFF"/>
<path d="M94.4085 103.93C95.6138 105.353 96.8507 106.784 98.3445 107.915C99.8626 109.064 101.566 109.881 103.431 110.28C104.064 110.415 103.977 111.424 103.332 111.294C99.436 110.508 95.1875 108.265 93.4838 104.491C93.2262 103.92 94.0115 103.461 94.4085 103.93Z" fill="#F5FCFF"/>
<path d="M55.7279 83.6347C56.045 81.8389 56.666 80.1267 57.5696 78.5767C57.8335 76.631 58.5859 74.782 59.8858 73.1907C60.3555 72.6166 60.8597 72.0923 61.4039 71.6119C61.6722 71.0307 62.0422 70.4977 62.5532 70.0403C63.4327 69.2513 64.5496 68.894 65.7045 68.7484C65.9763 68.6369 66.2542 68.5476 66.5319 68.4526C66.6143 68.3671 66.7246 68.2923 66.8692 68.2503C70.7826 67.0385 74.8675 66.6008 78.9533 66.4818C80.887 66.4217 82.8393 66.4506 84.7767 66.5749C86.6432 64.2121 88.2483 61.6418 89.9107 59.1373C91.9694 56.0269 93.9596 52.845 96.143 49.816C97.1067 48.4773 98.2236 47.2532 99.6498 46.4088C101.153 45.5126 102.932 45.2206 104.632 44.9357C108.779 44.2395 112.958 43.7608 117.153 43.4887C119.286 43.3519 121.427 43.2821 123.568 43.2347C124.664 43.2133 125.759 43.2031 126.856 43.204C127.851 43.2069 128.816 43.3837 129.787 43.5605C130.843 43.4952 131.893 43.4299 132.943 43.3702C136.211 43.1833 139.48 43.0523 142.756 42.966C143.929 42.9374 145.104 42.9145 146.277 42.8972C146.299 42.8688 146.315 42.8405 146.343 42.8176C146.826 42.3496 147.622 42.4459 148.244 42.5065C148.832 42.5621 149.417 42.696 149.99 42.8582C150.672 42.856 151.36 42.8482 152.042 42.846C152 42.9643 151.969 43.0824 151.948 43.2002C152.466 43.3578 152.978 43.538 153.48 43.7518C153.698 43.7308 153.928 43.7823 154.155 43.9568C154.286 44.0549 154.411 44.1643 154.542 44.2624C155.191 44.5908 155.83 44.9419 156.436 45.3438C156.697 45.5121 156.836 45.789 156.87 46.0792C163.121 51.1412 168.831 56.8905 173.786 63.225C174.584 64.244 175.359 65.2746 176.118 66.3279C176.394 66.714 176.72 67.1159 177.025 67.5406C180.545 67.6507 184.065 67.7888 187.584 67.8488C187.774 67.8507 187.932 67.9035 188.067 67.9847C188.938 67.8839 189.808 67.7774 190.679 67.6765C190.701 67.6704 190.723 67.6701 190.745 67.664C190.82 67.7464 190.894 67.8288 190.974 67.9111C197.395 67.685 203.816 67.7441 210.223 68.4969C212.734 68.7946 215.249 69.2712 217.715 69.8269C218.614 70.0275 219.512 70.2392 220.406 70.4622C221.011 70.5175 221.616 70.5895 222.211 70.6954C224.928 71.1847 227.502 72.1243 229.894 73.4869C234.582 76.1468 238.092 80.9156 239.702 86.0237C240.453 88.3969 240.853 90.8554 240.845 93.3274C240.848 93.73 240.833 94.133 240.813 94.536C240.801 94.7823 240.784 95.0231 240.76 95.2697C240.724 95.673 240.512 96.0183 240.209 96.2591C240.234 96.3592 240.252 96.454 240.26 96.5545C240.378 97.4414 240.084 98.409 239.341 99.0723C239.182 99.2152 239.011 99.3304 238.834 99.4346C238.734 100.057 238.231 100.615 237.419 100.564C233.791 100.338 230.157 100.107 226.528 99.8763C224.518 99.7477 222.514 99.6248 220.504 99.4963C219.647 99.4515 218.791 99.4067 217.934 99.3675C217.023 100.235 215.066 99.9884 214.969 98.4524L214.968 98.3685C214.827 98.0302 214.802 97.6392 214.891 97.2963C214.859 96.8048 214.816 96.3191 214.767 95.8279C214.742 95.6997 214.717 95.5716 214.692 95.4435C214.406 94.2466 214.086 93.0562 213.789 91.8596C213.74 91.6648 213.742 91.469 213.783 91.2781C213.44 90.295 213.047 89.3631 212.627 88.4933C212.452 88.1332 212.249 87.7625 212.024 87.3978C210.639 86.0547 209.16 84.814 207.601 83.6925C207.409 83.6236 207.212 83.5603 207.015 83.497C206.571 83.3659 206.229 83.0315 206.02 82.6273C204.553 81.6941 203.022 80.8795 201.42 80.2062C200.281 79.7363 199.11 79.3453 197.924 79.0274C196.23 79.0381 194.535 79.0209 192.84 78.9701C191.866 78.9388 190.892 78.9019 189.924 78.8594C187.167 79.9981 184.409 81.1203 181.652 82.2422C177.689 85.7702 175.243 91.4048 173.196 96.2655C173.579 96.6998 173.334 97.5994 172.602 97.6305C172.25 98.2078 171.571 98.6741 170.881 98.5422C170.819 98.5322 170.752 98.5167 170.69 98.5068C170.519 98.9072 170.15 99.2276 169.602 99.2103C158.674 98.9093 147.753 98.6753 136.826 98.3855C135.293 98.3428 133.76 98.3 132.226 98.2517C131.264 98.2202 130.285 98.2169 129.311 98.18C128.71 98.5777 127.804 98.5953 127.312 98.0178C126.744 97.8724 126.315 97.3774 126.303 96.7736C126.299 96.5723 126.351 96.3588 126.442 96.1614C126.074 95.9448 125.788 95.5814 125.71 95.0348C125.645 94.5607 125.574 94.0979 125.498 93.6352C124.906 92.2319 124.28 90.8404 123.61 89.4666C122.975 88.1536 122.307 86.858 121.622 85.574C120.989 84.3951 120.367 83.1714 119.59 82.0737C118.883 81.3828 118.155 80.7259 117.393 80.1033C115.452 78.9445 113.425 77.9438 111.29 77.1355C109.323 76.3854 107.316 75.8207 105.272 75.4188C102.061 75.6381 98.8813 76.3266 95.8724 77.4592C95.04 77.7886 94.2191 78.1402 93.4045 78.514C91.5869 79.3772 89.8509 80.3954 88.2302 81.5959C88.12 81.6763 88.0038 81.7401 87.8928 81.787C87.5989 82.201 87.322 82.6203 87.0508 83.0506C84.5179 87.0818 82.9298 91.9559 82.4742 96.6904C82.4378 97.1162 82.1388 97.5526 81.7464 97.7896C82.0572 98.5329 81.6026 99.5876 80.5388 99.5301C73.7369 99.1597 66.9288 98.7558 60.1306 98.2959C59.8842 98.2783 59.6808 98.176 59.5158 98.0283C59.0629 98.0259 58.6098 98.0236 58.1625 98.0267C57.8215 98.0278 57.6057 97.8642 57.5118 97.6367C57.3067 97.1598 57.6221 96.4154 58.3208 96.3962C58.6729 96.3893 59.0251 96.3768 59.3714 96.3589C59.4364 96.2514 59.5073 96.1605 59.5838 96.0695C59.5605 96.0197 59.5372 95.9697 59.5193 95.9198C59.0728 95.9565 58.6262 96.0044 58.1802 96.0746C57.3607 96.2025 56.6393 95.6349 56.4784 94.844C56.2804 93.8692 56.0876 92.8775 55.9281 91.874C55.8075 91.1381 55.7036 90.3907 55.6275 89.6484C55.615 89.5816 55.6081 89.5146 55.6067 89.4475C55.4062 87.4998 55.3904 85.5427 55.7279 83.6347ZM173.388 67.444C173.528 67.4469 173.662 67.4499 173.802 67.4528C173.325 66.7853 172.853 66.1123 172.365 65.4508C171.043 63.6646 169.662 61.9189 168.225 60.2244C165.317 56.786 162.188 53.5084 158.824 50.5095C157.487 49.3109 156.105 48.169 154.702 47.05C153.056 47.2164 151.384 47.2323 149.73 47.3038C148.009 47.3765 146.289 47.4828 144.568 47.5724C141.127 47.757 137.685 47.9138 134.243 48.0649C133.723 48.0863 133.209 48.1075 132.689 48.1289C132.806 50.0951 132.906 52.0562 132.956 54.0237C133.505 58.4086 133.559 62.8535 133.13 67.2576C134.098 67.289 135.067 67.326 136.029 67.3631C136.046 67.3628 136.063 67.3625 136.079 67.3566C140.255 67.2582 144.431 67.1934 148.614 67.162C156.873 67.1012 165.13 67.2642 173.388 67.444ZM132.029 95.3363C131.772 95.319 131.514 95.3072 131.257 95.2955C131.05 95.2828 130.87 95.2304 130.706 95.1552C130.651 95.2178 130.596 95.2748 130.53 95.332C131.028 95.3391 131.532 95.3348 132.029 95.3363ZM118.894 73.6315C119.074 73.7118 119.244 73.8036 119.419 73.8897C119.463 73.8832 119.508 73.8767 119.553 73.8702C119.551 73.7752 119.549 73.6857 119.564 73.596C119.362 73.5384 119.159 73.4809 118.962 73.4232C118.744 73.4107 118.52 73.3982 118.302 73.3802C118.499 73.4658 118.702 73.5402 118.894 73.6315ZM122.891 66.9823C123.427 66.9159 123.969 66.8941 124.435 67.0192C125.739 67.0497 127.037 67.0858 128.341 67.1218C127.866 64.2902 127.859 61.3599 128.061 58.5374C128.271 55.5469 128.75 52.5847 129.095 49.6084C129.002 49.1684 128.898 48.7286 128.795 48.2889C123.816 48.4924 118.842 48.6846 113.863 48.8435C112.248 48.8919 110.633 48.9514 109.017 48.9997C108.962 49.3084 108.918 49.6168 108.896 49.9305C109.457 52.9003 109.695 55.9379 109.609 58.9594C109.57 60.3919 109.452 61.8147 109.256 63.2334C109.265 63.3842 109.279 63.5349 109.293 63.6856C109.315 63.9481 109.23 64.1622 109.087 64.3216C108.962 65.0791 108.815 65.8369 108.645 66.5896C108.63 66.6514 108.614 66.7077 108.598 66.7695C113.364 66.8161 118.124 66.8797 122.891 66.9823ZM97.1864 66.0137C97.8663 65.8941 98.3985 66.2305 98.6933 66.7169C100.533 66.7201 102.373 66.7288 104.213 66.7376C104.206 66.0723 104.277 65.3998 104.392 64.7209C104.381 64.4526 104.365 64.179 104.354 63.9108C104.29 62.3908 104.261 60.8647 104.309 59.3426C104.372 57.1044 104.546 54.8752 104.816 52.6609L104.707 51.3767C104.686 51.1535 104.733 50.9624 104.813 50.7987C104.802 50.7989 104.791 50.8047 104.78 50.8105C104.429 50.8956 104.073 50.9753 103.717 51.055C103.778 51.3111 103.772 51.5852 103.693 51.8439C103.51 52.4739 102.857 52.839 102.255 52.6774C100.476 55.7823 98.7081 58.8928 96.9288 61.9922C96.0527 63.5248 95.2053 65.0849 94.3123 66.6123C95.2644 66.3868 96.222 66.1779 97.1864 66.0137ZM80.0431 94.7807C80.0637 94.6964 80.0847 94.6176 80.0998 94.5335C79.9033 94.4926 79.7118 94.4236 79.531 94.3265C79.3593 94.4137 79.1702 94.4678 78.9525 94.4888C79.3178 94.5823 79.6831 94.6758 80.0431 94.7807Z" fill="#4C6169"/>
<path d="M108.619 66.7694C113.385 66.816 118.145 66.8796 122.912 66.9822C123.447 66.9158 123.989 66.894 124.456 67.0192C125.759 67.0497 127.058 67.0857 128.361 67.1218C127.887 64.2901 127.88 61.3598 128.082 58.5373C128.292 55.5469 128.771 52.5847 129.115 49.6084C129.023 49.1684 128.919 48.7286 128.815 48.2888C123.837 48.4923 118.863 48.6846 113.884 48.8435C112.268 48.8918 110.653 48.9513 109.038 48.9997C108.982 49.3083 108.938 49.6168 108.916 49.9304C109.478 52.9003 109.716 55.9379 109.63 58.9594C109.59 60.3918 109.473 61.8146 109.277 63.2333C109.286 63.3841 109.3 63.5348 109.314 63.6856C109.336 63.948 109.25 64.1622 109.108 64.3216C108.983 65.079 108.836 65.8369 108.666 66.5896C108.65 66.6513 108.635 66.7076 108.619 66.7694Z" fill="white"/>
<path d="M133.155 67.2579C134.123 67.2893 135.091 67.3263 136.054 67.3634C136.07 67.3631 136.087 67.3628 136.104 67.3569C140.279 67.2585 144.456 67.1937 148.638 67.1623C156.897 67.1016 165.154 67.2646 173.412 67.4444C173.552 67.4473 173.686 67.4503 173.826 67.4531C173.349 66.7857 172.877 66.1127 172.389 65.4512C171.068 63.665 169.686 61.9193 168.249 60.2248C165.341 56.7864 162.212 53.5088 158.849 50.5099C157.511 49.3113 156.13 48.1695 154.727 47.0504C153.08 47.2168 151.408 47.2328 149.754 47.3042C148.034 47.3769 146.313 47.4833 144.592 47.5728C141.151 47.7574 137.709 47.9142 134.267 48.0653C133.748 48.0867 133.233 48.108 132.714 48.1293C132.831 50.0955 132.93 52.0566 132.98 54.0241C133.53 58.4089 133.583 62.8538 133.155 67.2579Z" fill="white"/>
<path d="M76.4418 72.6422C76.6959 72.6372 76.6546 73.0303 76.4035 73.0351C76.1495 73.0401 76.1907 72.6471 76.4418 72.6422Z" fill="#FFEFB5"/>
<path d="M185.386 70.0866C198.622 68.7506 212.887 68.0781 225.065 74.3698C228.074 75.9241 230.835 77.8664 233.258 80.2355C233.766 80.7324 232.9 81.4145 232.395 80.9269C223.191 72.0433 209.726 70.276 197.487 70.5056C193.501 70.5804 189.517 70.8354 185.534 71.0061C184.95 71.0312 184.778 70.1481 185.386 70.0866Z" fill="#F5FCFF"/>
<path d="M136.119 70.3049C145.935 68.909 156.055 69.0667 165.907 69.9885C166.663 70.0593 166.548 71.2316 165.793 71.161C160.908 70.7039 156.002 70.4805 151.096 70.5038C146.141 70.5274 141.201 70.8441 136.26 71.1816C135.7 71.2198 135.544 70.3867 136.119 70.3049Z" fill="#F5FCFF"/>
<path d="M177.614 73.8775C177.699 73.615 177.931 73.4285 178.186 73.3532C178.415 73.2856 178.629 73.3079 178.839 73.4207C179.102 73.5617 179.212 73.7663 179.292 74.0443C179.451 74.6008 179.61 75.1574 179.769 75.714C179.847 75.987 179.925 76.26 180.003 76.5331C180.083 76.8151 180.115 77.1078 180.16 77.3974C180.214 77.7495 179.995 78.088 179.657 78.1877C179.313 78.2891 178.959 78.1219 178.805 77.7979C178.683 77.5434 178.546 77.2919 178.457 77.024C178.365 76.7439 178.272 76.4638 178.179 76.1838C177.997 75.634 177.815 75.0843 177.634 74.5345C177.559 74.308 177.541 74.1051 177.614 73.8775Z" fill="#F5FCFF"/>
<path d="M132.885 77.5571C132.717 76.8064 133.894 76.622 134.063 77.3681C135.065 81.8038 135.485 86.3414 135.12 90.8806C135.072 91.4698 134.219 91.3633 134.222 90.793C134.244 86.3501 133.857 81.8971 132.885 77.5571Z" fill="#F5FCFF"/>
<path d="M92.9768 70.5683C92.9978 70.4858 93.0624 70.4106 93.169 70.4085C93.2769 70.4064 93.3265 70.4794 93.3309 70.5614C93.758 70.6251 94.1428 70.9311 94.2006 71.389C94.2826 72.0376 94.393 72.6898 94.4388 73.3418C94.4879 74.0408 94.525 74.7348 94.5312 75.4356C94.5342 75.7546 94.2051 76.0725 93.8988 76.1084C93.5937 76.144 93.1848 75.993 93.0875 75.6674C92.8874 74.9969 92.7144 74.3255 92.5553 73.6441C92.4067 73.0079 92.32 72.3525 92.207 71.709C92.1196 71.2105 92.4763 70.6696 92.9768 70.5683Z" fill="#F5FCFF"/>
<path d="M90.4173 65.2094C92.3299 61.8161 94.4621 58.5483 96.5435 55.2575C96.9733 54.578 97.9906 55.3141 97.5566 55.9904C95.4573 59.2613 93.401 62.5691 91.1367 65.7297C90.7961 66.205 90.1436 65.6949 90.4173 65.2094Z" fill="#F5FCFF"/>
<path d="M62.5225 76.4813C64.307 73.6643 67.4187 71.6748 70.4542 70.4374C73.5889 69.1596 76.9396 68.5571 80.3223 68.8072C81.4346 68.8893 81.2634 70.6139 80.1543 70.5282C77.0561 70.2888 73.8962 70.7986 71.051 72.0586C68.152 73.3424 65.8641 75.3436 63.5555 77.4646C62.9301 78.0391 62.1084 77.135 62.5225 76.4813Z" fill="#F5FCFF"/>
<path d="M51.8626 90.713C52.7861 89.4746 54.3355 89.4687 55.7335 89.4456C59.3175 89.3865 62.9318 89.4086 66.5057 89.6957C67.6207 89.7852 69.7248 89.6779 70.1898 91.0332C70.2528 91.2168 70.2542 91.3792 70.219 91.5219C70.4313 91.7493 70.6118 92.0092 70.742 92.3116C71.8234 94.8239 69.1579 97.2362 66.8626 97.495C65.3557 97.665 63.8814 97.2908 62.3816 97.2453C60.8885 97.2 59.4116 97.5644 57.9229 97.6319C55.4395 97.7445 52.5551 96.943 51.5016 94.4294C51.0017 93.2364 51.0756 91.7683 51.8626 90.713Z" fill="#4C6169"/>
<path d="M226.117 95.5489C226.508 94.5912 227.05 93.7314 228.021 93.2767C228.973 92.8305 230.145 92.7885 231.177 92.7082C232.39 92.6137 233.616 92.5932 234.833 92.6192C236.127 92.6468 237.408 92.7603 238.688 92.9532C239.882 93.1332 241.141 93.3146 242.279 93.7325C244.14 94.4151 245.719 96.5166 244.654 98.4189C244.73 99.15 244.564 99.8949 244.068 100.526C242.713 102.249 240.043 101.598 238.186 101.418C235.749 101.181 233.301 100.973 230.872 100.666C229.69 100.517 228.448 100.457 227.287 100.187C226.29 99.9561 225.633 99.179 225.534 98.1638C225.445 97.2543 225.78 96.3753 226.117 95.5489Z" fill="#4C6169"/>
<path d="M51.5925 90.1204C53.19 89.5364 55.0724 89.6666 56.7487 89.6481C58.5128 89.6285 60.2771 89.6089 62.0412 89.5895C64.367 89.5637 67.6158 89.4194 68.6716 92.03C69.1886 93.3089 67.2342 94.1827 66.7047 92.898C66.3844 92.1211 65.5301 91.9145 64.7616 91.8176C63.4738 91.6553 62.1457 91.7664 60.8526 91.7893C59.3196 91.8164 57.7865 91.8436 56.2535 91.8707C54.746 91.8974 53.084 92.0311 51.6341 91.5469C51.0183 91.3413 50.9601 90.3517 51.5925 90.1204Z" fill="#F5FCFF"/>
<path d="M229.886 95.4036C230.588 94.6711 232 94.4466 232.954 94.2423C233.992 94.0201 235.05 93.9415 236.11 93.9276C238.299 93.8988 240.47 94.3034 242.516 95.0794C243.794 95.5642 243.043 97.5682 241.774 97.0665C239.938 96.3409 237.998 95.9431 236.024 95.8883C235.06 95.8615 234.096 95.9344 233.14 96.0585C232.655 96.1214 232.179 96.2153 231.7 96.3073C231.215 96.4002 230.703 96.5561 230.209 96.4881C229.635 96.4092 229.527 95.7789 229.886 95.4036Z" fill="#F5FCFF"/>
<path d="M194.881 85.8812C197.202 85.6122 199.739 86.6104 201.697 87.7774C203.764 89.0091 205.475 90.7562 206.673 92.8403C206.973 93.3627 206.124 93.7216 205.821 93.2163C204.688 91.3294 203.05 89.7766 201.147 88.6805C200.226 88.1502 199.23 87.7405 198.209 87.4473C197.123 87.1352 196.019 87.0496 194.912 86.862C194.387 86.773 194.292 85.9495 194.881 85.8812Z" fill="#F5FCFF"/>
<path d="M104.266 84.2292C105.612 83.6692 107.202 83.9691 108.56 84.3471C109.921 84.7257 111.219 85.3679 112.365 86.191C114.696 87.865 116.432 90.2337 117.092 93.0454C117.264 93.7794 116.126 93.9476 115.943 93.2298C115.321 90.7855 113.693 88.6367 111.588 87.266C110.552 86.5918 109.395 86.0891 108.193 85.8023C106.956 85.5072 105.702 85.6374 104.46 85.4375C103.864 85.3415 103.65 84.4855 104.266 84.2292Z" fill="#F5FCFF"/>
<path d="M100.265 98.1227C100.739 97.9376 101.162 98.1441 101.405 98.5646C101.41 98.5738 101.417 98.5881 101.423 98.6031C101.421 98.5984 101.421 98.5961 101.418 98.5908C101.437 98.6376 101.477 98.6824 101.504 98.7241C101.569 98.821 101.636 98.9162 101.705 99.0094C101.838 99.1876 101.98 99.3585 102.131 99.5218C102.184 99.5798 102.256 99.6413 102.315 99.7053C102.309 99.7044 102.319 99.7197 102.365 99.7616L102.365 99.7619C102.368 99.7654 102.372 99.7686 102.374 99.7722C102.373 99.7695 102.371 99.7682 102.369 99.7657C102.407 99.7998 102.445 99.8337 102.483 99.8669C102.659 100.019 102.843 100.162 103.034 100.296C103.214 100.421 103.401 100.532 103.59 100.642C103.645 100.669 103.7 100.697 103.755 100.723C103.851 100.769 103.947 100.812 104.044 100.854C104.521 101.063 105.306 101.241 105.489 101.792C105.557 101.997 105.586 102.278 105.419 102.453C105.245 102.637 105.078 102.766 104.817 102.799C104.645 102.821 104.473 102.818 104.301 102.794C104.002 102.752 103.723 102.665 103.444 102.552C102.933 102.344 102.439 102.06 101.992 101.737C101.087 101.084 100.361 100.236 99.8226 99.2627C99.603 98.8659 99.8565 98.2818 100.265 98.1227Z" fill="#F5FCFF"/>
<path d="M102.31 99.7053C102.316 99.7062 102.341 99.7286 102.365 99.7663C102.364 99.765 102.362 99.7637 102.361 99.7624C102.348 99.7427 102.328 99.7243 102.31 99.7053Z" fill="#F5FCFF"/>
<path d="M104.889 96.5897C104.879 96.5844 104.872 96.5806 104.862 96.5748C104.865 96.5768 104.867 96.5777 104.871 96.5796C104.877 96.583 104.883 96.5864 104.889 96.5897Z" fill="#F5FCFF"/>
<path d="M102.454 94.8664C102.516 94.5979 102.749 94.3486 103.035 94.3168C103.117 94.3077 103.199 94.2986 103.281 94.2931C103.487 94.279 103.64 94.3026 103.839 94.3493C104.012 94.3899 104.184 94.4351 104.353 94.487C104.691 94.5902 105.025 94.7124 105.341 94.8723C106.028 95.2202 106.668 95.6321 107.241 96.1477C107.414 96.3037 107.544 96.4634 107.582 96.7017C107.615 96.9076 107.563 97.1686 107.432 97.3345C107.167 97.6675 106.603 97.8392 106.245 97.525C105.993 97.3044 105.73 97.0991 105.452 96.9121C105.314 96.8186 105.172 96.7298 105.027 96.6455C104.988 96.6223 104.948 96.6001 104.908 96.5772C104.922 96.5849 104.937 96.5923 104.947 96.597C104.933 96.5907 104.919 96.5824 104.905 96.5754C104.903 96.5744 104.901 96.5734 104.899 96.5723C104.826 96.5297 104.862 96.5521 104.903 96.5747C104.839 96.5433 104.775 96.5083 104.711 96.477C104.41 96.3306 104.107 96.1882 103.794 96.0703C103.637 96.0116 103.479 95.9579 103.32 95.9095C103.105 95.8445 102.921 95.721 102.728 95.61C102.484 95.4703 102.396 95.1171 102.454 94.8664Z" fill="#F5FCFF"/>
<path d="M194.061 94.6205C194.301 94.602 194.54 94.5842 194.777 94.6299C195.02 94.6764 195.266 94.7276 195.499 94.8092C195.93 94.9601 196.344 95.1739 196.732 95.413C197.469 95.8678 198.12 96.4945 198.6 97.2154C198.796 97.5087 198.808 97.9369 198.496 98.1657C198.217 98.3698 197.761 98.3718 197.545 98.0609C197.432 97.8985 197.313 97.7416 197.183 97.5918C197.125 97.5245 197.066 97.4586 197.004 97.3941C196.97 97.3582 196.935 97.3237 196.901 97.2879C196.891 97.2778 196.892 97.2786 196.887 97.2731C196.885 97.2715 196.887 97.2733 196.885 97.2712C196.596 97.0138 196.294 96.7779 195.962 96.5773C195.928 96.5568 195.894 96.5367 195.86 96.517C195.86 96.5168 195.814 96.4914 195.785 96.475C195.757 96.4609 195.721 96.4418 195.713 96.4378C195.668 96.4158 195.624 96.3944 195.579 96.3736C195.409 96.2944 195.235 96.2236 195.058 96.1617C194.687 96.0321 194.314 95.9148 193.945 95.7817C193.704 95.6945 193.519 95.418 193.556 95.1576C193.591 94.9068 193.789 94.6414 194.061 94.6205Z" fill="#F5FCFF"/>
<path d="M233.494 82.0569C233.498 82.0484 233.503 82.0417 233.507 82.0334C233.53 81.9261 233.55 81.8186 233.576 81.7117C233.61 81.389 233.649 81.0665 233.706 80.7457C233.821 80.1016 234.463 79.5874 235.088 79.721C235.417 79.7244 235.744 79.8538 235.969 80.1449C236.149 80.3779 236.316 80.6204 236.477 80.8671C237.934 82.586 238.561 84.8995 238.28 87.1125C238.246 88.2994 238.002 89.4814 237.514 90.5989C237.198 91.3233 236.2 91.7863 235.512 91.204C232.913 89.0031 231.992 85.1591 233.494 82.0569Z" fill="#FFEEB3"/>
<path d="M139.586 43.2248C139.073 39.6122 138.559 35.9997 138.046 32.3871C138.008 32.1188 137.965 31.8384 137.805 31.6193C137.536 31.2499 137.029 31.1662 136.574 31.1178C134.324 30.8785 132.06 30.7756 129.798 30.8098C129.542 30.8137 129.27 30.8242 129.058 30.9676C128.806 31.1385 128.701 31.4538 128.619 31.7475C128.201 33.2391 127.929 34.7675 127.659 36.2928C127.22 38.7661 126.782 41.2394 126.343 43.7127C128.619 43.5363 130.902 43.4724 133.184 43.4085C134.807 43.3631 136.429 43.3176 138.052 43.2721C138.476 43.2602 138.9 43.2484 139.586 43.2248Z" fill="#E02020"/>
<path d="M117 23.8105C117.142 23.5071 117.539 23.3458 117.847 23.5037C120.258 24.7426 122.543 26.2387 124.729 27.8388C125.017 28.0497 125.022 28.5132 124.802 28.77C124.555 29.0596 124.161 29.0536 123.871 28.8432C121.766 27.3155 119.556 25.9606 117.306 24.6575C117.009 24.4853 116.845 24.1408 117 23.8105Z" fill="#E02020"/>
<path d="M110.921 31.047C114.502 31.6999 118.038 32.5843 121.54 33.5704C122.35 33.7983 122.122 35.095 121.307 34.8655C117.801 33.8782 114.258 33.0444 110.707 32.2389C109.949 32.067 110.151 30.9064 110.921 31.047Z" fill="#E02020"/>
<path d="M105.784 39.9632C110.73 39.6258 115.681 39.7567 120.614 40.2328C121.588 40.3268 121.309 41.811 120.346 41.724C115.543 41.2899 110.711 41.2011 105.892 41.3428C105.006 41.3689 104.889 40.0242 105.784 39.9632Z" fill="#E02020"/>
<path d="M142.247 27.7598C145.382 25.6884 148.458 23.5236 151.511 21.3245C152.129 20.8797 152.771 21.8681 152.165 22.3276C149.164 24.6038 146.076 26.7522 142.943 28.8281C142.271 29.2733 141.57 28.207 142.247 27.7598Z" fill="#E02020"/>
<path d="M144.129 34.1661C148.918 33.051 153.709 31.9436 158.51 30.8792C159.216 30.7227 159.606 31.7881 158.885 31.9586C154.101 33.0906 149.306 34.1792 144.51 35.2605C143.793 35.422 143.4 34.336 144.129 34.1661Z" fill="#E02020"/>
<path d="M147.017 40.4434C153.326 40.679 159.628 41.1622 165.891 41.9726C166.615 42.0664 166.407 43.1611 165.692 43.082C159.517 42.3993 153.324 41.9115 147.115 41.6975C146.313 41.6699 146.208 40.4133 147.017 40.4434Z" fill="#E02020"/>
<path d="M134.966 33.2165C134.793 32.5185 135.824 32.1307 136.04 32.8425C136.729 35.1108 137.125 37.4935 137.123 39.8658C137.123 40.622 135.98 40.7338 135.937 39.9591C135.81 37.6812 135.515 35.4322 134.966 33.2165Z" fill="white"/>
<path d="M224.938 54.4122C224.935 54.6801 224.935 54.9479 224.94 55.2158C224.741 55.154 224.552 55.0676 224.361 54.9839C224.377 54.7972 224.374 54.6112 224.373 54.4241L224.393 54.4319C224.601 54.5148 224.737 54.4993 224.938 54.4122Z" fill="#7C553D"/>
<path d="M224.39 54.4245C224.372 54.4106 224.354 54.3969 224.337 54.3816C224.229 54.2834 224.155 54.1631 224.151 54.0136C224.15 53.9965 224.151 53.9794 224.152 53.9624C224.153 53.9453 224.155 53.9284 224.159 53.9116C224.162 53.8948 224.166 53.8782 224.17 53.8618C224.175 53.8454 224.181 53.8292 224.187 53.8134C224.194 53.7976 224.201 53.7822 224.209 53.7671C224.217 53.752 224.226 53.7374 224.235 53.7232C224.245 53.7091 224.255 53.6954 224.266 53.6823C224.277 53.6692 224.289 53.6568 224.301 53.6449C224.314 53.632 224.328 53.6199 224.343 53.6084C224.357 53.5969 224.372 53.5862 224.387 53.5762C224.403 53.5663 224.419 53.5571 224.435 53.5488C224.452 53.5404 224.469 53.5329 224.486 53.5262C224.503 53.5196 224.52 53.5138 224.538 53.5089C224.556 53.504 224.574 53.5 224.592 53.4969C224.61 53.4938 224.628 53.4917 224.647 53.4904C224.665 53.4892 224.684 53.4889 224.702 53.4895C224.829 53.4937 224.95 53.5454 225.037 53.6391C225.127 53.7357 225.195 53.8925 225.185 54.026C225.172 54.1866 225.073 54.312 224.954 54.4127C224.754 54.4997 224.618 54.5152 224.409 54.4323L224.39 54.4245Z" fill="#FE9A15"/>
<path d="M224.41 66.0873C224.606 66.1238 224.799 66.2106 224.996 66.2577C224.978 69.2392 224.977 72.2206 224.993 75.2019L224.444 75.2026L224.431 68.6928L224.428 66.9871C224.428 66.6936 224.451 66.3772 224.41 66.0873Z" fill="#3F3939"/>
<path d="M232.623 58.2531C232.875 58.2337 233.162 58.292 233.375 58.4329C233.591 58.5766 233.731 58.8026 233.781 59.0553C233.866 59.4868 233.714 59.9516 233.474 60.3088C233.085 60.8889 232.442 61.2813 231.762 61.4159C231.739 61.4196 231.715 61.4228 231.692 61.4257C231.421 61.4584 231.134 61.3911 230.919 61.2201C230.703 61.0486 230.582 60.8017 230.555 60.53C230.5 59.9997 230.74 59.4958 231.073 59.0963C231.457 58.6355 232.021 58.3075 232.623 58.2531Z" fill="#0445B5"/>
<path d="M232.478 58.5016C232.691 58.4653 232.957 58.5048 233.148 58.6056C233.341 58.7071 233.476 58.8753 233.539 59.0834C233.641 59.4251 233.545 59.7863 233.374 60.0878C233.06 60.6418 232.515 61.0066 231.909 61.1705C231.639 61.212 231.387 61.2099 231.148 61.0541C230.958 60.9299 230.84 60.7286 230.801 60.5066C230.731 60.1017 230.899 59.6561 231.135 59.3328C231.155 59.3053 231.175 59.2783 231.196 59.2518C231.217 59.2254 231.239 59.1995 231.261 59.1741C231.283 59.1487 231.306 59.1238 231.329 59.0996C231.353 59.0753 231.377 59.0517 231.402 59.0286C231.426 59.0055 231.452 58.9831 231.477 58.9612C231.503 58.9394 231.53 58.9182 231.556 58.8977C231.583 58.8772 231.611 58.8573 231.638 58.8381C231.666 58.819 231.694 58.8005 231.723 58.7827C231.752 58.7649 231.781 58.7479 231.811 58.7315C231.84 58.7152 231.87 58.6996 231.9 58.6847C231.931 58.6699 231.961 58.6558 231.992 58.6424C232.024 58.6291 232.055 58.6165 232.086 58.6047C232.118 58.593 232.15 58.5819 232.182 58.5717C232.214 58.5615 232.247 58.5521 232.28 58.5435C232.312 58.5349 232.345 58.5271 232.378 58.5201C232.411 58.5131 232.444 58.5069 232.478 58.5016Z" fill="#FEFEFE"/>
<path d="M231.537 58.9697C231.682 59.1088 231.814 59.2846 231.907 59.4621L231.919 59.4863L231.947 59.4785C231.958 59.5052 231.969 59.5311 231.976 59.5587C231.737 59.4327 231.636 59.2084 231.537 58.9697Z" fill="#0445B5"/>
<path d="M232.341 60.127C232.415 60.3463 232.588 60.5168 232.654 60.7494C232.453 60.5669 232.425 60.3651 232.275 60.1665L232.341 60.127Z" fill="#0445B5"/>
<path d="M232.259 60.214C232.336 60.3633 232.385 60.6571 232.335 60.818L232.317 60.8128C232.239 60.6268 232.255 60.4191 232.211 60.2259L232.259 60.214Z" fill="#0445B5"/>
<path d="M231.816 59.821C231.612 59.7987 231.359 59.7652 231.172 59.6801L231.17 59.6613C231.306 59.643 231.699 59.6962 231.81 59.7709C231.811 59.7868 231.812 59.8057 231.816 59.821Z" fill="#0445B5"/>
<path d="M232.091 60.2394C232.113 60.224 232.154 60.2173 232.181 60.209C232.159 60.3783 232.15 60.9014 232.025 60.9993L232.006 60.9839C232.033 60.75 232.132 60.471 232.091 60.2394Z" fill="#0445B5"/>
<path d="M231.17 59.39C231.373 59.4377 231.55 59.5138 231.734 59.6107C231.804 59.6477 231.87 59.694 231.945 59.7217C231.924 59.7467 231.905 59.7657 231.894 59.796C231.831 59.7104 231.347 59.5288 231.17 59.39Z" fill="#0445B5"/>
<path d="M231.756 59.9322C231.577 59.9465 231.161 59.9537 231 59.9076C231.002 59.9051 231.004 59.9017 231.007 59.9001C231.164 59.8166 231.645 59.8484 231.833 59.8541C231.8 59.8786 231.774 59.8948 231.756 59.9322Z" fill="#0445B5"/>
<path d="M232.088 58.6686C232.102 58.7479 232.114 58.8261 232.121 58.9064C232.163 59.1279 232.092 59.3792 232.15 59.5898C232.124 59.6014 232.099 59.6107 232.076 59.6277C232.097 59.4991 232.069 59.3431 232.06 59.2124C232.049 59.023 232.044 58.8541 232.088 58.6686Z" fill="#0445B5"/>
<path d="M232.152 59.5883C232.275 59.3127 232.226 58.892 232.366 58.5768C232.374 58.9389 232.267 59.2945 232.222 59.6517C232.371 59.3029 232.426 58.9064 232.632 58.5826C232.631 58.5895 232.63 58.5966 232.629 58.6035C232.598 58.8114 232.33 59.4261 232.356 59.5454C232.424 59.4425 232.462 59.3209 232.515 59.2099C232.613 59.0073 232.734 58.7975 232.871 58.6193C232.763 58.9555 232.559 59.2841 232.406 59.6041L232.421 59.6102C232.501 59.5303 232.55 59.4143 232.606 59.317C232.728 59.1087 232.885 58.9011 233.074 58.7489C232.923 59.0325 232.697 59.2749 232.524 59.546C232.77 59.33 232.962 59.0516 233.243 58.8763C233.239 58.8833 233.234 58.8903 233.23 58.8972C233.087 59.1208 232.82 59.368 232.611 59.5345C232.577 59.5615 232.467 59.6311 232.464 59.6754C232.554 59.6572 233.174 59.1624 233.366 59.0614L233.389 59.0491L233.403 59.0419L233.387 59.0597C233.238 59.2233 233.023 59.3762 232.838 59.4988C232.749 59.5569 232.614 59.6104 232.547 59.689L232.565 59.6959C232.847 59.5583 233.123 59.4078 233.412 59.2852C233.408 59.2892 233.405 59.2932 233.401 59.2971C233.264 59.4449 232.973 59.5755 232.788 59.6581C232.712 59.6918 232.602 59.7228 232.54 59.7763C232.766 59.7553 232.972 59.6672 233.217 59.6496C233.094 59.6969 232.971 59.7453 232.845 59.7823C232.762 59.8065 232.589 59.8099 232.527 59.8585C232.536 59.8642 232.544 59.8718 232.555 59.8756C232.556 59.8762 233.261 59.7835 233.37 59.785C233.21 59.8553 233.018 59.8779 232.847 59.9117L232.903 59.9176C232.737 59.9373 232.584 59.9149 232.42 59.9173C232.697 60.0064 232.985 59.9687 233.26 60.0612C232.985 60.0684 232.751 60.0543 232.485 59.9879C232.608 60.0579 232.992 60.1771 233.05 60.2805C232.948 60.3093 232.691 60.1795 232.594 60.1242C232.546 60.0972 232.467 60.0317 232.414 60.0407C232.456 60.1895 232.885 60.4196 232.864 60.4979C232.797 60.5068 232.741 60.4655 232.689 60.4262C232.567 60.332 232.478 60.2062 232.363 60.1055L232.356 60.1263L232.291 60.1658L232.273 60.2141L232.225 60.226L232.199 60.2086C232.173 60.2168 232.131 60.2235 232.109 60.2389C232.015 60.5559 231.917 60.8706 231.686 61.1159C231.825 60.8151 232.01 60.4752 232.071 60.1487C231.85 60.5345 231.751 60.7557 231.448 61.0977C231.582 60.7968 231.834 60.549 231.956 60.249L231.915 60.2148L231.927 60.2136C231.863 60.444 231.43 60.8281 231.241 60.9894L231.248 60.9762L231.261 60.9543C231.348 60.8054 231.892 60.2372 231.892 60.2118C231.601 60.3982 231.389 60.6651 231.069 60.8203C231.265 60.592 231.623 60.3127 231.88 60.1599L231.871 60.1383C231.79 60.1434 231.668 60.2553 231.596 60.3025C231.408 60.425 231.18 60.5577 230.967 60.6235C230.96 60.6256 230.953 60.6276 230.946 60.6297C231.093 60.4927 231.797 60.148 231.828 60.0423L231.813 60.0212L231.802 60.0524L231.774 60.0463L231.777 60.0437C231.57 60.2135 231.156 60.3585 230.891 60.4117C231.169 60.2447 231.485 60.1427 231.774 59.9961C231.612 60.0197 231.075 60.1974 230.961 60.1415C231.102 60.0814 231.252 60.0416 231.403 60.0151C231.526 59.9933 231.716 60.013 231.82 59.9576L231.817 59.9451L231.756 59.9318C231.774 59.8945 231.8 59.8784 231.833 59.8538L231.834 59.8422L231.811 59.8201C231.807 59.8048 231.807 59.7859 231.805 59.7701L231.901 59.7952C231.912 59.7649 231.931 59.7459 231.951 59.7209C231.927 59.6364 231.578 59.4089 231.492 59.3204C231.446 59.2729 231.411 59.2198 231.376 59.1637C231.544 59.262 231.871 59.5919 232.012 59.6431C232.004 59.621 231.998 59.6009 231.994 59.5777C231.993 59.5712 231.992 59.5648 231.991 59.5584C231.984 59.5308 231.973 59.5049 231.962 59.4783C231.927 59.2443 231.83 59.025 231.794 58.7893C231.85 58.885 231.891 58.981 231.926 59.0861C231.959 59.1828 232.027 59.5792 232.078 59.6261C232.101 59.6092 232.126 59.5999 232.152 59.5883Z" fill="#062A8E"/>
<path d="M237.35 53.1481C238.324 53.061 239.265 53.1559 240.2 53.4431C240.469 53.5256 240.75 53.6209 240.998 53.7554L241.011 57.2479C240.705 57.1441 240.416 56.9933 240.107 56.8934C238.924 56.5115 237.672 56.4998 236.454 56.7036C236.436 56.6388 236.778 55.7046 236.819 55.5624C237.05 54.766 237.201 53.9623 237.35 53.1481Z" fill="#F87E0D"/>
<path d="M236.462 56.7029C237.68 56.4991 238.932 56.5107 240.115 56.8926C240.425 56.9925 240.714 57.1434 241.02 57.2471L241.005 61.0112C238.666 60.0043 236.832 60.2818 234.443 60.9451C234.512 60.7407 234.924 60.1277 235.056 59.8964C235.18 59.6768 235.3 59.4546 235.414 59.2297C235.528 59.0049 235.637 58.7776 235.742 58.5479C235.846 58.3182 235.945 58.0863 236.039 57.8523C236.133 57.6182 236.222 57.3821 236.305 57.1441C236.349 57.0184 236.426 56.8716 236.429 56.7377L236.404 56.7174L236.462 56.7029Z" fill="#ECE8DC"/>
<path d="M224.953 55.2154C225.433 55.2942 225.892 55.3947 226.382 55.4199C228.742 55.5415 231.32 54.7015 233.564 54.0061C234.804 53.622 236.05 53.2591 237.349 53.1479C237.201 53.962 237.049 54.7658 236.819 55.5622C236.778 55.7044 236.436 56.6386 236.453 56.7034L236.395 56.7178C236.063 56.7645 235.722 56.8566 235.398 56.9423C234.688 57.1298 233.991 57.3536 233.293 57.5808C230.559 58.4717 227.206 59.5491 224.368 58.6037C224.351 57.9261 224.363 57.2451 224.364 56.5672C224.365 56.0408 224.35 55.5093 224.374 54.9837C224.564 55.0673 224.754 55.1537 224.953 55.2154Z" fill="#FE9A15"/>
<path d="M234.431 60.946C236.819 60.2827 238.653 60.0052 240.992 61.012L240.997 64.4084C240.262 64.1089 239.534 63.9012 238.742 63.8219C236.419 63.5893 234.114 64.4668 231.953 65.2036C230.939 65.5494 229.928 65.8826 228.884 66.1279C227.621 66.4244 226.265 66.5678 224.989 66.2585C224.792 66.2114 224.599 66.1246 224.403 66.088C224.334 65.9482 224.371 62.8827 224.372 62.4586C224.672 62.5727 225.016 62.6321 225.332 62.6867C227.166 63.0037 229.125 62.6347 230.887 62.1092C231.494 61.928 232.093 61.7087 232.694 61.5069C233.271 61.3131 233.855 61.1415 234.431 60.946Z" fill="url(#paint0_linear_297_3647)"/>
<path d="M13.362 9.61975C13.3195 9.66788 13.2778 9.71684 13.2371 9.7665C13.141 9.85698 13.0473 9.9499 12.9559 10.045C12.7571 10.2516 12.5754 10.4721 12.4018 10.7C12.0652 11.1412 11.79 11.6292 11.5927 12.148C11.4963 12.4015 11.4274 12.6662 11.3799 12.9331C11.3287 13.2223 11.3026 13.5154 11.3098 13.809C11.3133 13.9631 11.3303 14.1155 11.3511 14.2682C11.3699 14.4078 11.3968 14.5453 11.4342 14.6811C11.4736 14.8238 11.5294 14.9608 11.587 15.0967C11.6408 15.2237 11.7019 15.3471 11.7701 15.4671C11.9085 15.7107 12.0822 15.936 12.2727 16.1409C12.464 16.3466 12.6809 16.5243 12.9038 16.6941C12.963 16.7391 13.023 16.7826 13.084 16.8247C13.1675 16.9136 13.2542 16.9996 13.3438 17.0828C13.5457 17.27 13.7628 17.4406 13.9838 17.6047C14.2024 17.7669 14.4302 17.9169 14.6662 18.0527C14.9115 18.1936 15.1683 18.3111 15.4294 18.4194C15.6821 18.5242 15.9427 18.6102 16.2102 18.6681C16.4923 18.7292 16.7827 18.7607 17.0708 18.7729C17.3493 18.7846 17.6286 18.7718 17.9049 18.7359C18.4683 18.6628 19.0228 18.5108 19.5558 18.3156C19.822 18.2181 20.0832 18.1052 20.3363 17.9777C20.5767 17.8564 20.8082 17.7173 21.033 17.5692C21.2689 17.414 21.4953 17.2447 21.7165 17.0693C21.9277 16.9021 22.1305 16.7246 22.3259 16.5392C22.7277 16.1577 23.0925 15.7363 23.4147 15.2857C23.74 14.8311 24.0063 14.3284 24.1862 13.7988C24.2801 13.5225 24.3333 13.2365 24.3699 12.9476C24.4043 12.6751 24.404 12.4005 24.3707 12.1281C24.3352 11.837 24.2725 11.5524 24.1844 11.2728C24.0992 11.0019 23.9886 10.7381 23.8629 10.4839C23.7455 10.2464 23.6072 10.02 23.4539 9.80416C23.2903 9.57384 23.1108 9.35371 22.9151 9.14985C22.72 8.94671 22.5026 8.7681 22.2766 8.60047C22.0645 8.44333 21.8377 8.30563 21.5994 8.19226C21.3411 8.06962 21.0703 7.97751 20.7932 7.90821C20.5101 7.83737 20.2214 7.79442 19.9323 7.75646C19.6217 7.71554 19.31 7.69265 18.9978 7.68613C18.9921 7.67361 18.9841 7.66191 18.9735 7.65204C18.8934 7.57693 18.811 7.50039 18.722 7.43567C18.6188 7.36056 18.4987 7.32768 18.3744 7.30458C18.254 7.28229 18.1321 7.27374 18.0099 7.27374C17.8732 7.27374 17.7362 7.28443 17.601 7.29868C17.3239 7.32778 17.0539 7.39038 16.788 7.4723C16.5214 7.55444 16.258 7.65255 16.0003 7.75941C15.4942 7.96947 15.0123 8.23968 14.5638 8.55406C14.1252 8.86071 13.7168 9.21886 13.362 9.61975ZM23.4377 13.1964C23.3923 13.5032 23.3091 13.8004 23.1921 14.0876C23.1575 14.1669 23.1206 14.2452 23.0815 14.3221C23.1054 14.1726 23.121 14.0218 23.1286 13.8713C23.1324 13.7934 23.133 13.7152 23.1309 13.6373C23.1418 13.5872 23.152 13.537 23.1615 13.4869C23.2103 13.2317 23.2418 12.9726 23.2617 12.7135C23.2687 12.6811 23.2753 12.6486 23.2813 12.616C23.3189 12.4136 23.3386 12.2079 23.3308 12.0026C23.3835 12.1489 23.4228 12.2989 23.4466 12.4532C23.474 12.7008 23.4674 12.9494 23.4377 13.1964ZM22.822 10.0773C23.0709 10.4073 23.2809 10.7627 23.446 11.1417C23.4471 11.1444 23.4482 11.1472 23.4493 11.1499C23.3443 11.006 23.2252 10.8736 23.0921 10.7553C23.0327 10.5683 22.9582 10.3857 22.8747 10.2085C22.845 10.1454 22.813 10.0837 22.7789 10.0234C22.7935 10.0414 22.8079 10.0593 22.822 10.0773ZM14.8979 14.7364C14.8795 14.7116 14.8615 14.6866 14.844 14.6612C14.8883 14.4538 14.9511 14.2508 15.0309 14.054C15.0428 14.0268 15.0551 13.9997 15.0675 13.9728C15.069 13.985 15.0706 13.997 15.0723 14.0091C15.0891 14.1306 15.1151 14.2498 15.1484 14.3678C15.1884 14.5102 15.2437 14.6471 15.3021 14.7829C15.3929 14.9937 15.5141 15.1865 15.6551 15.366C15.5298 15.2965 15.4089 15.2193 15.2936 15.1336C15.1468 15.0157 15.0154 14.8832 14.8979 14.7364ZM15.6298 13.1676C15.6305 13.1611 15.6313 13.1547 15.6321 13.1482C15.6404 13.0925 15.6497 13.0371 15.6602 12.982C15.6804 12.9545 15.7008 12.9273 15.7214 12.9001C15.7244 12.8963 15.7275 12.8924 15.7305 12.8885C15.6929 12.9802 15.6593 13.0736 15.6298 13.1676ZM17.1298 16.4852C16.8371 16.52 16.5408 16.5203 16.248 16.4853C16.219 16.4809 16.1902 16.4759 16.1615 16.4705C16.1313 16.4553 16.1013 16.44 16.0715 16.4245C15.9061 16.339 15.7454 16.244 15.5959 16.1329C15.4717 16.0323 15.3618 15.9188 15.2619 15.7943C15.2424 15.7682 15.2235 15.742 15.2051 15.7153C15.413 15.8486 15.6378 15.9551 15.8674 16.0455C16.1186 16.1445 16.3842 16.2054 16.6498 16.2513C16.6883 16.2579 16.727 16.2643 16.7657 16.2703C16.8401 16.3088 16.916 16.3446 16.993 16.3782C17.0682 16.4109 17.1441 16.4419 17.2206 16.4707C17.1905 16.4759 17.1602 16.4807 17.1298 16.4852ZM16.3839 15.0319C16.3859 15.0467 16.3879 15.0615 16.39 15.0763C16.3221 14.9718 16.2623 14.8625 16.2108 14.7484C16.1532 14.6023 16.1129 14.4523 16.0886 14.2972C16.0668 14.1015 16.0674 13.905 16.0897 13.7095C16.1232 13.4954 16.1821 13.2876 16.2626 13.0866C16.3137 12.9712 16.3718 12.8596 16.437 12.7522C16.3991 12.8671 16.3671 12.9838 16.339 13.1013C16.3019 13.2568 16.2783 13.414 16.2574 13.5723C16.1933 14.0585 16.2286 14.5654 16.3839 15.0319ZM17.6305 15.8231C17.5131 15.7231 17.4057 15.6124 17.3084 15.4923C17.2016 15.3474 17.1129 15.1917 17.0393 15.0273C16.9997 14.9288 16.9656 14.8288 16.9373 14.727C16.934 14.5754 16.9425 14.4236 16.9603 14.2732C17.0137 13.9186 17.1191 13.5732 17.2548 13.2418C17.4271 12.8443 17.6486 12.4709 17.9105 12.1255C18.0171 11.9904 18.1303 11.8607 18.2516 11.7385C18.2661 11.7239 18.2807 11.7095 18.2955 11.6951C18.3161 11.6954 18.3369 11.6958 18.3575 11.6967C18.4016 11.7398 18.4441 11.7844 18.4851 11.8306C18.3531 11.911 18.2298 12.0065 18.1149 12.1083C18.0236 12.1892 17.9432 12.2813 17.8687 12.3777C17.7781 12.4949 17.6955 12.6154 17.6215 12.7435C17.4802 12.9885 17.3767 13.2576 17.3105 13.5322C17.2769 13.671 17.2571 13.8134 17.2423 13.9551C17.2279 14.0927 17.2284 14.2311 17.2423 14.3684C17.2563 14.5061 17.28 14.6423 17.3192 14.775C17.36 14.9127 17.422 15.0462 17.4983 15.1678C17.646 15.4031 17.8555 15.5942 18.1081 15.711C18.1747 15.7418 18.2433 15.7688 18.3134 15.7906C18.0861 15.8174 17.8582 15.8275 17.6305 15.8231ZM17.1467 8.55691C17.2999 8.5273 17.4539 8.50206 17.6082 8.48018C17.7265 8.46501 17.8452 8.45188 17.964 8.44079C17.9408 8.44893 17.9177 8.45728 17.8946 8.46583C17.8404 8.48577 17.7866 8.50654 17.733 8.52821C17.6955 8.52842 17.658 8.52883 17.6205 8.52954C17.462 8.53239 17.3042 8.54216 17.1467 8.55691ZM19.0485 13.8022C19.0283 13.9306 18.9979 14.0575 18.9538 14.1798C18.9449 14.1426 18.9373 14.1049 18.9308 14.0669C18.9277 14.0372 18.9251 14.0073 18.9233 13.9775C18.9618 13.8965 19.0053 13.8183 19.0544 13.7435C19.0527 13.7631 19.0507 13.7826 19.0485 13.8022ZM20.3024 13.1936C20.2772 13.3054 20.2486 13.416 20.217 13.5263C20.1597 13.7251 20.0894 13.9221 20.011 14.1136C19.9107 14.3422 19.7835 14.5598 19.6349 14.7603C19.5976 14.8068 19.5585 14.8514 19.5176 14.894C19.5119 14.892 19.5062 14.8898 19.5005 14.8877C19.4338 14.8562 19.3711 14.8196 19.3113 14.7771C19.3041 14.771 19.2968 14.7647 19.2898 14.7585C19.3337 14.7079 19.3725 14.6519 19.4063 14.5942C19.4436 14.5307 19.4703 14.4602 19.4979 14.3923C19.547 14.272 19.5772 14.1428 19.6004 14.0154C19.6481 13.755 19.654 13.4898 19.6304 13.2268C19.6608 13.211 19.6915 13.1959 19.7227 13.1817C19.808 13.1495 19.8946 13.1266 19.9844 13.1115C20.0695 13.1032 20.1541 13.1019 20.2392 13.1096C20.265 13.1145 20.2906 13.1204 20.3158 13.1271C20.316 13.1289 20.3161 13.1309 20.3163 13.1327C20.3116 13.1529 20.3069 13.1732 20.3024 13.1936ZM19.4842 12.4889C19.4943 12.4801 19.5044 12.4716 19.5146 12.463C19.5669 12.4254 19.6212 12.3919 19.6789 12.3635C19.7285 12.3456 19.7789 12.3321 19.8309 12.3224C19.8493 12.3207 19.8676 12.3196 19.8859 12.319C19.9511 12.3827 20.0125 12.4503 20.0699 12.5213C20.0766 12.5306 20.0833 12.5399 20.09 12.5492C19.9777 12.549 19.8647 12.5652 19.7549 12.5849C19.6786 12.5986 19.6039 12.6216 19.5311 12.6496C19.5171 12.5955 19.5014 12.542 19.4842 12.4889ZM21.6971 11.1435C21.6797 11.1195 21.6619 11.0957 21.6439 11.0721C21.6268 11.0349 21.6088 10.9983 21.5901 10.9619C21.6002 10.9656 21.6103 10.9694 21.6202 10.9731C21.6539 11.0323 21.6853 11.0928 21.7147 11.1544C21.7088 11.1508 21.7029 11.1472 21.6971 11.1435ZM19.8848 8.85379C20.2079 8.90152 20.5238 8.98752 20.8264 9.11077C21.0825 9.22394 21.3226 9.36602 21.5468 9.53375C21.7131 9.66585 21.8679 9.81118 22.0056 9.9727C22.0043 9.97199 22.0031 9.97138 22.0019 9.97066C21.9091 9.92049 21.8129 9.87601 21.7148 9.83602C21.6155 9.76508 21.5136 9.69791 21.4088 9.63532C21.2415 9.50505 21.0655 9.38526 20.8818 9.28043C20.635 9.13947 20.3699 9.02813 20.1037 8.92992C20.0311 8.90315 19.958 8.87771 19.8844 8.85369C19.8844 8.85369 19.8846 8.85379 19.8848 8.85379ZM19.1191 11.0906C19.3207 11.0905 19.5225 11.1047 19.7234 11.1296C20.0988 11.1841 20.4671 11.2761 20.819 11.4186C20.893 11.4509 20.9664 11.4849 21.0389 11.5207C21.0921 11.6671 21.1269 11.8187 21.1505 11.9727C21.166 12.1048 21.1745 12.2372 21.1757 12.3702C21.1771 12.5123 21.1657 12.6542 21.1485 12.7952C21.1462 12.8109 21.1438 12.8265 21.1414 12.842C21.1037 12.7295 21.0527 12.6201 20.996 12.5169C20.9322 12.4011 20.8504 12.2939 20.7622 12.1961C20.6663 12.0896 20.5498 12.0003 20.4328 11.9189C20.3334 11.8497 20.2258 11.7931 20.1148 11.7452C20.1008 11.7392 20.0868 11.7333 20.0729 11.7275C19.9314 11.6206 19.7783 11.5296 19.6179 11.4531C19.3945 11.3466 19.1605 11.2615 18.9192 11.2055C18.9845 11.1649 19.0511 11.1265 19.1191 11.0906ZM18.7948 12.3021C18.8056 12.3237 18.8161 12.3454 18.8264 12.3672C18.8128 12.3851 18.7994 12.4031 18.7861 12.4212C18.7129 12.5209 18.6543 12.6308 18.6015 12.7424C18.5374 12.8777 18.4826 13.018 18.4404 13.1618C18.3998 13.2999 18.3781 13.4411 18.3591 13.5832C18.3493 13.6562 18.344 13.7298 18.3426 13.8034C18.3189 13.861 18.2982 13.9197 18.2812 13.9788C18.2362 14.1355 18.2398 14.2983 18.2622 14.4577C18.2715 14.5233 18.2872 14.5857 18.3098 14.6478C18.3408 14.7325 18.3694 14.8259 18.4366 14.8903C18.4978 14.9489 18.5617 14.9831 18.6428 15.0075C18.6755 15.0173 18.7092 15.0225 18.743 15.0244C18.7726 15.0593 18.8047 15.0921 18.8377 15.1239C18.8843 15.1691 18.9346 15.2112 18.9876 15.2497C18.9365 15.2657 18.8848 15.2782 18.8317 15.2876C18.7498 15.2953 18.6684 15.2958 18.5862 15.2887C18.5177 15.2765 18.4517 15.258 18.3865 15.2335C18.3156 15.2 18.2485 15.1611 18.1845 15.1158C18.1289 15.0686 18.0787 15.0169 18.0323 14.9609C17.9804 14.8884 17.9354 14.8123 17.8974 14.7315C17.8553 14.6208 17.8271 14.5069 17.8085 14.39C17.7914 14.2289 17.7944 14.0688 17.8131 13.9081C17.8467 13.6923 17.9041 13.4822 17.9853 13.2792C18.0706 13.0871 18.1773 12.9043 18.3027 12.7356C18.3986 12.6173 18.5054 12.5115 18.6237 12.4159C18.679 12.375 18.7359 12.3369 18.7948 12.3021ZM16.1444 7.97599C16.367 7.88347 16.5935 7.7992 16.8222 7.72389C17.0606 7.64552 17.3043 7.58324 17.5531 7.54813C17.7909 7.51912 18.0317 7.50294 18.2703 7.53032C18.3541 7.54273 18.4372 7.56003 18.5167 7.58945C18.5448 7.6038 18.5707 7.62018 18.5963 7.6386C18.6154 7.65387 18.6344 7.66944 18.6531 7.68522C18.5198 7.68756 18.3865 7.69275 18.2531 7.70069C17.9517 7.7186 17.6517 7.7532 17.3529 7.79615C17.0744 7.83615 16.7982 7.8906 16.5251 7.95858C16.1528 8.0512 15.7881 8.17638 15.4347 8.3269C15.6647 8.19704 15.9016 8.07959 16.1444 7.97599ZM15.4651 10.0334C15.4235 10.0581 15.3823 10.0836 15.3416 10.1098C15.1114 10.2579 14.8954 10.4306 14.693 10.6144C14.2941 10.9769 13.9563 11.4093 13.6914 11.8781C13.5528 12.1233 13.4375 12.3818 13.3378 12.645C13.2418 12.8988 13.1691 13.1614 13.1184 13.4277C13.0132 13.9813 13.0001 14.5639 13.1259 15.1152C12.9919 14.9285 12.8787 14.7299 12.7853 14.5196C12.6927 14.2897 12.6235 14.0514 12.585 13.8064C12.5586 13.5667 12.5652 13.3257 12.5934 13.0862C12.6423 12.76 12.7283 12.4417 12.8518 12.1361C12.9605 11.8882 13.0899 11.6488 13.2399 11.4233C13.4258 11.2058 13.6311 11.0054 13.8556 10.8277C14.1796 10.5842 14.5361 10.3893 14.9078 10.2286C15.0902 10.1534 15.2762 10.0887 15.4651 10.0334Z" fill="#FFD34E"/>
<path d="M18.3847 5.70624C18.4687 5.70624 18.5502 5.67255 18.6094 5.61311C18.6724 5.55012 18.6958 5.47511 18.7025 5.3884C18.7432 4.85062 18.7785 4.31254 18.8139 3.77456C18.8367 3.42832 18.8501 3.08137 18.8683 2.73504C18.8748 2.61209 18.8813 2.48935 18.8878 2.36641C18.8897 2.32763 18.891 2.28876 18.8925 2.24998C18.8951 2.19299 18.901 2.13518 18.8964 2.07829C18.8891 1.98699 18.865 1.90832 18.7985 1.84186C18.7361 1.77948 18.6503 1.74396 18.5619 1.74396C18.3792 1.74396 18.2281 1.89601 18.2275 2.07829C18.2198 2.28631 18.2173 2.49454 18.2113 2.70247C18.206 2.88281 18.1993 3.06306 18.1924 3.2433C18.1859 3.41509 18.1825 3.5875 18.1722 3.75909C18.1572 4.00671 18.1424 4.25432 18.1274 4.50194C18.1095 4.7976 18.0887 5.09284 18.0669 5.3883C18.061 5.46921 18.1042 5.55734 18.1601 5.61301C18.2193 5.67255 18.3007 5.70624 18.3847 5.70624Z" fill="#FFD34E"/>
<path d="M22.9801 7.05945C23.1557 7.16225 23.3864 7.10057 23.4893 6.92603C23.653 6.64778 23.8154 6.36861 23.9829 6.0927C24.1242 5.85984 24.2653 5.62718 24.4066 5.39443C24.4781 5.27647 24.5473 5.15658 24.6226 5.04086C24.7582 4.83263 24.8935 4.6242 25.0291 4.41597C25.0885 4.32468 25.1488 4.23399 25.2091 4.14311C25.2292 4.11278 25.2494 4.08235 25.2695 4.05202C25.3056 4.02302 25.3357 3.98801 25.3599 3.94709C25.4333 3.84277 25.5033 3.73693 25.5699 3.62823C25.7019 3.41267 25.5753 3.12557 25.338 3.0586C25.3017 3.04832 25.2634 3.04303 25.2251 3.04303C25.1453 3.04303 25.0652 3.06583 25.0011 3.11325C24.9565 3.14643 24.9273 3.16445 24.8966 3.20343C24.8647 3.24414 24.8376 3.27681 24.813 3.31945C24.7815 3.374 24.7584 3.43242 24.7243 3.48555C24.6571 3.59037 24.59 3.6952 24.5227 3.80003C24.43 3.94445 24.3381 4.08937 24.246 4.2342C24.146 4.39134 24.0421 4.54654 23.9462 4.70623C23.8375 4.88718 23.7288 5.06783 23.6201 5.24858C23.3599 5.68123 23.1023 6.11509 22.8468 6.55038C22.744 6.72543 22.8056 6.95727 22.9801 7.05945Z" fill="#FFD34E"/>
<path d="M26.321 9.7946C26.6095 9.70433 26.8976 9.61344 27.1875 9.52775C27.4464 9.45121 27.7053 9.37478 27.9645 9.29835C28.0977 9.25886 28.2311 9.22527 28.3664 9.1924C28.5011 9.15953 28.6361 9.12676 28.7709 9.09409C28.8286 9.08004 28.8861 9.06417 28.9443 9.05266C29.1676 9.009 29.3904 8.96371 29.6148 8.92616C29.8136 8.89298 30.0123 8.85858 30.2111 8.82642C30.231 8.82561 30.2504 8.82571 30.2708 8.82683C30.4184 8.83538 30.5563 8.71813 30.5941 8.58063C30.6418 8.40721 30.5371 8.21303 30.3599 8.16814C30.3151 8.15685 30.2636 8.14484 30.2187 8.14453C30.2177 8.14453 30.2168 8.14453 30.2159 8.14453C30.1842 8.14453 30.1531 8.14687 30.1213 8.14982C30.0764 8.154 30.0315 8.16183 29.9869 8.16906C29.942 8.17628 29.8969 8.18249 29.8524 8.19135C29.7636 8.20906 29.6748 8.22646 29.5862 8.24488C29.3795 8.28783 29.1733 8.332 28.9672 8.3777C28.7917 8.41678 28.6183 8.46003 28.4439 8.50461C28.2714 8.54878 28.0964 8.58735 27.9258 8.63844C27.6628 8.71732 27.4 8.7963 27.1372 8.87527C26.8077 8.9743 26.4797 9.07689 26.1517 9.18029C26.0717 9.20553 26.0043 9.25336 25.9613 9.32664C25.9183 9.40022 25.9067 9.48989 25.9293 9.57202C25.974 9.73506 26.1553 9.84661 26.321 9.7946Z" fill="#FFD34E"/>
<path d="M30.3665 12.7653C30.2778 12.7374 30.1815 12.7235 30.0898 12.7131C29.9654 12.6992 29.8391 12.6918 29.7138 12.6891C29.6261 12.6873 29.5382 12.6857 29.4504 12.6839C29.2851 12.6806 29.1197 12.6788 28.9544 12.6732C28.4098 12.6547 27.8657 12.6357 27.3213 12.6128C27.3162 12.6126 27.3112 12.6125 27.3061 12.6125C27.0857 12.6125 26.9043 12.8146 26.9043 13.0298C26.9043 13.14 26.9487 13.2467 27.0264 13.3246C27.107 13.4052 27.2091 13.4418 27.3213 13.4467C27.8563 13.4698 28.3914 13.4892 28.9266 13.5082C29.0781 13.5136 29.2295 13.5143 29.3811 13.5163C29.6702 13.5203 29.9615 13.5116 30.2493 13.5408C30.2681 13.5446 30.2866 13.549 30.3054 13.5541C30.4683 13.5986 30.6454 13.5269 30.7307 13.3809C30.7817 13.2939 30.7954 13.1879 30.7687 13.0907C30.7413 12.9916 30.6789 12.9217 30.5955 12.8655C30.5263 12.8186 30.4461 12.7903 30.3665 12.7653Z" fill="#FFD34E"/>
<path d="M25.3835 16.4573C25.2643 16.4902 25.1607 16.57 25.0983 16.6766C25.0338 16.787 25.0163 16.9212 25.0501 17.0445C25.0815 17.1587 25.1623 17.2743 25.2695 17.3297C25.8076 17.6086 26.3458 17.8869 26.8844 18.165C27.1904 18.323 27.4961 18.4827 27.806 18.6328C28.0401 18.746 28.2738 18.868 28.5186 18.9565C28.5977 18.9778 28.677 18.9778 28.7562 18.9565C28.8679 18.9257 28.9647 18.851 29.0232 18.7511C29.1471 18.5392 29.0716 18.2645 28.8629 18.1398C28.6819 18.0314 28.4934 17.9351 28.3074 17.8357C28.1286 17.7401 27.9486 17.647 27.7691 17.5528C27.4045 17.3616 27.0383 17.1729 26.673 16.9833C26.3658 16.8239 26.0585 16.6647 25.7513 16.5056C25.6724 16.4647 25.5902 16.4407 25.5053 16.4407C25.4652 16.4406 25.4247 16.4459 25.3835 16.4573Z" fill="#FFD34E"/>
<path d="M23.3368 21.9027C23.4351 22.0628 23.5348 22.2217 23.6356 22.3802C23.7153 22.5053 23.7961 22.6293 23.8781 22.7529C23.9156 22.8094 23.9539 22.8648 23.9929 22.9204C24.0555 23.0098 24.1199 23.1012 24.194 23.1811C24.3195 23.3164 24.539 23.3367 24.6946 23.2457C24.8855 23.1339 24.9612 22.8721 24.8429 22.6803C24.7326 22.5015 24.6301 22.3173 24.5244 22.1356C24.4346 21.9813 24.3445 21.8272 24.2532 21.6736C24.0593 21.3471 23.8652 21.021 23.6784 20.6903C23.4646 20.3115 23.2527 19.9321 23.0442 19.5503C22.9647 19.4047 22.8068 19.3257 22.648 19.3257C22.5688 19.3257 22.4892 19.3455 22.4192 19.3864C22.3171 19.446 22.2407 19.5452 22.2094 19.6593C22.1761 19.7801 22.1962 19.9025 22.2554 20.0111C22.5161 20.4892 22.7842 20.9629 23.0524 21.437C23.142 21.5951 23.2418 21.7479 23.3368 21.9027Z" fill="#FFD34E"/>
<path d="M19.6759 24.0531C19.6215 23.7426 19.5732 23.431 19.5243 23.1195C19.5015 22.8836 19.4792 22.6478 19.4565 22.4119C19.4435 22.276 19.4306 22.1401 19.4175 22.0042C19.3977 21.7979 19.3908 21.5906 19.3789 21.3837C19.3731 21.2835 19.3429 21.1944 19.2706 21.1221C19.2014 21.0531 19.1066 21.0137 19.0089 21.0137C18.9113 21.0137 18.8164 21.0531 18.7474 21.1221C18.6815 21.188 18.6337 21.2886 18.6391 21.3837C18.65 21.579 18.6555 21.7751 18.6735 21.9698C18.682 22.0626 18.6908 22.1555 18.6993 22.2484C18.7238 22.5123 18.7482 22.7762 18.7728 23.0401C18.7886 23.2109 18.8161 23.3795 18.8424 23.5491C18.8727 23.7441 18.8992 23.9402 18.9337 24.1344C18.9677 24.3261 18.9998 24.5183 19.0375 24.7094C19.0792 24.9191 19.1156 25.1329 19.1837 25.3362C19.2138 25.4261 19.2643 25.5007 19.3477 25.5494C19.4302 25.5978 19.5307 25.6109 19.6228 25.5854C19.7121 25.5609 19.7893 25.5012 19.8362 25.4214C19.8862 25.3356 19.8935 25.2415 19.8721 25.1463C19.8325 24.9692 19.8041 24.7895 19.7731 24.6107C19.7407 24.4248 19.7083 24.239 19.6759 24.0531Z" fill="#FFD34E"/>
<path d="M13.5105 24.3876C13.5358 24.2739 13.5647 24.1626 13.5956 24.0503C13.6165 23.9746 13.6374 23.8988 13.6582 23.8231C13.6861 23.7218 13.7191 23.6223 13.7509 23.5222C13.8505 23.2077 13.9673 22.8995 14.0938 22.5949C14.1604 22.4403 14.2349 22.289 14.3332 22.1522C14.3885 22.0867 14.4498 22.0284 14.5161 21.9744C14.5333 21.9619 14.5506 21.9494 14.5681 21.9373C14.5895 21.9224 14.6154 21.9136 14.6392 21.9032C14.6948 21.8789 14.7377 21.8111 14.753 21.7554C14.7705 21.6914 14.7616 21.6217 14.728 21.5645C14.6956 21.5092 14.642 21.4678 14.5801 21.4507C14.5581 21.4478 14.5362 21.4449 14.5142 21.4419C14.4697 21.442 14.4279 21.4534 14.3893 21.4757C14.3448 21.4951 14.3071 21.517 14.2677 21.5454C14.2166 21.5821 14.1672 21.6216 14.1194 21.6623C14.0246 21.7429 13.9469 21.8404 13.876 21.9422C13.7432 22.1332 13.6558 22.3545 13.5688 22.5687C13.4844 22.777 13.3982 22.9845 13.3232 23.1964C13.2657 23.3582 13.2113 23.5215 13.1595 23.6853C13.1059 23.8545 13.0496 24.0227 13.0025 24.1938C12.9799 24.2761 12.9558 24.3579 12.9368 24.4413C12.9259 24.4899 12.9148 24.5384 12.9037 24.5868C12.8905 24.6447 12.8835 24.7049 12.8761 24.7635C12.8684 24.8231 12.8645 24.8802 12.8693 24.9402C12.8756 25.0191 12.8963 25.0868 12.9537 25.1442C13.0076 25.1981 13.0817 25.2288 13.1579 25.2288C13.2341 25.2288 13.308 25.1982 13.3619 25.1442C13.3976 25.1082 13.4225 25.0658 13.4361 25.0168C13.4488 24.9698 13.4497 24.9228 13.4392 24.8757C13.4365 24.8236 13.4402 24.7713 13.446 24.7194C13.4653 24.6083 13.4859 24.4982 13.5105 24.3876Z" fill="#FFD34E"/>
<path d="M8.00776 22.0987C8.04887 22.1226 8.09335 22.1346 8.14118 22.1347C8.18881 22.1346 8.23329 22.1226 8.2744 22.0987C8.43511 22.0256 8.55988 21.8896 8.68558 21.7687C8.75529 21.7018 8.8246 21.6344 8.89401 21.5671C9.03283 21.4329 9.17369 21.301 9.31383 21.1682C9.46436 21.0257 9.61946 20.8878 9.77233 20.7476C9.89425 20.6358 10.018 20.5257 10.1412 20.4151C10.2556 20.3125 10.3698 20.21 10.4842 20.1073C10.6721 19.9387 10.8604 19.7692 11.0592 19.6137C11.0957 19.5859 11.1316 19.5576 11.1661 19.5273C11.1776 19.5173 11.189 19.5071 11.2003 19.497C11.203 19.5004 11.2059 19.5036 11.2089 19.5067C11.2309 19.5287 11.2608 19.5411 11.2917 19.5411C11.3198 19.5411 11.3562 19.5296 11.3745 19.5067C11.4086 19.4641 11.443 19.4217 11.4773 19.3793C11.4979 19.3534 11.5124 19.3291 11.5124 19.2946C11.5124 19.2638 11.5 19.2313 11.4773 19.2099C11.4484 19.1828 11.4203 19.1566 11.3807 19.1457C11.3675 19.142 11.3538 19.1405 11.34 19.1405C11.3018 19.1405 11.2621 19.1524 11.2286 19.1663C11.1311 19.2068 11.0522 19.2783 10.9706 19.3437C10.9263 19.3768 10.8807 19.4081 10.8362 19.4409C10.7827 19.4803 10.7305 19.5211 10.6783 19.5621C10.5666 19.6496 10.4577 19.7407 10.3477 19.8302C10.2804 19.8852 10.2135 19.9402 10.1466 19.9957C9.96947 20.1421 9.79238 20.2885 9.61519 20.4349C9.31159 20.6856 9.00576 20.9333 8.6983 21.1791C8.68863 21.1869 8.67906 21.1946 8.6695 21.2022C8.59459 21.2596 8.51979 21.3172 8.44488 21.3746C8.40142 21.4079 8.35664 21.44 8.31257 21.4728C8.24896 21.5199 8.18484 21.5663 8.11431 21.6025C8.09996 21.6074 8.08551 21.6117 8.07076 21.6159C7.93214 21.6544 7.84787 21.8018 7.88624 21.9409C7.90445 22.0069 7.94873 22.0642 8.00776 22.0987Z" fill="#FFD34E"/>
<path d="M6.34758 17.658C7.28167 17.4778 8.21524 17.2962 9.15096 17.1248C9.24215 17.1082 9.32866 17.0308 9.37385 16.9534C9.42423 16.8672 9.43807 16.7623 9.4115 16.666C9.38586 16.5728 9.32337 16.4919 9.24001 16.443C9.18048 16.4081 9.12053 16.3949 9.05804 16.3949C9.02385 16.3949 8.98883 16.3989 8.9527 16.4055C8.39569 16.5074 7.83949 16.6118 7.2835 16.7189C7.01298 16.7712 6.74256 16.8234 6.47205 16.8756C6.35938 16.8973 6.246 16.917 6.13365 16.941C5.72482 17.028 5.31619 17.1152 4.90746 17.2022C4.76162 17.2332 4.61618 17.2667 4.47054 17.2992C4.365 17.3227 4.25936 17.3463 4.15372 17.3697C3.9921 17.4058 3.83171 17.4447 3.66805 17.4699C3.64078 17.4736 3.6135 17.4773 3.58633 17.4809C3.52669 17.4976 3.47499 17.5277 3.43112 17.5714C3.36548 17.6371 3.32812 17.7272 3.32812 17.8201C3.32812 17.913 3.36558 18.0031 3.43112 18.0688C3.49911 18.1368 3.58511 18.1678 3.67986 18.1718C3.90203 18.1811 4.12665 18.1293 4.34302 18.0832C4.45691 18.0589 4.571 18.0348 4.68499 18.0105C4.83632 17.9783 4.98766 17.9461 5.1391 17.9141C5.38988 17.861 5.64065 17.8079 5.89152 17.7547C6.04327 17.7224 6.19502 17.6874 6.34758 17.658Z" fill="#FFD34E"/>
<path d="M5.64422 12.8914C5.83962 12.9421 6.04012 12.9723 6.23919 13.0045C6.42269 13.0342 6.60639 13.0625 6.7902 13.09C7.20177 13.1517 7.61305 13.2149 8.02432 13.2783C8.39447 13.3353 8.76432 13.3933 9.13427 13.4518C9.16318 13.4557 9.19198 13.4596 9.22088 13.4635C9.27971 13.4632 9.33467 13.4484 9.38545 13.4189C9.45832 13.3763 9.51277 13.3056 9.53527 13.2242C9.55847 13.1399 9.54646 13.0482 9.50239 12.973C9.46362 12.9069 9.38647 12.8356 9.30749 12.8232C8.38073 12.6763 7.45377 12.5257 6.52263 12.4082C6.25629 12.3746 5.98984 12.3376 5.72197 12.3168C5.66925 12.3169 5.61989 12.3303 5.57429 12.3567C5.50885 12.395 5.4599 12.4584 5.43975 12.5315C5.39802 12.6834 5.48992 12.8514 5.64422 12.8914Z" fill="#FFD34E"/>
<path d="M5.59073 6.79226C5.64732 6.83745 5.70574 6.87399 5.76762 6.91114C5.84497 6.95755 5.92679 6.99663 6.00699 7.03795C6.11426 7.09311 6.22143 7.14827 6.3288 7.20353C6.50905 7.29635 6.69366 7.38154 6.87615 7.47008C7.03563 7.54753 7.19531 7.62437 7.3549 7.70142C7.49993 7.77144 7.64709 7.838 7.78927 7.91382C8.01491 8.03412 8.24085 8.15441 8.46658 8.27481C8.77649 8.44009 9.08171 8.61942 9.3623 8.83132C9.64676 9.05705 9.89967 9.31617 10.1419 9.58587C10.2324 9.68653 10.4012 9.67767 10.4931 9.58587C10.5395 9.53946 10.5659 9.47585 10.5659 9.41021C10.5659 9.34161 10.538 9.28482 10.4931 9.23465C10.3113 9.03151 10.1241 8.83416 9.92237 8.65046C9.71006 8.45729 9.47924 8.28743 9.23793 8.13213C9.10756 8.04816 8.97566 7.96562 8.83979 7.89072C8.737 7.83413 8.63441 7.77744 8.53182 7.72085C8.4104 7.65399 8.28919 7.58722 8.16787 7.52036C8.11251 7.48983 8.05786 7.45685 8.00117 7.42856C7.80515 7.33065 7.61025 7.2305 7.41474 7.13138C7.19542 7.02024 6.97741 6.90666 6.75931 6.79328C6.67504 6.74952 6.5921 6.70423 6.50925 6.65802C6.51353 6.65772 6.5179 6.65741 6.52217 6.65711C6.59769 6.65171 6.66364 6.63065 6.7184 6.57579C6.7702 6.52399 6.79972 6.45285 6.79972 6.37957C6.79972 6.23312 6.67677 6.10193 6.52808 6.10193C6.52604 6.10193 6.52411 6.10193 6.52208 6.10203C6.42946 6.10427 6.33664 6.10946 6.24423 6.1178C6.19507 6.12218 6.14591 6.12666 6.09676 6.13104C6.01615 6.13836 5.93606 6.14528 5.85565 6.15617C5.78421 6.16574 5.71795 6.18559 5.64915 6.20614C5.57557 6.22813 5.51288 6.27423 5.47379 6.3411C5.44713 6.38679 5.4339 6.43626 5.43359 6.48928C5.4339 6.54221 5.44713 6.59167 5.47379 6.63736C5.50178 6.69741 5.53832 6.75023 5.59073 6.79226Z" fill="#FFD34E"/>
<path d="M10.4378 4.51979C10.4872 4.59836 10.5334 4.68028 10.5871 4.75621C10.7191 4.94307 10.8487 5.13186 10.9852 5.31556C11.1594 5.54995 11.335 5.78331 11.5191 6.00997C11.6943 6.22542 11.8804 6.43202 12.0698 6.63486C12.2599 6.8381 12.4552 7.03646 12.6521 7.23309C12.8489 7.42992 13.0542 7.61678 13.258 7.80639C13.3159 7.86022 13.3861 7.89269 13.4662 7.89269C13.5439 7.89269 13.6195 7.86134 13.6744 7.80639C13.7851 7.69586 13.7917 7.49954 13.6744 7.39003C13.5119 7.23808 13.3456 7.0902 13.1875 6.93357C13.0215 6.7691 12.8579 6.60209 12.6961 6.43365C12.391 6.11612 12.0969 5.78881 11.8259 5.44176C11.6906 5.26579 11.5554 5.0883 11.4286 4.90612C11.3472 4.78939 11.2658 4.67275 11.1845 4.55591C11.135 4.48508 11.0873 4.41425 11.0407 4.34148C10.9563 4.20968 10.8701 4.07992 10.8004 3.93988C10.7989 3.93509 10.7976 3.93031 10.7963 3.92552C10.7879 3.8553 10.766 3.79424 10.7135 3.74152C10.6592 3.68737 10.5847 3.65643 10.508 3.65643C10.4313 3.65643 10.3568 3.68737 10.3025 3.74152C10.246 3.798 10.2212 3.86874 10.2173 3.9472C10.21 4.09844 10.2784 4.23645 10.3474 4.36692C10.3752 4.41933 10.406 4.46931 10.4378 4.51979Z" fill="#FFD34E"/>
<path d="M12.8871 0.591716C12.8957 0.649422 12.9157 0.706314 12.9342 0.761475C12.9599 0.838112 12.9898 0.913832 13.0204 0.988534C13.0678 1.10415 13.1152 1.21966 13.1625 1.33528C13.2402 1.52458 13.3216 1.71215 13.4027 1.90013C13.5525 2.24718 13.701 2.59464 13.8491 2.9424C13.9672 3.21953 14.0854 3.49666 14.2033 3.7739C14.3199 4.11026 14.4386 4.44581 14.556 4.78177C14.6271 4.9846 14.698 5.18754 14.7691 5.39038C14.8481 5.61601 14.905 5.84724 14.9679 6.07786C15.0198 6.2691 15.2248 6.38461 15.4155 6.332C15.6074 6.27928 15.7212 6.07583 15.6696 5.88439C15.619 5.69672 15.5789 5.50376 15.5153 5.31985C15.4939 5.25828 15.4726 5.1965 15.4513 5.13492C15.365 4.88578 15.2788 4.63664 15.1926 4.3877C15.1126 4.15636 15.0327 3.92503 14.9526 3.6937C14.9236 3.61014 14.8926 3.52954 14.8586 3.44791C14.6728 3.00102 14.487 2.55413 14.301 2.10734C14.1732 1.80029 14.043 1.49374 13.9226 1.18374C13.877 1.06619 13.8314 0.948741 13.7857 0.831293C13.733 0.695424 13.6745 0.558131 13.641 0.415748C13.6412 0.404757 13.6419 0.393663 13.643 0.382061C13.6427 0.312956 13.6253 0.248635 13.5907 0.188995C13.5407 0.103403 13.4577 0.0393865 13.362 0.013027C13.3301 0.00427436 13.2975 0.000101774 13.2648 0C13.0973 0 12.9308 0.110221 12.8912 0.280388C12.8807 0.325576 12.8648 0.395801 12.8675 0.434781C12.871 0.487296 12.8793 0.539506 12.8871 0.591716Z" fill="#FFD34E"/>
<path d="M2.24025 29.5659C3.15278 29.1102 4.30094 29.1664 5.1646 29.709C4.72592 28.1292 6.10146 26.4692 7.70642 26.1338C9.31126 25.7983 10.9696 26.4772 12.3086 27.4234C10.8128 25.8989 10.4206 23.4011 11.3772 21.4915C12.3337 19.5818 14.569 18.4003 16.6856 18.6854C16.9415 18.7199 17.2372 18.7621 17.4269 18.5869C17.5967 18.4299 17.6017 18.169 17.6129 17.9379C17.7038 16.0693 19.1579 14.3284 20.9971 13.9857C22.8362 13.6429 24.8613 14.7995 25.4264 16.5829C25.4784 15.2941 26.2999 14.1219 27.3677 13.3982C28.4353 12.6745 29.7236 12.346 31.0024 12.178C33.4579 11.8554 36.1509 12.151 38.0445 13.747C39.9382 15.3431 40.5989 18.5077 38.9317 20.3389C39.2134 19.7973 39.953 19.5516 40.5028 19.817C41.0526 20.0824 41.3204 20.8143 41.0717 21.3718C41.8898 21.0013 42.9363 21.2212 43.5362 21.8897C44.1361 22.5581 44.2419 23.6222 43.7855 24.3957C44.5604 23.9276 45.6043 23.9492 46.3593 24.449C47.1142 24.9487 47.5419 25.9013 47.4138 26.7975C47.8236 24.6304 50.5107 23.3823 52.5875 24.1249C54.6643 24.8674 55.9408 27.1471 55.9295 29.3526C56.8868 28.9528 57.8219 30.1422 57.8137 31.1796C57.8007 32.8262 56.4498 34.2617 54.8712 34.7299C53.2926 35.1981 51.5666 34.8449 50.0762 34.145C47.8967 36.0041 44.9022 36.871 42.0666 36.4639C39.2309 36.0567 36.6015 34.3823 35.033 31.9849C33.8598 33.7174 31.792 34.8067 29.6997 34.7943C27.9061 37.1091 24.3931 37.8811 21.7943 36.5316C21.4834 37.4144 20.5414 37.9161 19.6294 38.1262C16.4144 38.8669 12.8172 36.591 12.1096 33.3686C11.1304 36.1308 8.55256 38.4156 5.62318 38.5028C3.40002 38.569 1.14994 37.1235 0.304123 35.0617C-0.482729 33.1435 0.303394 30.5331 2.24025 29.5659Z" fill="white"/>
<path d="M55.9277 29.334C55.939 27.1285 54.6624 24.8489 52.5857 24.1063C52.1503 23.9506 51.6882 23.8828 51.2258 23.8922C51.9982 24.2488 52.7089 24.7018 53.2333 25.3631C54.1272 26.4903 54.1597 28.422 52.9256 29.1614C52.3729 29.4925 51.561 29.4733 51.1739 28.9583C51.3746 30.0903 50.7726 31.3188 49.7551 31.8538C48.7376 32.3888 47.3843 32.1885 46.5654 31.3816C45.8723 32.5239 44.5109 33.2625 43.1848 33.0988C41.8586 32.9351 40.6796 31.8057 40.5728 30.4737C40.4661 29.1418 41.5444 27.792 42.8779 27.7079C42.2132 27.7725 41.5296 27.3643 41.2712 26.7485C41.0127 26.1328 41.2001 25.3589 41.7118 24.9297C42.085 24.6165 42.5764 24.4945 43.0379 24.3382C43.3563 24.2304 43.6674 24.1016 43.9695 23.9545C44.1884 23.2483 44.0308 22.4242 43.5343 21.871C42.9345 21.2026 41.8879 20.9827 41.0698 21.3531C41.3185 20.7956 41.0507 20.0637 40.5009 19.7983C40.0781 19.5942 39.5436 19.6933 39.1909 19.996C40.2642 18.4904 40.0184 16.3049 38.9398 14.7276C38.9769 15.1998 38.9035 15.679 38.7059 16.111C38.1732 17.2757 36.7918 17.9833 35.5354 17.7349C36.1205 18.1696 36.2124 19.0591 35.9068 19.7208C35.6011 20.3826 34.9905 20.8512 34.3599 21.2169C32.973 22.0211 31.374 22.4558 29.7709 22.4642C30.82 22.8325 31.9594 22.8221 33.0531 23.0222C34.1467 23.2222 35.2931 23.7188 35.7827 24.717C36.4847 26.1483 35.5194 27.8477 34.3629 28.945C33.3589 29.8976 31.8752 30.6956 30.6412 30.0689C31.3157 30.3911 31.3944 31.3913 30.9883 32.0189C30.5824 32.6465 29.8665 32.9888 29.1871 33.3004C28.6266 33.5574 28.0446 33.8195 27.428 33.8229C26.8114 33.8263 26.1476 33.4967 25.9636 32.9082C25.1158 33.5969 24.1669 34.2394 23.0833 34.3777C21.9998 34.516 20.7644 34.0008 20.4 32.9711C19.1566 34.0207 17.1121 33.9384 15.9571 32.7922C14.8021 31.6461 14.7039 29.6023 15.7438 28.3507C14.9564 28.6484 14.0541 28.6295 13.2799 28.2988C12.9111 29.7356 11.3518 30.7566 9.88746 30.5201C9.93908 31.6209 9.23766 32.7175 8.2168 33.1322C7.19594 33.5468 5.92846 33.25 5.19787 32.4251C4.86888 33.6576 3.44194 34.4512 2.21344 34.176C1.111 33.9291 0.329357 32.8393 0.527066 31.7228C0.6124 31.2409 0.850222 30.8367 1.09927 30.437C0.0254422 31.6684 -0.305622 33.5617 0.301981 35.0429C1.14774 37.1047 3.3979 38.5502 5.62112 38.484C8.55046 38.3967 11.1283 36.112 12.1075 33.3497C12.8152 36.5722 16.4123 38.8481 19.6273 38.1074C20.5394 37.8972 21.4813 37.3956 21.7922 36.5127C24.391 37.8623 27.9041 37.0903 29.6977 34.7755C31.7899 34.7879 33.8578 33.6986 35.031 31.9661C36.5994 34.3634 39.2289 36.0379 42.0646 36.4451C44.9002 36.8523 47.8947 35.9854 50.0742 34.1262C51.5646 34.8261 53.2906 35.1793 54.8692 34.7111C56.4478 34.2429 57.7988 32.8074 57.8117 31.1608C57.8201 30.1237 56.885 28.9343 55.9277 29.334Z" fill="#D4D4D4"/>
<path d="M17.7588 26.2245C18.2407 25.095 19.619 24.3434 20.7639 24.7874C20.6831 23.5348 21.7457 22.3206 22.998 22.2349C24.2502 22.1491 25.4684 23.207 25.5591 24.4589C25.1396 23.5909 24.039 23.1203 23.1217 23.4168C22.2043 23.7132 21.5872 24.7389 21.7552 25.6883C20.5591 25.3154 19.1553 26.0734 18.7342 27.2533C18.2998 28.4703 18.8896 29.7799 19.8904 30.507C17.9378 30.2346 16.9953 28.0139 17.7588 26.2245Z" fill="#D4D4D4"/>
<path d="M26.9288 19.3414C27.8895 19.8871 28.5967 20.9302 28.5776 22.035C28.9446 21.138 28.825 20.0584 28.2704 19.2636C27.7159 18.4687 26.7439 17.9838 25.7753 18.0187C24.9082 18.0499 23.2721 18.4443 22.7461 19.1867C24.2512 19.0375 25.4435 18.4977 26.9288 19.3414Z" fill="#D4D4D4"/>
<path d="M210.617 19.1678C211.53 18.7121 212.678 18.7683 213.542 19.3109C213.103 17.7311 214.478 16.0711 216.083 15.7357C217.688 15.4002 219.347 16.0791 220.686 17.0253C219.19 15.5008 218.798 13.0031 219.754 11.0934C220.711 9.18377 222.946 8.0022 225.063 8.28732C225.319 8.32183 225.614 8.36407 225.804 8.1888C225.974 8.03182 225.979 7.77093 225.99 7.53984C226.081 5.67121 227.535 3.93033 229.374 3.58758C231.213 3.24484 233.238 4.40139 233.803 6.18485C233.855 4.89601 234.677 3.72386 235.745 3.00017C236.812 2.27641 238.101 1.94798 239.379 1.77988C241.835 1.45728 244.528 1.7529 246.422 3.34897C248.315 4.94504 248.976 8.10958 247.309 9.94079C247.59 9.39921 248.33 9.15353 248.88 9.4189C249.43 9.68428 249.697 10.4162 249.449 10.9737C250.267 10.6033 251.313 10.8232 251.913 11.4916C252.513 12.16 252.619 13.2242 252.162 13.9976C252.937 13.5295 253.981 13.5511 254.736 14.0509C255.491 14.5507 255.919 15.5032 255.791 16.3995C256.201 14.2323 258.888 12.9842 260.964 13.7268C263.041 14.4694 264.318 16.749 264.306 18.9545C265.264 18.5547 266.199 19.7442 266.191 20.7815C266.178 22.4281 264.827 23.8637 263.248 24.3318C261.67 24.8 259.944 24.4468 258.453 23.7469C256.274 25.6061 253.279 26.4729 250.444 26.0658C247.608 25.6586 244.978 23.9842 243.41 21.5869C242.237 23.3193 240.169 24.4086 238.077 24.3962C236.283 26.711 232.77 27.4831 230.171 26.1335C229.86 27.0164 228.918 27.518 228.006 27.7281C224.791 28.4688 221.194 26.193 220.487 22.9705C219.507 25.7327 216.93 28.0175 214 28.1048C211.777 28.171 209.527 26.7255 208.681 24.6637C207.894 22.7454 208.68 20.1351 210.617 19.1678Z" fill="white"/>
<path d="M264.305 18.9362C264.316 16.7307 263.039 14.4511 260.963 13.7084C260.527 13.5528 260.065 13.4849 259.603 13.4943C260.375 13.851 261.086 14.304 261.61 14.9653C262.504 16.0925 262.537 18.0241 261.303 18.7636C260.75 19.0947 259.938 19.0755 259.551 18.5605C259.752 19.6925 259.15 20.921 258.132 21.456C257.115 21.991 255.761 21.7906 254.942 20.9837C254.249 22.126 252.888 22.8647 251.562 22.701C250.236 22.5373 249.057 21.4078 248.95 20.0759C248.843 18.744 249.921 17.3941 251.255 17.3101C250.59 17.3746 249.907 16.9665 249.648 16.3507C249.39 15.735 249.577 14.9611 250.089 14.5318C250.462 14.2187 250.953 14.0966 251.415 13.9404C251.733 13.8326 252.044 13.7038 252.346 13.5566C252.565 12.8504 252.408 12.0264 251.911 11.4732C251.311 10.8047 250.265 10.5849 249.447 10.9553C249.695 10.3978 249.428 9.66586 248.878 9.40048C248.455 9.19637 247.921 9.29545 247.568 9.59814C248.641 8.09256 248.395 5.90705 247.317 4.32977C247.354 4.80201 247.281 5.2812 247.083 5.71321C246.55 6.87784 245.169 7.58543 243.912 7.33711C244.497 7.77181 244.589 8.66124 244.284 9.323C243.978 9.98476 243.367 10.4534 242.737 10.819C241.35 11.6233 239.751 12.058 238.148 12.0664C239.197 12.4347 240.336 12.4243 241.43 12.6243C242.524 12.8244 243.67 13.321 244.16 14.3191C244.862 15.7504 243.896 17.4499 242.74 18.5472C241.736 19.4998 240.252 20.2978 239.018 19.6711C239.693 19.9933 239.771 20.9935 239.365 21.621C238.959 22.2486 238.243 22.5909 237.564 22.9025C237.004 23.1596 236.422 23.4217 235.805 23.4251C235.188 23.4285 234.525 23.0989 234.341 22.5104C233.493 23.199 232.544 23.8416 231.46 23.9799C230.377 24.1182 229.141 23.6029 228.777 22.5733C227.534 23.6229 225.489 23.5406 224.334 22.3944C223.179 21.2483 223.081 19.2044 224.121 17.9528C223.333 18.2506 222.431 18.2316 221.657 17.901C221.288 19.3377 219.729 20.3587 218.264 20.1223C218.316 21.223 217.615 22.3197 216.594 22.7343C215.573 23.149 214.305 22.8522 213.575 22.0272C213.246 23.2598 211.819 24.0534 210.59 23.7782C209.488 23.5312 208.706 22.4415 208.904 21.325C208.989 20.8431 209.227 20.4389 209.476 20.0392C208.402 21.2706 208.071 23.1639 208.679 24.6451C209.525 26.7068 211.775 28.1524 213.998 28.0861C216.927 27.9989 219.505 25.7142 220.484 22.9519C221.192 26.1744 224.789 28.4503 228.004 27.7096C228.916 27.4994 229.858 26.9978 230.169 26.1149C232.768 27.4644 236.281 26.6924 238.075 24.3776C240.167 24.39 242.235 23.3008 243.408 21.5683C244.976 23.9656 247.606 25.6401 250.442 26.0473C253.277 26.4544 256.272 25.5875 258.451 23.7283C259.942 24.4283 261.668 24.7814 263.246 24.3132C264.825 23.845 266.176 22.4095 266.189 20.763C266.197 19.7259 265.262 18.5364 264.305 18.9362Z" fill="#D4D4D4"/>
<path d="M226.134 15.8271C226.616 14.6976 227.994 13.9461 229.139 14.39C229.058 13.1374 230.121 11.9233 231.373 11.8375C232.625 11.7517 233.843 12.8096 233.934 14.0616C233.515 13.1935 232.414 12.723 231.497 13.0194C230.579 13.3159 229.962 14.3416 230.13 15.2909C228.934 14.9181 227.53 15.6761 227.109 16.856C226.675 18.073 227.265 19.3825 228.265 20.1096C226.313 19.8373 225.37 17.6166 226.134 15.8271Z" fill="#D4D4D4"/>
<path d="M235.304 8.94266C236.265 9.48839 236.972 10.5315 236.953 11.6363C237.32 10.7393 237.2 9.65968 236.645 8.86484C236.091 8.07 235.119 7.58503 234.15 7.61993C233.283 7.65118 231.647 8.04554 231.121 8.78792C232.626 8.63879 233.818 8.09895 235.304 8.94266Z" fill="#D4D4D4"/>
<defs>
<linearGradient id="paint0_linear_297_3647" x1="237.009" y1="68.0901" x2="228.249" y2="58.8677" gradientUnits="userSpaceOnUse">
<stop stop-color="#1E981F"/>
<stop offset="1" stop-color="#24BB3D"/>
</linearGradient>
</defs>
</svg>
