<svg width="139" height="98" viewBox="0 0 139 98" fill="none" xmlns="http://www.w3.org/2000/svg">
<path d="M33.1403 23.1288C33.038 23.2445 32.9377 23.3622 32.8398 23.4816C32.6088 23.6991 32.3834 23.9225 32.1637 24.1511C31.6858 24.6478 31.249 25.1781 30.8315 25.7259C30.0223 26.7867 29.3606 27.96 28.8862 29.2075C28.6544 29.817 28.4888 30.4532 28.3745 31.0951C28.2514 31.7902 28.1888 32.495 28.2059 33.2009C28.2145 33.5714 28.2553 33.9379 28.3053 34.305C28.3505 34.6407 28.4151 34.9713 28.5052 35.2977C28.5999 35.6408 28.734 35.9701 28.8725 36.297C29.0019 36.6024 29.1487 36.899 29.3127 37.1875C29.6455 37.7733 30.0632 38.3148 30.5212 38.8076C30.981 39.3021 31.5025 39.7294 32.0386 40.1375C32.1808 40.2457 32.3252 40.3504 32.4718 40.4515C32.6727 40.6653 32.8809 40.8721 33.0965 41.072C33.5819 41.5222 34.1039 41.9324 34.6351 42.3268C35.1608 42.7169 35.7084 43.0775 36.2759 43.404C36.8656 43.7429 37.4832 44.0252 38.1109 44.2856C38.7184 44.5376 39.3451 44.7444 39.9882 44.8836C40.6665 45.0304 41.3646 45.1063 42.0574 45.1357C42.7269 45.1638 43.3986 45.133 44.0627 45.0466C45.4173 44.8709 46.7505 44.5053 48.0322 44.036C48.6721 43.8016 49.3002 43.5302 49.9086 43.2236C50.4868 42.9322 51.0432 42.5977 51.5838 42.2417C52.151 41.8685 52.6952 41.4613 53.2272 41.0397C53.7349 40.6377 54.2226 40.2109 54.6924 39.7651C55.6583 38.848 56.5355 37.8347 57.3102 36.7514C58.0923 35.6584 58.7324 34.4498 59.1651 33.1764C59.3909 32.5121 59.5186 31.8245 59.6067 31.1298C59.6894 30.4748 59.6887 29.8146 59.6087 29.1595C59.5233 28.4597 59.3726 27.7755 59.1606 27.1031C58.9558 26.452 58.6901 25.8177 58.3876 25.2065C58.1055 24.6353 57.773 24.0911 57.4044 23.5721C57.011 23.0184 56.5796 22.4891 56.109 21.999C55.6399 21.5106 55.1172 21.0811 54.5738 20.6781C54.0638 20.3003 53.5186 19.9692 52.9455 19.6967C52.3245 19.4018 51.6733 19.1804 51.0073 19.0137C50.3265 18.8434 49.6323 18.7401 48.9373 18.6489C48.1905 18.5505 47.441 18.4954 46.6905 18.4798C46.6768 18.4497 46.6575 18.4215 46.632 18.3978C46.4394 18.2172 46.2412 18.0332 46.0274 17.8776C45.7792 17.697 45.4905 17.618 45.1917 17.5624C44.9022 17.5088 44.6091 17.4883 44.3152 17.4883C43.9866 17.4883 43.6572 17.514 43.332 17.5482C42.6659 17.6182 42.0167 17.7687 41.3773 17.9657C40.7365 18.1632 40.1032 18.399 39.4836 18.656C38.2667 19.161 37.1081 19.8107 36.0297 20.5665C34.9753 21.3038 33.9933 22.1649 33.1403 23.1288ZM57.3655 31.7281C57.2564 32.4656 57.0562 33.1803 56.7748 33.8709C56.6916 34.0615 56.603 34.2497 56.5091 34.4346C56.5666 34.0752 56.604 33.7126 56.6221 33.3507C56.6314 33.1635 56.6329 32.9755 56.6278 32.7881C56.6539 32.6677 56.6784 32.5471 56.7014 32.4264C56.8186 31.813 56.8945 31.19 56.9422 30.567C56.9591 30.4892 56.975 30.4109 56.9894 30.3326C57.0797 29.8459 57.1272 29.3514 57.1084 28.8578C57.2351 29.2097 57.3296 29.5701 57.3868 29.9413C57.4527 30.5364 57.4367 31.1342 57.3655 31.7281ZM55.8851 24.2289C56.4836 25.0222 56.9884 25.8767 57.3854 26.7879C57.388 26.7945 57.3907 26.8011 57.3934 26.8077C57.1409 26.4617 56.8546 26.1434 56.5345 25.8591C56.3916 25.4093 56.2125 24.9703 56.0119 24.5443C55.9404 24.3926 55.8636 24.2443 55.7816 24.0992C55.8166 24.1425 55.8511 24.1856 55.8851 24.2289ZM36.833 35.4306C36.7887 35.3711 36.7454 35.3109 36.7034 35.25C36.8098 34.7513 36.961 34.2631 37.1529 33.7899C37.1815 33.7245 37.2109 33.6595 37.2407 33.5949C37.2444 33.624 37.2483 33.6529 37.2522 33.682C37.2926 33.9741 37.3552 34.2607 37.4352 34.5445C37.5314 34.8868 37.6643 35.216 37.8047 35.5424C38.023 36.0494 38.3144 36.5129 38.6536 36.9445C38.3524 36.7774 38.0617 36.5916 37.7844 36.3856C37.4313 36.1023 37.1154 35.7837 36.833 35.4306ZM38.5927 31.6588C38.5944 31.6432 38.5963 31.6278 38.5983 31.6121C38.6181 31.4782 38.6406 31.3451 38.6658 31.2125C38.7143 31.1464 38.7635 31.0811 38.8129 31.0158C38.8202 31.0065 38.8276 30.9972 38.8349 30.9879C38.7444 31.2083 38.6636 31.4327 38.5927 31.6588ZM42.1993 39.6354C41.4955 39.7191 40.783 39.7196 40.079 39.6356C40.0092 39.6249 39.94 39.6129 39.871 39.5999C39.7985 39.5635 39.7264 39.5265 39.6547 39.4893C39.257 39.2838 38.8707 39.0555 38.5112 38.7883C38.2127 38.5465 37.9484 38.2734 37.7081 37.9742C37.6613 37.9115 37.6158 37.8484 37.5715 37.7843C38.0715 38.1048 38.612 38.3608 39.164 38.5781C39.768 38.8162 40.4066 38.9625 41.0451 39.0729C41.1378 39.0888 41.2308 39.1042 41.3238 39.1186C41.5026 39.2111 41.6852 39.2972 41.8702 39.378C42.051 39.4568 42.2336 39.5312 42.4176 39.6004C42.3451 39.6129 42.2722 39.6244 42.1993 39.6354ZM40.4059 36.1412C40.4105 36.1766 40.4154 36.2124 40.4206 36.2478C40.2571 35.9965 40.1135 35.7337 39.9897 35.4594C39.8512 35.1083 39.7543 34.7476 39.6958 34.3747C39.6434 33.9042 39.6449 33.4316 39.6985 32.9618C39.779 32.447 39.9207 31.9473 40.1142 31.4641C40.237 31.1866 40.3768 30.9184 40.5334 30.66C40.4424 30.9362 40.3655 31.2169 40.298 31.4995C40.2087 31.8732 40.1519 32.2512 40.1017 32.6317C39.9476 33.8009 40.0325 35.0195 40.4059 36.1412ZM43.403 38.0434C43.1208 37.8029 42.8624 37.5369 42.6285 37.2482C42.3718 36.8997 42.1587 36.5253 41.9815 36.1301C41.8863 35.8933 41.8044 35.6527 41.7363 35.4081C41.7285 35.0437 41.7488 34.6786 41.7916 34.317C41.9201 33.4644 42.1734 32.6339 42.4998 31.8372C42.9141 30.8814 43.4465 29.9836 44.0761 29.1534C44.3326 28.8284 44.6047 28.5167 44.8964 28.2228C44.9311 28.1878 44.9664 28.1531 45.0018 28.1186C45.0515 28.1193 45.1014 28.1203 45.1511 28.1222C45.2571 28.226 45.3591 28.3332 45.4577 28.4443C45.1403 28.6376 44.844 28.8671 44.5677 29.112C44.3483 29.3066 44.1549 29.528 43.9758 29.7598C43.758 30.0414 43.5593 30.3311 43.3814 30.6392C43.0418 31.2282 42.7929 31.8751 42.6336 32.5353C42.5529 32.8691 42.5052 33.2114 42.4697 33.5523C42.4352 33.8831 42.4362 34.2159 42.4697 34.546C42.5035 34.8771 42.5602 35.2045 42.6547 35.5235C42.7526 35.8546 42.9018 36.1754 43.0851 36.4678C43.4404 37.0336 43.944 37.4931 44.5513 37.774C44.7114 37.8479 44.8763 37.9128 45.0449 37.9654C44.4985 38.0297 43.9506 38.0539 43.403 38.0434ZM42.2399 20.5734C42.6082 20.5022 42.9784 20.4415 43.3494 20.3889C43.634 20.3524 43.9193 20.3209 44.2048 20.2942C44.1491 20.3138 44.0935 20.3338 44.038 20.3544C43.9078 20.4024 43.7783 20.4523 43.6494 20.5044C43.5593 20.5049 43.4693 20.5059 43.379 20.5076C42.998 20.5144 42.6185 20.5379 42.2399 20.5734ZM46.8124 33.1845C46.7639 33.4933 46.6908 33.7984 46.5848 34.0926C46.5633 34.003 46.5449 33.9125 46.5295 33.821C46.5219 33.7495 46.5158 33.6778 46.5114 33.6061C46.6039 33.4113 46.7086 33.2234 46.8266 33.0436C46.8224 33.0905 46.8178 33.1375 46.8124 33.1845ZM49.8271 31.7212C49.7666 31.9901 49.6979 32.2561 49.6218 32.5211C49.484 32.9993 49.3149 33.4728 49.1265 33.9333C48.8855 34.4829 48.5796 35.006 48.2223 35.4881C48.1325 35.5999 48.0386 35.7071 47.9402 35.8096C47.9265 35.8047 47.9128 35.7996 47.8991 35.7944C47.7388 35.7188 47.5881 35.6307 47.4442 35.5284C47.4268 35.5138 47.4094 35.4988 47.3926 35.4839C47.498 35.3621 47.5915 35.2275 47.6727 35.0887C47.7623 34.936 47.8264 34.7667 47.893 34.6033C48.0109 34.314 48.0836 34.0035 48.1394 33.6971C48.2539 33.0712 48.2681 32.4335 48.2116 31.8012C48.2845 31.7631 48.3584 31.7269 48.4333 31.6928C48.6386 31.6153 48.8466 31.5602 49.0626 31.524C49.2672 31.5039 49.4705 31.5008 49.6751 31.5194C49.7373 31.5311 49.7987 31.5453 49.8594 31.5614C49.8599 31.5658 49.8601 31.5705 49.8606 31.5749C49.8493 31.6236 49.8381 31.6723 49.8271 31.7212ZM47.8599 30.027C47.8842 30.0059 47.9086 29.9854 47.9331 29.9648C48.0589 29.8743 48.1893 29.7938 48.328 29.7255C48.4472 29.6824 48.5686 29.6501 48.6936 29.6266C48.7377 29.6227 48.7817 29.62 48.8258 29.6186C48.9826 29.7717 49.1302 29.9342 49.2682 30.105C49.2843 30.1273 49.3005 30.1495 49.3164 30.1721C49.0465 30.1716 48.7749 30.2105 48.5108 30.2579C48.3273 30.2907 48.1477 30.346 47.9727 30.4133C47.939 30.2834 47.9013 30.1547 47.8599 30.027ZM53.1804 26.7923C53.1386 26.7346 53.0958 26.6773 53.0525 26.6206C53.0114 26.5312 52.9683 26.4431 52.9233 26.3558C52.9475 26.3646 52.9717 26.3737 52.9957 26.3827C53.0767 26.5249 53.1521 26.6705 53.2228 26.8185C53.2086 26.8099 53.1944 26.8011 53.1804 26.7923ZM48.8231 21.2872C49.6 21.4019 50.3595 21.6087 51.087 21.905C51.7027 22.1771 52.2799 22.5187 52.819 22.922C53.2188 23.2396 53.591 23.589 53.9221 23.9774C53.9192 23.9756 53.9163 23.9742 53.9133 23.9725C53.6902 23.8518 53.4589 23.7449 53.223 23.6487C52.9842 23.4782 52.7392 23.3167 52.4872 23.1662C52.0852 22.853 51.6618 22.565 51.2201 22.3129C50.6267 21.974 49.9896 21.7063 49.3494 21.4702C49.175 21.4059 48.999 21.3447 48.8221 21.2869C48.8221 21.2869 48.8226 21.2872 48.8231 21.2872ZM46.9822 26.6651C47.4669 26.6648 47.9519 26.6991 48.435 26.7588C49.3377 26.89 50.2232 27.1112 51.0692 27.4537C51.2471 27.5313 51.4237 27.613 51.598 27.6992C51.7259 28.0513 51.8096 28.4156 51.8662 28.7859C51.9036 29.1035 51.9239 29.4218 51.9268 29.7416C51.9303 30.0832 51.9029 30.4246 51.8615 30.7635C51.8559 30.8012 51.8503 30.8386 51.8444 30.876C51.7538 30.6054 51.6312 30.3424 51.4947 30.0942C51.3415 29.816 51.1448 29.5581 50.9326 29.323C50.7021 29.067 50.4219 28.8524 50.1408 28.6567C49.9017 28.4903 49.6431 28.3542 49.3761 28.239C49.3426 28.2245 49.3088 28.2103 49.2753 28.1964C48.9351 27.9395 48.5671 27.7207 48.1815 27.5367C47.6444 27.2805 47.0815 27.0759 46.5016 26.9413C46.6585 26.8437 46.8187 26.7515 46.9822 26.6651ZM46.2023 29.5779C46.2283 29.6298 46.2537 29.6819 46.2784 29.7345C46.2456 29.7774 46.2133 29.8207 46.1815 29.8642C46.0056 30.104 45.8647 30.3683 45.7377 30.6365C45.5835 30.9619 45.4518 31.2991 45.3503 31.6449C45.2527 31.9769 45.2005 32.3163 45.1548 32.6582C45.1313 32.8336 45.1186 33.0105 45.1151 33.1874C45.0581 33.3259 45.0084 33.4671 44.9676 33.6093C44.8594 33.9859 44.868 34.3774 44.9218 34.7606C44.9441 34.9184 44.982 35.0684 45.0363 35.2177C45.1107 35.4213 45.1795 35.6459 45.3412 35.8008C45.4883 35.9415 45.642 36.0237 45.837 36.0824C45.9156 36.1062 45.9966 36.1186 46.0778 36.1231C46.149 36.207 46.2263 36.2858 46.3056 36.3624C46.4177 36.471 46.5386 36.5723 46.666 36.6648C46.5432 36.7032 46.4189 36.7333 46.2912 36.7558C46.0942 36.7744 45.8984 36.7757 45.7009 36.7585C45.5363 36.7292 45.3774 36.6849 45.2206 36.6259C45.0503 36.5454 44.8888 36.4517 44.7351 36.3428C44.6013 36.2295 44.4806 36.1052 44.369 35.9704C44.2442 35.7961 44.1361 35.6131 44.0448 35.4188C43.9435 35.1528 43.8757 34.8788 43.831 34.5979C43.7898 34.2105 43.7972 33.8256 43.842 33.4392C43.923 32.9205 44.061 32.4152 44.256 31.9273C44.4613 31.4653 44.7177 31.0258 45.0192 30.6201C45.2497 30.3358 45.5067 30.0813 45.791 29.8515C45.9239 29.7531 46.0609 29.6616 46.2023 29.5779ZM39.8299 19.1767C40.3653 18.9543 40.9097 18.7516 41.4596 18.5706C42.0329 18.3822 42.6187 18.2324 43.217 18.148C43.7886 18.0782 44.3676 18.0393 44.9414 18.1052C45.1428 18.135 45.3427 18.1766 45.5338 18.2473C45.6014 18.2818 45.6635 18.3212 45.7252 18.3655C45.7712 18.4022 45.8167 18.4397 45.8617 18.4776C45.5412 18.4832 45.2206 18.4957 44.9 18.5148C44.1752 18.5578 43.4541 18.641 42.7357 18.7443C42.0659 18.8405 41.4018 18.9714 40.7453 19.1348C39.8502 19.3575 38.9734 19.6585 38.1236 20.0204C38.6766 19.7082 39.2463 19.4258 39.8299 19.1767ZM38.1967 24.1232C38.0967 24.1827 37.9976 24.2441 37.8997 24.307C37.3464 24.663 36.8269 25.0782 36.3405 25.5202C35.3812 26.3918 34.5691 27.4315 33.9321 28.5585C33.5988 29.148 33.3216 29.7695 33.082 30.4023C32.8513 31.0126 32.6763 31.6439 32.5545 32.2843C32.3014 33.6152 32.2701 35.0161 32.5726 36.3413C32.2503 35.8925 31.9782 35.4151 31.7536 34.9094C31.5309 34.3566 31.3645 33.7838 31.272 33.1948C31.2086 32.6183 31.2245 32.0388 31.2923 31.4631C31.4098 30.6788 31.6165 29.9137 31.9136 29.1788C32.1749 28.5828 32.4859 28.0072 32.8466 27.465C33.2937 26.9421 33.7873 26.4603 34.3271 26.033C35.1059 25.4475 35.9631 24.9789 36.8568 24.5925C37.2953 24.4119 37.7426 24.2563 38.1967 24.1232Z" fill="#FFD34E"/>
<path d="M45.234 13.7218C45.4359 13.7218 45.6319 13.6408 45.7743 13.4979C45.9258 13.3464 45.982 13.1661 45.9982 12.9576C46.0961 11.6646 46.1807 10.3709 46.2659 9.07747C46.3207 8.24502 46.353 7.41085 46.3968 6.57815C46.4125 6.28256 46.4281 5.98746 46.4436 5.69187C46.4482 5.59864 46.4514 5.50517 46.4551 5.41194C46.4612 5.27491 46.4754 5.13592 46.4644 4.99913C46.4467 4.77964 46.3887 4.59049 46.2289 4.43071C46.0789 4.28071 45.8727 4.19531 45.66 4.19531C45.2208 4.19531 44.8574 4.56088 44.8562 4.99913C44.8376 5.49929 44.8315 5.99994 44.817 6.49985C44.8043 6.93345 44.7882 7.36681 44.7718 7.80016C44.7561 8.21321 44.7478 8.62772 44.7231 9.04028C44.6871 9.63562 44.6514 10.231 44.6154 10.8263C44.5723 11.5372 44.5224 12.247 44.4701 12.9574C44.4559 13.1519 44.5596 13.3638 44.694 13.4977C44.8364 13.6408 45.0321 13.7218 45.234 13.7218Z" fill="#FFD34E"/>
<path d="M56.2531 16.9731C56.6752 17.2202 57.2299 17.0719 57.4773 16.6523C57.871 15.9833 58.2613 15.3121 58.6641 14.6487C59.0037 14.0888 59.3431 13.5295 59.6828 12.9698C59.8548 12.6862 60.0212 12.398 60.202 12.1198C60.5282 11.6191 60.8534 11.118 61.1796 10.6173C61.3223 10.3979 61.4674 10.1798 61.6122 9.96132C61.6607 9.8884 61.7091 9.81524 61.7576 9.74232C61.8442 9.67258 61.9166 9.58841 61.9749 9.49004C62.1513 9.23923 62.3197 8.98474 62.4797 8.7234C62.7971 8.20514 62.4927 7.51485 61.9223 7.35384C61.8349 7.32913 61.7429 7.31641 61.6506 7.31641C61.4588 7.31641 61.2662 7.37122 61.1121 7.48525C61.0049 7.56502 60.9347 7.60833 60.861 7.70205C60.7842 7.79993 60.7191 7.87847 60.6599 7.981C60.5842 8.11216 60.5287 8.25261 60.4467 8.38034C60.285 8.63238 60.1237 8.88442 59.962 9.13645C59.7391 9.48367 59.5181 9.83212 59.2966 10.1803C59.0563 10.5581 58.8065 10.9313 58.5758 11.3152C58.3144 11.7503 58.0531 12.1846 57.7917 12.6192C57.1663 13.6594 56.5469 14.7025 55.9325 15.7491C55.6854 16.17 55.8334 16.7274 56.2531 16.9731Z" fill="#FFD34E"/>
<path d="M64.2503 23.5493C64.944 23.3322 65.6365 23.1137 66.3336 22.9077C66.9562 22.7237 67.5787 22.5399 68.2017 22.3561C68.522 22.2612 68.8428 22.1805 69.168 22.1014C69.492 22.0224 69.8164 21.9436 70.1407 21.865C70.2794 21.8313 70.4177 21.7931 70.5576 21.7654C71.0945 21.6605 71.6302 21.5516 72.1697 21.4613C72.6476 21.3815 73.1253 21.2988 73.6034 21.2215C73.6511 21.2195 73.6979 21.2198 73.7468 21.2225C74.1019 21.243 74.4332 20.9611 74.5242 20.6306C74.639 20.2136 74.3872 19.7467 73.9612 19.6388C73.8535 19.6116 73.7297 19.5828 73.6215 19.582C73.6193 19.582 73.6171 19.582 73.6149 19.582C73.5386 19.582 73.4639 19.5877 73.3873 19.5948C73.2794 19.6048 73.1715 19.6236 73.0643 19.641C72.9564 19.6584 72.8478 19.6733 72.7408 19.6946C72.5275 19.7372 72.3138 19.779 72.101 19.8233C71.604 19.9266 71.1082 20.0328 70.6127 20.1426C70.1906 20.2366 69.7736 20.3406 69.3544 20.4478C68.9397 20.554 68.5188 20.6467 68.1087 20.7695C67.4764 20.9592 66.8446 21.1491 66.2128 21.3389C65.4204 21.577 64.6318 21.8237 63.8433 22.0723C63.6508 22.133 63.4888 22.248 63.3855 22.4242C63.282 22.6011 63.2541 22.8167 63.3084 23.0141C63.4161 23.4061 63.8519 23.6743 64.2503 23.5493Z" fill="#FFD34E"/>
<path d="M73.9961 30.6915C73.7829 30.6245 73.5514 30.5912 73.331 30.5662C73.0317 30.5327 72.728 30.5148 72.4268 30.5085C72.2159 30.5041 72.0047 30.5002 71.7935 30.496C71.3961 30.4879 70.9985 30.4838 70.6011 30.4703C69.2917 30.4258 67.9833 30.38 66.6744 30.325C66.6622 30.3245 66.6502 30.3242 66.6379 30.3242C66.1079 30.3242 65.6719 30.8102 65.6719 31.3275C65.6719 31.5925 65.7786 31.8492 65.9655 32.0364C66.1593 32.2301 66.4047 32.3182 66.6744 32.33C67.9608 32.3855 69.2474 32.432 70.5341 32.4778C70.8984 32.4908 71.2625 32.4925 71.6269 32.4974C72.3221 32.5069 73.0224 32.4859 73.7144 32.5561C73.7594 32.5654 73.804 32.5759 73.8492 32.5881C74.241 32.6951 74.6668 32.5228 74.8718 32.1717C74.9944 31.9625 75.0275 31.7077 74.9631 31.474C74.8973 31.2357 74.7473 31.0676 74.5466 30.9325C74.3802 30.8197 74.1874 30.7517 73.9961 30.6915Z" fill="#FFD34E"/>
<path d="M62.0531 39.5672C61.7665 39.6463 61.5174 39.8381 61.3674 40.0945C61.2123 40.3598 61.1702 40.6826 61.2514 40.9789C61.3271 41.2534 61.5214 41.5314 61.779 41.6648C63.0727 42.3352 64.367 43.0045 65.6619 43.673C66.3975 44.0527 67.1326 44.4369 67.8777 44.7976C68.4405 45.0699 69.0023 45.3631 69.5911 45.576C69.7812 45.6271 69.9718 45.6271 70.1622 45.576C70.4309 45.5018 70.6636 45.3222 70.8043 45.0822C71.1021 44.5727 70.9205 43.9123 70.4189 43.6123C69.9836 43.3517 69.5304 43.1202 69.0831 42.8811C68.6534 42.6514 68.2205 42.4275 67.7888 42.2011C66.9123 41.7414 66.0319 41.2877 65.1534 40.8318C64.4149 40.4486 63.6762 40.0659 62.9374 39.6832C62.7478 39.5848 62.5501 39.5273 62.346 39.5273C62.2496 39.5271 62.1522 39.5398 62.0531 39.5672Z" fill="#FFD34E"/>
<path d="M57.1163 52.6605C57.3527 53.0454 57.5925 53.4276 57.8347 53.8086C58.0263 54.1094 58.2206 54.4076 58.4178 54.7047C58.5079 54.8405 58.6001 54.9739 58.6939 55.1075C58.8444 55.3223 58.9992 55.5421 59.1774 55.7341C59.4791 56.0596 60.0069 56.1083 60.3811 55.8895C60.8399 55.6209 61.0219 54.9913 60.7376 54.5302C60.4723 54.1003 60.2259 53.6574 59.9717 53.2206C59.7559 52.8497 59.5393 52.479 59.3198 52.1097C58.8534 51.3247 58.3868 50.5407 57.9377 49.7457C57.4236 48.835 56.9142 47.9227 56.4128 47.0046C56.2217 46.6547 55.8421 46.4648 55.4604 46.4648C55.2698 46.4648 55.0784 46.5123 54.9101 46.6107C54.6646 46.7541 54.4811 46.9924 54.4057 47.2667C54.3257 47.5572 54.3739 47.8515 54.5164 48.1126C55.1433 49.2622 55.7878 50.401 56.4326 51.5408C56.6479 51.9211 56.888 52.2883 57.1163 52.6605Z" fill="#FFD34E"/>
<path d="M48.2828 57.831C48.1521 57.0845 48.0359 56.3352 47.9185 55.5864C47.8636 55.0192 47.8101 54.4523 47.7555 53.8851C47.7242 53.5584 47.6931 53.2315 47.6615 52.9048C47.6141 52.4088 47.5974 51.9104 47.5688 51.4129C47.5548 51.1721 47.4822 50.9578 47.3084 50.784C47.142 50.6181 46.9142 50.5234 46.6793 50.5234C46.4446 50.5234 46.2163 50.6181 46.0504 50.784C45.8921 50.9424 45.7771 51.1844 45.7901 51.4129C45.8162 51.8825 45.8295 52.354 45.8728 52.8221C45.8933 53.0453 45.9144 53.2687 45.9349 53.4918C45.9937 54.1263 46.0524 54.7608 46.1116 55.3953C46.1495 55.8062 46.2156 56.2114 46.279 56.6193C46.3517 57.0881 46.4155 57.5594 46.4985 58.0265C46.5802 58.4873 46.6573 58.9495 46.7481 59.4088C46.8482 59.9131 46.9357 60.4272 47.0995 60.9159C47.1719 61.132 47.2933 61.3113 47.4939 61.4285C47.6921 61.5448 47.9339 61.5763 48.1553 61.5151C48.3699 61.4562 48.5557 61.3125 48.6682 61.1207C48.7886 60.9144 48.806 60.6883 48.7546 60.4593C48.6594 60.0335 48.5911 59.6014 48.5165 59.1717C48.4387 58.7246 48.3609 58.2778 48.2828 57.831Z" fill="#FFD34E"/>
<path d="M33.5156 58.633C33.5763 58.3597 33.6458 58.0922 33.7202 57.8221C33.7703 57.64 33.8205 57.458 33.8707 57.2759C33.9377 57.0324 34.017 56.7931 34.0936 56.5524C34.3329 55.7962 34.6138 55.0553 34.918 54.3229C35.078 53.9512 35.2571 53.5874 35.4935 53.2585C35.6264 53.1012 35.7739 52.961 35.9332 52.831C35.9746 52.8009 36.0162 52.7711 36.0583 52.742C36.1097 52.706 36.1721 52.6849 36.2293 52.66C36.3629 52.6015 36.4662 52.4385 36.5029 52.3044C36.545 52.1508 36.5235 51.9832 36.4427 51.8456C36.3649 51.7125 36.2359 51.6132 36.0872 51.5721C36.0343 51.565 35.9817 51.5581 35.9288 51.5508C35.8216 51.551 35.7213 51.5784 35.6283 51.632C35.5214 51.6788 35.4309 51.7314 35.3359 51.7996C35.2131 51.888 35.0944 51.9829 34.9794 52.0808C34.7516 52.2746 34.5646 52.509 34.3943 52.7537C34.075 53.213 33.8648 53.745 33.6556 54.2601C33.4527 54.7607 33.2454 55.2596 33.0651 55.7691C32.9268 56.1582 32.7962 56.5506 32.6716 56.9446C32.5427 57.3513 32.4073 57.7558 32.2941 58.1671C32.2397 58.3651 32.1817 58.5618 32.1362 58.7622C32.1098 58.8792 32.0831 58.9956 32.0564 59.1121C32.0249 59.2513 32.008 59.396 31.9901 59.5369C31.9718 59.6803 31.9623 59.8176 31.9738 59.9617C31.9889 60.1513 32.0388 60.3143 32.1768 60.4523C32.3063 60.5818 32.4844 60.6557 32.6677 60.6557C32.851 60.6557 33.0286 60.582 33.1581 60.4523C33.244 60.3657 33.3039 60.2637 33.3367 60.146C33.3671 60.0329 33.3693 59.9199 33.3441 59.8066C33.3375 59.6813 33.3465 59.5557 33.3605 59.431C33.4067 59.1637 33.4564 58.899 33.5156 58.633Z" fill="#FFD34E"/>
<path d="M20.2676 53.1318C20.3665 53.1894 20.4734 53.2182 20.5884 53.2185C20.7029 53.2182 20.8099 53.1894 20.9087 53.1318C21.2951 52.9562 21.5951 52.6292 21.8973 52.3385C22.0649 52.1775 22.2316 52.0156 22.3985 51.8538C22.7322 51.5311 23.0709 51.2139 23.4078 50.8946C23.7698 50.552 24.1427 50.2205 24.5102 49.8835C24.8034 49.6146 25.1009 49.3498 25.397 49.0841C25.6721 48.8374 25.9469 48.5908 26.2219 48.3439C26.6736 47.9387 27.1263 47.531 27.6042 47.1571C27.692 47.0903 27.7784 47.0223 27.8614 46.9496C27.889 46.9254 27.9164 46.9009 27.9436 46.8767C27.95 46.8848 27.9571 46.8926 27.9642 46.9C28.017 46.9528 28.089 46.9827 28.1633 46.9827C28.2309 46.9827 28.3185 46.955 28.3623 46.9C28.4443 46.7977 28.527 46.6956 28.6094 46.5936C28.6591 46.5314 28.6938 46.473 28.6938 46.39C28.6938 46.3159 28.664 46.2378 28.6094 46.1864C28.5399 46.1213 28.4724 46.0582 28.3772 46.032C28.3456 46.0232 28.3126 46.0195 28.2793 46.0195C28.1876 46.0195 28.0921 46.0482 28.0116 46.0814C27.7772 46.1788 27.5876 46.3509 27.3913 46.5082C27.2849 46.5877 27.175 46.6628 27.0681 46.7419C26.9396 46.8366 26.8141 46.9347 26.6885 47.0331C26.4199 47.2435 26.158 47.4625 25.8935 47.6778C25.7318 47.81 25.571 47.9424 25.41 48.0757C24.9842 48.4276 24.5584 48.7797 24.1324 49.1316C23.4025 49.7345 22.6671 50.3298 21.9279 50.921C21.9047 50.9396 21.8817 50.9582 21.8587 50.9766C21.6786 51.1146 21.4987 51.2528 21.3186 51.3908C21.2141 51.4711 21.1064 51.5482 21.0005 51.627C20.8476 51.7403 20.6934 51.8518 20.5238 51.939C20.4893 51.9507 20.4546 51.961 20.4191 51.971C20.0858 52.0638 19.8832 52.4181 19.9754 52.7526C20.0192 52.9111 20.1257 53.0489 20.2676 53.1318Z" fill="#FFD34E"/>
<path d="M16.2597 42.4549C18.5056 42.0215 20.7502 41.585 23 41.1729C23.2192 41.133 23.4272 40.9468 23.5359 40.7609C23.657 40.5536 23.6903 40.3013 23.6264 40.0698C23.5648 39.8457 23.4145 39.6512 23.2141 39.5337C23.071 39.4498 22.9268 39.418 22.7766 39.418C22.6944 39.418 22.6102 39.4275 22.5233 39.4434C21.1841 39.6884 19.8468 39.9394 18.51 40.1971C17.8596 40.3226 17.2094 40.4481 16.559 40.5737C16.2881 40.6258 16.0155 40.6733 15.7454 40.731C14.7624 40.9402 13.78 41.1497 12.7972 41.3589C12.4466 41.4335 12.0969 41.514 11.7467 41.5921C11.493 41.6486 11.239 41.7054 10.985 41.7617C10.5964 41.8485 10.2108 41.942 9.8173 42.0027C9.75172 42.0115 9.68613 42.0203 9.6208 42.0291C9.47741 42.0692 9.3531 42.1417 9.24763 42.2466C9.0898 42.4045 9 42.6213 9 42.8447C9 43.0678 9.09005 43.2846 9.24763 43.4425C9.41109 43.6059 9.61787 43.6806 9.84568 43.6901C10.3799 43.7126 10.9199 43.5881 11.4401 43.4772C11.714 43.4187 11.9883 43.3607 12.2623 43.3023C12.6262 43.2249 12.9901 43.1476 13.3542 43.0705C13.9571 42.9428 14.5601 42.8153 15.1632 42.6873C15.5281 42.6098 15.8929 42.5256 16.2597 42.4549Z" fill="#FFD34E"/>
<path d="M14.5392 30.9948C15.0091 31.1167 15.4911 31.1894 15.9697 31.2667C16.4109 31.3381 16.8526 31.4062 17.2945 31.4722C18.2841 31.6208 19.2729 31.7727 20.2618 31.9252C21.1517 32.0622 22.041 32.2017 22.9305 32.3421C23 32.3517 23.0692 32.361 23.1387 32.3703C23.2801 32.3695 23.4123 32.3341 23.5344 32.2631C23.7096 32.1608 23.8405 31.9907 23.8946 31.795C23.9504 31.5924 23.9215 31.3719 23.8155 31.1911C23.7223 31.032 23.5368 30.8607 23.3469 30.8309C21.1187 30.4778 18.89 30.1156 16.6512 29.833C16.0109 29.7523 15.3702 29.6634 14.7262 29.6133C14.5994 29.6135 14.4807 29.6458 14.3711 29.7092C14.2138 29.8015 14.0961 29.9539 14.0476 30.1296C13.9473 30.4947 14.1683 30.8987 14.5392 30.9948Z" fill="#FFD34E"/>
<path d="M14.4247 16.3316C14.5607 16.4403 14.7012 16.5281 14.85 16.6174C15.0359 16.729 15.2327 16.823 15.4255 16.9223C15.6834 17.055 15.9411 17.1876 16.1992 17.3205C16.6326 17.5436 17.0765 17.7484 17.5152 17.9613C17.8987 18.1475 18.2826 18.3323 18.6663 18.5175C19.015 18.6859 19.3688 18.8459 19.7107 19.0282C20.2532 19.3174 20.7964 19.6066 21.3392 19.8961C22.0843 20.2935 22.8181 20.7247 23.4928 21.2341C24.1767 21.7768 24.7848 22.3998 25.3672 23.0483C25.5847 23.2903 25.9907 23.269 26.2116 23.0483C26.3232 22.9367 26.3866 22.7838 26.3866 22.6259C26.3866 22.461 26.3195 22.3245 26.2116 22.2038C25.7743 21.7154 25.3243 21.241 24.8393 20.7993C24.3289 20.3349 23.7739 19.9265 23.1937 19.5531C22.8803 19.3512 22.5632 19.1527 22.2365 18.9726C21.9893 18.8366 21.7427 18.7003 21.496 18.5642C21.2041 18.4035 20.9127 18.243 20.621 18.0822C20.4879 18.0088 20.3565 17.9295 20.2202 17.8615C19.7489 17.6261 19.2803 17.3853 18.8102 17.147C18.2829 16.8798 17.7587 16.6067 17.2343 16.3341C17.0317 16.2289 16.8323 16.12 16.6331 16.0089C16.6434 16.0082 16.6539 16.0074 16.6642 16.0067C16.8457 15.9937 17.0043 15.9431 17.136 15.8112C17.2605 15.6866 17.3315 15.5156 17.3315 15.3394C17.3315 14.9873 17.0359 14.6719 16.6784 14.6719C16.6735 14.6719 16.6688 14.6719 16.6639 14.6721C16.4413 14.6775 16.2181 14.69 15.9959 14.71C15.8777 14.7206 15.7595 14.7313 15.6413 14.7419C15.4475 14.7595 15.255 14.7761 15.0616 14.8023C14.8899 14.8253 14.7306 14.873 14.5651 14.9224C14.3882 14.9753 14.2375 15.0861 14.1435 15.2469C14.0794 15.3568 14.0476 15.4757 14.0469 15.6032C14.0476 15.7304 14.0794 15.8493 14.1435 15.9592C14.2108 16.1036 14.2987 16.2306 14.4247 16.3316Z" fill="#FFD34E"/>
<path d="M26.1173 10.8648C26.2362 11.0537 26.3473 11.2507 26.4762 11.4332C26.7936 11.8825 27.1053 12.3364 27.4335 12.7781C27.8522 13.3416 28.2745 13.9027 28.7172 14.4476C29.1383 14.9657 29.5859 15.4624 30.0413 15.9501C30.4981 16.4387 30.9677 16.9156 31.4412 17.3884C31.9144 17.8616 32.408 18.3109 32.8979 18.7668C33.0371 18.8962 33.206 18.9743 33.3985 18.9743C33.5855 18.9743 33.7671 18.8989 33.8992 18.7668C34.1652 18.501 34.1811 18.029 33.8992 17.7657C33.5084 17.4004 33.1086 17.0448 32.7286 16.6682C32.3295 16.2728 31.936 15.8713 31.5469 15.4663C30.8135 14.7029 30.1063 13.9159 29.4547 13.0815C29.1295 12.6584 28.8043 12.2317 28.4994 11.7937C28.3039 11.513 28.1081 11.2326 27.9126 10.9517C27.7937 10.7814 27.6789 10.6111 27.5669 10.4361C27.364 10.1192 27.1567 9.80724 26.9891 9.47054C26.9855 9.45904 26.9823 9.44754 26.9793 9.43604C26.959 9.2672 26.9064 9.12038 26.7801 8.99363C26.6497 8.86345 26.4706 8.78906 26.2861 8.78906C26.1016 8.78906 25.9225 8.86345 25.7921 8.99363C25.6563 9.12943 25.5965 9.2995 25.5872 9.48816C25.5696 9.85178 25.7341 10.1836 25.9 10.4973C25.9668 10.6233 26.0409 10.7434 26.1173 10.8648Z" fill="#FFD34E"/>
<path d="M32.0089 1.42266C32.0294 1.5614 32.0776 1.69818 32.1222 1.83081C32.1838 2.01506 32.2558 2.19712 32.3294 2.37672C32.4432 2.6547 32.5572 2.93243 32.671 3.2104C32.8577 3.66553 33.0535 4.11651 33.2485 4.56846C33.6087 5.40287 33.9657 6.23826 34.3218 7.07438C34.6056 7.74069 34.89 8.40699 35.1733 9.07354C35.4537 9.88226 35.7391 10.689 36.0215 11.4968C36.1923 11.9844 36.3628 12.4724 36.5339 12.96C36.7237 13.5025 36.8605 14.0585 37.0118 14.613C37.1365 15.0727 37.6294 15.3505 38.0879 15.224C38.5492 15.0972 38.823 14.6081 38.699 14.1478C38.5771 13.6966 38.4807 13.2326 38.3277 12.7905C38.2764 12.6424 38.2252 12.4939 38.1741 12.3459C37.9666 11.7468 37.7593 11.1478 37.552 10.5493C37.3597 9.99311 37.1676 9.43692 36.9751 8.88072C36.9053 8.67983 36.8307 8.48603 36.7489 8.28979C36.3021 7.21533 35.8556 6.14087 35.4082 5.06666C35.1009 4.32841 34.7879 3.59139 34.4984 2.84605C34.3888 2.56343 34.2792 2.28105 34.1693 1.99867C34.0426 1.672 33.9019 1.34191 33.8214 0.99958C33.8219 0.973153 33.8236 0.946481 33.8263 0.918585C33.8255 0.752437 33.7837 0.597791 33.7005 0.4544C33.5803 0.248611 33.3807 0.0946967 33.1506 0.0313206C33.074 0.0102768 32.9955 0.000244695 32.9169 0C32.5142 0 32.1139 0.265004 32.0187 0.674135C31.9935 0.782779 31.9553 0.951621 31.9616 1.04534C31.9702 1.1716 31.99 1.29713 32.0089 1.42266Z" fill="#FFD34E"/>
<path d="M5.38161 76.0849C7.57561 74.9893 10.3362 75.1245 12.4127 76.4291C11.358 72.6308 14.6652 68.6396 18.524 67.8332C22.3826 67.0266 26.3698 68.6589 29.5893 70.9338C25.9928 67.2684 25.0499 61.2631 27.3497 56.6718C29.6496 52.0804 35.0239 49.2396 40.1129 49.9251C40.7283 50.0081 41.4392 50.1097 41.8951 49.6882C42.3036 49.3108 42.3156 48.6836 42.3426 48.1279C42.5611 43.6352 46.0572 39.4496 50.4791 38.6256C54.9009 37.8015 59.77 40.5822 61.1287 44.8702C61.2536 41.7714 63.2288 38.9532 65.7961 37.2133C68.3631 35.4731 71.4605 34.6835 74.5353 34.2794C80.439 33.5037 86.9138 34.2145 91.4668 38.0519C96.0198 41.8893 97.6084 49.4978 93.5997 53.9005C94.277 52.5984 96.0554 52.0077 97.3773 52.6458C98.6991 53.2838 99.343 55.0436 98.745 56.384C100.712 55.4933 103.228 56.022 104.671 57.6291C106.113 59.2362 106.367 61.7947 105.27 63.6543C107.133 62.5289 109.643 62.5809 111.458 63.7825C113.273 64.984 114.302 67.2742 113.994 69.4291C114.979 64.2186 121.44 61.2178 126.433 63.0032C131.426 64.7885 134.495 70.2695 134.468 75.5721C136.77 74.611 139.018 77.4707 138.998 79.9649C138.967 83.9237 135.719 87.3752 131.923 88.5007C128.128 89.6264 123.978 88.7772 120.395 87.0945C115.154 91.5644 107.955 93.6486 101.137 92.6697C94.3192 91.6908 87.9971 87.6649 84.2261 81.9011C81.4054 86.0664 76.4336 88.6854 71.4031 88.6556C67.0908 94.221 58.6443 96.0772 52.3959 92.8325C51.6484 94.9552 49.3836 96.1613 47.1907 96.6664C39.4609 98.4473 30.8121 92.9755 29.1107 85.2277C26.7563 91.869 20.5585 97.3622 13.5153 97.572C8.17006 97.7311 2.76013 94.2558 0.726514 89.2986C-1.16533 84.6866 0.724762 78.4105 5.38161 76.0849Z" fill="white"/>
<path d="M134.468 75.5243C134.496 70.2216 131.426 64.7407 126.433 62.9553C125.386 62.5811 124.275 62.4179 123.163 62.4405C125.021 63.2979 126.729 64.3872 127.99 65.977C130.139 68.6872 130.218 73.3315 127.25 75.1093C125.922 75.9054 123.97 75.8593 123.039 74.6211C123.521 77.3427 122.074 80.2963 119.627 81.5826C117.181 82.869 113.927 82.3872 111.958 80.4472C110.292 83.1936 107.019 84.9696 103.83 84.576C100.642 84.1824 97.807 81.4669 97.5503 78.2645C97.2938 75.0622 99.8863 71.8168 103.093 71.6147C101.494 71.7699 99.8508 70.7885 99.2293 69.3081C98.6079 67.8276 99.0584 65.967 100.289 64.935C101.186 64.182 102.368 63.8886 103.477 63.5129C104.243 63.2538 104.991 62.9441 105.717 62.5903C106.243 60.8924 105.864 58.9111 104.671 57.581C103.228 55.9739 100.712 55.4453 98.7451 56.336C99.3432 54.9956 98.6992 53.2357 97.3774 52.5977C96.3607 52.107 95.0758 52.3452 94.2276 53.0729C96.8082 49.4531 96.2173 44.1985 93.6241 40.4062C93.7131 41.5416 93.5368 42.6938 93.0616 43.7324C91.7809 46.5325 88.4593 48.2338 85.4386 47.6368C86.8455 48.6819 87.0664 50.8204 86.3315 52.4114C85.5965 54.0025 84.1285 55.1292 82.6125 56.0083C79.2778 57.942 75.4334 58.987 71.5789 59.0074C74.1012 59.8928 76.8409 59.8677 79.4704 60.3488C82.0999 60.8298 84.8561 62.0237 86.0332 64.4236C87.7211 67.8648 85.4001 71.9509 82.6196 74.589C80.2056 76.8793 76.6382 78.798 73.6714 77.2913C75.2931 78.0658 75.4824 80.4706 74.506 81.9795C73.5299 83.4884 71.8087 84.3114 70.1752 85.0606C68.8278 85.6786 67.4284 86.3087 65.9458 86.3169C64.4634 86.3252 62.8674 85.5327 62.425 84.1178C60.3865 85.7735 58.105 87.3184 55.4998 87.6508C52.8947 87.9833 49.9245 86.7445 49.0482 84.2689C46.0586 86.7924 41.1431 86.5946 38.366 83.8388C35.589 81.0832 35.353 76.1692 37.8532 73.1601C35.96 73.8759 33.7907 73.8303 31.9292 73.0354C31.0425 76.4897 27.2935 78.9445 23.7727 78.3761C23.8968 81.0225 22.2103 83.6592 19.7559 84.6561C17.3014 85.6531 14.2539 84.9394 12.4974 82.9561C11.7064 85.9195 8.27554 87.8276 5.32182 87.166C2.6712 86.5722 0.791882 83.9521 1.26724 81.2676C1.47241 80.1091 2.04421 79.1371 2.64299 78.1762C0.0611713 81.1368 -0.734815 85.6889 0.72606 89.2502C2.75955 94.2072 8.16965 97.6827 13.515 97.5234C20.5581 97.3137 26.7559 91.8206 29.1103 85.1793C30.8119 92.9269 39.4605 98.3989 47.1904 96.618C49.3834 96.1127 51.6481 94.9068 52.3955 92.784C58.644 96.0287 67.0905 94.1725 71.4029 88.6071C76.4334 88.637 81.4052 86.018 84.2259 81.8527C87.9969 87.6165 94.319 91.6424 101.137 92.6214C107.955 93.6003 115.154 91.5161 120.395 87.046C123.978 88.729 128.128 89.578 131.923 88.4523C135.719 87.3266 138.967 83.8753 138.998 79.9164C139.018 77.4229 136.77 74.5632 134.468 75.5243Z" fill="#D4D4D4"/>
<path d="M42.73 68.0532C43.8886 65.3375 47.2025 63.5306 49.9554 64.5979C49.761 61.5863 52.316 58.6672 55.3267 58.4609C58.3375 58.2547 61.2665 60.7982 61.4845 63.8082C60.4759 61.7212 57.8297 60.5898 55.6242 61.3026C53.4186 62.0154 51.9349 64.4815 52.3386 66.764C49.463 65.8675 46.0877 67.69 45.0753 70.5268C44.0309 73.4528 45.4489 76.6013 47.8552 78.3495C43.1604 77.6947 40.8944 72.3554 42.73 68.0532Z" fill="#D4D4D4"/>
<path d="M64.7753 51.5009C67.0852 52.813 68.7855 55.3209 68.7396 57.9771C69.6221 55.8205 69.3343 53.2248 68.0011 51.3138C66.6677 49.4028 64.3308 48.2367 62.0019 48.3206C59.917 48.3958 55.9834 49.3439 54.7188 51.1288C58.3375 50.7703 61.2042 49.4724 64.7753 51.5009Z" fill="#D4D4D4"/>
</svg>
