<svg width="32" height="36" viewBox="0 0 32 36" fill="none" xmlns="http://www.w3.org/2000/svg">
<path d="M31.9382 10.9539C32.0128 10.8413 32.0128 10.7677 31.9755 10.6926C31.9382 10.6175 31.901 10.5439 31.7906 10.4688C31.6787 10.3938 31.6056 10.3562 31.4938 10.3201C31.4565 10.3201 31.4192 10.2826 31.3819 10.2826H31.2701C31.2328 10.2826 31.2328 10.2826 31.1955 10.245C31.0837 10.1324 30.936 10.1324 30.8242 10.245C30.8242 10.2075 30.8615 10.17 30.8987 10.17C31.0106 10.1324 31.0464 10.0574 31.0106 9.94619C31.0106 9.87112 30.9733 9.79749 30.936 9.72241C30.8615 9.5737 30.7511 9.53616 30.5647 9.64734C30.5647 9.6098 30.6019 9.6098 30.6392 9.57226C30.7869 9.53473 30.7511 9.42356 30.7138 9.38602C30.6765 9.23731 30.5661 9.16224 30.4915 9.1247C30.3797 9.08716 30.2693 9.08716 30.1575 9.16224C30.0456 9.23731 29.8979 9.31094 29.7861 9.38602L29.637 9.53617C29.5997 9.61124 29.5997 9.61124 29.4893 9.5737C29.3416 9.49863 29.1925 9.46109 29.0449 9.46109C29.0076 9.46109 28.933 9.46109 28.8972 9.42355C28.6377 9.31094 28.49 9.42355 28.4154 9.53617C28.3409 9.61124 28.3036 9.68487 28.2305 9.79749C28.1559 9.94619 28.0082 10.0213 27.8591 10.0588C27.7114 10.0963 27.5623 10.1339 27.4519 10.2075C27.3774 10.245 27.3042 10.3201 27.2669 10.3938C27.1924 10.5425 27.1193 10.6551 26.9702 10.7301C26.8225 10.8052 26.7479 10.9164 26.8225 11.0665V11.1041C26.7852 11.2167 26.7106 11.2528 26.6002 11.2528C26.3407 11.2528 26.1558 11.3279 26.0066 11.439C25.8948 11.4766 25.859 11.4766 25.7844 11.4766C25.6726 11.4766 25.6367 11.5516 25.5994 11.6253C25.5622 11.7379 25.5622 11.8866 25.6367 11.9617C25.674 12.0367 25.7844 12.1104 25.9335 12.1104H26.0812H26.1185V12.1854C26.0812 12.2981 26.0812 12.4092 26.1557 12.5218C26.0812 12.5594 26.0439 12.5594 25.9708 12.5969C25.8962 12.6344 25.8231 12.6344 25.7485 12.6344C25.6367 12.6344 25.5263 12.5969 25.4145 12.6344C25.1177 12.7471 24.8209 12.7095 24.5241 12.6344C24.3391 12.5594 24.19 12.6344 24.0796 12.7471C24.0051 12.8597 23.8574 12.8958 23.7083 12.8597C23.486 12.8221 23.2638 12.7471 23.0043 12.6359C22.8566 12.5984 22.782 12.4872 22.782 12.337C22.782 12.2244 22.8193 12.1133 22.8193 12.0006C22.8566 11.7769 22.8566 11.5906 22.8193 11.4029C22.782 11.2542 22.6716 11.1791 22.5598 11.1416C22.4479 11.1041 22.3375 11.1791 22.2257 11.2542C22.078 11.4029 21.9662 11.5155 21.8185 11.5906C21.7067 11.6657 21.6335 11.7769 21.7067 12.0007C21.7439 12.0757 21.7812 12.1133 21.7812 12.1494L21.8185 12.2244C21.8558 12.262 21.8558 12.337 21.8185 12.3731C21.6708 12.5594 21.7067 12.672 21.8185 12.8582C21.8558 12.8958 21.8558 12.9708 21.8558 13.0069C21.8558 13.1196 21.8185 13.1932 21.7439 13.2307C21.6694 13.2683 21.5963 13.2683 21.4844 13.2683H21.4471H21.4099H21.3726C21.2607 13.2683 21.1131 13.2307 21.0012 13.3433C20.8536 13.1571 20.7417 13.1195 20.5195 13.2307C20.4076 13.2683 20.3345 13.3058 20.26 13.2683C20.2227 13.2683 20.1481 13.2307 20.1123 13.2307C20.075 13.2307 20.0005 13.1932 19.9646 13.1932C19.8169 13.1556 19.6678 13.1181 19.5201 13.2307H19.4829L19.4456 13.1932C19.4456 13.1932 19.4456 13.1556 19.4083 13.1556V13.1181C19.371 12.9694 19.2965 12.8943 19.1861 12.8568C19.0742 12.8193 19.0011 12.8568 18.852 12.9319C18.7774 12.9694 18.7043 12.9694 18.6298 12.8943C18.5552 12.8193 18.4448 12.7081 18.2957 12.7081V12.6705C18.333 12.5218 18.2957 12.4092 18.2211 12.3341C18.1466 12.2591 18.0362 12.1854 17.9243 12.1854H17.8125H17.7379C17.7007 12.1854 17.6261 12.1854 17.5903 12.1479C17.4784 12.1104 17.3307 12.1104 17.2189 12.1854C17.1816 12.223 17.1071 12.223 17.0339 12.1854C16.9967 12.1854 16.9967 12.1854 16.9594 12.1479C16.9221 12.1104 16.8476 12.1104 16.8117 12.0728C16.7372 12.0353 16.664 12.0353 16.6268 12.0728C16.5895 12.1104 16.5522 12.1479 16.5522 12.1854C16.5149 12.1854 16.5149 12.1479 16.4776 12.1479L16.4404 12.1104C16.3658 12.0728 16.3285 12.0728 16.2554 12.0353C16.1808 12.0353 16.1436 11.9978 16.1077 11.9227C16.1808 11.9241 16.1077 11.8491 15.9586 11.8491H15.8109C15.7364 11.8491 15.6632 11.8491 15.626 11.774C15.5887 11.7364 15.5141 11.6989 15.4783 11.6614C15.3664 11.5863 15.256 11.5863 15.2188 11.6614C15.1815 11.6989 15.1442 11.6989 15.0711 11.6614C15.0338 11.6238 14.9593 11.5863 14.9234 11.5488C14.8489 11.5112 14.8116 11.4361 14.7384 11.4001C14.7012 11.3625 14.6266 11.325 14.5535 11.325C14.5162 11.325 14.4789 11.2874 14.4789 11.2499C14.4417 11.1373 14.4044 11.0637 14.294 11.0261L14.1463 10.951C14.0345 10.9135 13.9613 10.876 13.8495 10.8384C13.8122 10.8009 13.7377 10.8009 13.7018 10.7634C13.59 10.6507 13.5169 10.5396 13.3677 10.502C13.3677 10.427 13.4423 10.3894 13.4796 10.3158C13.5914 10.2032 13.6273 10.092 13.5914 9.94188C13.5541 9.8668 13.5914 9.82926 13.6287 9.82926C13.666 9.79173 13.7032 9.75419 13.7032 9.68056C13.7032 9.53185 13.7778 9.41924 13.9255 9.30663C13.9628 9.2691 13.9628 9.2691 14 9.23156C14.0373 9.19403 14.0746 9.15649 14.1477 9.11895L14.185 9.08141C14.2223 9.08141 14.2223 9.04388 14.2596 9.04388C14.3341 9.00634 14.3714 8.93126 14.3341 8.85763C14.3341 8.78256 14.2968 8.74502 14.2223 8.70893C14.185 8.67139 14.1477 8.63385 14.0746 8.59631C14.0373 8.55878 14.0373 8.55878 14 8.52124H13.9628C13.9255 8.4837 13.8882 8.44617 13.8509 8.44617C13.7764 8.40863 13.666 8.37109 13.5914 8.37109L13.5168 8.33356V8.29602C13.5168 8.10978 13.4423 8.0347 13.2573 8.0347H13.2201C13.1455 7.886 13.0351 7.81092 12.8487 7.84846C12.7741 7.84846 12.7369 7.84846 12.6637 7.77339V7.73585C12.6265 7.69831 12.5892 7.62324 12.5161 7.58714C12.4788 7.54961 12.4415 7.51207 12.4415 7.47453C12.367 7.28829 12.2565 7.21321 12.0702 7.25075C12.0329 7.25075 11.9956 7.28829 11.9583 7.28829C11.9956 7.25075 12.0329 7.13958 11.921 7.02697C11.8838 6.98943 11.8838 6.9519 11.921 6.91436C11.9956 6.72811 11.9583 6.6155 11.8092 6.50432C11.7347 6.42925 11.6974 6.35562 11.6974 6.243C11.6974 6.20547 11.7347 6.0943 11.6601 6.05676L11.7347 5.98169L11.7719 6.01922C11.8092 6.05676 11.8092 6.0943 11.8465 6.13184C11.9583 6.28054 12.106 6.28054 12.2537 6.20691L12.291 6.16937C12.3282 6.13184 12.3655 6.13184 12.4028 6.0943C12.4401 6.0943 12.4401 6.05676 12.4774 6.05676L12.5146 6.01923C12.6265 6.01923 12.6996 5.94415 12.6996 5.87052C12.7369 5.79545 12.6996 5.72182 12.6623 5.64674C12.5878 5.57167 12.5878 5.53413 12.5878 5.42296V5.38542V5.34789C12.5878 5.23527 12.5878 5.16164 12.5132 5.08657C12.4759 5.04903 12.4014 5.0115 12.291 5.0115C12.2537 5.0115 12.2537 5.0115 12.2537 4.97396C12.2537 4.93642 12.2164 4.89889 12.1791 4.82525L12.1419 4.78772C12.1419 4.71265 12.1046 4.60147 12.0673 4.56394C12.0673 4.56394 12.0673 4.5264 12.03 4.5264C12.1046 4.45133 12.1419 4.3777 12.1419 4.26508C12.2164 4.22755 12.2537 4.22755 12.3268 4.22755C12.5863 4.22755 12.6982 4.15247 12.7713 3.89115C12.8086 3.74245 12.8831 3.66737 12.9935 3.5923C13.0308 3.55476 13.0681 3.55476 13.0681 3.51722C13.1054 3.47968 13.1426 3.47968 13.1799 3.44215C13.4022 3.32953 13.514 3.14329 13.514 2.88198V2.84445V2.76937C13.514 2.73184 13.5513 2.65676 13.5513 2.62067C13.6258 2.50806 13.6631 2.39689 13.5885 2.28427C13.6975 2.21786 13.623 2.14279 13.4753 2.14279C13.4007 2.14279 13.2903 2.10525 13.2158 2.06771C13.0681 1.99264 12.9562 1.84393 12.8444 1.69379C12.7326 1.58118 12.6222 1.54509 12.4731 1.58118C12.3985 1.58118 12.3612 1.61871 12.2881 1.65625C12.2508 1.65625 12.2136 1.69379 12.1763 1.69379H12.139C12.1017 1.69379 12.0272 1.73132 11.9913 1.73132C11.7691 1.76886 11.5841 1.84394 11.435 1.95511C11.2873 2.06772 11.1382 2.10381 10.9905 2.06772H10.8787H10.8042L10.6923 2.03018C10.5074 1.99265 10.321 1.95511 10.136 1.88148C10.0615 1.84394 9.98833 1.8064 9.95105 1.73277C9.8765 1.58407 9.80337 1.54653 9.65426 1.58407H9.5797C9.50515 1.58407 9.43202 1.58407 9.39474 1.54653C9.35746 1.509 9.35746 1.43392 9.35746 1.36029C9.35746 1.28521 9.39474 1.17404 9.43202 1.06143C9.4693 0.948819 9.4693 0.837651 9.43202 0.762578C9.35746 0.576333 9.24706 0.463724 9.06067 0.388655C9.02339 0.388655 9.02339 0.351118 8.98611 0.351118C8.80115 0.276045 8.65204 0.238505 8.54165 0.0898004C8.50437 0.0147273 8.39397 -0.0228129 8.31941 0.0147273C8.28213 0.0147273 8.28213 0.0147273 8.24485 0.0522639C8.20758 0.0522639 8.20758 0.0898004 8.1703 0.0898004H8.09574C7.98391 0.0147273 7.79895 -0.0228129 7.68854 0.0522639C7.57957 0.200968 7.43189 0.238509 7.32005 0.276045H6.87559H6.65335H6.61607C6.46839 0.276045 6.282 0.276045 6.13432 0.388658H6.05976H6.02248H5.91065H5.83609C5.68841 0.388658 5.57657 0.463731 5.50201 0.61244C5.50201 0.649976 5.46474 0.687513 5.42746 0.725053C5.2425 0.837666 5.16794 0.986371 5.16794 1.1726C5.16794 1.35885 5.27978 1.509 5.46474 1.62015C5.50201 1.62015 5.53929 1.65769 5.53929 1.65769C5.57657 1.65769 5.65113 1.69522 5.68697 1.73276C5.87194 1.84537 6.05832 1.95654 6.16873 2.1428C6.20601 2.18033 6.24329 2.21787 6.28057 2.25541C6.28057 2.25541 6.31785 2.25541 6.31785 2.29294C6.31785 2.29294 6.35512 2.33048 6.3924 2.33048C6.3924 2.33048 6.42968 2.33048 6.42968 2.36802C6.50423 2.48063 6.61464 2.55426 6.80103 2.5918C6.8383 2.5918 6.87558 2.62934 6.91286 2.62934C6.95014 2.62934 6.98742 2.66687 7.0247 2.66687C7.06198 2.66687 7.09926 2.70441 7.06198 2.77949C7.06198 2.85456 7.0247 2.8921 7.0247 2.96573C7.0247 3.00327 6.98742 3.07834 6.98742 3.11443C6.91287 3.37575 6.91287 3.59953 7.0247 3.82333C7.06198 3.8984 7.06198 4.00957 7.06198 4.08464V4.15972V4.71988V4.75742C7.06198 4.83249 7.06198 4.90612 6.98742 4.94366C6.95014 4.9812 6.91287 5.05628 6.95014 5.09237C6.98742 5.16744 7.06198 5.31615 7.24694 5.35369H7.28422V5.39122C7.24694 5.50384 7.32149 5.615 7.39605 5.65254C7.43333 5.69008 7.50789 5.69008 7.54373 5.72761C7.54373 5.72761 7.58101 5.72761 7.58101 5.76515V5.80269V5.95139C7.58101 5.98893 7.58101 6.02646 7.61829 6.064C7.65557 6.10154 7.69284 6.10154 7.73013 6.10154H7.87781H7.98964C8.10148 6.10154 8.1746 6.13908 8.24916 6.21415C8.21188 6.21415 8.1746 6.25169 8.13732 6.25169C8.02549 6.28923 7.91508 6.3643 7.76598 6.43793C7.58101 6.51301 7.4319 6.62418 7.32151 6.69925C7.24696 6.73679 7.24696 6.77433 7.24696 6.81187C7.24696 6.84941 7.24696 6.88694 7.32151 6.92448C7.46919 6.99956 7.46919 7.07318 7.39607 7.1858C7.32151 7.29841 7.24839 7.40958 7.17383 7.52219C7.13655 7.55973 7.09927 7.59726 7.06199 7.6348C6.80247 7.93366 6.54294 8.27007 6.4684 8.68007C6.13432 8.7176 5.98664 8.86631 5.83751 9.16517C5.80023 9.27778 5.76295 9.38895 5.72567 9.50156C5.65111 9.68781 5.54071 9.83796 5.35432 9.9116C5.24249 9.94913 5.16936 10.0242 5.05753 10.0603C4.87257 10.1729 4.72345 10.3216 4.65032 10.4703C4.61304 10.5454 4.53848 10.6566 4.50264 10.7692C4.35496 10.993 4.16856 11.1056 3.94634 11.1056C3.7241 11.1056 3.53913 11.1431 3.35274 11.2182H3.27818C3.1305 11.2557 3.09322 11.2182 3.01867 11.1056V11.068C2.98139 11.0305 2.98139 10.993 2.94411 10.9554C2.86956 10.8428 2.75915 10.8067 2.61004 10.8428C2.57276 10.8428 2.4982 10.8804 2.4982 10.9554C2.4982 10.993 2.46092 11.0305 2.46092 11.0305C2.27596 11.1056 2.23868 11.2543 2.2014 11.4044C2.16413 11.5531 2.12684 11.6282 1.97916 11.6658C1.75693 11.7408 1.64509 11.9271 1.60782 12.1509C1.57054 12.3371 1.57054 12.4872 1.68237 12.5984C1.75693 12.711 1.90461 12.7846 2.08958 12.8222H2.12686C2.16414 12.8222 2.20142 12.8222 2.2387 12.8597C2.2387 12.8597 2.27597 12.8597 2.27597 12.8973C2.27597 12.9348 2.2387 12.9723 2.2387 13.0099C2.20142 13.1225 2.16414 13.2336 2.16414 13.3838C2.12686 13.6826 2.2387 13.9064 2.57135 13.9815H2.60863C2.6459 13.9815 2.68318 13.9815 2.72046 14.019C2.79502 14.019 2.8323 14.0941 2.8323 14.1677V14.2053C2.8323 14.3179 2.86958 14.4666 2.90686 14.5792C2.98141 14.803 3.01869 15.0268 3.05453 15.2881C3.05453 15.4743 3.05454 15.4743 2.86957 15.5119C2.86957 15.5119 2.8323 15.5119 2.8323 15.4743C2.75774 15.3617 2.68462 15.3256 2.57278 15.3256C2.35054 15.3256 2.16557 15.3632 2.01648 15.4743C1.94192 15.5494 1.8688 15.5494 1.75696 15.4743C1.46016 15.3256 1.16336 15.2881 0.903856 15.2506C0.756176 15.2506 0.681617 15.2506 0.644339 15.3256C0.569783 15.4007 0.569783 15.4743 0.569783 15.6245V15.6996H0.532505H0.495227H0.420672C0.235711 15.6996 0.0493252 15.8122 0.0134642 15.9984C-0.0238136 16.1471 0.0134642 16.3348 0.161144 16.446C0.198422 16.446 0.198422 16.4835 0.198422 16.521C0.2357 16.7824 0.420661 16.895 0.569768 16.9686C0.644324 17.0061 0.717448 17.0437 0.792008 17.1173C0.829286 17.1548 0.866563 17.1548 0.903845 17.1924C0.941122 17.2299 1.01568 17.2674 1.05152 17.2674C1.12608 17.305 1.1992 17.3801 1.31104 17.4161C1.45872 17.4912 1.57056 17.4912 1.71825 17.4161C1.7928 17.3786 1.83009 17.3786 1.90321 17.3411C2.01505 17.3035 2.12545 17.3035 2.2 17.3411C2.16273 17.3786 2.12545 17.3786 2.08817 17.3786C1.97633 17.3786 1.86593 17.4537 1.79137 17.5273C1.71682 17.6024 1.64369 17.6399 1.53186 17.676H1.4573C1.34546 17.676 1.23506 17.7136 1.12322 17.7511C1.04867 17.7886 1.04867 17.7886 0.975545 17.676C0.900989 17.5634 0.827865 17.5273 0.67875 17.5634C0.566913 17.6009 0.53107 17.676 0.53107 17.8247C0.53107 17.9734 0.605626 18.1236 0.716031 18.2348C0.757611 18.2708 0.757611 18.2708 0.794889 18.3084C0.832167 18.3459 0.869444 18.3835 0.906726 18.421C1.09169 18.6448 1.2408 18.8685 1.38848 19.0563L1.68528 19.4302C1.72255 19.5053 1.79711 19.5428 1.83296 19.6164C2.2043 20.0265 2.61151 20.1391 3.13056 19.9528C3.16784 19.9153 3.2424 19.9153 3.27824 19.8778C3.39008 19.8402 3.4632 19.8027 3.57503 19.7651C3.75999 19.7276 3.90911 19.6525 4.05679 19.5789C4.09407 19.5414 4.13134 19.5414 4.20447 19.5038C4.27902 19.4663 4.35215 19.3912 4.35215 19.28V19.205V19.0187C4.38943 18.87 4.35215 18.7574 4.27759 18.6448V18.6073L4.31487 18.5697C4.46255 18.4947 4.49983 18.3459 4.46255 18.1958L4.57439 18.2333V18.2709V18.4196V18.4947C4.49983 18.756 4.49983 18.8311 4.68622 18.9422C4.53855 19.0909 4.50126 19.2035 4.61167 19.4273C4.64895 19.5024 4.68622 19.576 4.72351 19.6511C4.79806 19.7637 4.79806 19.8749 4.79806 20.025C4.79806 20.0625 4.79806 20.1376 4.76078 20.1737C4.72351 20.36 4.68623 20.5101 4.6131 20.6964C4.53855 20.8451 4.50127 20.9952 4.53855 21.1815C4.6131 21.4803 4.6131 21.8167 4.6131 22.078C4.6131 22.1156 4.6131 22.2267 4.72494 22.2643V22.3018C4.6131 22.4881 4.6131 22.6382 4.72494 22.862C4.76222 22.8995 4.76222 22.9746 4.76222 23.0107C4.76222 23.2345 4.7995 23.4207 4.83678 23.6084V23.6459C4.87405 23.7946 4.91133 23.9448 4.91133 24.0935V24.3548V24.6537C4.94861 24.9525 5.02317 25.2889 5.05901 25.5863V25.6238C5.09629 25.8476 5.17085 26.0339 5.28125 26.1465L5.31853 26.184C5.39308 26.2591 5.43036 26.2966 5.39308 26.3703V26.4453C5.39308 26.4829 5.39308 26.4829 5.43036 26.5204C5.43036 26.5955 5.46764 26.633 5.46764 26.7067C5.50492 27.0806 5.6526 27.4156 5.9121 27.6393C6.02394 27.7519 6.05978 27.8631 6.09706 28.0132C6.13434 28.1619 6.13434 28.3496 6.2089 28.4983C6.32074 28.7221 6.35658 28.9459 6.35658 29.1697C6.35658 29.5061 6.39386 29.8049 6.54154 30.1023C6.68922 30.4012 6.83834 30.7 6.986 31.035C7.02328 31.11 7.09784 31.1837 7.17097 31.2587C7.24552 31.2963 7.2828 31.3714 7.2828 31.4825C7.32008 31.6312 7.35736 31.7063 7.39464 31.8189C7.50648 32.0052 7.5796 32.1928 7.65416 32.3791C7.69144 32.4917 7.72871 32.5653 7.766 32.6779C7.80327 32.753 7.80327 32.7906 7.84055 32.8642C7.87783 32.9393 7.87783 33.0504 7.91511 33.1255C7.91511 33.163 7.95238 33.2381 7.95238 33.3118C7.95238 33.3868 7.95238 33.4244 7.98966 33.498C8.02694 33.6106 8.02694 33.6842 8.06422 33.7968C8.10149 33.8719 8.10149 33.9456 8.10149 34.0206C8.13877 34.1332 8.13877 34.2069 8.17605 34.3195C8.21333 34.5057 8.25061 34.7295 8.32373 34.9172C8.43557 35.2911 8.62053 35.5525 8.91733 35.6636C9.10229 35.7387 9.2514 35.8123 9.43638 35.9249C9.51093 35.9625 9.62134 36 9.73317 36C9.77045 36 9.80773 36 9.88085 35.9625C10.0658 35.8874 10.2522 35.8138 10.4372 35.6261C10.5117 35.551 10.5117 35.4398 10.4744 35.3647V35.3272C10.4744 35.2521 10.4372 35.1785 10.4372 35.1034C10.4372 34.9908 10.4744 34.9172 10.5117 34.8046V34.767C10.549 34.6544 10.6235 34.6183 10.7339 34.6183C10.9562 34.6559 11.1784 34.5808 11.3648 34.5433C11.5125 34.5057 11.5871 34.4306 11.5498 34.2444C11.5125 34.0957 11.5498 33.9831 11.6616 33.908C11.8093 33.7218 11.9584 33.5341 12.033 33.3103C12.033 33.2728 12.0703 33.2352 12.1448 33.2352C12.2567 33.2352 12.3671 33.2352 12.4789 33.2728C12.5162 33.2728 12.5907 33.2728 12.5907 33.2352C12.5907 33.2352 12.628 33.1977 12.628 33.1601V33.1226C12.628 33.01 12.6653 32.9364 12.628 32.8238C12.5907 32.6 12.5907 32.4137 12.5907 32.226C12.628 32.0398 12.628 31.816 12.5535 31.6283C12.4789 31.4796 12.5162 31.3295 12.628 31.1432C12.7757 30.9194 12.8875 30.6957 12.9994 30.508L13.0366 30.4329C13.1112 30.2842 13.1485 30.134 13.1112 29.9853C13.1112 29.9478 13.1112 29.8727 13.1485 29.7991C13.223 29.6504 13.2603 29.5002 13.223 29.3515C13.1857 29.2765 13.1858 29.2028 13.1485 29.0902C13.1112 28.9776 13.1112 28.904 13.1485 28.8289C13.223 28.6802 13.223 28.5301 13.1112 28.4189C13.0366 28.3438 13.0366 28.2702 13.0739 28.1576C13.1485 27.9338 13.1485 27.71 13.0366 27.4487C12.9994 27.3361 12.9621 27.2624 12.9994 27.1873C13.0739 27.0386 13.0739 26.926 13.0739 26.7398C13.0739 26.6647 13.0739 26.6272 13.1485 26.5911H13.1858C13.223 26.5911 13.223 26.5911 13.2603 26.5536C13.2976 26.5536 13.3349 26.516 13.3349 26.516C13.4094 26.4785 13.4467 26.441 13.5198 26.441H13.5571C13.5944 26.4785 13.5944 26.4785 13.6317 26.516C13.6689 26.5536 13.7062 26.5911 13.7435 26.5911C13.818 26.6286 13.8912 26.6286 13.9657 26.6286C14.003 26.6286 14.0403 26.5911 14.0776 26.5536C14.1148 26.4785 14.1148 26.4049 14.1521 26.3673C14.1894 26.2922 14.1894 26.2186 14.2267 26.1435C14.2267 26.106 14.264 26.0685 14.264 26.0685C14.3385 26.0309 14.3758 25.9934 14.3758 25.9198V25.8447H14.4504C14.4876 25.8447 14.4876 25.8447 14.5249 25.8822C14.5622 25.8822 14.5995 25.9198 14.6367 25.9198C14.6367 25.9198 14.7486 25.9198 14.7844 25.8822C14.8217 25.8071 14.8963 25.8071 14.9694 25.8071H15.0812H15.1931C15.378 25.8071 15.5271 25.7321 15.6003 25.5834C15.6748 25.3971 15.7121 25.2094 15.6375 25.0232C15.6003 24.9857 15.6375 24.9481 15.6748 24.9106L15.7121 24.8731C15.7494 24.8355 15.7867 24.8355 15.8239 24.798C15.8985 24.7229 16.0089 24.6493 16.158 24.6117C16.4548 24.5367 16.6398 24.388 16.7516 24.1266C16.8634 23.9029 17.0111 23.7527 17.2707 23.6791H17.3079H17.3452C17.4929 23.604 17.642 23.5304 17.7524 23.3802C17.7897 23.3427 17.827 23.3052 17.8643 23.2676C17.9015 23.2301 17.9388 23.1925 17.9761 23.1189C17.9761 23.0814 18.0134 23.0814 18.0134 23.0438C18.0879 22.9688 18.1611 22.8576 18.1983 22.745C18.2729 22.5212 18.4206 22.335 18.5697 22.1848C18.7546 21.9986 18.9769 21.8109 19.2364 21.6622C19.2737 21.6246 19.3482 21.6246 19.4214 21.5871C19.569 21.5496 19.7182 21.512 19.9031 21.4745L20.0508 21.437C20.1985 21.3994 20.273 21.3243 20.3476 21.2132C20.3849 21.1381 20.4221 21.1006 20.4594 21.0645C20.534 20.9894 20.6071 20.9158 20.6444 20.8031C20.6444 20.7281 20.6817 20.6544 20.7921 20.6169C20.8293 20.5794 20.8666 20.5794 20.9039 20.5418C20.9785 20.4668 21.0516 20.3931 21.0516 20.318C21.0516 20.243 21.0516 20.1318 20.977 20.0567C20.9397 20.0192 20.9397 19.9817 20.9025 19.9441L20.8652 19.9066C20.8279 19.869 20.8279 19.8315 20.8279 19.7579C20.8279 19.7203 20.8652 19.6828 20.9025 19.6453C20.9397 19.6453 20.9397 19.6077 20.977 19.6077C21.0889 19.5327 21.162 19.459 21.1993 19.3464C21.1993 19.3089 21.2365 19.2713 21.3111 19.2713C21.4961 19.2338 21.6452 19.2338 21.8302 19.1963H21.9778C22.0151 19.2713 22.0897 19.345 22.2001 19.345C22.3119 19.345 22.4223 19.2699 22.4223 19.1587H22.5341C22.5714 19.1963 22.6087 19.2338 22.6087 19.2338H22.646C22.6833 19.1963 22.7205 19.2338 22.7937 19.2338H22.8309C22.8309 19.2338 22.9055 19.2338 22.9428 19.1963C22.9801 19.1587 22.9801 19.1587 23.0173 19.1963H23.0546C23.1664 19.2338 23.2396 19.1963 23.2768 19.1212C23.3141 19.0461 23.3141 18.9725 23.2768 18.8599C23.2023 18.7112 23.2023 18.7112 23.3141 18.5985C23.3514 18.561 23.3887 18.4859 23.3887 18.4123C23.3887 18.3748 23.3514 18.3372 23.3141 18.2997C23.2023 18.2246 23.2023 18.151 23.2023 17.9633C23.2023 17.8507 23.165 17.702 23.0905 17.5157C23.0532 17.4407 23.0159 17.367 23.0532 17.292C23.0905 17.2169 23.0905 17.1433 23.0532 17.1057C23.0159 17.0682 22.9786 17.0306 22.8682 16.9931H22.8309C22.9055 16.8444 22.8682 16.7693 22.7191 16.6567L22.6818 16.6192C22.6445 16.5441 22.6818 16.5066 22.7191 16.4329C22.8668 16.3203 22.8309 16.2467 22.7564 16.1341C22.7564 16.0215 22.7564 15.9478 22.6818 15.8352C22.6073 15.7226 22.4969 15.6865 22.3477 15.649C22.3105 15.649 22.2732 15.6114 22.2359 15.5739C22.1613 15.5364 22.1241 15.4613 22.0882 15.4252L22.0509 15.3877L22.0137 15.3501C22.0137 15.3126 22.0509 15.275 22.0509 15.275C22.1628 15.2375 22.2359 15.2 22.3105 15.1263C22.385 15.0513 22.4223 15.0137 22.4223 14.9026V14.865H22.4969C22.6087 14.865 22.7191 14.865 22.7936 14.8275C22.8682 14.8275 22.9413 14.7524 22.9413 14.6788C22.9786 14.6037 22.9413 14.5301 22.9041 14.4925C22.8668 14.455 22.8295 14.455 22.7922 14.4175C22.7922 14.2688 22.7177 14.2312 22.57 14.2312H22.4223C22.3477 14.0825 22.2373 14.045 22.1255 14.0074C22.0882 14.0074 22.0509 13.9699 22.0137 13.9699C22.0882 13.9324 22.1255 13.8212 22.0882 13.7086L22.1255 13.671C22.2373 13.596 22.2732 13.5223 22.3105 13.4097V13.3722H22.3477C22.3477 13.3722 22.385 13.3722 22.385 13.4097C22.4223 13.4473 22.4596 13.4473 22.4968 13.4473H22.5341C22.5714 13.4848 22.646 13.5223 22.7191 13.5223C22.8668 13.5223 22.8668 13.4848 22.9041 13.3736C22.9041 13.4112 22.9413 13.4112 22.9413 13.4487C22.9786 13.5238 23.0159 13.635 23.089 13.6725C23.2008 13.71 23.3112 13.7476 23.4231 13.7851H23.5708C23.608 13.7476 23.608 13.6725 23.608 13.6364V13.5989H23.6453V13.6364C23.6453 13.6739 23.6826 13.749 23.6826 13.7851C23.7199 13.8602 23.7199 13.8977 23.6826 13.9338C23.5708 14.0825 23.5708 14.3077 23.6453 14.4565C23.7199 14.6427 23.8676 14.7553 24.0525 14.7928C24.312 14.8304 24.5343 14.8679 24.7565 14.8679C24.9788 14.8679 25.201 14.8304 25.3874 14.8304C25.462 14.8304 25.4993 14.8304 25.5724 14.7928H25.6097C25.7573 14.7928 25.9065 14.7553 26.0541 14.7928C26.2018 14.8304 26.3509 14.8304 26.4613 14.7928H26.5359C26.3882 14.9055 26.3509 15.0542 26.3137 15.1668C26.3137 15.2043 26.3136 15.2043 26.2764 15.2418V15.3169C26.2391 15.5032 26.0914 15.6533 25.8692 15.6908C25.6096 15.7659 25.3129 15.9146 25.2756 16.3261V16.3636V16.4763C25.2756 16.625 25.2383 16.7751 25.3128 16.8863C25.4247 17.0725 25.5724 17.2227 25.7201 17.3338C25.8677 17.4465 26.0914 17.4089 26.2391 17.2588C26.3137 17.1837 26.3137 17.0725 26.2391 16.9974C26.2391 16.9974 26.2391 16.9599 26.2018 16.9599C26.2764 16.8473 26.3495 16.6986 26.3495 16.5499H26.4972V16.5874C26.4972 16.625 26.5345 16.7 26.5345 16.7361C26.5717 17.035 26.609 17.2588 26.7567 17.4825C26.794 17.5201 26.794 17.5951 26.794 17.6312V17.7063V17.8189C26.794 17.894 26.8313 18.0052 26.8313 18.1178C26.8313 18.1553 26.9058 18.2304 26.9431 18.2665C27.0176 18.304 27.1281 18.3416 27.2026 18.3791C27.3144 18.4166 27.3876 18.4166 27.4621 18.304C27.6098 18.0802 27.7589 17.8189 27.6471 17.445C27.6098 17.2963 27.6098 17.1837 27.6844 17.035C27.7216 16.9974 27.7216 16.9599 27.7589 16.9224C27.8335 16.8097 27.8708 16.661 27.8335 16.5123C27.8335 16.3997 27.7962 16.2885 27.7962 16.1759V16.1009H27.8335C27.8708 16.0633 27.908 16.0633 27.908 16.0258C27.908 15.9882 27.908 15.9882 27.9453 15.9882H28.0199C28.0571 15.9882 28.0944 16.0258 28.1675 16.0258C28.2421 16.0633 28.2794 16.0633 28.3525 16.1009C28.5002 16.1384 28.612 16.1009 28.6866 15.9521C28.7239 15.8771 28.7611 15.8034 28.7611 15.7284C28.7984 15.5797 28.8357 15.467 28.873 15.3183C28.9475 14.9444 29.0579 14.5719 29.0952 14.198V14.1605C29.3175 14.0479 29.4293 13.8241 29.5397 13.6003C29.6515 13.339 29.6874 13.1152 29.577 12.8914V12.8539C29.577 12.7788 29.577 12.7413 29.6142 12.7052C29.6515 12.6676 29.6888 12.6301 29.7261 12.5926C29.7633 12.555 29.7633 12.5175 29.8006 12.5175L29.8379 12.4799C29.8752 12.4424 29.9125 12.4049 29.9856 12.3673C30.1333 12.2923 30.2451 12.2186 30.3197 12.0309C30.3569 11.8822 30.4673 11.8447 30.6165 11.8072C30.8014 11.8072 30.9132 11.7696 31.0237 11.6585C31.0609 11.6209 31.0982 11.6209 31.0982 11.6209C31.1355 11.6209 31.1355 11.6585 31.1728 11.696C31.1728 11.696 31.2101 11.7335 31.2101 11.7711V11.8086C31.2473 11.8837 31.2846 11.9212 31.3577 11.9573C31.4323 11.9948 31.4696 11.9573 31.5427 11.9198C31.58 11.8822 31.6172 11.8822 31.6172 11.8072C31.6172 11.7696 31.6172 11.7321 31.58 11.6945C31.5427 11.657 31.5054 11.6195 31.4681 11.5819L31.4309 11.5444C31.2459 11.3206 31.2459 11.2831 31.4681 11.0968C31.7907 11.1402 31.8651 11.0276 31.9382 10.9539Z" fill="#1E40AF"/>
</svg>
