<svg width="32" height="32" viewBox="0 0 32 32" fill="none" xmlns="http://www.w3.org/2000/svg">
<path d="M15.0236 7.57888C11.1499 8.01678 7.9836 11.1157 7.51202 14.9894C7.10781 18.3578 8.69097 21.4231 11.2173 23.141C11.891 23.5789 12.2952 24.3199 12.2952 25.1284V25.8357H19.6047V25.162C19.6047 24.3873 19.9752 23.6126 20.6489 23.1747C22.9731 21.6589 24.4889 19.0315 24.4889 16.0336C24.5225 11.0147 20.1773 7.00625 15.0236 7.57888Z" fill="#1E40AF"/>
<path d="M12.3281 29.5747C12.3281 29.8778 12.4629 30.1473 12.6987 30.3494L13.7429 31.2252C13.9113 31.3599 14.1471 31.461 14.3829 31.461H17.6165C17.8523 31.461 18.0881 31.3936 18.2565 31.2252L19.3008 30.3494C19.5365 30.1473 19.6713 29.8778 19.6713 29.5747V27.6884H12.3281V29.5747Z" fill="#1E40AF"/>
<path d="M15.9993 4.95158C16.5719 4.95158 17.0435 4.48 17.0435 3.90737V1.04421C17.0435 0.471579 16.5719 0 15.9993 0C15.4267 0 14.9551 0.471579 14.9551 1.04421V3.87368C14.9551 4.48 15.393 4.95158 15.9993 4.95158Z" fill="#1E40AF"/>
<path d="M9.02665 6.06312C9.22876 6.39997 9.5656 6.60207 9.93613 6.60207C10.1045 6.60207 10.3067 6.56839 10.4414 6.46733C10.9467 6.16418 11.1151 5.52418 10.8119 5.0526L9.39718 2.59365C9.09402 2.08839 8.45402 1.91997 7.98244 2.22312C7.47718 2.52628 7.30876 3.16628 7.61192 3.63786L9.02665 6.06312Z" fill="#1E40AF"/>
<path d="M2.52541 9.4652L4.98436 10.8799C5.15278 10.981 5.3212 11.0147 5.48962 11.0147C5.86015 11.0147 6.19699 10.8126 6.3991 10.4757C6.70225 9.97046 6.50015 9.33046 6.02857 9.06099L3.56962 7.64625C3.06436 7.3431 2.42436 7.5452 2.15489 8.01678C1.85173 8.52204 2.02015 9.16204 2.52541 9.4652Z" fill="#1E40AF"/>
<path d="M4.91789 16.0337C4.91789 15.4611 4.44632 14.9895 3.87368 14.9895H1.04421C0.471579 14.9895 0 15.4611 0 16.0337C0 16.6063 0.471579 17.0779 1.04421 17.0779H3.87368C4.48 17.0779 4.91789 16.6063 4.91789 16.0337Z" fill="#1E40AF"/>
<path d="M4.98436 21.1874L2.52541 22.6022C2.02015 22.9053 1.85173 23.5453 2.15489 24.0169C2.35699 24.3537 2.69383 24.5558 3.06436 24.5558C3.23278 24.5558 3.43489 24.5222 3.56962 24.4211L6.02857 23.0064C6.53383 22.7032 6.70225 22.0632 6.3991 21.5916C6.12962 21.0527 5.48962 20.8843 4.98436 21.1874Z" fill="#1E40AF"/>
<path d="M29.4743 22.5684L27.0153 21.1537C26.5101 20.8505 25.8701 21.0526 25.6006 21.5242C25.2974 22.0295 25.4995 22.6695 25.9711 22.939L28.4301 24.3537C28.5985 24.4548 28.7669 24.4884 28.9353 24.4884C29.3059 24.4884 29.6427 24.2863 29.8448 23.9495C30.148 23.5116 29.9795 22.8716 29.4743 22.5684Z" fill="#1E40AF"/>
<path d="M30.9557 14.9558H28.1262C27.5536 14.9558 27.082 15.4274 27.082 16C27.082 16.5727 27.5536 17.0442 28.1262 17.0442H30.9557C31.5283 17.0442 31.9999 16.5727 31.9999 16C31.9999 15.4274 31.5283 14.9558 30.9557 14.9558Z" fill="#1E40AF"/>
<path d="M26.4765 10.9811C26.6449 10.9811 26.847 10.9474 26.9817 10.8463L29.4407 9.4316C29.9459 9.12845 30.1144 8.48845 29.8112 8.01687C29.508 7.5116 28.868 7.34318 28.3965 7.64634L25.9375 9.06108C25.4323 9.36424 25.2638 10.0042 25.567 10.4758C25.7691 10.8127 26.1059 10.9811 26.4765 10.9811Z" fill="#1E40AF"/>
<path d="M21.5235 6.43363C21.6919 6.53469 21.8603 6.56837 22.0287 6.56837C22.3992 6.56837 22.7361 6.36627 22.9382 6.02942L24.3529 3.57048C24.6561 3.06521 24.454 2.42521 23.9824 2.15574C23.4771 1.85258 22.8371 2.021 22.5677 2.52627L21.1529 4.98521C20.8498 5.49048 21.0182 6.13048 21.5235 6.43363Z" fill="#1E40AF"/>
</svg>
