<svg width="32" height="30" viewBox="0 0 32 30" fill="none" xmlns="http://www.w3.org/2000/svg">
<path d="M30.1629 6.43656C28.2285 3.31653 24.9686 1.24078 21.4185 0.436565C19.8456 0.0794181 18.1171 -0.0977145 16.504 0.0551196C12.4895 0.437991 8.69112 2.1237 6.08244 5.28527C3.77955 8.07531 2.76669 11.4367 3.12813 15.0383C3.42099 17.964 4.80243 20.6513 6.88114 22.714C6.41543 24.114 5.96114 25.5198 5.5211 26.9296C5.31967 27.5553 5.02394 28.2311 4.91968 28.8811C4.84253 29.2325 5.05111 29.584 5.39683 29.6854C5.61398 29.7454 5.80969 29.6797 6.0097 29.6082C6.88827 29.2897 7.75828 28.7268 8.58115 28.2811C9.95973 27.5325 11.3712 26.8225 12.6871 25.9682C12.9828 26.0653 13.2771 26.171 13.5799 26.2468L13.5785 26.2453C17.5886 27.2011 21.8131 26.5253 25.3243 24.3696C28.4644 22.4239 30.8215 19.4909 31.6758 15.8567C32.4172 12.6996 31.8743 9.19664 30.1629 6.43656ZM26.4526 20.3595C25.8226 20.1566 25.7341 18.3123 25.0183 17.5294C24.5041 16.9666 23.6969 16.7409 22.954 16.738C22.424 16.7466 21.9054 16.9008 21.4554 17.1823C19.6897 18.2466 20.5268 19.5194 19.8268 20.1852C19.694 20.2223 19.644 20.2537 19.5054 20.2237C19.2854 20.1709 19.0982 20.0294 18.9882 19.8337C18.7725 19.4594 18.8454 18.8851 18.9611 18.4937C19.3125 17.3108 20.1297 16.5379 21.174 15.948C21.0611 15.8222 20.9526 15.6951 20.8526 15.5608C19.9897 14.3979 20.1797 13.4693 20.384 12.1508C20.3154 12.0522 20.2411 11.9579 20.1611 11.8665C19.5611 11.1922 18.8797 10.8493 17.9854 10.8136H17.9868C17.5968 10.7707 17.2025 10.7836 16.8168 10.8522C15.9982 11.0008 15.4668 11.5336 15.0297 12.1965H15.0311C15.1725 12.5136 15.2768 12.8465 15.3382 13.1893C15.4739 14.0136 15.2697 14.8565 14.7696 15.5265L14.4325 15.9622C15.5011 16.7208 16.2468 17.3937 16.5111 18.7451C16.5782 19.0923 16.7311 19.7466 16.4797 20.0394C16.354 20.1852 16.2197 20.2137 16.0411 20.248C15.3082 20.0137 15.394 18.4023 14.5568 17.5394H14.5582C14.0254 16.9951 13.2868 16.7037 12.5268 16.738C9.51385 16.8123 9.89102 19.5537 9.23528 20.0881V20.0866C9.13385 20.1938 8.98099 20.2366 8.83815 20.1981C8.64529 20.1395 8.47814 20.0181 8.36242 19.8523C8.24528 19.6509 8.20956 19.4109 8.26099 19.1838C8.49528 17.7952 9.48674 16.738 10.6082 15.9852C10.2753 15.5723 9.98675 15.1937 9.79672 14.6923C9.50386 13.9479 9.52672 13.1165 9.85672 12.3894C10.1796 11.6879 10.771 11.1465 11.4968 10.885C12.4454 10.5479 13.2111 10.7965 14.0739 11.2008C14.5625 10.7151 15.1068 10.2879 15.694 9.92646C15.3068 9.435 14.9711 8.95214 14.8525 8.32358C14.7154 7.54928 14.8911 6.75212 15.3411 6.10641C15.7911 5.46212 16.4797 5.02355 17.254 4.8864C17.4283 4.87069 17.6011 4.86498 17.7754 4.86212C18.5797 4.84926 19.3212 5.08212 19.8969 5.66213C20.4612 6.23785 20.774 7.01357 20.7669 7.81929C20.7612 8.68217 20.4069 9.38647 19.7897 9.97217C20.3683 10.365 20.8655 10.7536 21.3169 11.2908C21.8198 10.9965 22.3226 10.7922 22.9126 10.7708H22.9112C23.677 10.745 24.4227 11.0222 24.9855 11.5422C25.5484 12.0779 25.8784 12.8137 25.9027 13.5908C25.9241 14.5651 25.5084 15.2437 24.8741 15.9308C25.9827 16.6651 26.7498 17.5423 27.0356 18.8651C27.1213 19.2594 27.0641 19.7994 26.8127 20.1323C26.7327 20.258 26.6012 20.3409 26.4526 20.3595Z" fill="#1E40AF"/>
<path d="M12.6973 15.3981C12.0144 15.4995 11.3387 15.1795 10.983 14.5881C10.6273 13.9967 10.6616 13.2495 11.0716 12.6938C11.4816 12.1381 12.1859 11.8838 12.8559 12.0495C13.5259 12.2152 14.0302 12.7681 14.1345 13.4509C14.273 14.3838 13.6302 15.2538 12.6973 15.3981Z" fill="#1E40AF"/>
<path d="M23.3678 15.3641C22.6935 15.5084 21.9992 15.2298 21.6135 14.6584C21.2278 14.0869 21.2278 13.3369 21.6135 12.7669C21.9992 12.1955 22.6949 11.9155 23.3693 12.0612C24.0436 12.2069 24.5607 12.7469 24.6778 13.4269C24.8293 14.3184 24.2521 15.1726 23.3678 15.3641Z" fill="#1E40AF"/>
<path d="M18.0689 9.54811C17.3518 9.67668 16.6304 9.34953 16.2561 8.72524C15.8804 8.10096 15.9318 7.3095 16.3832 6.73806C16.8332 6.16663 17.5918 5.93377 18.2861 6.15233C18.9804 6.37233 19.4661 6.99805 19.5075 7.72521C19.5575 8.60952 18.9404 9.39096 18.0689 9.54811Z" fill="#1E40AF"/>
<path d="M4.75411 2.38806C4.01411 2.06948 3.7998 1.91661 3.49267 1.14805C3.37267 0.849473 3.23124 0.360912 2.88408 0.25233C2.72551 0.218044 2.56264 0.210901 2.40122 0.230901C1.96835 0.729486 1.9455 1.55521 1.41407 1.97663C1.04407 2.26949 -0.108823 2.54378 0.00831671 3.13808C0.121174 3.70666 1.2469 3.89523 1.63405 4.26954C2.04976 4.67242 2.04548 5.681 2.51693 5.93528C2.66122 6.01385 2.83408 5.99528 2.98981 5.971C3.7584 5.07385 3.18553 4.43955 4.57125 3.81098C4.9727 3.62956 5.48127 3.48669 5.48127 2.95813C5.3427 2.61241 5.07269 2.5252 4.75411 2.38806ZM2.74265 3.62236L2.70551 3.63807C2.51408 3.46379 2.33694 3.27379 2.15836 3.08807C2.36265 2.87378 2.5398 2.63235 2.72266 2.39807C2.93124 2.50664 3.18552 2.84666 3.35982 3.01664L2.74265 3.62236Z" fill="#1E40AF"/>
<path d="M30.4424 26.3098C30.2895 25.6012 29.7224 25.054 29.0081 24.9254C28.2938 24.7969 27.5709 25.1112 27.1795 25.7212C26.7866 26.3326 26.8009 27.1198 27.2166 27.7155C27.6309 28.3126 28.3638 28.5998 29.0738 28.4441C30.0409 28.2326 30.6538 27.2783 30.4424 26.3098ZM29.3795 26.6926C29.3581 26.9769 29.1167 27.1812 28.9238 27.3626V27.3641C28.8538 27.3655 28.7824 27.3612 28.7124 27.3541C28.4867 27.3255 28.2638 27.2383 28.1352 27.0383H28.1338C28.0381 26.9126 28.0038 26.7512 28.041 26.5969C28.1038 26.3526 28.2838 26.2069 28.4896 26.0855C28.7296 26.1098 29.0024 26.1369 29.1981 26.2941C29.321 26.3884 29.3881 26.5384 29.3795 26.6926Z" fill="#1E40AF"/>
<path d="M28.9029 0.332237C29.15 0.239377 29.43 0.306523 29.6072 0.502238C29.7843 0.697954 29.8243 0.982245 29.7086 1.21938C29.5914 1.45652 29.3429 1.59797 29.0786 1.57652C28.8157 1.5551 28.5914 1.37509 28.5143 1.12223C28.4157 0.797937 28.5857 0.452266 28.9029 0.332237Z" fill="#1E40AF"/>
<path d="M0.53933 10.2038C0.800761 10.1067 1.09504 10.1967 1.25789 10.4224C1.42075 10.6495 1.41218 10.9552 1.23647 11.1724C1.06218 11.3895 0.765017 11.4638 0.509306 11.3538C0.253588 11.2424 0.102151 10.9752 0.140734 10.6995C0.172163 10.4724 0.325058 10.2824 0.53933 10.2038Z" fill="#1E40AF"/>
<path d="M21.1916 28.8613C21.4187 28.7584 21.6873 28.8199 21.8473 29.0113C22.0059 29.2042 22.0187 29.4784 21.8759 29.6827C21.733 29.887 21.4716 29.9727 21.2359 29.8884C21.0016 29.8056 20.8501 29.5756 20.8687 29.327C20.883 29.1241 21.0073 28.9456 21.1916 28.8613Z" fill="#1E40AF"/>
</svg>
