<svg width="32" height="32" viewBox="0 0 32 32" fill="none" xmlns="http://www.w3.org/2000/svg">
<path fill-rule="evenodd" clip-rule="evenodd" d="M17.8223 31.344H20.1223V28.1482C20.1223 27.8621 20.3543 27.6232 20.639 27.6232C20.932 27.6232 21.164 27.862 21.164 28.1482V31.344H28.6583V28.1482C28.6583 27.8621 28.8972 27.6232 29.1833 27.6232C29.4694 27.6232 29.7083 27.862 29.7083 28.1482V31.344H31.9999V29.569C31.9999 26.2038 29.2527 23.4482 25.8876 23.4482H23.9432C20.578 23.4482 17.8224 26.2037 17.8224 29.569L17.8223 31.344ZM15.5529 9.89428L20.3849 4.90838L25.6794 4.8695L28.2182 2.09869L27.146 1.10286L32 8.17183e-05L31.2667 4.92375L30.1945 3.92793L26.8529 7.5709L21.5278 7.60979L17.4916 11.7779L15.5529 9.89428ZM8.41274 0C10.6738 0 12.503 1.82913 12.503 4.09026C12.503 6.34438 10.6739 8.18052 8.41274 8.18052C6.15161 8.18052 4.32248 6.34303 4.32248 4.09026C4.32248 1.82917 6.15161 0 8.41274 0ZM13.4765 31.344H8.93753V28.7815C8.93753 28.4885 8.69864 28.2565 8.41253 28.2565C8.11947 28.2565 7.88752 28.4884 7.88752 28.7815V31.344H3.34998V15.4288C3.37359 15.2357 3.28886 15.051 3.12637 14.9427C2.96387 14.8343 2.75553 14.8343 2.59443 14.9427C2.43193 15.051 2.34026 15.2357 2.37082 15.4288L2.36943 26.6439C1.03472 26.4509 0 25.2926 0 23.9106V17.1107C0 13.1204 3.27217 9.85676 7.26249 9.85676H9.56248C12.4263 9.85676 14.9192 11.5387 16.1 13.9705L18.2375 17.7066L20.5374 18.201C20.5069 18.4247 20.4916 18.6566 20.4916 18.8885C20.4916 20.1538 21.0166 21.2968 21.8735 22.0996C21.4569 22.2149 21.0097 22.2302 20.5611 22.1385L16.5554 21.2663C16.0304 21.158 15.6221 20.8566 15.3513 20.3941L13.4763 17.0525L13.4765 31.344ZM24.9153 15.4441C26.8139 15.4441 28.3569 16.9871 28.3569 18.8857C28.3569 20.7843 26.8139 22.3273 24.9153 22.3273C23.0084 22.3273 21.4723 20.7843 21.4723 18.8857C21.4723 16.9871 23.0084 15.4441 24.9153 15.4441Z" fill="#1E40AF"/>
</svg>
