<svg width="32" height="32" viewBox="0 0 32 32" fill="none" xmlns="http://www.w3.org/2000/svg">
<path d="M1.844 29.6787L0 22.8025L7.20151 20.8732C7.64951 20.7532 8.16019 20.9332 8.7522 21.1412C9.06154 21.2492 9.38156 21.3625 9.72019 21.4385L9.72153 21.4399L18.5444 23.8052C19.2804 24.0025 19.7191 24.7572 19.5284 25.4919C19.5284 25.4959 19.5271 25.4999 19.5257 25.5026C19.5257 25.5066 19.5244 25.5092 19.5231 25.5132C19.3204 26.2465 18.5604 26.6812 17.8257 26.4852C17.799 26.4772 17.771 26.4732 17.7444 26.4692L10.5684 25.7092C10.2738 25.6772 10.0098 25.8919 9.9791 26.1852C9.9471 26.4799 10.1618 26.7439 10.4551 26.7746L17.5924 27.5319C17.7898 27.5813 17.9884 27.6039 18.1831 27.6039C19.1551 27.6039 20.0551 27.0226 20.4458 26.1132L29.6114 24.4279C30.1554 24.3279 30.702 24.7026 30.8567 25.2812L30.8887 25.4012C30.9687 25.6986 30.9274 26.0092 30.7727 26.2772C30.618 26.5466 30.3687 26.7386 30.0713 26.8186L14.4474 31.0054C14.2247 31.0641 14.05 31.0654 13.8634 31.0107L6.14337 28.6934C6.05137 28.6654 5.9527 28.6627 5.85937 28.6854L1.84594 29.6814L1.844 29.6787ZM18.1947 17.6333V18.1946H23.6707V17.6333C23.6707 17.324 23.4187 17.072 23.1094 17.072H18.7546C18.4453 17.072 18.1933 17.324 18.1933 17.6333H18.1947ZM24.7681 19.8267C24.7681 19.5173 24.5161 19.2654 24.2068 19.2654H17.6586C17.3493 19.2654 17.0973 19.5174 17.0973 19.8267V20.3853H24.7668V19.8267H24.7681ZM30.9282 6.12135V5.12533H25.2269C25.2469 5.288 25.2562 5.45467 25.2562 5.62266C25.2562 5.79066 25.2469 5.95733 25.2269 6.11999H30.9282V6.12135ZM17.6827 5.62269C17.6827 3.83068 19.1413 2.37201 20.9334 2.37201C22.7254 2.37201 24.184 3.83068 24.184 5.62269C24.184 7.04671 23.264 8.26006 21.9867 8.70004C21.9787 8.70271 21.9694 8.70671 21.9614 8.70938C21.6387 8.81738 21.2934 8.87605 20.9334 8.87605C20.5733 8.87605 20.2293 8.81738 19.9054 8.70938C19.896 8.70671 19.888 8.70271 19.88 8.70004C18.6027 8.26136 17.6827 7.04805 17.6827 5.62269ZM19.1853 5.62269C19.1853 6.5867 19.9694 7.37071 20.9334 7.37071C21.8974 7.37071 22.6814 6.5867 22.6814 5.62269C22.6814 4.66002 21.8974 3.87734 20.9334 3.87734C19.9694 3.87734 19.1853 4.66002 19.1853 5.62269ZM16.612 5.62269C16.612 5.45469 16.6213 5.28802 16.6413 5.12537H10.9386V6.12139H16.6413C16.6213 5.95872 16.612 5.79205 16.612 5.62406V5.62269ZM20.9333 9.94674C20.7026 9.94674 20.4773 9.92807 20.2573 9.89341V16.0016H21.6093V9.89341C21.3893 9.92941 21.1626 9.94674 20.9333 9.94674ZM9.86649 12.7988C9.86649 12.7721 9.86916 12.7441 9.87316 12.7174C9.87449 12.7108 9.87449 12.7041 9.87582 12.6988C9.87716 12.6908 9.87849 12.6841 9.88116 12.6774C9.88249 12.6681 9.88516 12.6601 9.88782 12.6521C9.89182 12.6374 9.89716 12.6228 9.90249 12.6081C9.90782 12.5948 9.91316 12.5828 9.91849 12.5708C9.91982 12.5668 9.92116 12.5641 9.92383 12.5614L9.93316 12.5441L12.5838 7.19332H14.3105L16.9692 12.5615C17.0132 12.6495 17.0306 12.7482 17.0226 12.8428C16.9999 14.7949 15.4039 16.3764 13.4464 16.3764C11.473 16.3764 9.86917 14.7724 9.86917 12.8002L9.86649 12.7988ZM11.2652 12.2628H15.624L13.444 7.86397L11.2652 12.2628ZM21.6094 1.3547V0H20.2574V1.3547C20.4774 1.31869 20.7027 1.30136 20.9334 1.30136C21.1641 1.30136 21.3893 1.32003 21.6094 1.3547ZM20.9334 6.29997C21.3067 6.29997 21.6094 5.99597 21.6094 5.62396C21.6094 5.25194 21.3067 4.94927 20.9334 4.94927C20.56 4.94927 20.2573 5.25194 20.2573 5.62396C20.2573 5.99731 20.56 6.29997 20.9334 6.29997ZM31.9933 12.7174C31.9973 12.7454 32 12.7721 32 12.7988C32 14.7708 30.3947 16.3749 28.4214 16.3749C26.4494 16.3749 24.8442 14.7709 24.8442 12.7988C24.8442 12.7721 24.8456 12.7441 24.8509 12.7174C24.8522 12.7108 24.8522 12.7041 24.8536 12.6988C24.8549 12.6908 24.8562 12.6841 24.8589 12.6774C24.8602 12.6681 24.8629 12.6601 24.8656 12.6521C24.8696 12.6374 24.8749 12.6228 24.8802 12.6081C24.8856 12.5948 24.8909 12.5828 24.8962 12.5708C24.8976 12.5668 24.9002 12.5641 24.9016 12.5614L24.9109 12.5441L27.5616 7.19331H29.2883L31.947 12.5615C31.9483 12.5655 31.951 12.5682 31.9523 12.5708C31.959 12.5855 31.9656 12.6002 31.971 12.6148C31.9736 12.6228 31.9763 12.6295 31.979 12.6375C31.9816 12.6482 31.9856 12.6575 31.9883 12.6682C31.9896 12.6762 31.991 12.6842 31.9936 12.6922C31.995 12.7015 31.9963 12.7095 31.999 12.7188L31.9933 12.7174ZM30.6013 12.2628L28.4213 7.86397L26.2426 12.2628H30.6013Z" fill="#1E40AF"/>
</svg>
