<svg width="32" height="28" viewBox="0 0 32 28" fill="none" xmlns="http://www.w3.org/2000/svg">
<path d="M15.4286 1.49714V7.71429H11.7543C11.8178 6.458 12.1854 5.23591 12.8254 4.153C13.4654 3.07008 14.3587 2.15871 15.4286 1.49714ZM20.2457 8.85714H16.5714V15.0743C17.6413 14.4127 18.5346 13.5013 19.1746 12.4184C19.8146 11.3355 20.1822 10.1134 20.2457 8.85714ZM15.4286 15.0743V8.85714H11.7543C11.8178 10.1134 12.1854 11.3355 12.8254 12.4184C13.4654 13.5013 14.3587 14.4127 15.4286 15.0743ZM21.4343 7.71429H24.2571C24.1186 5.67192 23.2285 3.75325 21.7585 2.32863C20.2885 0.904007 18.3429 0.0744222 16.2971 0C17.7808 0.688106 19.0455 1.77255 19.952 3.13377C20.8585 4.49498 21.3714 6.08008 21.4343 7.71429ZM10.5771 7.71429C10.639 6.0813 11.1502 4.49705 12.0546 3.13595C12.959 1.77486 14.2214 0.689717 15.7029 0C13.6572 0.0744222 11.7115 0.904007 10.2415 2.32863C8.77153 3.75325 7.88136 5.67192 7.74286 7.71429H10.5771ZM10.5771 8.85714H7.74286C7.88136 10.8995 8.77153 12.8182 10.2415 14.2428C11.7115 15.6674 13.6572 16.497 15.7029 16.5714C14.2192 15.8833 12.9545 14.7989 12.048 13.4377C11.1415 12.0764 10.6286 10.4913 10.5657 8.85714H10.5771ZM21.4343 8.85714C21.3691 10.4893 20.8543 12.0718 19.9468 13.43C19.0393 14.7882 17.7744 15.8694 16.2914 16.5543C18.335 16.4804 20.279 15.6534 21.7496 14.2325C23.2201 12.8115 24.1132 10.897 24.2571 8.85714H21.4343ZM16.5714 1.49714V7.71429H20.2457C20.1822 6.458 19.8146 5.23591 19.1746 4.153C18.5346 3.07008 17.6413 2.15871 16.5714 1.49714ZM11.4286 21.1429C12.3743 21.1441 13.3015 21.4061 14.108 21.9001C14.9145 22.3941 15.5691 23.1009 16 23.9429C16.4309 23.1009 17.0855 22.3941 17.892 21.9001C18.6985 21.4061 19.6257 21.1441 20.5714 21.1429H31.5143C31.371 20.8982 31.1961 20.6734 30.9943 20.4743L28.0971 17.5771C27.7804 17.2569 27.403 17.003 26.987 16.8303C26.571 16.6576 26.1247 16.5696 25.6743 16.5714H20.5714C19.6268 16.5716 18.7005 16.8319 17.8942 17.3238C17.0878 17.8157 16.4324 18.5202 16 19.36C15.5676 18.5202 14.9122 17.8157 14.1058 17.3238C13.2995 16.8319 12.3732 16.5716 11.4286 16.5714H6.32571C5.87529 16.5696 5.42903 16.6576 5.01302 16.8303C4.597 17.003 4.2196 17.2569 3.90286 17.5771L1.00571 20.4743C0.803873 20.6734 0.629046 20.8982 0.485714 21.1429H11.4286ZM20.5714 22.2857C19.5106 22.2857 18.4931 22.7071 17.743 23.4573C16.9929 24.2074 16.5714 25.2248 16.5714 26.2857V27.4286H18.8571C19.0087 27.4286 19.154 27.3684 19.2612 27.2612C19.3684 27.154 19.4286 27.0087 19.4286 26.8571C19.4286 26.4025 19.6092 25.9665 19.9307 25.645C20.2522 25.3235 20.6882 25.1429 21.1429 25.1429H29.7543C30.3499 25.1429 30.9211 24.9063 31.3422 24.4851C31.7634 24.064 32 23.4927 32 22.8971C31.9982 22.6921 31.9791 22.4875 31.9429 22.2857H20.5714ZM15.4286 26.2857C15.4286 25.2248 15.0071 24.2074 14.257 23.4573C13.5069 22.7071 12.4894 22.2857 11.4286 22.2857H0.0571428C0.0208794 22.4875 0.00176361 22.6921 0 22.8971C0 23.4927 0.236601 24.064 0.657754 24.4851C1.07891 24.9063 1.65011 25.1429 2.24571 25.1429H10.8571C11.3118 25.1429 11.7478 25.3235 12.0693 25.645C12.3908 25.9665 12.5714 26.4025 12.5714 26.8571C12.5714 27.0087 12.6316 27.154 12.7388 27.2612C12.846 27.3684 12.9913 27.4286 13.1429 27.4286H15.4286V26.2857Z" fill="#1E40AF"/>
</svg>
