<svg width="1133" height="40" viewBox="0 0 1133 40" fill="none" xmlns="http://www.w3.org/2000/svg">
<path d="M0.335938 14.9261C0.335938 14.9261 75.7618 41.9938 124.705 37.9372C169.061 34.2609 190.758 4.71153 235.13 1.41964C292.425 -2.83092 322.171 42.0068 379.474 37.9372C424.28 34.755 446.281 5.80108 491.03 1.41964C555.048 -4.84853 589.213 46.4162 653.087 37.9372C693.482 32.5748 753.336 1.41964 753.336 1.41964" stroke="#FFD45D" stroke-width="2" stroke-dasharray="10 10"/>
<g clip-path="url(#clip0_283_2679)">
<path d="M587.336 14.9261C587.336 14.9261 641.927 41.9938 677.351 37.9372C709.454 34.2609 725.158 4.71153 757.273 1.41964C798.742 -2.83092 820.271 42.0068 861.745 37.9372C894.175 34.755 910.098 5.80108 942.486 1.41964C988.821 -4.84853 1013.55 46.4162 1059.78 37.9372C1089.02 32.5748 1132.34 1.41964 1132.34 1.41964" stroke="#FFD45D" stroke-width="2" stroke-dasharray="10 10"/>
</g>
<defs>
<clipPath id="clip0_283_2679">
<rect width="379" height="38" fill="white" transform="translate(753.336 0.886719)"/>
</clipPath>
</defs>
</svg>
