<svg width="90" height="90" viewBox="0 0 90 90" fill="none" xmlns="http://www.w3.org/2000/svg">
<g clip-path="url(#clip0_139_1257)">
<path d="M22.4535 22.4182C10.0617 22.4182 0 32.4799 0 44.8717H44.9423C44.9423 32.4799 34.8806 22.4182 22.4535 22.4182Z" fill="#1E40AF"/>
<path d="M67.4322 67.5371C79.8593 67.5371 89.921 57.4754 89.921 45.0483H44.9434C44.9434 57.4754 55.0051 67.5371 67.4322 67.5371Z" fill="#1E40AF"/>
<path d="M22.3828 67.4665C22.3828 79.8583 32.4445 89.9553 44.8716 89.9553V44.9777C32.4445 44.9777 22.3828 55.0394 22.3828 67.4665Z" fill="#1E40AF"/>
<path d="M67.5024 22.4888C67.5024 10.0617 57.4406 0 45.0488 0V44.9776C57.4406 44.9776 67.5024 34.9159 67.5024 22.4888Z" fill="#1E40AF"/>
</g>
<defs>
<clipPath id="clip0_139_1257">
<rect width="89.92" height="89.9553" fill="white"/>
</clipPath>
</defs>
</svg>
