<svg width="100" height="100" viewBox="0 0 100 100" fill="none" xmlns="http://www.w3.org/2000/svg">
<rect width="100" height="100" rx="50" fill="#FFD45D"/>
<path d="M68.4744 36.5769L50.4744 30.5769C50.1665 30.4742 49.8335 30.4742 49.5256 30.5769L31.5256 36.5769C31.2269 36.6764 30.9672 36.8675 30.7831 37.1229C30.599 37.3783 30.5 37.6852 30.5 38V53C30.5 53.3978 30.658 53.7794 30.9393 54.0607C31.2206 54.342 31.6022 54.5 32 54.5C32.3978 54.5 32.7794 54.342 33.0607 54.0607C33.342 53.7794 33.5 53.3978 33.5 53V40.0812L39.7981 42.1794C38.1248 44.8827 37.5927 48.1397 38.3186 51.2351C39.0446 54.3304 40.9692 57.0112 43.67 58.6887C40.295 60.0125 37.3775 62.4069 35.2438 65.6806C35.1328 65.8456 35.0557 66.0309 35.017 66.2259C34.9783 66.4209 34.9787 66.6216 35.0183 66.8164C35.0578 67.0112 35.1357 67.1962 35.2474 67.3607C35.3591 67.5251 35.5023 67.6657 35.6688 67.7743C35.8353 67.8829 36.0217 67.9574 36.2173 67.9933C36.4128 68.0292 36.6135 68.0259 36.8077 67.9836C37.0019 67.9412 37.1858 67.8607 37.3487 67.7467C37.5115 67.6327 37.65 67.4874 37.7563 67.3194C40.5819 62.9844 45.0444 60.5 50 60.5C54.9556 60.5 59.4181 62.9844 62.2438 67.3194C62.4638 67.6464 62.8036 67.8736 63.1898 67.952C63.5761 68.0304 63.9776 67.9537 64.3077 67.7384C64.6378 67.5231 64.8699 67.1865 64.9539 66.8015C65.0378 66.4164 64.9668 66.0138 64.7563 65.6806C62.6225 62.4069 59.6938 60.0125 56.33 58.6887C59.0282 57.0113 60.951 54.3322 61.6768 51.2391C62.4027 48.146 61.8722 44.8913 60.2019 42.1887L68.4744 39.4325C68.7731 39.333 69.033 39.142 69.2171 38.8866C69.4012 38.6311 69.5003 38.3242 69.5003 38.0094C69.5003 37.6945 69.4012 37.3876 69.2171 37.1322C69.033 36.8767 68.7731 36.6857 68.4744 36.5862V36.5769ZM59 48.5C59.0004 49.9228 58.6635 51.3255 58.0168 52.5929C57.3701 53.8603 56.4322 54.9564 55.2799 55.7911C54.1276 56.6258 52.7938 57.1754 51.388 57.3949C49.9822 57.6143 48.5443 57.4973 47.1925 57.0534C45.8406 56.6096 44.6133 55.8515 43.6111 54.8415C42.609 53.8314 41.8606 52.5982 41.4273 51.2429C40.9941 49.8876 40.8884 48.4489 41.1188 47.0448C41.3493 45.6407 41.9094 44.3113 42.7531 43.1656L49.5256 45.4156C49.8335 45.5183 50.1665 45.5183 50.4744 45.4156L57.2469 43.1656C58.3865 44.7106 59.0009 46.5802 59 48.5Z" fill="#1E40AF"/>
</svg>
