<svg width="100" height="100" viewBox="0 0 100 100" fill="none" xmlns="http://www.w3.org/2000/svg">
<rect width="100" height="100" rx="50" fill="#FFD45D"/>
<path d="M70.9189 40.801C71.0168 40.6539 71.0168 40.5578 70.9679 40.4598C70.9189 40.3618 70.87 40.2656 70.7251 40.1676C70.5783 40.0696 70.4823 40.0206 70.3356 39.9735C70.2866 39.9735 70.2377 39.9245 70.1888 39.9245H70.042C69.9931 39.9245 69.9931 39.9245 69.9441 39.8755C69.7973 39.7285 69.6035 39.7285 69.4567 39.8755C69.4567 39.8265 69.5057 39.7775 69.5546 39.7775C69.7014 39.7285 69.7484 39.6304 69.7014 39.4853C69.7014 39.3873 69.6524 39.2912 69.6035 39.1931C69.5057 38.999 69.3608 38.95 69.1161 39.0951C69.1161 39.0461 69.1651 39.0461 69.214 38.9971C69.4078 38.9481 69.3608 38.803 69.3118 38.754C69.2629 38.5598 69.118 38.4618 69.0201 38.4128C68.8734 38.3638 68.7285 38.3638 68.5817 38.4618C68.4349 38.5598 68.2411 38.656 68.0943 38.754L67.8986 38.95C67.8496 39.048 67.8496 39.048 67.7047 38.999C67.5109 38.901 67.3152 38.852 67.1214 38.852C67.0725 38.852 66.9746 38.852 66.9275 38.803C66.5869 38.656 66.3931 38.803 66.2952 38.95C66.1974 39.048 66.1485 39.1441 66.0525 39.2912C65.9546 39.4853 65.7608 39.5833 65.5651 39.6323C65.3713 39.6813 65.1755 39.7303 65.0306 39.8265C64.9328 39.8755 64.8368 39.9735 64.7879 40.0696C64.69 40.2638 64.594 40.4108 64.3983 40.5088C64.2045 40.6068 64.1066 40.752 64.2045 40.948V40.997C64.1556 41.144 64.0577 41.1911 63.9128 41.1911C63.5722 41.1911 63.3294 41.2891 63.1337 41.4343C62.9869 41.4833 62.9399 41.4833 62.842 41.4833C62.6952 41.4833 62.6482 41.5813 62.5993 41.6774C62.5503 41.8245 62.5503 42.0186 62.6482 42.1166C62.6971 42.2146 62.842 42.3108 63.0377 42.3108H63.2316H63.2805V42.4088C63.2316 42.5558 63.2316 42.7009 63.3294 42.848C63.2316 42.897 63.1826 42.897 63.0867 42.946C62.9888 42.995 62.8928 42.995 62.795 42.995C62.6482 42.995 62.5033 42.946 62.3565 42.995C61.9669 43.142 61.5774 43.093 61.1878 42.995C60.9451 42.897 60.7494 42.995 60.6045 43.142C60.5066 43.289 60.3128 43.3361 60.1171 43.289C59.8254 43.24 59.5337 43.142 59.1931 42.9969C58.9993 42.9479 58.9014 42.8027 58.9014 42.6067C58.9014 42.4597 58.9503 42.3145 58.9503 42.1675C58.9993 41.8753 58.9993 41.6322 58.9503 41.3872C58.9014 41.193 58.7565 41.095 58.6097 41.046C58.4629 40.997 58.318 41.095 58.1712 41.193C57.9774 41.3872 57.8306 41.5342 57.6368 41.6322C57.49 41.7302 57.394 41.8754 57.49 42.1675C57.5389 42.2655 57.5879 42.3145 57.5879 42.3617L57.6368 42.4597C57.6857 42.5087 57.6857 42.6067 57.6368 42.6538C57.4429 42.897 57.49 43.044 57.6368 43.2871C57.6857 43.3361 57.6857 43.4342 57.6857 43.4813C57.6857 43.6283 57.6368 43.7244 57.5389 43.7734C57.4411 43.8224 57.3451 43.8224 57.1983 43.8224H57.1494H57.1004H57.0515C56.9047 43.8224 56.7109 43.7734 56.5641 43.9205C56.3703 43.6773 56.2235 43.6283 55.9318 43.7734C55.785 43.8224 55.6891 43.8715 55.5912 43.8224C55.5423 43.8224 55.4444 43.7734 55.3974 43.7734C55.3484 43.7734 55.2506 43.7244 55.2035 43.7244C55.0097 43.6754 54.814 43.6264 54.6202 43.7734H54.5713L54.5223 43.7244C54.5223 43.7244 54.5223 43.6754 54.4734 43.6754V43.6264C54.4245 43.4323 54.3266 43.3343 54.1817 43.2853C54.0349 43.2362 53.939 43.2853 53.7432 43.3833C53.6454 43.4323 53.5494 43.4323 53.4516 43.3343C53.3537 43.2362 53.2088 43.0911 53.0131 43.0911V43.0421C53.062 42.848 53.0131 42.7009 52.9152 42.6029C52.8174 42.5049 52.6725 42.4088 52.5257 42.4088H52.3789H52.281C52.2321 42.4088 52.1343 42.4088 52.0872 42.3598C51.9404 42.3108 51.7466 42.3108 51.5998 42.4088C51.5509 42.4578 51.453 42.4578 51.3571 42.4088C51.3081 42.4088 51.3081 42.4088 51.2592 42.3598C51.2103 42.3108 51.1124 42.3108 51.0654 42.2618C50.9675 42.2128 50.8715 42.2128 50.8226 42.2618C50.7737 42.3108 50.7248 42.3598 50.7248 42.4088C50.6758 42.4088 50.6758 42.3598 50.6269 42.3598L50.578 42.3108C50.4801 42.2618 50.4312 42.2618 50.3352 42.2128C50.2374 42.2128 50.1884 42.1638 50.1414 42.0657C50.2374 42.0676 50.1414 41.9696 49.9457 41.9696H49.7518C49.654 41.9696 49.558 41.9696 49.5091 41.8716C49.4601 41.8226 49.3623 41.7736 49.3152 41.7246C49.1685 41.6266 49.0236 41.6266 48.9746 41.7246C48.9257 41.7736 48.8768 41.7736 48.7808 41.7246C48.7319 41.6756 48.634 41.6266 48.587 41.5775C48.4891 41.5285 48.4402 41.4305 48.3442 41.3834C48.2953 41.3344 48.1974 41.2854 48.1014 41.2854C48.0525 41.2854 48.0036 41.2364 48.0036 41.1874C47.9547 41.0404 47.9057 40.9442 47.7608 40.8952L47.567 40.7972C47.4202 40.7482 47.3242 40.6992 47.1775 40.6502C47.1285 40.6012 47.0307 40.6012 46.9836 40.5522C46.8368 40.4051 46.7409 40.26 46.5452 40.211C46.5452 40.113 46.643 40.064 46.6919 39.9679C46.8387 39.8208 46.8858 39.6757 46.8387 39.4797C46.7898 39.3817 46.8387 39.3327 46.8877 39.3327C46.9366 39.2836 46.9855 39.2346 46.9855 39.1385C46.9855 38.9444 47.0834 38.7973 47.2772 38.6503C47.3261 38.6013 47.3261 38.6013 47.3751 38.5523C47.424 38.5033 47.4729 38.4543 47.5689 38.4053L47.6178 38.3563C47.6667 38.3563 47.6667 38.3073 47.7157 38.3073C47.8135 38.2583 47.8624 38.1603 47.8135 38.0641C47.8135 37.9661 47.7646 37.9171 47.6667 37.87C47.6178 37.821 47.5689 37.772 47.4729 37.723C47.424 37.674 47.424 37.674 47.375 37.625H47.3261C47.2772 37.5759 47.2283 37.5269 47.1793 37.5269C47.0815 37.4779 46.9366 37.4289 46.8387 37.4289L46.7409 37.3799V37.3309C46.7409 37.0878 46.643 36.9898 46.4002 36.9898H46.3513C46.2535 36.7956 46.1086 36.6976 45.8639 36.7466C45.7661 36.7466 45.7171 36.7466 45.6212 36.6486V36.5996C45.5722 36.5506 45.5233 36.4526 45.4273 36.4054C45.3784 36.3564 45.3295 36.3074 45.3295 36.2584C45.2316 36.0153 45.0867 35.9173 44.8421 35.9663C44.7932 35.9663 44.7442 36.0153 44.6953 36.0153C44.7442 35.9663 44.7932 35.8211 44.6464 35.6741C44.5974 35.6251 44.5974 35.5761 44.6464 35.5271C44.7442 35.2839 44.6953 35.1369 44.4996 34.9918C44.4017 34.8937 44.3528 34.7976 44.3528 34.6506C44.3528 34.6016 44.4017 34.4564 44.3039 34.4074L44.4017 34.3094L44.4507 34.3584C44.4996 34.4074 44.4996 34.4564 44.5485 34.5055C44.6953 34.6996 44.8891 34.6996 45.083 34.6035L45.1319 34.5545C45.1808 34.5055 45.2297 34.5055 45.2787 34.4564C45.3276 34.4564 45.3276 34.4074 45.3765 34.4074L45.4255 34.3584C45.5722 34.3584 45.6682 34.2604 45.6682 34.1643C45.7172 34.0663 45.6682 33.9702 45.6193 33.8721C45.5214 33.7741 45.5214 33.7251 45.5214 33.58V33.531V33.482C45.5214 33.3349 45.5214 33.2388 45.4236 33.1408C45.3747 33.0918 45.2768 33.0428 45.1319 33.0428C45.083 33.0428 45.083 33.0428 45.083 32.9938C45.083 32.9448 45.034 32.8958 44.9851 32.7996L44.9362 32.7506C44.9362 32.6526 44.8873 32.5075 44.8383 32.4585C44.8383 32.4585 44.8383 32.4095 44.7894 32.4095C44.8873 32.3115 44.9362 32.2153 44.9362 32.0683C45.034 32.0193 45.083 32.0193 45.179 32.0193C45.5196 32.0193 45.6663 31.9213 45.7623 31.5801C45.8112 31.386 45.9091 31.288 46.054 31.1899C46.1029 31.1409 46.1519 31.1409 46.1519 31.0919C46.2008 31.0429 46.2497 31.0429 46.2986 30.9939C46.5903 30.8469 46.7371 30.6037 46.7371 30.2626V30.2136V30.1156C46.7371 30.0666 46.786 29.9685 46.786 29.9214C46.8839 29.7744 46.9328 29.6293 46.835 29.4822C46.978 29.3955 46.8801 29.2975 46.6863 29.2975C46.5885 29.2975 46.4435 29.2485 46.3457 29.1995C46.1519 29.1015 46.0051 28.9074 45.8583 28.7113C45.7115 28.5643 45.5666 28.5172 45.3709 28.5643C45.2731 28.5643 45.2241 28.6133 45.1281 28.6623C45.0792 28.6623 45.0303 28.7113 44.9814 28.7113H44.9324C44.8835 28.7113 44.7856 28.7603 44.7386 28.7603C44.4469 28.8093 44.2041 28.9074 44.0085 29.0525C43.8146 29.1995 43.6189 29.2466 43.4251 29.1995H43.2783H43.1805L43.0337 29.1505C42.7909 29.1015 42.5463 29.0525 42.3035 28.9564C42.2057 28.9074 42.1097 28.8584 42.0608 28.7622C41.9629 28.5681 41.8669 28.5191 41.6712 28.5681H41.5734C41.4755 28.5681 41.3795 28.5681 41.3306 28.5191C41.2817 28.4701 41.2817 28.3721 41.2817 28.2759C41.2817 28.1779 41.3306 28.0328 41.3795 27.8858C41.4285 27.7387 41.4285 27.5936 41.3795 27.4956C41.2817 27.2524 41.1368 27.1054 40.8921 27.0074C40.8432 27.0074 40.8432 26.9584 40.7943 26.9584C40.5515 26.8604 40.3558 26.8114 40.2109 26.6172C40.162 26.5192 40.0171 26.4702 39.9192 26.5192C39.8703 26.5192 39.8703 26.5192 39.8214 26.5682C39.7724 26.5682 39.7724 26.6172 39.7235 26.6172H39.6257C39.4789 26.5192 39.2361 26.4702 39.0912 26.5682C38.9482 26.7624 38.7543 26.8114 38.6076 26.8604H38.0242H37.7325H37.6836C37.4898 26.8604 37.2451 26.8604 37.0513 27.0074H36.9534H36.9045H36.7577H36.6599C36.466 27.0074 36.3193 27.1054 36.2214 27.2996C36.2214 27.3486 36.1725 27.3976 36.1235 27.4466C35.8808 27.5936 35.7829 27.7878 35.7829 28.0309C35.7829 28.274 35.9297 28.4701 36.1725 28.6152C36.2214 28.6152 36.2703 28.6642 36.2703 28.6642C36.3193 28.6642 36.4171 28.7132 36.4642 28.7622C36.7069 28.9092 36.9515 29.0544 37.0965 29.2975C37.1454 29.3465 37.1943 29.3956 37.2432 29.4446C37.2432 29.4446 37.2922 29.4446 37.2922 29.4936C37.2922 29.4936 37.3411 29.5426 37.39 29.5426C37.39 29.5426 37.439 29.5426 37.439 29.5916C37.5368 29.7386 37.6817 29.8347 37.9263 29.8837C37.9753 29.8837 38.0242 29.9327 38.0731 29.9327C38.1221 29.9327 38.171 29.9818 38.2199 29.9818C38.2688 29.9818 38.3178 30.0308 38.2688 30.1288C38.2688 30.2268 38.2199 30.2758 38.2199 30.3719C38.2199 30.4209 38.171 30.5189 38.171 30.5661C38.0731 30.9072 38.0731 31.1994 38.2199 31.4916C38.2688 31.5896 38.2688 31.7347 38.2688 31.8327V31.9307V32.6621V32.7111C38.2688 32.8091 38.2688 32.9052 38.171 32.9542C38.1221 33.0032 38.0731 33.1012 38.1221 33.1484C38.171 33.2464 38.2688 33.4405 38.5116 33.4895H38.5605V33.5385C38.5116 33.6856 38.6095 33.8307 38.7073 33.8797C38.7562 33.9287 38.8541 33.9287 38.9011 33.9777C38.9011 33.9777 38.9501 33.9777 38.9501 34.0267V34.0757V34.2699C38.9501 34.3189 38.9501 34.3679 38.999 34.4169C39.0479 34.4659 39.0969 34.4659 39.1458 34.4659H39.3396H39.4864C39.6332 34.4659 39.7292 34.5149 39.827 34.6129C39.7781 34.6129 39.7292 34.6619 39.6802 34.6619C39.5334 34.7109 39.3885 34.809 39.1928 34.9051C38.9501 35.0031 38.7544 35.1482 38.6095 35.2462C38.5116 35.2953 38.5116 35.3443 38.5116 35.3933C38.5116 35.4423 38.5116 35.4913 38.6095 35.5403C38.8033 35.6383 38.8033 35.7344 38.7073 35.8815C38.6095 36.0285 38.5135 36.1736 38.4157 36.3206C38.3667 36.3696 38.3178 36.4187 38.2689 36.4677C37.9282 36.8578 37.5876 37.297 37.4898 37.8323C37.0513 37.8813 36.8575 38.0755 36.6617 38.4656C36.6128 38.6127 36.5639 38.7578 36.5149 38.9048C36.4171 39.148 36.2722 39.344 36.0275 39.4401C35.8808 39.4891 35.7848 39.5872 35.638 39.6343C35.3952 39.7813 35.1995 39.9754 35.1035 40.1696C35.0546 40.2676 34.9568 40.4128 34.9097 40.5598C34.7159 40.8519 34.4712 40.999 34.1796 40.999C33.8879 40.999 33.6451 41.048 33.4005 41.146H33.3026C33.1088 41.195 33.0599 41.146 32.962 40.999V40.9499C32.9131 40.9009 32.9131 40.8519 32.8641 40.8029C32.7663 40.6559 32.6214 40.6088 32.4257 40.6559C32.3767 40.6559 32.2789 40.7049 32.2789 40.8029C32.2789 40.8519 32.23 40.9009 32.23 40.9009C31.9872 40.999 31.9383 41.1931 31.8893 41.3891C31.8404 41.5833 31.7915 41.6813 31.5977 41.7303C31.306 41.8283 31.1592 42.0715 31.1103 42.3636C31.0613 42.6068 31.0613 42.8028 31.2081 42.9479C31.306 43.0949 31.4998 43.1911 31.7426 43.2401H31.7915C31.8404 43.2401 31.8894 43.2401 31.9383 43.2891C31.9383 43.2891 31.9872 43.2891 31.9872 43.3381C31.9872 43.3871 31.9383 43.4361 31.9383 43.4851C31.8894 43.6321 31.8404 43.7773 31.8404 43.9733C31.7915 44.3635 31.9383 44.6556 32.3749 44.7536H32.4238C32.4727 44.7536 32.5217 44.7536 32.5706 44.8026C32.6685 44.8026 32.7174 44.9007 32.7174 44.9968V45.0458C32.7174 45.1928 32.7663 45.387 32.8152 45.534C32.9131 45.8261 32.962 46.1183 33.0091 46.4595C33.0091 46.7026 33.0091 46.7026 32.7663 46.7516C32.7663 46.7516 32.7174 46.7516 32.7174 46.7026C32.6195 46.5556 32.5236 46.5085 32.3768 46.5085C32.0851 46.5085 31.8423 46.5575 31.6466 46.7026C31.5488 46.8006 31.4528 46.8006 31.306 46.7026C30.9165 46.5085 30.5269 46.4595 30.1863 46.4105C29.9925 46.4105 29.8946 46.4105 29.8457 46.5085C29.7478 46.6065 29.7478 46.7026 29.7478 46.8986V46.9967H29.6989H29.65H29.5521C29.3094 46.9967 29.0647 47.1437 29.0177 47.3868C28.9687 47.581 29.0177 47.826 29.2115 47.9711C29.2604 47.9711 29.2604 48.0201 29.2604 48.0691C29.3094 48.4103 29.5521 48.5573 29.7478 48.6534C29.8457 48.7024 29.9417 48.7514 30.0395 48.8476C30.0884 48.8966 30.1374 48.8966 30.1863 48.9456C30.2352 48.9946 30.3331 49.0436 30.3801 49.0436C30.478 49.0926 30.574 49.1906 30.7207 49.2377C30.9146 49.3358 31.0614 49.3358 31.2552 49.2377C31.3531 49.1887 31.402 49.1887 31.498 49.1397C31.6447 49.0907 31.7897 49.0907 31.8875 49.1397C31.8386 49.1887 31.7897 49.1887 31.7407 49.1887C31.5939 49.1887 31.449 49.2868 31.3512 49.3829C31.2533 49.4809 31.1573 49.5299 31.0106 49.577H30.9127C30.7659 49.577 30.621 49.626 30.4742 49.675C30.3764 49.724 30.3764 49.724 30.2804 49.577C30.1825 49.43 30.0866 49.3829 29.8909 49.43C29.7441 49.479 29.697 49.577 29.697 49.7712C29.697 49.9653 29.7949 50.1613 29.9398 50.3065C29.9944 50.3536 29.9944 50.3536 30.0433 50.4026C30.0922 50.4516 30.1411 50.5006 30.1901 50.5496C30.4328 50.8418 30.6286 51.1339 30.8224 51.379L31.2119 51.8672C31.2609 51.9652 31.3587 52.0142 31.4058 52.1103C31.8931 52.6457 32.4276 52.7927 33.1089 52.5495C33.1578 52.5005 33.2556 52.5005 33.3027 52.4515C33.4495 52.4025 33.5454 52.3535 33.6922 52.3045C33.935 52.2555 34.1307 52.1575 34.3245 52.0613C34.3735 52.0123 34.4224 52.0123 34.5184 51.9633C34.6162 51.9143 34.7122 51.8163 34.7122 51.6712V51.5732V51.33C34.7611 51.1359 34.7122 50.9888 34.6143 50.8418V50.7928L34.6633 50.7438C34.8571 50.6458 34.906 50.4517 34.8571 50.2556L35.0039 50.3046V50.3536V50.5478V50.6458C34.906 50.987 34.906 51.085 35.1507 51.2301C34.9568 51.4242 34.9079 51.5713 35.0528 51.8634C35.1017 51.9614 35.1507 52.0576 35.1996 52.1556C35.2975 52.3026 35.2975 52.4477 35.2975 52.6438C35.2975 52.6928 35.2975 52.7908 35.2485 52.8379C35.1996 53.0811 35.1507 53.2771 35.0547 53.5203C34.9568 53.7144 34.9079 53.9104 34.9568 54.1536C35.0547 54.5437 35.0547 54.983 35.0547 55.3241C35.0547 55.3731 35.0547 55.5182 35.2015 55.5673V55.6163C35.0547 55.8594 35.0547 56.0554 35.2015 56.3476C35.2504 56.3966 35.2504 56.4946 35.2504 56.5417C35.2504 56.8339 35.2993 57.0771 35.3483 57.3221V57.3711C35.3972 57.5652 35.4461 57.7613 35.4461 57.9554V58.2966V58.6867C35.495 59.0769 35.5929 59.5161 35.64 59.9043V59.9534C35.6889 60.2455 35.7867 60.4887 35.9316 60.6357L35.9806 60.6847C36.0784 60.7827 36.1274 60.8317 36.0784 60.9279V61.0259C36.0784 61.0749 36.0784 61.0749 36.1273 61.1239C36.1273 61.2219 36.1763 61.2709 36.1763 61.367C36.2252 61.8552 36.419 62.2925 36.7596 62.5847C36.9064 62.7317 36.9535 62.8768 37.0024 63.0728C37.0513 63.267 37.0513 63.512 37.1492 63.7062C37.296 63.9983 37.343 64.2905 37.343 64.5826C37.343 65.0218 37.3919 65.412 37.5858 65.8003C37.7796 66.1904 37.9753 66.5806 38.1691 67.0179C38.2181 67.1159 38.3159 67.212 38.4119 67.31C38.5097 67.359 38.5587 67.4571 38.5587 67.6022C38.6076 67.7963 38.6565 67.8944 38.7055 68.0414C38.8523 68.2845 38.9482 68.5296 39.0461 68.7727C39.095 68.9197 39.1439 69.0159 39.1929 69.1629C39.2418 69.2609 39.2418 69.3099 39.2907 69.406C39.3396 69.504 39.3396 69.6492 39.3886 69.7472C39.3886 69.7962 39.4375 69.8942 39.4375 69.9903C39.4375 70.0884 39.4375 70.1374 39.4864 70.2335C39.5354 70.3805 39.5354 70.4766 39.5843 70.6237C39.6332 70.7217 39.6332 70.8178 39.6332 70.9158C39.6821 71.0628 39.6821 71.159 39.7311 71.306C39.78 71.5491 39.8289 71.8413 39.9249 72.0863C40.0717 72.5745 40.3144 72.9157 40.704 73.0608C40.9468 73.1588 41.1425 73.255 41.3852 73.402C41.4831 73.451 41.628 73.5 41.7748 73.5C41.8237 73.5 41.8726 73.5 41.9686 73.451C42.2114 73.353 42.456 73.2569 42.6988 73.0118C42.7966 72.9138 42.7966 72.7687 42.7477 72.6706V72.6216C42.7477 72.5236 42.6988 72.4275 42.6988 72.3295C42.6988 72.1825 42.7477 72.0863 42.7966 71.9393V71.8903C42.8455 71.7433 42.9434 71.6962 43.0883 71.6962C43.38 71.7452 43.6717 71.6472 43.9163 71.5982C44.1102 71.5491 44.208 71.4511 44.1591 71.208C44.1102 71.0138 44.1591 70.8668 44.3059 70.7688C44.4997 70.5256 44.6954 70.2806 44.7933 69.9884C44.7933 69.9394 44.8422 69.8904 44.9401 69.8904C45.0869 69.8904 45.2318 69.8904 45.3786 69.9394C45.4275 69.9394 45.5253 69.9394 45.5253 69.8904C45.5253 69.8904 45.5743 69.8414 45.5743 69.7924V69.7434C45.5743 69.5964 45.6232 69.5003 45.5743 69.3532C45.5253 69.0611 45.5253 68.8179 45.5253 68.5729C45.5743 68.3297 45.5743 68.0376 45.4764 67.7925C45.3786 67.5984 45.4275 67.4024 45.5743 67.1592C45.7681 66.8671 45.9149 66.5749 46.0617 66.3298L46.1106 66.2318C46.2084 66.0377 46.2574 65.8417 46.2084 65.6475C46.2084 65.5985 46.2084 65.5005 46.2574 65.4044C46.3552 65.2102 46.4042 65.0142 46.3552 64.8201C46.3063 64.7221 46.3063 64.6259 46.2574 64.4789C46.2084 64.3319 46.2084 64.2358 46.2574 64.1377C46.3552 63.9436 46.3552 63.7476 46.2084 63.6024C46.1106 63.5044 46.1106 63.4083 46.1595 63.2613C46.2574 62.9691 46.2574 62.677 46.1106 62.3358C46.0617 62.1887 46.0127 62.0926 46.0617 61.9946C46.1595 61.8005 46.1595 61.6534 46.1595 61.4103C46.1595 61.3123 46.1595 61.2633 46.2574 61.2162H46.3063C46.3552 61.2162 46.3552 61.2162 46.4042 61.1671C46.4531 61.1671 46.502 61.1181 46.502 61.1181C46.5999 61.0691 46.6488 61.0201 46.7448 61.0201H46.7937C46.8426 61.0691 46.8426 61.0691 46.8915 61.1181C46.9405 61.1671 46.9894 61.2162 47.0383 61.2162C47.1362 61.2652 47.2322 61.2652 47.33 61.2652C47.3789 61.2652 47.4279 61.2162 47.4768 61.1671C47.5257 61.0691 47.5257 60.973 47.5747 60.924C47.6236 60.826 47.6236 60.7299 47.6725 60.6318C47.6725 60.5828 47.7214 60.5338 47.7214 60.5338C47.8193 60.4848 47.8682 60.4358 47.8682 60.3397V60.2417H47.9661C48.015 60.2417 48.015 60.2417 48.0639 60.2907C48.1129 60.2907 48.1618 60.3397 48.2107 60.3397C48.2107 60.3397 48.3575 60.3397 48.4046 60.2907C48.4535 60.1927 48.5513 60.1927 48.6473 60.1927H48.7941H48.9409C49.1837 60.1927 49.3794 60.0947 49.4753 59.9005C49.5732 59.6574 49.6221 59.4123 49.5243 59.1692C49.4753 59.1202 49.5243 59.0712 49.5732 59.0222L49.6221 58.9732C49.6711 58.9241 49.72 58.9241 49.7689 58.8751C49.8668 58.7771 50.0117 58.681 50.2074 58.632C50.5969 58.534 50.8397 58.3398 50.9865 57.9987C51.1333 57.7065 51.3271 57.5105 51.6677 57.4144H51.7167H51.7656C51.9594 57.3164 52.1551 57.2202 52.3001 57.0242C52.349 56.9752 52.3979 56.9262 52.4468 56.8772C52.4958 56.8282 52.5447 56.7792 52.5936 56.683C52.5936 56.634 52.6426 56.634 52.6426 56.585C52.7404 56.487 52.8364 56.3419 52.8853 56.1948C52.9832 55.9027 53.177 55.6595 53.3727 55.4635C53.6155 55.2204 53.9072 54.9753 54.2478 54.7812C54.2967 54.7322 54.3946 54.7322 54.4905 54.6832C54.6844 54.6342 54.8801 54.5851 55.1228 54.5361L55.3167 54.4871C55.5105 54.4381 55.6084 54.3401 55.7062 54.195C55.7551 54.097 55.8041 54.048 55.853 54.0008C55.9508 53.9028 56.0468 53.8067 56.0958 53.6597C56.0958 53.5617 56.1447 53.4655 56.2896 53.4165C56.3385 53.3675 56.3874 53.3675 56.4364 53.3185C56.5342 53.2205 56.6302 53.1244 56.6302 53.0263C56.6302 52.9283 56.6302 52.7832 56.5323 52.6852C56.4834 52.6362 56.4834 52.5872 56.4345 52.5381L56.3856 52.4891C56.3366 52.4401 56.3366 52.3911 56.3366 52.295C56.3366 52.246 56.3856 52.197 56.4345 52.148C56.4834 52.148 56.4834 52.099 56.5323 52.099C56.6791 52.001 56.7751 51.9048 56.824 51.7578C56.824 51.7088 56.873 51.6598 56.9708 51.6598C57.2136 51.6108 57.4093 51.6108 57.6521 51.5618H57.8459C57.8948 51.6598 57.9927 51.7559 58.1376 51.7559C58.2844 51.7559 58.4293 51.6579 58.4293 51.5128H58.5761C58.625 51.5618 58.6739 51.6108 58.6739 51.6108H58.7228C58.7718 51.5618 58.8207 51.6108 58.9167 51.6108H58.9656C58.9656 51.6108 59.0635 51.6108 59.1124 51.5618C59.1613 51.5128 59.1613 51.5128 59.2102 51.5618H59.2592C59.406 51.6108 59.5019 51.5618 59.5509 51.4638C59.5998 51.3657 59.5998 51.2696 59.5509 51.1226C59.453 50.9284 59.453 50.9285 59.5998 50.7814C59.6487 50.7324 59.6976 50.6344 59.6976 50.5383C59.6976 50.4893 59.6487 50.4403 59.5998 50.3913C59.453 50.2932 59.453 50.1971 59.453 49.9521C59.453 49.805 59.4041 49.6109 59.3062 49.3678C59.2573 49.2698 59.2084 49.1736 59.2573 49.0756C59.3062 48.9776 59.3062 48.8815 59.2573 48.8325C59.2084 48.7835 59.1594 48.7344 59.0145 48.6854H58.9656C59.0635 48.4913 59.0145 48.3933 58.8188 48.2463L58.7699 48.1973C58.721 48.0992 58.7699 48.0502 58.8188 47.9541C59.0126 47.8071 58.9656 47.7109 58.8677 47.5639C58.8677 47.4169 58.8677 47.3208 58.7699 47.1738C58.672 47.0267 58.5271 46.9796 58.3314 46.9306C58.2825 46.9306 58.2336 46.8816 58.1846 46.8326C58.0868 46.7836 58.0378 46.6856 57.9908 46.6384L57.9419 46.5894L57.8929 46.5404C57.8929 46.4914 57.9419 46.4424 57.9419 46.4424C58.0886 46.3934 58.1846 46.3444 58.2825 46.2483C58.3803 46.1503 58.4293 46.1013 58.4293 45.9561V45.9071H58.5271C58.6739 45.9071 58.8188 45.9071 58.9167 45.8581C59.0145 45.8581 59.1105 45.7601 59.1105 45.664C59.1594 45.566 59.1105 45.4698 59.0616 45.4208C59.0126 45.3718 58.9637 45.3718 58.9148 45.3228C58.9148 45.1287 58.8169 45.0796 58.6231 45.0796H58.4293C58.3314 44.8855 58.1865 44.8365 58.0397 44.7875C57.9908 44.7875 57.9419 44.7385 57.8929 44.7385C57.9908 44.6895 58.0397 44.5443 57.9908 44.3973L58.0397 44.3483C58.1865 44.2503 58.2335 44.1542 58.2825 44.0071V43.9581H58.3314C58.3314 43.9581 58.3803 43.9581 58.3803 44.0071C58.4293 44.0562 58.4782 44.0562 58.5271 44.0562H58.576C58.625 44.1052 58.7228 44.1542 58.8188 44.1542C59.0126 44.1542 59.0126 44.1052 59.0616 43.96C59.0616 44.009 59.1105 44.009 59.1105 44.058C59.1594 44.156 59.2083 44.3012 59.3043 44.3502C59.4511 44.3992 59.596 44.4482 59.7428 44.4972H59.9366C59.9856 44.4482 59.9856 44.3502 59.9856 44.3031V44.2541H60.0345V44.3031C60.0345 44.3521 60.0834 44.4501 60.0834 44.4972C60.1323 44.5952 60.1323 44.6442 60.0834 44.6914C59.9366 44.8855 59.9366 45.1795 60.0345 45.3737C60.1323 45.6169 60.3262 45.7639 60.5689 45.8129C60.9096 45.8619 61.2012 45.9109 61.4929 45.9109C61.7846 45.9109 62.0763 45.8619 62.321 45.8619C62.4188 45.8619 62.4678 45.8619 62.5638 45.8129H62.6127C62.8065 45.8129 63.0022 45.7639 63.196 45.8129C63.3899 45.8619 63.5856 45.8619 63.7305 45.8129H63.8284C63.6345 45.9599 63.5856 46.1541 63.5367 46.3011C63.5367 46.3501 63.5367 46.3501 63.4877 46.3991V46.4971C63.4388 46.7402 63.245 46.9363 62.9533 46.9853C62.6127 47.0833 62.2231 47.2774 62.1742 47.8146V47.8636V48.0107C62.1742 48.2048 62.1253 48.4008 62.2231 48.546C62.3699 48.7891 62.5637 48.9852 62.7576 49.1303C62.9514 49.2773 63.245 49.2283 63.4388 49.0323C63.5367 48.9343 63.5367 48.7891 63.4388 48.6911C63.4388 48.6911 63.4388 48.6421 63.3899 48.6421C63.4877 48.4951 63.5837 48.3009 63.5837 48.1068H63.7775V48.1558C63.7775 48.2048 63.8265 48.3028 63.8265 48.3499C63.8754 48.7401 63.9243 49.0323 64.1182 49.3244C64.1671 49.3734 64.1671 49.4714 64.1671 49.5186V49.6166V49.7636C64.1671 49.8616 64.216 50.0067 64.216 50.1538C64.216 50.2028 64.3139 50.3008 64.3628 50.3479C64.4607 50.3969 64.6056 50.4459 64.7034 50.4949C64.8502 50.5439 64.9462 50.5439 65.044 50.3969C65.2379 50.1048 65.4336 49.7636 65.2868 49.2754C65.2379 49.0813 65.2379 48.9342 65.3357 48.7401C65.3847 48.6911 65.3847 48.6421 65.4336 48.5931C65.5314 48.446 65.5804 48.2519 65.5314 48.0577C65.5314 47.9107 65.4825 47.7656 65.4825 47.6186V47.5206H65.5314C65.5804 47.4715 65.6293 47.4715 65.6293 47.4225C65.6293 47.3735 65.6293 47.3735 65.6782 47.3735H65.7761C65.825 47.3735 65.8739 47.4225 65.9699 47.4225C66.0678 47.4715 66.1167 47.4715 66.2127 47.5206C66.4065 47.5696 66.5533 47.5206 66.6511 47.3264C66.7001 47.2284 66.749 47.1323 66.749 47.0343C66.7979 46.8401 66.8469 46.6931 66.8958 46.4989C66.9936 46.0108 67.1385 45.5245 67.1875 45.0363V44.9873C67.4792 44.8403 67.6259 44.5481 67.7708 44.2559C67.9176 43.9148 67.9647 43.6226 67.8198 43.3305V43.2814C67.8198 43.1834 67.8198 43.1344 67.8687 43.0873C67.9176 43.0383 67.9665 42.9893 68.0155 42.9403C68.0644 42.8913 68.0644 42.8423 68.1133 42.8423L68.1622 42.7933C68.2112 42.7443 68.2601 42.6953 68.3561 42.6462C68.5499 42.5482 68.6967 42.4521 68.7946 42.2071C68.8435 42.0129 68.9884 41.9639 69.1841 41.9149C69.4269 41.9149 69.5736 41.8659 69.7186 41.7208C69.7675 41.6717 69.8164 41.6718 69.8164 41.6718C69.8653 41.6718 69.8653 41.7208 69.9143 41.7698C69.9143 41.7698 69.9632 41.8188 69.9632 41.8678V41.9168C70.0121 42.0148 70.061 42.0638 70.157 42.1109C70.2549 42.1599 70.3038 42.1109 70.3998 42.0619C70.4487 42.0129 70.4976 42.0129 70.4976 41.9149C70.4976 41.8659 70.4976 41.8169 70.4487 41.7679C70.3998 41.7189 70.3509 41.6699 70.3019 41.6208L70.253 41.5718C70.0102 41.2797 70.0102 41.2307 70.3019 40.9875C70.7253 41.0441 70.823 40.8971 70.9189 40.801Z" fill="#1E40AF"/>
</svg>
