<svg width="100" height="100" viewBox="0 0 100 100" fill="none" xmlns="http://www.w3.org/2000/svg">
<rect width="100" height="100" rx="50" fill="#FFD45D"/>
<path d="M69.9292 47.5344L61.4917 54.815L64.0624 65.7031C64.2042 66.2942 64.1677 66.914 63.9574 67.4843C63.7472 68.0547 63.3726 68.5499 62.881 68.9074C62.3894 69.265 61.8029 69.4688 61.1956 69.4932C60.5882 69.5175 59.9873 69.3614 59.4686 69.0444L49.9999 63.2169L40.5255 69.0444C40.0069 69.3595 39.4067 69.5142 38.8004 69.489C38.1941 69.4637 37.6088 69.2596 37.1183 68.9023C36.6277 68.5451 36.2538 68.0507 36.0437 67.4814C35.8336 66.9121 35.7966 66.2934 35.9374 65.7031L38.5174 54.815L30.0799 47.5344C29.6211 47.1378 29.2892 46.6149 29.1259 46.0309C28.9625 45.4469 28.9747 44.8277 29.1612 44.2506C29.3476 43.6736 29.6999 43.1642 30.1741 42.7862C30.6482 42.4081 31.2233 42.1782 31.8274 42.125L42.8899 41.2325L47.1574 30.905C47.3884 30.3422 47.7815 29.8607 48.2868 29.5219C48.7921 29.1831 49.3868 29.0021 49.9952 29.0021C50.6036 29.0021 51.1982 29.1831 51.7036 29.5219C52.2089 29.8607 52.602 30.3422 52.833 30.905L57.0986 41.2325L68.1611 42.125C68.7664 42.1762 69.3431 42.4049 69.819 42.7824C70.2949 43.1599 70.6489 43.6695 70.8364 44.2472C71.024 44.825 71.0369 45.4453 70.8736 46.0303C70.7102 46.6154 70.3778 47.1393 69.918 47.5362L69.9292 47.5344Z" fill="#1E40AF"/>
</svg>
