<svg width="1065" height="100" viewBox="0 0 1065 100" fill="none" xmlns="http://www.w3.org/2000/svg">
<rect x="295.838" width="100" height="100" rx="50" fill="#FFD45D"/>
<path d="M0.337891 45.0394C0.337891 45.0394 75.7637 72.1071 124.707 68.0505C169.063 64.3741 190.76 34.8248 235.132 31.5329C292.427 27.2824 322.173 72.1201 379.476 68.0505C424.282 64.8683 446.283 35.9144 491.032 31.5329C555.05 25.2647 589.215 76.5294 653.089 68.0505C693.484 62.6881 753.338 31.5329 753.338 31.5329" stroke="#FFD45D" stroke-width="2" stroke-dasharray="10 10"/>
<g clip-path="url(#clip0_139_1230)">
<g clip-path="url(#clip1_139_1230)">
<path d="M599.838 43.0394C599.838 43.0394 654.429 70.1071 689.853 66.0505C721.956 62.3741 737.66 32.8248 769.775 29.5329C811.244 25.2824 832.773 70.1201 874.247 66.0505C906.677 62.8683 922.6 33.9144 954.988 29.5329C1001.32 23.2647 1026.05 74.5294 1072.28 66.0505C1101.52 60.6881 1144.84 29.5329 1144.84 29.5329" stroke="#FFD45D" stroke-width="2" stroke-dasharray="10 10"/>
</g>
</g>
<path d="M364.312 36.5769L346.312 30.5769C346.004 30.4742 345.671 30.4742 345.364 30.5769L327.364 36.5769C327.065 36.6764 326.805 36.8675 326.621 37.1229C326.437 37.3783 326.338 37.6852 326.338 38V53C326.338 53.3978 326.496 53.7794 326.777 54.0607C327.059 54.342 327.44 54.5 327.838 54.5C328.236 54.5 328.617 54.342 328.899 54.0607C329.18 53.7794 329.338 53.3978 329.338 53V40.0812L335.636 42.1794C333.963 44.8827 333.431 48.1397 334.157 51.2351C334.882 54.3304 336.807 57.0112 339.508 58.6887C336.133 60.0125 333.215 62.4069 331.082 65.6806C330.971 65.8456 330.894 66.0309 330.855 66.2259C330.816 66.4209 330.817 66.6216 330.856 66.8164C330.896 67.0112 330.974 67.1962 331.085 67.3607C331.197 67.5251 331.34 67.6657 331.507 67.7743C331.673 67.8829 331.86 67.9574 332.055 67.9933C332.251 68.0292 332.451 68.0259 332.646 67.9836C332.84 67.9412 333.024 67.8607 333.187 67.7467C333.349 67.6327 333.488 67.4874 333.594 67.3194C336.42 62.9844 340.882 60.5 345.838 60.5C350.794 60.5 355.256 62.9844 358.082 67.3194C358.302 67.6464 358.642 67.8736 359.028 67.952C359.414 68.0304 359.816 67.9537 360.146 67.7384C360.476 67.5231 360.708 67.1865 360.792 66.8015C360.876 66.4164 360.805 66.0138 360.594 65.6806C358.46 62.4069 355.532 60.0125 352.168 58.6887C354.866 57.0113 356.789 54.3322 357.515 51.2391C358.241 48.146 357.71 44.8913 356.04 42.1887L364.312 39.4325C364.611 39.333 364.871 39.142 365.055 38.8866C365.239 38.6311 365.338 38.3242 365.338 38.0094C365.338 37.6945 365.239 37.3876 365.055 37.1322C364.871 36.8767 364.611 36.6857 364.312 36.5862V36.5769ZM354.838 48.5C354.838 49.9228 354.501 51.3255 353.855 52.5929C353.208 53.8603 352.27 54.9564 351.118 55.7911C349.965 56.6258 348.632 57.1754 347.226 57.3949C345.82 57.6143 344.382 57.4973 343.03 57.0534C341.679 56.6096 340.451 55.8515 339.449 54.8415C338.447 53.8314 337.698 52.5982 337.265 51.2429C336.832 49.8876 336.726 48.4489 336.957 47.0448C337.187 45.6407 337.747 44.3113 338.591 43.1656L345.364 45.4156C345.671 45.5183 346.004 45.5183 346.312 45.4156L353.085 43.1656C354.224 44.7106 354.839 46.5802 354.838 48.5Z" fill="#1E40AF"/>
<defs>
<clipPath id="clip0_139_1230">
<rect width="437" height="38" fill="white" transform="translate(627.838 29)"/>
</clipPath>
<clipPath id="clip1_139_1230">
<rect width="379" height="38" fill="white" transform="translate(765.838 29)"/>
</clipPath>
</defs>
</svg>
