<svg width="124" height="124" viewBox="0 0 124 124" fill="none" xmlns="http://www.w3.org/2000/svg">
<g filter="url(#filter0_d_193_4186)">
<rect x="12" width="100" height="100" rx="50" fill="#FFD45D" shape-rendering="crispEdges"/>
<path d="M82.9189 40.801C83.0168 40.6539 83.0168 40.5578 82.9679 40.4598C82.9189 40.3618 82.87 40.2656 82.7251 40.1676C82.5783 40.0696 82.4823 40.0206 82.3356 39.9735C82.2866 39.9735 82.2377 39.9245 82.1888 39.9245H82.042C81.9931 39.9245 81.9931 39.9245 81.9441 39.8755C81.7973 39.7285 81.6035 39.7285 81.4567 39.8755C81.4567 39.8265 81.5057 39.7775 81.5546 39.7775C81.7014 39.7285 81.7484 39.6304 81.7014 39.4853C81.7014 39.3873 81.6524 39.2912 81.6035 39.1931C81.5057 38.999 81.3608 38.95 81.1161 39.0951C81.1161 39.0461 81.1651 39.0461 81.214 38.9971C81.4078 38.9481 81.3608 38.803 81.3118 38.754C81.2629 38.5598 81.118 38.4618 81.0201 38.4128C80.8734 38.3638 80.7285 38.3638 80.5817 38.4618C80.4349 38.5598 80.2411 38.656 80.0943 38.754L79.8986 38.95C79.8496 39.048 79.8496 39.048 79.7047 38.999C79.5109 38.901 79.3152 38.852 79.1214 38.852C79.0725 38.852 78.9746 38.852 78.9275 38.803C78.5869 38.656 78.3931 38.803 78.2952 38.95C78.1974 39.048 78.1485 39.1441 78.0525 39.2912C77.9546 39.4853 77.7608 39.5833 77.5651 39.6323C77.3713 39.6813 77.1755 39.7303 77.0306 39.8265C76.9328 39.8755 76.8368 39.9735 76.7879 40.0696C76.69 40.2638 76.594 40.4108 76.3983 40.5088C76.2045 40.6068 76.1066 40.752 76.2045 40.948V40.997C76.1556 41.144 76.0577 41.1911 75.9128 41.1911C75.5722 41.1911 75.3294 41.2891 75.1337 41.4343C74.9869 41.4833 74.9399 41.4833 74.842 41.4833C74.6952 41.4833 74.6482 41.5813 74.5993 41.6774C74.5503 41.8245 74.5503 42.0186 74.6482 42.1166C74.6971 42.2146 74.842 42.3108 75.0377 42.3108H75.2316H75.2805V42.4088C75.2316 42.5558 75.2316 42.7009 75.3294 42.848C75.2316 42.897 75.1826 42.897 75.0867 42.946C74.9888 42.995 74.8928 42.995 74.795 42.995C74.6482 42.995 74.5033 42.946 74.3565 42.995C73.9669 43.142 73.5774 43.093 73.1878 42.995C72.9451 42.897 72.7494 42.995 72.6045 43.142C72.5066 43.289 72.3128 43.3361 72.1171 43.289C71.8254 43.24 71.5337 43.142 71.1931 42.9969C70.9993 42.9479 70.9014 42.8027 70.9014 42.6067C70.9014 42.4597 70.9503 42.3145 70.9503 42.1675C70.9993 41.8753 70.9993 41.6322 70.9503 41.3872C70.9014 41.193 70.7565 41.095 70.6097 41.046C70.4629 40.997 70.318 41.095 70.1712 41.193C69.9774 41.3872 69.8306 41.5342 69.6368 41.6322C69.49 41.7302 69.394 41.8754 69.49 42.1675C69.5389 42.2655 69.5879 42.3145 69.5879 42.3617L69.6368 42.4597C69.6857 42.5087 69.6857 42.6067 69.6368 42.6538C69.4429 42.897 69.49 43.044 69.6368 43.2871C69.6857 43.3361 69.6857 43.4342 69.6857 43.4813C69.6857 43.6283 69.6368 43.7244 69.5389 43.7734C69.4411 43.8224 69.3451 43.8224 69.1983 43.8224H69.1494H69.1004H69.0515C68.9047 43.8224 68.7109 43.7734 68.5641 43.9205C68.3703 43.6773 68.2235 43.6283 67.9318 43.7734C67.785 43.8224 67.6891 43.8715 67.5912 43.8224C67.5423 43.8224 67.4444 43.7734 67.3974 43.7734C67.3484 43.7734 67.2506 43.7244 67.2035 43.7244C67.0097 43.6754 66.814 43.6264 66.6202 43.7734H66.5713L66.5223 43.7244C66.5223 43.7244 66.5223 43.6754 66.4734 43.6754V43.6264C66.4245 43.4323 66.3266 43.3343 66.1817 43.2853C66.0349 43.2362 65.939 43.2853 65.7432 43.3833C65.6454 43.4323 65.5494 43.4323 65.4516 43.3343C65.3537 43.2362 65.2088 43.0911 65.0131 43.0911V43.0421C65.062 42.848 65.0131 42.7009 64.9152 42.6029C64.8174 42.5049 64.6725 42.4088 64.5257 42.4088H64.3789H64.281C64.2321 42.4088 64.1343 42.4088 64.0872 42.3598C63.9404 42.3108 63.7466 42.3108 63.5998 42.4088C63.5509 42.4578 63.453 42.4578 63.3571 42.4088C63.3081 42.4088 63.3081 42.4088 63.2592 42.3598C63.2103 42.3108 63.1124 42.3108 63.0654 42.2618C62.9675 42.2128 62.8715 42.2128 62.8226 42.2618C62.7737 42.3108 62.7248 42.3598 62.7248 42.4088C62.6758 42.4088 62.6758 42.3598 62.6269 42.3598L62.578 42.3108C62.4801 42.2618 62.4312 42.2618 62.3352 42.2128C62.2374 42.2128 62.1884 42.1638 62.1414 42.0657C62.2374 42.0676 62.1414 41.9696 61.9457 41.9696H61.7518C61.654 41.9696 61.558 41.9696 61.5091 41.8716C61.4601 41.8226 61.3623 41.7736 61.3152 41.7246C61.1685 41.6266 61.0236 41.6266 60.9746 41.7246C60.9257 41.7736 60.8768 41.7736 60.7808 41.7246C60.7319 41.6756 60.634 41.6266 60.587 41.5775C60.4891 41.5285 60.4402 41.4305 60.3442 41.3834C60.2953 41.3344 60.1974 41.2854 60.1014 41.2854C60.0525 41.2854 60.0036 41.2364 60.0036 41.1874C59.9547 41.0404 59.9057 40.9442 59.7608 40.8952L59.567 40.7972C59.4202 40.7482 59.3242 40.6992 59.1775 40.6502C59.1285 40.6012 59.0307 40.6012 58.9836 40.5522C58.8368 40.4051 58.7409 40.26 58.5452 40.211C58.5452 40.113 58.643 40.064 58.6919 39.9679C58.8387 39.8208 58.8858 39.6757 58.8387 39.4797C58.7898 39.3817 58.8387 39.3327 58.8877 39.3327C58.9366 39.2836 58.9855 39.2346 58.9855 39.1385C58.9855 38.9444 59.0834 38.7973 59.2772 38.6503C59.3261 38.6013 59.3261 38.6013 59.3751 38.5523C59.424 38.5033 59.4729 38.4543 59.5689 38.4053L59.6178 38.3563C59.6667 38.3563 59.6667 38.3073 59.7157 38.3073C59.8135 38.2583 59.8624 38.1603 59.8135 38.0641C59.8135 37.9661 59.7646 37.9171 59.6667 37.87C59.6178 37.821 59.5689 37.772 59.4729 37.723C59.424 37.674 59.424 37.674 59.375 37.625H59.3261C59.2772 37.5759 59.2283 37.5269 59.1793 37.5269C59.0815 37.4779 58.9366 37.4289 58.8387 37.4289L58.7409 37.3799V37.3309C58.7409 37.0878 58.643 36.9898 58.4002 36.9898H58.3513C58.2535 36.7956 58.1086 36.6976 57.8639 36.7466C57.7661 36.7466 57.7171 36.7466 57.6212 36.6486V36.5996C57.5722 36.5506 57.5233 36.4526 57.4273 36.4054C57.3784 36.3564 57.3295 36.3074 57.3295 36.2584C57.2316 36.0153 57.0867 35.9173 56.8421 35.9663C56.7932 35.9663 56.7442 36.0153 56.6953 36.0153C56.7442 35.9663 56.7932 35.8211 56.6464 35.6741C56.5974 35.6251 56.5974 35.5761 56.6464 35.5271C56.7442 35.2839 56.6953 35.1369 56.4996 34.9918C56.4017 34.8937 56.3528 34.7976 56.3528 34.6506C56.3528 34.6016 56.4017 34.4564 56.3039 34.4074L56.4017 34.3094L56.4507 34.3584C56.4996 34.4074 56.4996 34.4564 56.5485 34.5055C56.6953 34.6996 56.8891 34.6996 57.083 34.6035L57.1319 34.5545C57.1808 34.5055 57.2297 34.5055 57.2787 34.4564C57.3276 34.4564 57.3276 34.4074 57.3765 34.4074L57.4255 34.3584C57.5722 34.3584 57.6682 34.2604 57.6682 34.1643C57.7172 34.0663 57.6682 33.9702 57.6193 33.8721C57.5214 33.7741 57.5214 33.7251 57.5214 33.58V33.531V33.482C57.5214 33.3349 57.5214 33.2388 57.4236 33.1408C57.3747 33.0918 57.2768 33.0428 57.1319 33.0428C57.083 33.0428 57.083 33.0428 57.083 32.9938C57.083 32.9448 57.034 32.8958 56.9851 32.7996L56.9362 32.7506C56.9362 32.6526 56.8873 32.5075 56.8383 32.4585C56.8383 32.4585 56.8383 32.4095 56.7894 32.4095C56.8873 32.3115 56.9362 32.2153 56.9362 32.0683C57.034 32.0193 57.083 32.0193 57.179 32.0193C57.5196 32.0193 57.6663 31.9213 57.7623 31.5801C57.8112 31.386 57.9091 31.288 58.054 31.1899C58.1029 31.1409 58.1519 31.1409 58.1519 31.0919C58.2008 31.0429 58.2497 31.0429 58.2986 30.9939C58.5903 30.8469 58.7371 30.6037 58.7371 30.2626V30.2136V30.1156C58.7371 30.0666 58.786 29.9685 58.786 29.9214C58.8839 29.7744 58.9328 29.6293 58.835 29.4822C58.978 29.3955 58.8801 29.2975 58.6863 29.2975C58.5885 29.2975 58.4435 29.2485 58.3457 29.1995C58.1519 29.1015 58.0051 28.9074 57.8583 28.7113C57.7115 28.5643 57.5666 28.5172 57.3709 28.5643C57.2731 28.5643 57.2241 28.6133 57.1281 28.6623C57.0792 28.6623 57.0303 28.7113 56.9814 28.7113H56.9324C56.8835 28.7113 56.7856 28.7603 56.7386 28.7603C56.4469 28.8093 56.2041 28.9074 56.0085 29.0525C55.8146 29.1995 55.6189 29.2466 55.4251 29.1995H55.2783H55.1805L55.0337 29.1505C54.7909 29.1015 54.5463 29.0525 54.3035 28.9564C54.2057 28.9074 54.1097 28.8584 54.0608 28.7622C53.9629 28.5681 53.8669 28.5191 53.6712 28.5681H53.5734C53.4755 28.5681 53.3795 28.5681 53.3306 28.5191C53.2817 28.4701 53.2817 28.3721 53.2817 28.2759C53.2817 28.1779 53.3306 28.0328 53.3795 27.8858C53.4285 27.7387 53.4285 27.5936 53.3795 27.4956C53.2817 27.2524 53.1368 27.1054 52.8921 27.0074C52.8432 27.0074 52.8432 26.9584 52.7943 26.9584C52.5515 26.8604 52.3558 26.8114 52.2109 26.6172C52.162 26.5192 52.0171 26.4702 51.9192 26.5192C51.8703 26.5192 51.8703 26.5192 51.8214 26.5682C51.7724 26.5682 51.7724 26.6172 51.7235 26.6172H51.6257C51.4789 26.5192 51.2361 26.4702 51.0912 26.5682C50.9482 26.7624 50.7543 26.8114 50.6076 26.8604H50.0242H49.7325H49.6836C49.4898 26.8604 49.2451 26.8604 49.0513 27.0074H48.9534H48.9045H48.7577H48.6599C48.466 27.0074 48.3193 27.1054 48.2214 27.2996C48.2214 27.3486 48.1725 27.3976 48.1235 27.4466C47.8808 27.5936 47.7829 27.7878 47.7829 28.0309C47.7829 28.274 47.9297 28.4701 48.1725 28.6152C48.2214 28.6152 48.2703 28.6642 48.2703 28.6642C48.3193 28.6642 48.4171 28.7132 48.4642 28.7622C48.7069 28.9092 48.9515 29.0544 49.0965 29.2975C49.1454 29.3465 49.1943 29.3956 49.2432 29.4446C49.2432 29.4446 49.2922 29.4446 49.2922 29.4936C49.2922 29.4936 49.3411 29.5426 49.39 29.5426C49.39 29.5426 49.439 29.5426 49.439 29.5916C49.5368 29.7386 49.6817 29.8347 49.9263 29.8837C49.9753 29.8837 50.0242 29.9327 50.0731 29.9327C50.1221 29.9327 50.171 29.9818 50.2199 29.9818C50.2688 29.9818 50.3178 30.0308 50.2688 30.1288C50.2688 30.2268 50.2199 30.2758 50.2199 30.3719C50.2199 30.4209 50.171 30.5189 50.171 30.5661C50.0731 30.9072 50.0731 31.1994 50.2199 31.4916C50.2688 31.5896 50.2688 31.7347 50.2688 31.8327V31.9307V32.6621V32.7111C50.2688 32.8091 50.2688 32.9052 50.171 32.9542C50.1221 33.0032 50.0731 33.1012 50.1221 33.1484C50.171 33.2464 50.2688 33.4405 50.5116 33.4895H50.5605V33.5385C50.5116 33.6856 50.6095 33.8307 50.7073 33.8797C50.7562 33.9287 50.8541 33.9287 50.9011 33.9777C50.9011 33.9777 50.9501 33.9777 50.9501 34.0267V34.0757V34.2699C50.9501 34.3189 50.9501 34.3679 50.999 34.4169C51.0479 34.4659 51.0969 34.4659 51.1458 34.4659H51.3396H51.4864C51.6332 34.4659 51.7292 34.5149 51.827 34.6129C51.7781 34.6129 51.7292 34.6619 51.6802 34.6619C51.5334 34.7109 51.3885 34.809 51.1928 34.9051C50.9501 35.0031 50.7544 35.1482 50.6095 35.2462C50.5116 35.2953 50.5116 35.3443 50.5116 35.3933C50.5116 35.4423 50.5116 35.4913 50.6095 35.5403C50.8033 35.6383 50.8033 35.7344 50.7073 35.8815C50.6095 36.0285 50.5135 36.1736 50.4157 36.3206C50.3667 36.3696 50.3178 36.4187 50.2689 36.4677C49.9282 36.8578 49.5876 37.297 49.4898 37.8323C49.0513 37.8813 48.8575 38.0755 48.6617 38.4656C48.6128 38.6127 48.5639 38.7578 48.5149 38.9048C48.4171 39.148 48.2722 39.344 48.0275 39.4401C47.8808 39.4891 47.7848 39.5872 47.638 39.6343C47.3952 39.7813 47.1995 39.9754 47.1035 40.1696C47.0546 40.2676 46.9568 40.4128 46.9097 40.5598C46.7159 40.8519 46.4712 40.999 46.1796 40.999C45.8879 40.999 45.6451 41.048 45.4005 41.146H45.3026C45.1088 41.195 45.0599 41.146 44.962 40.999V40.9499C44.9131 40.9009 44.9131 40.8519 44.8641 40.8029C44.7663 40.6559 44.6214 40.6088 44.4257 40.6559C44.3767 40.6559 44.2789 40.7049 44.2789 40.8029C44.2789 40.8519 44.23 40.9009 44.23 40.9009C43.9872 40.999 43.9383 41.1931 43.8893 41.3891C43.8404 41.5833 43.7915 41.6813 43.5977 41.7303C43.306 41.8283 43.1592 42.0715 43.1103 42.3636C43.0613 42.6068 43.0613 42.8028 43.2081 42.9479C43.306 43.0949 43.4998 43.1911 43.7426 43.2401H43.7915C43.8404 43.2401 43.8894 43.2401 43.9383 43.2891C43.9383 43.2891 43.9872 43.2891 43.9872 43.3381C43.9872 43.3871 43.9383 43.4361 43.9383 43.4851C43.8894 43.6321 43.8404 43.7773 43.8404 43.9733C43.7915 44.3635 43.9383 44.6556 44.3749 44.7536H44.4238C44.4727 44.7536 44.5217 44.7536 44.5706 44.8026C44.6685 44.8026 44.7174 44.9007 44.7174 44.9968V45.0458C44.7174 45.1928 44.7663 45.387 44.8152 45.534C44.9131 45.8261 44.962 46.1183 45.0091 46.4595C45.0091 46.7026 45.0091 46.7026 44.7663 46.7516C44.7663 46.7516 44.7174 46.7516 44.7174 46.7026C44.6195 46.5556 44.5236 46.5085 44.3768 46.5085C44.0851 46.5085 43.8423 46.5575 43.6466 46.7026C43.5488 46.8006 43.4528 46.8006 43.306 46.7026C42.9165 46.5085 42.5269 46.4595 42.1863 46.4105C41.9925 46.4105 41.8946 46.4105 41.8457 46.5085C41.7478 46.6065 41.7478 46.7026 41.7478 46.8986V46.9967H41.6989H41.65H41.5521C41.3094 46.9967 41.0647 47.1437 41.0177 47.3868C40.9687 47.581 41.0177 47.826 41.2115 47.9711C41.2604 47.9711 41.2604 48.0201 41.2604 48.0691C41.3094 48.4103 41.5521 48.5573 41.7478 48.6534C41.8457 48.7024 41.9417 48.7514 42.0395 48.8476C42.0884 48.8966 42.1374 48.8966 42.1863 48.9456C42.2352 48.9946 42.3331 49.0436 42.3801 49.0436C42.478 49.0926 42.574 49.1906 42.7207 49.2377C42.9146 49.3358 43.0614 49.3358 43.2552 49.2377C43.3531 49.1887 43.402 49.1887 43.498 49.1397C43.6447 49.0907 43.7897 49.0907 43.8875 49.1397C43.8386 49.1887 43.7897 49.1887 43.7407 49.1887C43.5939 49.1887 43.449 49.2868 43.3512 49.3829C43.2533 49.4809 43.1573 49.5299 43.0106 49.577H42.9127C42.7659 49.577 42.621 49.626 42.4742 49.675C42.3764 49.724 42.3764 49.724 42.2804 49.577C42.1825 49.43 42.0866 49.3829 41.8909 49.43C41.7441 49.479 41.697 49.577 41.697 49.7712C41.697 49.9653 41.7949 50.1613 41.9398 50.3065C41.9944 50.3536 41.9944 50.3536 42.0433 50.4026C42.0922 50.4516 42.1411 50.5006 42.1901 50.5496C42.4328 50.8418 42.6286 51.1339 42.8224 51.379L43.2119 51.8672C43.2609 51.9652 43.3587 52.0142 43.4058 52.1103C43.8931 52.6457 44.4276 52.7927 45.1089 52.5495C45.1578 52.5005 45.2556 52.5005 45.3027 52.4515C45.4495 52.4025 45.5454 52.3535 45.6922 52.3045C45.935 52.2555 46.1307 52.1575 46.3245 52.0613C46.3735 52.0123 46.4224 52.0123 46.5184 51.9633C46.6162 51.9143 46.7122 51.8163 46.7122 51.6712V51.5732V51.33C46.7611 51.1359 46.7122 50.9888 46.6143 50.8418V50.7928L46.6633 50.7438C46.8571 50.6458 46.906 50.4517 46.8571 50.2556L47.0039 50.3046V50.3536V50.5478V50.6458C46.906 50.987 46.906 51.085 47.1507 51.2301C46.9568 51.4242 46.9079 51.5713 47.0528 51.8634C47.1017 51.9614 47.1507 52.0576 47.1996 52.1556C47.2975 52.3026 47.2975 52.4477 47.2975 52.6438C47.2975 52.6928 47.2975 52.7908 47.2485 52.8379C47.1996 53.0811 47.1507 53.2771 47.0547 53.5203C46.9568 53.7144 46.9079 53.9104 46.9568 54.1536C47.0547 54.5437 47.0547 54.983 47.0547 55.3241C47.0547 55.3731 47.0547 55.5182 47.2015 55.5673V55.6163C47.0547 55.8594 47.0547 56.0554 47.2015 56.3476C47.2504 56.3966 47.2504 56.4946 47.2504 56.5417C47.2504 56.8339 47.2993 57.0771 47.3483 57.3221V57.3711C47.3972 57.5652 47.4461 57.7613 47.4461 57.9554V58.2966V58.6867C47.495 59.0769 47.5929 59.5161 47.64 59.9043V59.9534C47.6889 60.2455 47.7867 60.4887 47.9316 60.6357L47.9806 60.6847C48.0784 60.7827 48.1274 60.8317 48.0784 60.9279V61.0259C48.0784 61.0749 48.0784 61.0749 48.1273 61.1239C48.1273 61.2219 48.1763 61.2709 48.1763 61.367C48.2252 61.8552 48.419 62.2925 48.7596 62.5847C48.9064 62.7317 48.9535 62.8768 49.0024 63.0728C49.0513 63.267 49.0513 63.512 49.1492 63.7062C49.296 63.9983 49.343 64.2905 49.343 64.5826C49.343 65.0218 49.3919 65.412 49.5858 65.8003C49.7796 66.1904 49.9753 66.5806 50.1691 67.0179C50.2181 67.1159 50.3159 67.212 50.4119 67.31C50.5097 67.359 50.5587 67.4571 50.5587 67.6022C50.6076 67.7963 50.6565 67.8944 50.7055 68.0414C50.8523 68.2845 50.9482 68.5296 51.0461 68.7727C51.095 68.9197 51.1439 69.0159 51.1929 69.1629C51.2418 69.2609 51.2418 69.3099 51.2907 69.406C51.3396 69.504 51.3396 69.6492 51.3886 69.7472C51.3886 69.7962 51.4375 69.8942 51.4375 69.9903C51.4375 70.0884 51.4375 70.1374 51.4864 70.2335C51.5354 70.3805 51.5354 70.4766 51.5843 70.6237C51.6332 70.7217 51.6332 70.8178 51.6332 70.9158C51.6821 71.0628 51.6821 71.159 51.7311 71.306C51.78 71.5491 51.8289 71.8413 51.9249 72.0863C52.0717 72.5745 52.3144 72.9157 52.704 73.0608C52.9468 73.1588 53.1425 73.255 53.3852 73.402C53.4831 73.451 53.628 73.5 53.7748 73.5C53.8237 73.5 53.8726 73.5 53.9686 73.451C54.2114 73.353 54.456 73.2569 54.6988 73.0118C54.7966 72.9138 54.7966 72.7687 54.7477 72.6706V72.6216C54.7477 72.5236 54.6988 72.4275 54.6988 72.3295C54.6988 72.1825 54.7477 72.0863 54.7966 71.9393V71.8903C54.8455 71.7433 54.9434 71.6962 55.0883 71.6962C55.38 71.7452 55.6717 71.6472 55.9163 71.5982C56.1102 71.5491 56.208 71.4511 56.1591 71.208C56.1102 71.0138 56.1591 70.8668 56.3059 70.7688C56.4997 70.5256 56.6954 70.2806 56.7933 69.9884C56.7933 69.9394 56.8422 69.8904 56.9401 69.8904C57.0869 69.8904 57.2318 69.8904 57.3786 69.9394C57.4275 69.9394 57.5253 69.9394 57.5253 69.8904C57.5253 69.8904 57.5743 69.8414 57.5743 69.7924V69.7434C57.5743 69.5964 57.6232 69.5003 57.5743 69.3532C57.5253 69.0611 57.5253 68.8179 57.5253 68.5729C57.5743 68.3297 57.5743 68.0376 57.4764 67.7925C57.3786 67.5984 57.4275 67.4024 57.5743 67.1592C57.7681 66.8671 57.9149 66.5749 58.0617 66.3298L58.1106 66.2318C58.2084 66.0377 58.2574 65.8417 58.2084 65.6475C58.2084 65.5985 58.2084 65.5005 58.2574 65.4044C58.3552 65.2102 58.4042 65.0142 58.3552 64.8201C58.3063 64.7221 58.3063 64.6259 58.2574 64.4789C58.2084 64.3319 58.2084 64.2358 58.2574 64.1377C58.3552 63.9436 58.3552 63.7476 58.2084 63.6024C58.1106 63.5044 58.1106 63.4083 58.1595 63.2613C58.2574 62.9691 58.2574 62.677 58.1106 62.3358C58.0617 62.1887 58.0127 62.0926 58.0617 61.9946C58.1595 61.8005 58.1595 61.6534 58.1595 61.4103C58.1595 61.3123 58.1595 61.2633 58.2574 61.2162H58.3063C58.3552 61.2162 58.3552 61.2162 58.4042 61.1671C58.4531 61.1671 58.502 61.1181 58.502 61.1181C58.5999 61.0691 58.6488 61.0201 58.7448 61.0201H58.7937C58.8426 61.0691 58.8426 61.0691 58.8915 61.1181C58.9405 61.1671 58.9894 61.2162 59.0383 61.2162C59.1362 61.2652 59.2322 61.2652 59.33 61.2652C59.3789 61.2652 59.4279 61.2162 59.4768 61.1671C59.5257 61.0691 59.5257 60.973 59.5747 60.924C59.6236 60.826 59.6236 60.7299 59.6725 60.6318C59.6725 60.5828 59.7214 60.5338 59.7214 60.5338C59.8193 60.4848 59.8682 60.4358 59.8682 60.3397V60.2417H59.9661C60.015 60.2417 60.015 60.2417 60.0639 60.2907C60.1129 60.2907 60.1618 60.3397 60.2107 60.3397C60.2107 60.3397 60.3575 60.3397 60.4046 60.2907C60.4535 60.1927 60.5513 60.1927 60.6473 60.1927H60.7941H60.9409C61.1837 60.1927 61.3794 60.0947 61.4753 59.9005C61.5732 59.6574 61.6221 59.4123 61.5243 59.1692C61.4753 59.1202 61.5243 59.0712 61.5732 59.0222L61.6221 58.9732C61.6711 58.9241 61.72 58.9241 61.7689 58.8751C61.8668 58.7771 62.0117 58.681 62.2074 58.632C62.5969 58.534 62.8397 58.3398 62.9865 57.9987C63.1333 57.7065 63.3271 57.5105 63.6677 57.4144H63.7167H63.7656C63.9594 57.3164 64.1551 57.2202 64.3001 57.0242C64.349 56.9752 64.3979 56.9262 64.4468 56.8772C64.4958 56.8282 64.5447 56.7792 64.5936 56.683C64.5936 56.634 64.6426 56.634 64.6426 56.585C64.7404 56.487 64.8364 56.3419 64.8853 56.1948C64.9832 55.9027 65.177 55.6595 65.3727 55.4635C65.6155 55.2204 65.9072 54.9753 66.2478 54.7812C66.2967 54.7322 66.3946 54.7322 66.4905 54.6832C66.6844 54.6342 66.8801 54.5851 67.1228 54.5361L67.3167 54.4871C67.5105 54.4381 67.6084 54.3401 67.7062 54.195C67.7551 54.097 67.8041 54.048 67.853 54.0008C67.9508 53.9028 68.0468 53.8067 68.0958 53.6597C68.0958 53.5617 68.1447 53.4655 68.2896 53.4165C68.3385 53.3675 68.3874 53.3675 68.4364 53.3185C68.5342 53.2205 68.6302 53.1244 68.6302 53.0263C68.6302 52.9283 68.6302 52.7832 68.5323 52.6852C68.4834 52.6362 68.4834 52.5872 68.4345 52.5381L68.3856 52.4891C68.3366 52.4401 68.3366 52.3911 68.3366 52.295C68.3366 52.246 68.3856 52.197 68.4345 52.148C68.4834 52.148 68.4834 52.099 68.5323 52.099C68.6791 52.001 68.7751 51.9048 68.824 51.7578C68.824 51.7088 68.873 51.6598 68.9708 51.6598C69.2136 51.6108 69.4093 51.6108 69.6521 51.5618H69.8459C69.8948 51.6598 69.9927 51.7559 70.1376 51.7559C70.2844 51.7559 70.4293 51.6579 70.4293 51.5128H70.5761C70.625 51.5618 70.6739 51.6108 70.6739 51.6108H70.7228C70.7718 51.5618 70.8207 51.6108 70.9167 51.6108H70.9656C70.9656 51.6108 71.0635 51.6108 71.1124 51.5618C71.1613 51.5128 71.1613 51.5128 71.2102 51.5618H71.2592C71.406 51.6108 71.5019 51.5618 71.5509 51.4638C71.5998 51.3657 71.5998 51.2696 71.5509 51.1226C71.453 50.9284 71.453 50.9285 71.5998 50.7814C71.6487 50.7324 71.6976 50.6344 71.6976 50.5383C71.6976 50.4893 71.6487 50.4403 71.5998 50.3913C71.453 50.2932 71.453 50.1971 71.453 49.9521C71.453 49.805 71.4041 49.6109 71.3062 49.3678C71.2573 49.2698 71.2084 49.1736 71.2573 49.0756C71.3062 48.9776 71.3062 48.8815 71.2573 48.8325C71.2084 48.7835 71.1594 48.7344 71.0145 48.6854H70.9656C71.0635 48.4913 71.0145 48.3933 70.8188 48.2463L70.7699 48.1973C70.721 48.0992 70.7699 48.0502 70.8188 47.9541C71.0126 47.8071 70.9656 47.7109 70.8677 47.5639C70.8677 47.4169 70.8677 47.3208 70.7699 47.1738C70.672 47.0267 70.5271 46.9796 70.3314 46.9306C70.2825 46.9306 70.2336 46.8816 70.1846 46.8326C70.0868 46.7836 70.0378 46.6856 69.9908 46.6384L69.9419 46.5894L69.8929 46.5404C69.8929 46.4914 69.9419 46.4424 69.9419 46.4424C70.0886 46.3934 70.1846 46.3444 70.2825 46.2483C70.3803 46.1503 70.4293 46.1013 70.4293 45.9561V45.9071H70.5271C70.6739 45.9071 70.8188 45.9071 70.9167 45.8581C71.0145 45.8581 71.1105 45.7601 71.1105 45.664C71.1594 45.566 71.1105 45.4698 71.0616 45.4208C71.0126 45.3718 70.9637 45.3718 70.9148 45.3228C70.9148 45.1287 70.8169 45.0796 70.6231 45.0796H70.4293C70.3314 44.8855 70.1865 44.8365 70.0397 44.7875C69.9908 44.7875 69.9419 44.7385 69.8929 44.7385C69.9908 44.6895 70.0397 44.5443 69.9908 44.3973L70.0397 44.3483C70.1865 44.2503 70.2335 44.1542 70.2825 44.0071V43.9581H70.3314C70.3314 43.9581 70.3803 43.9581 70.3803 44.0071C70.4293 44.0562 70.4782 44.0562 70.5271 44.0562H70.576C70.625 44.1052 70.7228 44.1542 70.8188 44.1542C71.0126 44.1542 71.0126 44.1052 71.0616 43.96C71.0616 44.009 71.1105 44.009 71.1105 44.058C71.1594 44.156 71.2083 44.3012 71.3043 44.3502C71.4511 44.3992 71.596 44.4482 71.7428 44.4972H71.9366C71.9856 44.4482 71.9856 44.3502 71.9856 44.3031V44.2541H72.0345V44.3031C72.0345 44.3521 72.0834 44.4501 72.0834 44.4972C72.1323 44.5952 72.1323 44.6442 72.0834 44.6914C71.9366 44.8855 71.9366 45.1795 72.0345 45.3737C72.1323 45.6169 72.3262 45.7639 72.5689 45.8129C72.9096 45.8619 73.2012 45.9109 73.4929 45.9109C73.7846 45.9109 74.0763 45.8619 74.321 45.8619C74.4188 45.8619 74.4678 45.8619 74.5638 45.8129H74.6127C74.8065 45.8129 75.0022 45.7639 75.196 45.8129C75.3899 45.8619 75.5856 45.8619 75.7305 45.8129H75.8284C75.6345 45.9599 75.5856 46.1541 75.5367 46.3011C75.5367 46.3501 75.5367 46.3501 75.4877 46.3991V46.4971C75.4388 46.7402 75.245 46.9363 74.9533 46.9853C74.6127 47.0833 74.2231 47.2774 74.1742 47.8146V47.8636V48.0107C74.1742 48.2048 74.1253 48.4008 74.2231 48.546C74.3699 48.7891 74.5637 48.9852 74.7576 49.1303C74.9514 49.2773 75.245 49.2283 75.4388 49.0323C75.5367 48.9343 75.5367 48.7891 75.4388 48.6911C75.4388 48.6911 75.4388 48.6421 75.3899 48.6421C75.4877 48.4951 75.5837 48.3009 75.5837 48.1068H75.7775V48.1558C75.7775 48.2048 75.8265 48.3028 75.8265 48.3499C75.8754 48.7401 75.9243 49.0323 76.1182 49.3244C76.1671 49.3734 76.1671 49.4714 76.1671 49.5186V49.6166V49.7636C76.1671 49.8616 76.216 50.0067 76.216 50.1538C76.216 50.2028 76.3139 50.3008 76.3628 50.3479C76.4607 50.3969 76.6056 50.4459 76.7034 50.4949C76.8502 50.5439 76.9462 50.5439 77.044 50.3969C77.2379 50.1048 77.4336 49.7636 77.2868 49.2754C77.2379 49.0813 77.2379 48.9342 77.3357 48.7401C77.3847 48.6911 77.3847 48.6421 77.4336 48.5931C77.5314 48.446 77.5804 48.2519 77.5314 48.0577C77.5314 47.9107 77.4825 47.7656 77.4825 47.6186V47.5206H77.5314C77.5804 47.4715 77.6293 47.4715 77.6293 47.4225C77.6293 47.3735 77.6293 47.3735 77.6782 47.3735H77.7761C77.825 47.3735 77.8739 47.4225 77.9699 47.4225C78.0678 47.4715 78.1167 47.4715 78.2127 47.5206C78.4065 47.5696 78.5533 47.5206 78.6511 47.3264C78.7001 47.2284 78.749 47.1323 78.749 47.0343C78.7979 46.8401 78.8469 46.6931 78.8958 46.4989C78.9936 46.0108 79.1385 45.5245 79.1875 45.0363V44.9873C79.4792 44.8403 79.6259 44.5481 79.7708 44.2559C79.9176 43.9148 79.9647 43.6226 79.8198 43.3305V43.2814C79.8198 43.1834 79.8198 43.1344 79.8687 43.0873C79.9176 43.0383 79.9665 42.9893 80.0155 42.9403C80.0644 42.8913 80.0644 42.8423 80.1133 42.8423L80.1622 42.7933C80.2112 42.7443 80.2601 42.6953 80.3561 42.6462C80.5499 42.5482 80.6967 42.4521 80.7946 42.2071C80.8435 42.0129 80.9884 41.9639 81.1841 41.9149C81.4269 41.9149 81.5736 41.8659 81.7186 41.7208C81.7675 41.6717 81.8164 41.6718 81.8164 41.6718C81.8653 41.6718 81.8653 41.7208 81.9143 41.7698C81.9143 41.7698 81.9632 41.8188 81.9632 41.8678V41.9168C82.0121 42.0148 82.061 42.0638 82.157 42.1109C82.2549 42.1599 82.3038 42.1109 82.3998 42.0619C82.4487 42.0129 82.4976 42.0129 82.4976 41.9149C82.4976 41.8659 82.4976 41.8169 82.4487 41.7679C82.3998 41.7189 82.3509 41.6699 82.3019 41.6208L82.253 41.5718C82.0102 41.2797 82.0102 41.2307 82.3019 40.9875C82.7253 41.0441 82.823 40.8971 82.9189 40.801Z" fill="#1E40AF"/>
</g>
<defs>
<filter id="filter0_d_193_4186" x="0" y="0" width="124" height="124" filterUnits="userSpaceOnUse" color-interpolation-filters="sRGB">
<feFlood flood-opacity="0" result="BackgroundImageFix"/>
<feColorMatrix in="SourceAlpha" type="matrix" values="0 0 0 0 0 0 0 0 0 0 0 0 0 0 0 0 0 0 127 0" result="hardAlpha"/>
<feOffset dy="12"/>
<feGaussianBlur stdDeviation="6"/>
<feComposite in2="hardAlpha" operator="out"/>
<feColorMatrix type="matrix" values="0 0 0 0 0 0 0 0 0 0 0 0 0 0 0 0 0 0 0.05 0"/>
<feBlend mode="normal" in2="BackgroundImageFix" result="effect1_dropShadow_193_4186"/>
<feBlend mode="normal" in="SourceGraphic" in2="effect1_dropShadow_193_4186" result="shape"/>
</filter>
</defs>
</svg>
