<svg width="100" height="100" viewBox="0 0 100 100" fill="none" xmlns="http://www.w3.org/2000/svg">
<rect width="100" height="100" rx="50" fill="#FFD45D"/>
<path d="M35.0646 36.6612C37.317 36.6612 39.1429 34.8353 39.1429 32.5829C39.1429 30.3305 37.317 28.5046 35.0646 28.5046C32.8122 28.5046 30.9863 30.3305 30.9863 32.5829C30.9863 34.8353 32.8122 36.6612 35.0646 36.6612Z" fill="#1E40AF"/>
<path d="M59.3691 69.6705C59.3691 70.6716 60.1806 71.4831 61.1817 71.4831C62.1826 71.4831 62.9943 70.6716 62.9943 69.6705V60.6903C61.5977 60.6728 60.3873 60.5352 59.3691 60.3463V69.6705Z" fill="#1E40AF"/>
<path d="M63.5977 69.6705C63.5977 70.6716 64.4091 71.4831 65.4102 71.4831C66.4108 71.4831 67.2228 70.6716 67.2228 69.6705V60.3463C66.2047 60.5352 64.9942 60.6728 63.5977 60.6903V69.6705Z" fill="#1E40AF"/>
<path d="M67.0897 34.9947C67.5778 32.899 66.2746 30.8045 64.179 30.3165C62.0834 29.8285 59.9889 31.1317 59.5009 33.2274C59.0128 35.3231 60.316 37.4177 62.4116 37.9057C64.5072 38.3937 66.6017 37.0904 67.0897 34.9947Z" fill="#1E40AF"/>
<path d="M71.3718 55.4079V62.779H74V55.4079H73.1465V54.4128C73.6114 54.2063 73.9059 53.7127 73.8361 53.1826C73.0004 46.8498 71.2812 43.373 69.6241 41.442C68.0916 39.6481 66.6178 39.2624 66.2288 39.2006C66.1665 39.1852 66.0735 39.1627 65.9555 39.1365L65.5009 42.6909L63.7336 40.5611L65.1576 38.9833C64.6325 38.8983 63.978 38.8227 63.2953 38.8205C62.6127 38.8227 61.9586 38.8983 61.4337 38.9833L62.8574 40.5611L61.0902 42.6909L60.6318 39.1051C59.9896 38.8405 58.671 38.3358 56.8852 37.8684C56.9818 37.714 57.0516 37.539 57.0846 37.3484C57.2223 36.5594 56.6938 35.8082 55.905 35.671C53.6516 35.279 51.5905 35.12 49.7323 35.12C43.3363 35.1195 39.3664 37.0038 38.1293 37.6937H31.5637C31.5396 37.6937 31.5162 37.696 31.4924 37.6973C31.1653 37.7018 30.6237 37.773 30.0081 38.0837C29.0331 38.567 27.982 39.6246 27.2465 41.4988C26.5023 43.3804 26.0029 46.1005 26 50.2074C26 51.2689 26.0343 52.4235 26.1084 53.6801C26.1441 54.2877 26.5492 54.7842 27.0923 54.9678V55.8307H26.2389V63.2019H28.8671V55.8309H28.0136V54.9698C28.6208 54.7678 29.0428 54.1795 29.0034 53.5103C28.9327 52.3046 28.9001 51.2067 28.9001 50.2074C28.8941 45.8176 29.5341 43.3518 30.1629 42.065V69.2546C30.1629 70.4926 31.1665 71.4955 32.4038 71.4955C33.6414 71.4955 34.645 70.4926 34.645 69.2546V52.8924H35.4852V69.2546C35.4852 70.4926 36.4888 71.4955 37.726 71.4955C38.9637 71.4955 39.9673 70.4926 39.9673 69.2546V40.0045C40.9145 39.5354 42.877 38.7232 45.7954 38.298C45.898 38.8948 46.4425 39.3239 47.0575 39.2708H47.0571C47.7453 39.2111 48.4247 39.1841 49.0914 39.1841C52.1374 39.1834 54.9075 39.7493 56.9039 40.3172C57.7616 40.5606 58.4754 40.8037 59.0084 41.0007L55.441 58.5334C55.441 58.5334 55.4747 58.5534 55.5376 58.5873C56.0583 58.8673 58.7159 60.1648 63.2955 60.1648C67.8748 60.1648 70.5327 58.8673 71.0535 58.5873C71.1166 58.5534 71.1501 58.5334 71.1501 58.5334L68.0341 43.2187C68.0486 43.237 68.0628 43.2528 68.0773 43.2715C69.2948 44.8279 70.7541 47.8308 71.4999 53.4902C71.5572 53.925 71.8458 54.2714 72.225 54.4262V55.4079H71.3718ZM34.376 39.1774H35.065H35.7536L36.098 40.5368L36.0456 40.6195C35.7621 40.8562 35.4141 40.9748 35.0646 40.9751C34.7152 40.9748 34.3683 40.8564 34.0848 40.6204L34.0317 40.5368L34.376 39.1774ZM35.065 50.8685L33.3431 48.6934L34.3351 41.3849C34.5702 41.473 34.8176 41.5191 35.0646 41.5189H35.065C35.065 41.5189 35.0657 41.5189 35.0661 41.5189C35.3131 41.5189 35.5604 41.4729 35.7949 41.3848L36.7869 48.6934L35.065 50.8685Z" fill="#1E40AF"/>
<path d="M49.4922 51.3151H50.6473C50.7681 51.3151 50.8899 51.3346 51.0187 51.3747C51.07 51.385 51.1217 51.3981 51.1728 51.4144C51.4878 51.5058 52.0932 51.853 52.6859 52.5917V50.1799C52.6859 50.0209 52.5146 49.8918 52.3033 49.8918H51.3394C50.9054 50.5538 50.2565 51.0611 49.4922 51.3151Z" fill="#1E40AF"/>
<path d="M51.916 59.4683H51.9242C51.9213 59.4188 51.9193 59.3675 51.916 59.319V59.4683Z" fill="#1E40AF"/>
<path d="M44.8379 59.4683H44.8468V59.3076C44.8435 59.3603 44.841 59.4149 44.8379 59.4683Z" fill="#1E40AF"/>
<path d="M45.6013 51.4115C45.6362 51.3994 45.6848 51.3867 45.7432 51.3754C45.8713 51.335 45.9931 51.3151 46.1157 51.3151H47.2705C46.5061 51.0611 45.8572 50.5538 45.4238 49.8918H44.4588C44.2475 49.8918 44.0762 50.0209 44.0762 50.1799V52.592C44.6705 51.852 45.2783 51.5045 45.6013 51.4115Z" fill="#1E40AF"/>
<path d="M51.5535 60.0888V56.9431C50.3661 55.2988 50.0833 53.0405 50.0393 51.6778H46.7653C46.7203 53.057 46.4321 55.3549 45.209 57.0035V60.089L51.5535 60.0888Z" fill="#1E40AF"/>
<path d="M48.1091 69.9848V63.8538H48.6529V69.9848C48.6529 70.7856 49.3025 71.4349 50.1033 71.4349C50.9041 71.4349 51.5533 70.7856 51.5533 69.9848V60.5194H45.209V69.9848C45.209 70.7856 45.8582 71.4349 46.659 71.4349C47.46 71.4349 48.1091 70.7856 48.1091 69.9848Z" fill="#1E40AF"/>
<path d="M51.554 55.53V55.3824C51.9625 56.4703 52.3289 58.2196 52.3281 60.9552C52.3281 61.1913 52.3252 61.4351 52.32 61.6869C52.3077 62.2372 52.7445 62.6932 53.2946 62.7054C53.302 62.7054 53.3095 62.7054 53.3169 62.7054C53.8578 62.7056 54.3015 62.2734 54.3134 61.7304C54.3191 61.4649 54.322 61.2066 54.322 60.9552C54.3209 57.1428 53.6627 54.9079 52.9045 53.5648C52.152 52.2197 51.2669 51.8191 51.0612 51.7591C51.0173 51.7448 50.9727 51.7346 50.9285 51.7263C50.8746 51.7087 50.819 51.6968 50.7617 51.6884C50.7864 52.7245 50.9424 54.242 51.554 55.53Z" fill="#1E40AF"/>
<path d="M45.2081 55.6162C45.8545 54.309 46.0175 52.7437 46.0423 51.6846C45.9702 51.6915 45.8996 51.7049 45.8328 51.7272C45.7885 51.7353 45.7447 51.7453 45.701 51.7598H45.7006C45.4949 51.8191 44.6102 52.2198 43.8572 53.5647C43.0985 54.908 42.4405 57.1426 42.4395 60.9553C42.4395 61.206 42.442 61.4652 42.4483 61.7334C42.4617 62.2754 42.9053 62.7059 43.4449 62.7059C43.453 62.7059 43.4616 62.7057 43.4697 62.7055C44.0202 62.6921 44.4558 62.2341 44.4422 61.6841C44.4358 61.4349 44.4329 61.1922 44.4329 60.9553C44.4322 58.218 44.7989 56.4714 45.2081 55.3827V55.6162Z" fill="#1E40AF"/>
<path d="M48.381 51.134C50.1328 51.134 51.553 49.7139 51.553 47.962C51.553 46.2102 50.1328 44.79 48.381 44.79C46.6291 44.79 45.209 46.2102 45.209 47.962C45.209 49.7139 46.6291 51.134 48.381 51.134Z" fill="#1E40AF"/>
</svg>
