<svg width="32" height="32" viewBox="0 0 32 32" fill="none" xmlns="http://www.w3.org/2000/svg">
<rect width="32" height="32" rx="16" fill="#F1F5F9"/>
<path d="M21.34 9.46C21.1027 9.46 20.8707 9.53038 20.6733 9.66224C20.476 9.79409 20.3222 9.98151 20.2313 10.2008C20.1405 10.4201 20.1168 10.6613 20.1631 10.8941C20.2094 11.1269 20.3236 11.3407 20.4915 11.5085C20.6593 11.6764 20.8731 11.7906 21.1059 11.8369C21.3387 11.8832 21.5799 11.8595 21.7992 11.7687C22.0185 11.6778 22.2059 11.524 22.3378 11.3267C22.4696 11.1293 22.54 10.8973 22.54 10.66C22.54 10.3417 22.4136 10.0365 22.1885 9.81147C21.9635 9.58643 21.6583 9.46 21.34 9.46ZM25.94 11.88C25.9206 11.0503 25.7652 10.2294 25.48 9.45C25.2257 8.78313 24.83 8.17928 24.32 7.68C23.8248 7.16743 23.2196 6.77418 22.55 6.53C21.7727 6.23616 20.9508 6.07721 20.12 6.06C19.06 6 18.72 6 16 6C13.28 6 12.94 6 11.88 6.06C11.0492 6.07721 10.2273 6.23616 9.45 6.53C8.78168 6.77665 8.17693 7.16956 7.68 7.68C7.16743 8.17518 6.77418 8.78044 6.53 9.45C6.23616 10.2273 6.07721 11.0492 6.06 11.88C6 12.94 6 13.28 6 16C6 18.72 6 19.06 6.06 20.12C6.07721 20.9508 6.23616 21.7727 6.53 22.55C6.77418 23.2196 7.16743 23.8248 7.68 24.32C8.17693 24.8304 8.78168 25.2234 9.45 25.47C10.2273 25.7638 11.0492 25.9228 11.88 25.94C12.94 26 13.28 26 16 26C18.72 26 19.06 26 20.12 25.94C20.9508 25.9228 21.7727 25.7638 22.55 25.47C23.2196 25.2258 23.8248 24.8326 24.32 24.32C24.8322 23.8226 25.2283 23.2182 25.48 22.55C25.7652 21.7706 25.9206 20.9497 25.94 20.12C25.94 19.06 26 18.72 26 16C26 13.28 26 12.94 25.94 11.88ZM24.14 20C24.1327 20.6348 24.0178 21.2637 23.8 21.86C23.6403 22.2952 23.3839 22.6884 23.05 23.01C22.7256 23.3405 22.3332 23.5964 21.9 23.76C21.3037 23.9778 20.6748 24.0927 20.04 24.1C19.04 24.15 18.67 24.16 16.04 24.16C13.41 24.16 13.04 24.16 12.04 24.1C11.3809 24.1123 10.7246 24.0109 10.1 23.8C9.68578 23.6281 9.31136 23.3728 9 23.05C8.66809 22.7287 8.41484 22.3352 8.26 21.9C8.01586 21.2952 7.88044 20.6519 7.86 20C7.86 19 7.8 18.63 7.8 16C7.8 13.37 7.8 13 7.86 12C7.86448 11.3511 7.98295 10.7079 8.21 10.1C8.38605 9.67791 8.65627 9.30166 9 9C9.30381 8.65617 9.67929 8.3831 10.1 8.2C10.7096 7.98004 11.352 7.86508 12 7.86C13 7.86 13.37 7.8 16 7.8C18.63 7.8 19 7.8 20 7.86C20.6348 7.86728 21.2637 7.98225 21.86 8.2C22.3144 8.36865 22.7223 8.64285 23.05 9C23.3777 9.30718 23.6338 9.68273 23.8 10.1C24.0223 10.7089 24.1373 11.3518 24.14 12C24.19 13 24.2 13.37 24.2 16C24.2 18.63 24.19 19 24.14 20ZM16 10.87C14.9858 10.872 13.995 11.1745 13.1527 11.7394C12.3103 12.3043 11.6544 13.1062 11.2676 14.0438C10.8809 14.9813 10.7807 16.0125 10.9798 17.0069C11.1789 18.0014 11.6682 18.9145 12.3861 19.631C13.1039 20.3474 14.018 20.835 15.0129 21.0321C16.0077 21.2293 17.0387 21.1271 17.9755 20.7385C18.9123 20.35 19.7129 19.6924 20.2761 18.849C20.8394 18.0056 21.14 17.0142 21.14 16C21.1413 15.3251 21.0092 14.6566 20.7512 14.033C20.4933 13.4093 20.1146 12.8428 19.6369 12.3661C19.1592 11.8893 18.5919 11.5117 17.9678 11.2549C17.3436 10.9982 16.6749 10.8674 16 10.87ZM16 19.33C15.3414 19.33 14.6976 19.1347 14.15 18.7688C13.6023 18.4029 13.1755 17.8828 12.9235 17.2743C12.6714 16.6659 12.6055 15.9963 12.734 15.3503C12.8625 14.7044 13.1796 14.111 13.6453 13.6453C14.111 13.1796 14.7044 12.8625 15.3503 12.734C15.9963 12.6055 16.6659 12.6714 17.2743 12.9235C17.8828 13.1755 18.4029 13.6023 18.7688 14.15C19.1347 14.6976 19.33 15.3414 19.33 16C19.33 16.4373 19.2439 16.8703 19.0765 17.2743C18.9092 17.6784 18.6639 18.0454 18.3547 18.3547C18.0454 18.6639 17.6784 18.9092 17.2743 19.0765C16.8703 19.2439 16.4373 19.33 16 19.33Z" fill="#1E40AF"/>
</svg>
