<svg width="32" height="32" viewBox="0 0 32 32" fill="none" xmlns="http://www.w3.org/2000/svg">
<rect width="32" height="32" rx="16" fill="#F1F5F9"/>
<path d="M11.5007 13.0001C11.5005 13.0001 11.5009 13.0001 11.5007 13.0001H7.5001C7.2241 12.9999 7.00029 13.2236 7.0001 13.4995C7.0001 13.4993 7.0001 13.4998 7.0001 13.4995V25.5001C6.99992 25.7761 7.22355 25.9999 7.49949 26.0001C7.49931 26.0001 7.49974 26.0001 7.49949 26.0001H11.5001C11.7761 26.0003 11.9999 25.7767 12.0001 25.5007C12.0001 25.5005 12.0001 25.5009 12.0001 25.5007V13.5001C12.0003 13.2241 11.7767 13.0003 11.5007 13.0001ZM11.0001 25.0001H8.0001V14.0001H11.0001V25.0001ZM22.0001 13.0001C20.9153 13.0002 19.8608 13.3582 19.0001 14.0187V13.5001C19.0003 13.2241 18.7767 13.0003 18.5007 13.0001C18.5005 13.0001 18.5009 13.0001 18.5007 13.0001H14.5001C14.2241 12.9999 14.0003 13.2236 14.0001 13.4995C14.0001 13.4993 14.0001 13.4998 14.0001 13.4995V25.5001C13.9999 25.7761 14.2236 25.9999 14.4996 26.0001C14.4994 26.0001 14.4997 26.0001 14.4996 26.0001H18.5001C18.7761 26.0003 18.9999 25.7767 19.0001 25.5007C19.0001 25.5005 19.0001 25.5009 19.0001 25.5007V20.0001C19.0001 19.1717 19.6717 18.5001 20.5001 18.5001C21.3285 18.5001 22.0001 19.1717 22.0001 20.0001V25.5001C21.9999 25.7761 22.2236 25.9999 22.4996 26.0001C22.4994 26.0001 22.4997 26.0001 22.4996 26.0001H26.5001C26.7761 26.0003 26.9999 25.7767 27.0001 25.5007C27.0001 25.5005 27.0001 25.5009 27.0001 25.5007V18.0001C26.9969 15.2401 24.7602 13.0034 22.0001 13.0001ZM26.0001 25.0001H23.0001V20.0001C23.0001 18.6194 21.8808 17.5001 20.5001 17.5001C19.1194 17.5001 18.0001 18.6194 18.0001 20.0001V25.0001H15.0001V14.0001H18.0001V15.2033C18.0001 15.4157 18.1345 15.6049 18.3351 15.6749C18.5353 15.7471 18.7591 15.6829 18.8908 15.5158C20.2533 13.7889 22.7577 13.4937 24.4845 14.8563C25.4464 15.6154 26.0054 16.7748 26.0001 18.0001V25.0001ZM9.86809 6.00196C9.75047 5.99372 9.63243 5.99311 9.51475 6.00013C8.00548 5.89704 6.69841 7.03699 6.59532 8.54627C6.59117 8.607 6.58909 8.66779 6.58897 8.72864C6.57597 10.2251 7.77855 11.4487 9.27501 11.4617C9.3361 11.4623 9.39714 11.4607 9.45811 11.4571H9.48643C10.9928 11.5625 12.2994 10.4268 12.4048 8.92036C12.5102 7.41395 11.3745 6.10737 9.86809 6.00196ZM9.83354 10.46C9.71806 10.4706 9.60173 10.4697 9.48643 10.4571H9.45811C8.502 10.5306 7.6674 9.81513 7.59392 8.85901C7.52043 7.90296 8.23588 7.0683 9.192 6.99482C9.29954 6.98658 9.40758 6.98835 9.51475 7.00013C10.4701 6.91212 11.316 7.61524 11.4041 8.57062C11.4921 9.52607 10.789 10.372 9.83354 10.46Z" fill="#1E40AF"/>
</svg>
