<svg width="32" height="32" viewBox="0 0 32 32" fill="none" xmlns="http://www.w3.org/2000/svg">
<rect width="32" height="32" rx="16" fill="#F1F5F9"/>
<path d="M21.9902 5.59586C20.9814 5.48911 19.9675 5.43723 18.9531 5.44058C15.5898 5.44058 13.5 7.58212 13.5 11.0304V13.3712H10.6748C10.3988 13.3711 10.1749 13.5947 10.1748 13.8707V17.7218C10.1746 17.9978 10.3983 18.2216 10.6743 18.2218H13.5V25.9406C13.4998 26.2166 13.7234 26.4404 13.9995 26.4406H17.9775C18.2535 26.4408 18.4774 26.2171 18.4775 25.9411V18.2218H21.294C21.5452 18.2218 21.7575 18.0354 21.7901 17.7863L22.2872 13.9357C22.3229 13.662 22.1299 13.4112 21.8562 13.3755C21.8346 13.3727 21.8129 13.3712 21.7911 13.3712H18.4775V11.4123C18.4775 10.4425 18.6729 10.0373 19.8857 10.0373L21.9248 10.0363C22.2008 10.0364 22.4246 9.81284 22.4248 9.53684V6.09195C22.4249 5.84097 22.239 5.62882 21.9902 5.59586ZM21.4248 9.03629L19.8857 9.03726C17.7275 9.03726 17.4775 10.3927 17.4775 11.4123V13.8713C17.4774 14.1472 17.701 14.3711 17.977 14.3712H21.2227L20.8545 17.2218H17.9775C17.7015 17.2217 17.4777 17.4453 17.4775 17.7213V25.4406H14.5V17.7218C14.5002 17.4458 14.2766 17.222 14.0006 17.2218H11.1748V14.3712H14C14.276 14.3714 14.4998 14.1478 14.5 13.8718V11.0304C14.5 8.1564 16.165 6.44058 18.9531 6.44058C19.9619 6.44058 20.873 6.49527 21.4248 6.54312V9.03629Z" fill="#1E40AF"/>
</svg>
