<svg width="480" height="356" viewBox="0 0 480 356" fill="none" xmlns="http://www.w3.org/2000/svg">
<path d="M-15.7111 134.247C17.0931 127.133 48.8235 137.433 71.4459 161.422C74.4031 164.653 76.8852 167.626 79.0217 170.573C81.4962 174.027 83.8121 177.693 85.9693 181.57C91.082 190.758 94.8759 200.85 98.0211 211.562C103.859 232.17 106.886 254.574 107.6 277.583C108.339 298.254 107.133 318.11 102.167 339.243C97.8724 358.309 90.3366 377.8 78.3101 393.387C77.6756 394.231 77.0051 395.109 76.2985 396.021C77.2068 394.975 75.0658 397.377 74.7414 397.687C73.1699 399.426 71.5336 401.049 69.8327 402.555C69.1119 403.244 68.3334 403.928 67.4974 404.608C67.2812 404.815 64.6002 406.842 65.919 405.938C64.0886 407.212 62.2295 408.335 60.3417 409.307C59.4915 409.763 58.6197 410.18 57.7263 410.559C56.9482 410.946 57.7263 410.559 57.8991 410.572C57.4524 410.761 56.9842 410.911 56.4943 411.023C55.6299 411.255 54.7655 411.487 53.901 411.719C53.4112 411.831 52.9574 411.909 52.5396 411.951C52.0858 412.029 50.8973 412.273 51.9777 412.132C50.2059 412.221 48.4776 412.091 46.8573 411.858C45.5828 411.651 46.1659 411.806 46.5116 411.832C46.0076 411.72 45.5035 411.607 44.9995 411.495C44.0203 411.124 43.0556 410.68 42.1054 410.163C41.6735 409.982 41.2559 409.728 40.8529 409.4C41.1551 409.646 41.5869 410.124 40.5507 409.155C39.7878 408.577 39.0608 407.965 38.37 407.319C37.7223 406.75 37.0891 406.108 36.4703 405.393C36.3409 405.161 35.5857 404.101 36.2762 405.044C35.9021 404.57 35.5496 404.135 35.2186 403.739C32.6725 399.759 31.3143 396.425 30.1296 392.212C27.5661 383.439 26.9685 374.925 27.7551 364.732C27.7338 364.396 28.0171 361.632 27.8214 363.066C27.9376 361.886 28.0539 360.706 28.1702 359.526C28.5179 357.175 28.9232 354.828 29.3861 352.486C30.1461 348.197 31.2951 343.715 32.5088 339.349C32.5522 339.129 33.0289 337.605 32.5522 339.129C32.6822 338.768 32.8266 338.333 32.9855 337.825C33.3033 336.809 33.6426 335.831 34.0035 334.893C34.7401 332.645 35.5703 330.367 36.4941 328.06C38.1398 323.875 39.9799 319.742 42.0144 315.66C42.1659 315.337 43.7025 312.444 42.9883 313.839C43.4644 312.909 43.9621 312.018 44.4814 311.166C45.6789 308.953 46.9195 306.818 48.2032 304.76C50.5976 300.928 53.1143 297.218 55.7534 293.627C57.0945 291.871 58.4716 290.08 59.8848 288.255C60.1731 287.98 60.4398 287.666 60.685 287.313C60.9012 287.106 62.0693 285.634 61.3771 286.473C60.685 287.313 61.7015 286.163 61.6368 286.047C62.2134 285.496 62.7324 284.941 63.1938 284.381C66.2217 280.895 69.3575 277.602 72.6011 274.503C75.7726 271.473 79.0304 268.598 82.3745 265.878C83.1385 265.267 83.9024 264.656 84.6663 264.045C84.9907 263.735 87.0663 262.108 85.8123 263.128C87.6716 261.708 89.538 260.4 91.4116 259.204C94.8562 256.863 98.3726 254.75 101.961 252.866C103.733 251.885 105.492 250.977 107.235 250.143C108.129 249.764 108.986 249.42 109.807 249.11C110.326 248.852 110.809 248.628 111.255 248.439C112.595 247.871 111.083 248.426 111.925 248.155C128.2 241.691 143.412 240.162 159.054 241.785C190.682 245.057 218.474 262.86 240.317 288.128C263.888 315.309 280.579 352.447 286.289 394.553C289.145 415.16 288.715 438.195 285.368 460.453C281.891 483.369 275.778 506.31 268.478 528.605C252.642 576.333 232.012 622.585 207.171 665.735C201.112 676.274 194.794 686.644 188.217 696.847C192.566 697.917 196.915 698.988 201.264 700.058C204.13 667.512 206.996 634.966 209.861 602.42C204.819 603.675 199.755 604.891 194.669 606.068C196.693 639.762 193.616 674.41 185.484 708.899C183.836 715.461 189.448 721.678 194.767 717.844C217.143 701.81 237.578 682.287 256.135 659.391C259.272 655.504 258.629 648.992 255.887 646.446C252.714 643.421 248.305 645.318 245.168 649.205C228.903 669.376 210.35 686.924 190.784 701.163C193.878 704.145 196.973 707.127 200.067 710.108C208.676 674.094 211.905 637.341 209.861 602.42C209.606 597.498 206.52 594.034 202.284 595.052C197.767 596.161 195.149 600.978 194.669 606.068C191.803 638.614 188.938 671.16 186.072 703.706C185.788 707.362 188.443 710.348 190.949 710.982C193.735 711.526 196.977 710.21 199.119 706.917C227.829 662.387 252.221 613.966 271.278 563.694C289.447 515.697 304.465 464.119 303.276 414.664C302.108 366.436 287 322.62 263.651 288.993C241.964 258.054 212.838 234.578 178.405 225.969C161.685 221.813 143.882 221.365 125.859 225.58C108.96 229.434 92.5753 237.784 77.2246 249.778C48.3178 272.23 23.5689 308.7 15.3027 348.306C10.6815 370.356 11.1151 393.456 19.4613 411.133C23.7532 420.037 30.5745 427.236 39.2149 429.669C47.6176 431.973 56.8664 430.441 65.7725 425.316C83.3686 415.274 96.6736 395.438 105.68 374.72C115.248 352.931 119.957 329.55 121.943 306.632C123.908 283.379 122.567 260.434 119.625 238.483C116.298 213.16 109.946 188.946 98.7496 168.826C79.7873 134.748 46.9636 114.449 11.0553 113.306C2.15378 113.082 -6.79188 113.969 -15.8465 115.85C-19.9093 116.882 -23.3707 121.97 -23.2885 126.88C-23.2497 132.008 -19.7305 135.059 -15.7111 134.247Z" fill="#1E40AF"/>
</svg>
