<svg width="140" height="140" viewBox="0 0 140 140" fill="none" xmlns="http://www.w3.org/2000/svg">
<g clip-path="url(#clip0_120_1072)">
<path d="M34.9382 34.8833C15.6563 34.8833 0 50.5396 0 69.8215H69.9313C69.9313 50.5396 54.2751 34.8833 34.9382 34.8833Z" fill="#1E40AF"/>
<path d="M104.925 105.089C124.262 105.089 139.918 89.433 139.918 70.0962H69.9316C69.9316 89.433 85.5879 105.089 104.925 105.089Z" fill="#1E40AF"/>
<path d="M34.8281 104.979C34.8281 124.261 50.4844 139.973 69.8213 139.973V69.9862C50.4844 69.9862 34.8281 85.6425 34.8281 104.979Z" fill="#1E40AF"/>
<path d="M105.034 34.9931C105.034 15.6563 89.3776 0 70.0957 0V69.9862C89.3776 69.9862 105.034 54.33 105.034 34.9931Z" fill="#1E40AF"/>
</g>
<defs>
<clipPath id="clip0_120_1072">
<rect width="139.918" height="139.973" fill="white"/>
</clipPath>
</defs>
</svg>
